<svg width="100%"
								height="100%" viewBox="0 0 744 658" fill="none" xmlns="http://www.w3.org/2000/svg">
<path d="M27.56 542.537C25.76 543.577 23.74 544.097 21.58 544.097C18.65 544.097 15.47 543.147 12.21 541.267L9.77 539.857C4.11 536.587 1 532.097 1 527.197C1 522.297 4.12 517.807 9.77 514.537L177.65 417.617C178.73 416.997 180.11 417.367 180.73 418.447C181.35 419.527 180.98 420.907 179.9 421.527L12.02 518.447C7.82 520.877 5.5 523.977 5.5 527.197C5.5 530.417 7.81 533.517 12.02 535.947L14.46 537.357C18.66 539.787 22.51 540.237 25.3 538.627C28.08 537.017 29.62 533.457 29.62 528.607V518.307C29.62 517.057 30.63 516.047 31.88 516.047C33.13 516.047 34.14 517.057 34.14 518.307V528.607C34.14 535.137 31.81 540.087 27.57 542.537H27.56Z" fill="#C2C8CF" stroke="black" stroke-linecap="round" stroke-linejoin="round"/>
<path d="M467.24 375.566C466.46 375.566 465.7 375.166 465.28 374.436C464.66 373.356 465.03 371.976 466.11 371.356L481.53 362.456C490.23 357.426 495.03 350.856 495.03 343.936C495.03 337.016 490.24 330.446 481.53 325.416L456.49 310.956C431.58 296.576 400.64 296.576 375.74 310.956L293.19 358.616C292.11 359.236 290.73 358.866 290.11 357.786C289.49 356.706 289.86 355.326 290.94 354.706L373.49 307.046C399.79 291.866 432.46 291.866 458.76 307.046L483.8 321.506C493.96 327.376 499.55 335.336 499.55 343.936C499.55 352.536 493.96 360.496 483.8 366.366L468.38 375.266C468.02 375.466 467.64 375.566 467.25 375.566H467.24Z" fill="#C2C8CF" stroke="black" stroke-linecap="round" stroke-linejoin="round"/>
<path d="M310.26 653.246C318.7 658.116 332.51 658.116 340.95 653.246L451.72 589.296C460.16 584.426 460.16 576.456 451.72 571.576C443.28 566.706 429.47 566.706 421.03 571.576L310.26 635.526C306.04 637.966 303.93 641.176 303.93 644.386C303.93 647.596 306.04 650.806 310.26 653.246Z" stroke="black" stroke-linecap="round" stroke-linejoin="round"/>
<path d="M478.55 235.777C483.117 235.777 486.82 233.731 486.82 231.207C486.82 228.683 483.117 226.637 478.55 226.637C473.982 226.637 470.28 228.683 470.28 231.207C470.28 233.731 473.982 235.777 478.55 235.777Z" stroke="black" stroke-linecap="round" stroke-linejoin="round"/>
<path d="M677.03 350.367C681.597 350.367 685.3 348.321 685.3 345.797C685.3 343.273 681.597 341.227 677.03 341.227C672.463 341.227 668.76 343.273 668.76 345.797C668.76 348.321 672.463 350.367 677.03 350.367Z" stroke="black" stroke-linecap="round" stroke-linejoin="round"/>
<path d="M561.11 345.997C572.056 345.997 580.93 341.094 580.93 335.047C580.93 328.999 572.056 324.097 561.11 324.097C550.164 324.097 541.29 328.999 541.29 335.047C541.29 341.094 550.164 345.997 561.11 345.997Z" fill="black" stroke="black" stroke-linecap="round" stroke-linejoin="round"/>
<path d="M631.23 389.667C642.176 389.667 651.05 384.764 651.05 378.717C651.05 372.669 642.176 367.767 631.23 367.767C620.284 367.767 611.41 372.669 611.41 378.717C611.41 384.764 620.284 389.667 631.23 389.667Z" fill="black" stroke="black" stroke-linecap="round" stroke-linejoin="round"/>
<path d="M559.17 393.266C563.737 393.266 567.44 391.22 567.44 388.696C567.44 386.172 563.737 384.126 559.17 384.126C554.603 384.126 550.9 386.172 550.9 388.696C550.9 391.22 554.603 393.266 559.17 393.266Z" stroke="black" stroke-linecap="round" stroke-linejoin="round"/>
<path d="M360.69 278.676C365.257 278.676 368.96 276.63 368.96 274.106C368.96 271.582 365.257 269.536 360.69 269.536C356.123 269.536 352.42 271.582 352.42 274.106C352.42 276.63 356.123 278.676 360.69 278.676Z" stroke="black" stroke-linecap="round" stroke-linejoin="round"/>
<path d="M532.78 329.646C543.726 329.646 552.6 324.744 552.6 318.696C552.6 312.649 543.726 307.746 532.78 307.746C521.834 307.746 512.96 312.649 512.96 318.696C512.96 324.744 521.834 329.646 532.78 329.646Z" fill="black" stroke="black" stroke-linecap="round" stroke-linejoin="round"/>
<path d="M504.45 313.287C515.396 313.287 524.27 308.384 524.27 302.337C524.27 296.289 515.396 291.387 504.45 291.387C493.504 291.387 484.63 296.289 484.63 302.337C484.63 308.384 493.504 313.287 504.45 313.287Z" fill="black" stroke="black" stroke-linecap="round" stroke-linejoin="round"/>
<path d="M476.13 296.936C487.076 296.936 495.95 292.034 495.95 285.986C495.95 279.939 487.076 275.036 476.13 275.036C465.184 275.036 456.31 279.939 456.31 285.986C456.31 292.034 465.184 296.936 476.13 296.936Z" fill="black" stroke="black" stroke-linecap="round" stroke-linejoin="round"/>
<path d="M447.8 280.577C458.746 280.577 467.62 275.674 467.62 269.627C467.62 263.579 458.746 258.677 447.8 258.677C436.854 258.677 427.98 263.579 427.98 269.627C427.98 275.674 436.854 280.577 447.8 280.577Z" fill="black" stroke="black" stroke-linecap="round" stroke-linejoin="round"/>
<path d="M419.47 264.226C430.416 264.226 439.29 259.324 439.29 253.276C439.29 247.229 430.416 242.326 419.47 242.326C408.524 242.326 399.65 247.229 399.65 253.276C399.65 259.324 408.524 264.226 419.47 264.226Z" fill="black" stroke="black" stroke-linecap="round" stroke-linejoin="round"/>
<path d="M680.64 128.516C680.64 118.876 674.1 107.556 665.75 102.736L493.44 3.24634C488.86 0.606338 484.18 0.276339 480.59 2.34634C477 4.41634 474.94 8.63634 474.94 13.9263V231.206C474.94 232.306 476.56 233.196 478.55 233.196C480.54 233.196 482.16 232.306 482.16 231.206V13.9263C482.16 11.2963 482.9 9.34634 484.2 8.60634C485.5 7.85634 487.55 8.18634 489.83 9.50634L662.15 108.996C668.26 112.526 673.43 121.466 673.43 128.526V345.806C673.43 346.906 675.05 347.796 677.04 347.796C679.03 347.796 680.65 346.906 680.65 345.806V128.516H680.64Z" fill="white" stroke="black" stroke-linecap="round" stroke-linejoin="round"/>
<path d="M429.46 191.917L493.98 7.72656" stroke="black" stroke-linecap="round" stroke-linejoin="round"/>
<path d="M429.46 225.466C440.406 225.466 449.28 216.592 449.28 205.646C449.28 194.7 440.406 185.826 429.46 185.826C418.514 185.826 409.64 194.7 409.64 205.646C409.64 216.592 418.514 225.466 429.46 225.466Z" fill="#0E4622" stroke="black" stroke-linecap="round" stroke-linejoin="round"/>
<path d="M435.77 194.746C428.18 197.026 422.13 204.296 420.19 210.356C418.39 216.006 414.44 215.456 413 212.156C409.94 205.126 412.25 196.606 418.61 191.666C423.94 187.526 430.89 186.926 436.65 189.476C440.55 191.196 440 193.476 435.77 194.746Z" fill="black"/>
<path d="M418.856 198.299C420.405 196.1 420.914 193.791 419.993 193.143C419.072 192.494 417.069 193.75 415.521 195.949C413.972 198.148 413.463 200.457 414.384 201.105C415.305 201.754 417.307 200.498 418.856 198.299Z" fill="white"/>
<path d="M376.12 50.627L429.46 191.917" stroke="black" stroke-linecap="round" stroke-linejoin="round"/>
<path d="M457.79 208.277L522.31 24.0869" stroke="black" stroke-linecap="round" stroke-linejoin="round"/>
<path d="M457.79 241.827C468.736 241.827 477.61 232.953 477.61 222.007C477.61 211.06 468.736 202.187 457.79 202.187C446.844 202.187 437.97 211.06 437.97 222.007C437.97 232.953 446.844 241.827 457.79 241.827Z" fill="#0E4622" stroke="black" stroke-linecap="round" stroke-linejoin="round"/>
<path d="M464.1 211.107C456.51 213.387 450.46 220.657 448.52 226.717C446.72 232.367 442.77 231.817 441.33 228.517C438.27 221.487 440.58 212.967 446.94 208.027C452.27 203.887 459.22 203.287 464.98 205.837C468.88 207.557 468.33 209.837 464.1 211.107Z" fill="black"/>
<path d="M447.185 214.659C448.734 212.46 449.243 210.152 448.322 209.503C447.401 208.854 445.399 210.111 443.85 212.31C442.301 214.508 441.792 216.817 442.713 217.466C443.634 218.115 445.637 216.858 447.185 214.659Z" fill="white"/>
<path d="M404.45 66.9766L457.79 208.277" stroke="black" stroke-linecap="round" stroke-linejoin="round"/>
<path d="M486.12 224.637L550.64 40.4365" stroke="black" stroke-linecap="round" stroke-linejoin="round"/>
<path d="M486.12 258.176C497.066 258.176 505.94 249.302 505.94 238.356C505.94 227.41 497.066 218.536 486.12 218.536C475.174 218.536 466.3 227.41 466.3 238.356C466.3 249.302 475.174 258.176 486.12 258.176Z" fill="#0E4622" stroke="black" stroke-linecap="round" stroke-linejoin="round"/>
<path d="M492.43 227.456C484.84 229.736 478.79 237.006 476.85 243.066C475.05 248.716 471.1 248.166 469.66 244.866C466.6 237.836 468.91 229.316 475.27 224.376C480.6 220.236 487.55 219.636 493.31 222.186C497.21 223.906 496.66 226.186 492.43 227.456Z" fill="black"/>
<path d="M475.519 231.017C477.068 228.819 477.576 226.51 476.655 225.861C475.734 225.212 473.732 226.469 472.183 228.668C470.634 230.867 470.125 233.175 471.046 233.824C471.968 234.473 473.97 233.216 475.519 231.017Z" fill="white"/>
<path d="M432.78 83.3369L486.12 224.637" stroke="black" stroke-linecap="round" stroke-linejoin="round"/>
<path d="M514.44 240.987L578.96 56.7969" stroke="black" stroke-linecap="round" stroke-linejoin="round"/>
<path d="M514.44 274.536C525.386 274.536 534.26 265.663 534.26 254.716C534.26 243.77 525.386 234.896 514.44 234.896C503.494 234.896 494.62 243.77 494.62 254.716C494.62 265.663 503.494 274.536 514.44 274.536Z" fill="#0E4622" stroke="black" stroke-linecap="round" stroke-linejoin="round"/>
<path d="M520.75 243.817C513.16 246.097 507.11 253.367 505.17 259.427C503.37 265.077 499.42 264.527 497.98 261.227C494.92 254.197 497.23 245.677 503.59 240.737C508.92 236.597 515.87 235.997 521.63 238.547C525.53 240.267 524.98 242.547 520.75 243.817Z" fill="black"/>
<path d="M503.84 247.372C505.389 245.173 505.897 242.865 504.976 242.216C504.055 241.567 502.053 242.824 500.504 245.022C498.955 247.221 498.446 249.53 499.368 250.179C500.289 250.827 502.291 249.571 503.84 247.372Z" fill="white"/>
<path d="M461.11 99.6973L514.44 240.987" stroke="black" stroke-linecap="round" stroke-linejoin="round"/>
<path d="M542.77 257.346L607.29 73.1465" stroke="black" stroke-linecap="round" stroke-linejoin="round"/>
<path d="M542.77 290.886C553.716 290.886 562.59 282.012 562.59 271.066C562.59 260.12 553.716 251.246 542.77 251.246C531.824 251.246 522.95 260.12 522.95 271.066C522.95 282.012 531.824 290.886 542.77 290.886Z" fill="#0E4622" stroke="black" stroke-linecap="round" stroke-linejoin="round"/>
<path d="M549.08 260.166C541.49 262.446 535.44 269.716 533.5 275.776C531.7 281.426 527.75 280.876 526.31 277.576C523.25 270.546 525.56 262.026 531.92 257.086C537.25 252.946 544.2 252.346 549.96 254.896C553.86 256.616 553.31 258.896 549.08 260.166Z" fill="black"/>
<path d="M532.169 263.731C533.718 261.532 534.227 259.224 533.306 258.575C532.385 257.926 530.382 259.183 528.833 261.382C527.285 263.581 526.776 265.889 527.697 266.538C528.618 267.187 530.62 265.93 532.169 263.731Z" fill="white"/>
<path d="M489.43 116.047L542.77 257.347" stroke="black" stroke-linecap="round" stroke-linejoin="round"/>
<path d="M571.1 273.697L635.62 89.5068" stroke="black" stroke-linecap="round" stroke-linejoin="round"/>
<path d="M571.1 307.246C582.046 307.246 590.92 298.373 590.92 287.426C590.92 276.48 582.046 267.606 571.1 267.606C560.154 267.606 551.28 276.48 551.28 287.426C551.28 298.373 560.154 307.246 571.1 307.246Z" fill="#0E4622" stroke="black" stroke-linecap="round" stroke-linejoin="round"/>
<path d="M577.41 276.527C569.82 278.807 563.77 286.077 561.83 292.137C560.03 297.787 556.08 297.237 554.64 293.937C551.58 286.907 553.89 278.387 560.25 273.447C565.58 269.307 572.53 268.707 578.29 271.257C582.19 272.977 581.64 275.257 577.41 276.527Z" fill="black"/>
<path d="M560.5 280.076C562.049 277.877 562.558 275.569 561.637 274.92C560.715 274.271 558.713 275.528 557.164 277.727C555.615 279.925 555.107 282.234 556.028 282.883C556.949 283.532 558.951 282.275 560.5 280.076Z" fill="white"/>
<path d="M517.76 132.407L571.1 273.697" stroke="black" stroke-linecap="round" stroke-linejoin="round"/>
<path d="M652.74 258.186L663.95 105.856" stroke="black" stroke-linecap="round" stroke-linejoin="round"/>
<path d="M663.95 294.346C674.896 294.346 683.77 285.472 683.77 274.526C683.77 263.58 674.896 254.706 663.95 254.706C653.004 254.706 644.13 263.58 644.13 274.526C644.13 285.472 653.004 294.346 663.95 294.346Z" fill="#0E4622" stroke="black" stroke-linecap="round" stroke-linejoin="round"/>
<path d="M670.26 263.636C662.67 265.916 656.62 273.186 654.68 279.246C652.88 284.896 648.93 284.346 647.49 281.046C644.43 274.016 646.74 265.496 653.1 260.556C658.43 256.416 665.38 255.816 671.14 258.366C675.04 260.086 674.49 262.366 670.26 263.636Z" fill="black"/>
<path d="M653.351 267.183C654.9 264.985 655.408 262.676 654.487 262.027C653.566 261.378 651.564 262.635 650.015 264.834C648.466 267.033 647.957 269.341 648.878 269.99C649.8 270.639 651.802 269.382 653.351 267.183Z" fill="white"/>
<path d="M546.09 148.757L652.74 258.187" stroke="black" stroke-linecap="round" stroke-linejoin="round"/>
<path d="M562.78 171.417C562.78 161.777 556.24 150.457 547.89 145.637L375.58 46.1467C371 43.5067 366.32 43.1767 362.73 45.2467C359.14 47.3167 357.08 51.5367 357.08 56.8267V274.107C357.08 275.207 358.7 276.097 360.69 276.097C362.68 276.097 364.3 275.207 364.3 274.107V56.8267C364.3 54.1967 365.04 52.2467 366.34 51.5067C367.64 50.7567 369.69 51.0867 371.97 52.4067L544.29 151.897C550.4 155.427 555.57 164.367 555.57 171.427V388.707C555.57 389.807 557.19 390.697 559.18 390.697C561.17 390.697 562.79 389.807 562.79 388.707V171.417H562.78Z" fill="white" stroke="black" stroke-linecap="round" stroke-linejoin="round"/>
<path d="M92.73 546.567C96.56 558.537 108.6 563.187 119.48 556.897L390.07 400.677C400.95 394.397 406.72 379.467 402.89 367.497L334.3 153.387C330.47 141.417 318.43 136.767 307.55 143.057L36.95 299.277C26.07 305.557 20.3 320.487 24.13 332.457L92.72 546.567H92.73Z" fill="#C2C8CF" stroke="black" stroke-linecap="round" stroke-linejoin="round"/>
<path d="M98.1299 545.707C101.96 557.677 114 562.327 124.88 556.037L395.47 399.817C406.35 393.537 412.12 378.607 408.29 366.637L339.7 152.527C335.87 140.557 323.83 135.907 312.95 142.197L42.3499 298.427C31.4699 304.707 25.6999 319.637 29.5299 331.607L98.1199 545.717L98.1299 545.707Z" fill="white" stroke="black" stroke-linecap="round" stroke-linejoin="round"/>
<path d="M105.15 541.907C107.6 549.547 115.29 552.517 122.24 548.507L393.23 392.047C400.18 388.037 403.86 378.497 401.41 370.857L332.75 156.547C330.3 148.907 322.61 145.937 315.66 149.947L44.67 306.407C37.72 310.417 34.0399 319.957 36.4899 327.597L105.15 541.907Z" fill="black"/>
<path d="M263.33 338.347C265.78 345.977 273.45 348.947 280.4 344.937L340.43 310.277C347.37 306.267 351.05 296.747 348.6 289.117L339.5 260.707C337.05 253.077 329.38 250.107 322.43 254.117L262.4 288.777C255.46 292.787 251.78 302.307 254.23 309.937L263.33 338.347Z" fill="#2D3033"/>
<path d="M294.57 323.187C298.02 325.437 302.52 326.057 304.63 319.957L305.65 317.017C307.6 311.397 310.37 309.897 313.53 312.767L314.94 314.047C318.74 317.477 323.25 314.407 323.04 308.527L322.04 281.737C321.75 274.047 328.96 269.797 331.97 275.877L338.36 288.797C339.7 291.497 343.58 292.547 345.44 289.367" stroke="#C2C8CF" stroke-linecap="round" stroke-linejoin="round"/>
<path d="M330.57 261.968C330.15 260.638 328.81 260.128 327.61 260.828L317.18 266.848C315.97 267.548 315.34 269.198 315.76 270.528C316.18 271.858 317.52 272.368 318.72 271.668L329.15 265.648C330.36 264.948 330.99 263.298 330.57 261.968Z" fill="black"/>
<path d="M298.13 446.947L293.04 431.077C290.59 423.447 294.27 413.917 301.21 409.917L361.24 375.257C368.18 371.247 375.86 374.217 378.31 381.847L383.4 397.717L298.13 446.947Z" fill="#2D3033"/>
<path d="M282.74 398.918C285.19 406.548 292.86 409.518 299.81 405.508L359.84 370.848C366.78 366.838 370.46 357.318 368.01 349.688L358.91 321.278C356.46 313.648 348.79 310.678 341.84 314.688L281.81 349.348C274.87 353.358 271.19 362.878 273.64 370.508L282.74 398.918Z" fill="#2D3033"/>
<path d="M260.09 306.007L263.26 304.177L263.63 305.327L260.46 307.157L260.09 306.007Z" fill="#C2C8CF"/>
<path d="M264.2 303.086C263.1 299.646 263.67 296.826 265.58 295.726C267.49 294.616 269.38 295.996 270.49 299.456C271.57 302.826 271.14 305.646 269.12 306.806C267.12 307.956 265.28 306.456 264.2 303.086ZM269.46 300.046C268.6 297.356 267.34 296.026 265.94 296.836C264.51 297.666 264.35 299.756 265.23 302.486C266.09 305.176 267.34 306.496 268.77 305.666C270.21 304.836 270.34 302.776 269.46 300.046Z" fill="#C2C8CF"/>
<path d="M272.57 302.726L273.72 302.066L274.21 303.596L273.06 304.256L272.57 302.726Z" fill="#C2C8CF"/>
<path d="M273.36 294.937L271.59 295.957L271.31 295.087C272.29 294.487 272.99 293.517 272.64 291.857L273.41 291.417L276.83 302.077L275.84 302.647L273.37 294.927L273.36 294.937Z" fill="#C2C8CF"/>
<path d="M279.69 294.577C280.5 293.157 280.97 292.237 280.56 290.957C280.14 289.657 279.18 289.167 278.1 289.787C277.53 290.117 277.19 290.607 277.02 291.197C276.84 291.827 276.89 292.497 277.24 293.587L276.2 294.187C275.76 292.827 275.76 291.797 276.05 290.867C276.36 289.897 277.01 289.137 277.84 288.667C279.48 287.717 280.98 288.467 281.59 290.357C282.24 292.397 281.4 293.697 280.4 295.387C279.73 296.527 278.88 298.037 279.04 299.347L283.46 296.797L283.86 298.037L278.25 301.277C277.44 298.387 278.63 296.477 279.71 294.587L279.69 294.577Z" fill="#C2C8CF"/>
<path d="M286.38 290.717C287.19 289.297 287.66 288.377 287.25 287.097C286.83 285.797 285.87 285.307 284.79 285.927C284.22 286.257 283.88 286.747 283.71 287.337C283.54 287.967 283.58 288.637 283.93 289.727L282.89 290.327C282.45 288.967 282.45 287.937 282.74 287.007C283.05 286.037 283.7 285.277 284.53 284.807C286.17 283.857 287.67 284.607 288.28 286.497C288.93 288.537 288.09 289.837 287.09 291.527C286.42 292.667 285.57 294.177 285.73 295.487L290.15 292.937L290.55 294.177L284.94 297.417C284.13 294.527 285.32 292.617 286.4 290.727L286.38 290.717Z" fill="#C2C8CF"/>
<path d="M349.97 322.537C349.55 321.207 348.21 320.697 347.01 321.397L336.58 327.417C335.37 328.117 334.74 329.767 335.16 331.097C335.58 332.427 336.92 332.937 338.12 332.237L348.55 326.217C349.76 325.517 350.39 323.867 349.97 322.537Z" fill="black"/>
<path d="M279.46 365.777L281.75 364.457L280.76 361.367L281.54 360.917L282.53 364.007L284.82 362.687L285.14 363.677L282.85 364.997L283.84 368.087L283.06 368.537L282.07 365.447L279.78 366.767L279.46 365.777Z" fill="#C2C8CF"/>
<path d="M286.16 362.177C285.06 358.737 285.63 355.917 287.54 354.817C289.45 353.707 291.34 355.087 292.45 358.547C293.53 361.917 293.1 364.737 291.08 365.897C289.08 367.047 287.24 365.547 286.16 362.177ZM291.42 359.137C290.56 356.447 289.3 355.117 287.9 355.927C286.47 356.757 286.31 358.837 287.19 361.577C288.05 364.267 289.3 365.587 290.73 364.757C292.17 363.927 292.3 361.867 291.42 359.137Z" fill="#C2C8CF"/>
<path d="M294.53 361.827L295.68 361.167L296.17 362.697L295.02 363.357L294.53 361.827Z" fill="#C2C8CF"/>
<path d="M298.63 355.427C299.44 354.007 299.91 353.087 299.5 351.807C299.08 350.507 298.12 350.017 297.04 350.637C296.47 350.967 296.13 351.457 295.96 352.047C295.79 352.677 295.83 353.347 296.18 354.437L295.14 355.037C294.7 353.677 294.7 352.647 294.99 351.717C295.3 350.747 295.95 349.987 296.78 349.507C298.42 348.557 299.92 349.307 300.53 351.197C301.18 353.237 300.34 354.537 299.34 356.227C298.67 357.367 297.82 358.877 297.98 360.187L302.4 357.637L302.8 358.877L297.19 362.117C296.38 359.227 297.57 357.317 298.65 355.427H298.63Z" fill="#C2C8CF"/>
<path d="M306.43 353.688L302.61 355.888L302.24 354.728L304.02 345.468L304.8 345.018L307.07 352.088L308.41 351.318L308.74 352.358L307.4 353.128L308.23 355.728L307.26 356.288L306.43 353.688ZM303.24 354.298L306.1 352.648L304.51 347.678H304.49L303.23 354.248V354.298H303.24Z" fill="#C2C8CF"/>
<path d="M309.24 351.517L310.22 350.947C310.77 352.187 311.75 352.617 312.89 351.947C314.05 351.277 314.47 349.827 313.97 348.277C313.46 346.687 312.32 346.237 311.26 346.857C310.39 347.367 309.93 348.177 309.79 349.007L308.83 349.557L307.9 343.347L312.21 340.857L312.58 342.017L308.96 344.107L309.45 347.597H309.47C309.75 346.747 310.26 346.067 311.04 345.617C312.48 344.787 314.23 345.377 314.98 347.727C315.7 349.987 314.93 352.117 313.25 353.087C311.57 354.057 309.92 353.437 309.22 351.507L309.24 351.517Z" fill="#C2C8CF"/>
<path d="M316.32 379.267L316.02 366.937C315.81 358.137 321.72 353.857 325.34 361.007L329.71 369.637C332.16 374.477 335.85 372.917 337.67 366.267L338.2 364.327C339.79 358.507 342.24 357.187 345.67 360.307L347.89 362.327C352.83 366.837 357.16 364.067 357.69 356.077L358.49 344.167C358.82 339.257 359.79 336.417 362.04 335.117" stroke="#C2C8CF" stroke-linecap="round" stroke-linejoin="round"/>
<path d="M66.1599 324.596L67.7599 323.666L73.0999 340.336L71.4999 341.266L66.1599 324.596Z" fill="#C2C8CF"/>
<path d="M73.41 327.767L73.45 327.747C73.74 326.227 74.44 324.967 75.78 324.197C77.71 323.087 79.32 323.787 80.12 326.277L82.83 334.737L81.39 335.567L78.73 327.267C78.23 325.707 77.16 325.267 75.86 326.027C74.4 326.867 73.76 328.837 74.4 330.827L76.78 338.237L75.34 339.067L71.48 327.007L72.92 326.177L73.43 327.767H73.41Z" fill="#C2C8CF"/>
<path d="M79.74 322.226L81.29 321.326L85.65 327.876C86.26 328.796 87.07 330.066 87.07 330.066L87.11 330.046C87.11 330.046 86.97 328.356 86.9 327.156L86.39 318.386L87.89 317.526L88.44 331.496L86.84 332.426L79.75 322.236L79.74 322.226Z" fill="#C2C8CF"/>
<path d="M90.1399 323.377C89.0199 319.877 89.8499 316.027 92.4799 314.517C95.2399 312.917 97.6199 314.867 98.8999 318.857L91.7699 322.977C92.6599 325.367 94.2799 326.647 96.1299 325.567C97.4699 324.797 98.0899 323.437 97.8899 321.627L99.2999 320.817C99.6999 323.657 98.7299 325.957 96.6399 327.157C93.8199 328.787 91.2699 326.887 90.1499 323.387L90.1399 323.377ZM91.3399 321.527L96.8799 318.327C96.0199 315.977 94.6099 315.057 92.9499 316.007C91.2399 316.997 90.8499 319.207 91.3399 321.527Z" fill="#C2C8CF"/>
<path d="M100.24 320.026L101.72 319.176C102.59 321.156 103.84 321.126 105.22 320.336C106.74 319.456 107.08 318.236 106.72 317.116C106.29 315.766 105.46 315.826 103.62 316.336C101.64 316.896 99.87 317.346 99.02 314.706C98.38 312.696 99.14 310.716 101.28 309.476C103.56 308.156 105.14 308.936 106.11 311.166L104.63 312.016C103.98 310.516 103.1 310.196 101.72 310.986C100.4 311.746 100.11 312.826 100.42 313.786C100.84 315.096 101.81 314.836 103.53 314.336C105.54 313.756 107.26 313.396 108.15 316.166C108.93 318.586 107.81 320.706 105.69 321.926C103.16 323.386 101.25 322.636 100.24 320.016V320.026Z" fill="#C2C8CF"/>
<path d="M105.98 307.077L107.32 306.307L106.1 302.507L107.54 301.677L108.76 305.477L110.54 304.447L111.03 305.987L109.25 307.017L111.76 314.847C112.03 315.687 112.46 315.767 113.05 315.427C113.34 315.267 113.63 314.987 113.76 314.817L113.81 314.787L114.33 316.417C114.02 316.707 113.65 317.007 113.22 317.247C112.04 317.927 110.99 317.787 110.44 316.087L107.8 307.837L106.46 308.607L105.97 307.067L105.98 307.077Z" fill="#C2C8CF"/>
<path d="M110.56 298.956L112 298.126L112.75 300.456L111.31 301.286L110.56 298.956ZM112.04 303.576L113.48 302.746L117.34 314.806L115.9 315.636L112.04 303.576Z" fill="#C2C8CF"/>
<path d="M117.39 302.366L117.43 302.346C117.72 300.826 118.42 299.566 119.76 298.796C121.69 297.686 123.3 298.376 124.1 300.876L126.81 309.336L125.37 310.166L122.71 301.866C122.21 300.306 121.14 299.866 119.84 300.626C118.38 301.466 117.74 303.436 118.38 305.426L120.76 312.846L119.32 313.676L115.46 301.616L116.9 300.786L117.41 302.376L117.39 302.366Z" fill="#C2C8CF"/>
<path d="M128.7 309.046L130.04 308.276C130.61 309.526 131.74 309.476 133.16 308.656C134.85 307.676 135.48 306.126 134.81 304.036L134.26 302.336L134.22 302.356C133.91 303.886 133.41 305.036 132.09 305.796C129.7 307.176 127.26 305.626 126.15 302.156C124.95 298.406 126.05 295.166 128.19 293.936C129.53 293.166 130.6 293.346 131.59 294.126L131.63 294.106L131.14 292.566L132.58 291.736L136.23 303.136C137.25 306.306 136.12 308.726 133.68 310.136C131.29 311.516 129.53 311.036 128.71 309.056L128.7 309.046ZM133.02 298.066C132.18 295.436 130.8 294.296 128.84 295.426C127.11 296.426 126.8 298.706 127.64 301.316C128.48 303.946 129.95 305.156 131.66 304.166C133.78 302.936 133.84 300.616 133.02 298.076V298.066Z" fill="#C2C8CF"/>
<path d="M469.06 372.207C468.07 370.487 466.46 369.557 465.46 370.127L460.03 373.257C459.04 373.827 459.04 375.687 460.03 377.407C461.02 379.127 462.63 380.057 463.63 379.487L469.06 376.357C470.05 375.787 470.05 373.927 469.06 372.207Z" fill="black" stroke="black" stroke-linecap="round" stroke-linejoin="round"/>
<path d="M457.06 369.847L439.46 380.007C437.24 381.287 437.24 385.447 439.46 389.297C441.68 393.147 445.28 395.227 447.51 393.947L465.11 383.787L457.06 369.847Z" fill="#777E87" stroke="black" stroke-linecap="round" stroke-linejoin="round"/>
<path d="M465.11 374.496C462.89 370.646 459.29 368.566 457.06 369.846L439.46 380.006C437.24 381.286 437.24 385.446 439.46 389.296C441.68 393.146 445.28 395.226 447.51 393.946L465.11 383.786C467.33 382.506 467.33 378.346 465.11 374.496Z" fill="#C2C8CF" stroke="black" stroke-linecap="round" stroke-linejoin="round"/>
<path d="M317.99 426.836L354.42 434.966L401.97 407.516C409.85 402.966 422.74 402.966 430.62 407.516L572.86 489.636L501.48 530.846V556.116C496.21 556.146 490.93 555.016 486.93 552.716L323.9 458.596C319.96 456.326 317.99 453.326 317.99 450.326V426.836Z" fill="#C2C8CF"/>
<path d="M572.85 489.636L577.93 492.566L599.54 494.486V499.366C599.54 502.366 597.57 505.366 593.63 507.636L515.56 552.706C511.68 554.946 506.58 556.076 501.46 556.106V530.836L572.84 489.626L572.85 489.636Z" fill="#C2C8CF"/>
<path d="M317.99 426.836L354.42 434.966L401.97 407.516C409.85 402.966 422.74 402.966 430.62 407.516L577.94 492.576L599.55 494.496V499.376C599.55 502.376 597.58 505.376 593.64 507.646L515.57 552.716C507.69 557.266 494.8 557.266 486.92 552.716L323.89 458.596C319.95 456.326 317.98 453.326 317.98 450.326V426.836H317.99Z" stroke="black" stroke-linecap="round" stroke-linejoin="round"/>
<path d="M561.4 453.136C559.18 449.576 554.39 444.946 550.75 442.846L430.61 373.476C422.73 368.926 409.84 368.926 401.96 373.476L323.89 418.546C316.01 423.096 316.01 430.536 323.89 435.086L444.03 504.456C447.66 506.556 452.46 511.186 454.68 514.746L464.76 530.896C466.98 534.456 471.77 539.086 475.41 541.186L486.91 547.826C494.79 552.376 507.68 552.376 515.56 547.826L593.63 502.756C601.51 498.206 601.51 490.766 593.63 486.216L582.13 479.576C578.5 477.476 573.7 472.846 571.48 469.286L561.4 453.136Z" fill="#E9EAEB" stroke="black" stroke-linecap="round" stroke-linejoin="round"/>
<path d="M459.45 405.226C457.4 404.046 454.06 404.046 452.01 405.226L377.02 448.516C374.97 449.696 374.97 451.626 377.02 452.806L451.75 495.946C453.8 497.126 457.14 497.126 459.19 495.946L534.18 452.656C536.23 451.476 536.23 449.546 534.18 448.366L459.45 405.226Z" fill="black"/>
<path d="M472.62 411.166L469.26 400.816H441.68L438.32 411.166C438.01 412.116 438.49 413.146 439.76 413.876L451.75 420.796C453.8 421.976 457.14 421.976 459.19 420.796L471.18 413.876C472.45 413.146 472.93 412.116 472.62 411.166Z" fill="#777E87"/>
<path d="M438.32 411.166C438.01 412.116 438.49 413.146 439.76 413.876L451.75 420.796C452.82 421.416 454.25 421.696 455.66 421.676V402.036L451.13 400.816H441.68L438.32 411.166Z" fill="black"/>
<path d="M472.62 411.166L469.26 400.816H441.68L438.32 411.166C438.01 412.116 438.49 413.146 439.76 413.876L451.75 420.796C453.8 421.976 457.14 421.976 459.19 420.796L471.18 413.876C472.45 413.146 472.93 412.116 472.62 411.166Z" stroke="black" stroke-linecap="round" stroke-linejoin="round"/>
<path d="M458.46 393.976C456.82 393.026 454.12 393.026 452.48 393.976L442.84 399.546C441.2 400.496 441.2 402.046 442.84 402.996L452.48 408.566C454.12 409.516 456.82 409.516 458.46 408.566L468.1 402.996C469.74 402.046 469.74 400.496 468.1 399.546L458.46 393.976Z" fill="#777E87" stroke="black" stroke-linecap="round" stroke-linejoin="round"/>
<path d="M451.7 423.237L448.34 412.887H420.76L417.4 423.237C417.09 424.187 417.57 425.217 418.84 425.947L430.83 432.867C432.88 434.047 436.22 434.047 438.27 432.867L450.26 425.947C451.53 425.217 452.01 424.187 451.7 423.237Z" fill="#777E87"/>
<path d="M417.41 423.237C417.1 424.187 417.58 425.217 418.85 425.947L430.84 432.867C431.91 433.487 433.34 433.767 434.75 433.747V414.107L430.22 412.887H420.77L417.41 423.237Z" fill="black"/>
<path d="M451.7 423.237L448.34 412.887H420.76L417.4 423.237C417.09 424.187 417.57 425.217 418.84 425.947L430.83 432.867C432.88 434.047 436.22 434.047 438.27 432.867L450.26 425.947C451.53 425.217 452.01 424.187 451.7 423.237Z" stroke="black" stroke-linecap="round" stroke-linejoin="round"/>
<path d="M437.55 406.046C435.91 405.096 433.21 405.096 431.57 406.046L421.93 411.616C420.29 412.566 420.29 414.116 421.93 415.066L431.57 420.636C433.21 421.586 435.91 421.586 437.55 420.636L447.19 415.066C448.83 414.116 448.83 412.566 447.19 411.616L437.55 406.046Z" fill="#777E87" stroke="black" stroke-linecap="round" stroke-linejoin="round"/>
<path d="M430.79 435.317L427.43 424.967H399.85L396.49 435.317C396.18 436.267 396.66 437.297 397.93 438.027L409.92 444.947C411.97 446.127 415.31 446.127 417.36 444.947L429.35 438.027C430.62 437.297 431.1 436.267 430.79 435.317Z" fill="#777E87"/>
<path d="M396.5 435.317C396.19 436.267 396.67 437.297 397.94 438.027L409.93 444.947C411 445.567 412.43 445.847 413.84 445.827V426.187L409.31 424.967H399.86L396.5 435.317Z" fill="black"/>
<path d="M430.79 435.317L427.43 424.967H399.85L396.49 435.317C396.18 436.267 396.66 437.297 397.93 438.027L409.92 444.947C411.97 446.127 415.31 446.127 417.36 444.947L429.35 438.027C430.62 437.297 431.1 436.267 430.79 435.317Z" stroke="black" stroke-linecap="round" stroke-linejoin="round"/>
<path d="M416.63 418.127C414.99 417.177 412.29 417.177 410.65 418.127L401.01 423.697C399.37 424.647 399.37 426.197 401.01 427.147L410.65 432.717C412.29 433.667 414.99 433.667 416.63 432.717L426.27 427.147C427.91 426.197 427.91 424.647 426.27 423.697L416.63 418.127Z" fill="#777E87" stroke="black" stroke-linecap="round" stroke-linejoin="round"/>
<path d="M409.87 447.386L406.51 437.036H378.93L375.57 447.386C375.26 448.336 375.74 449.366 377.01 450.096L389 457.016C391.05 458.196 394.39 458.196 396.44 457.016L408.43 450.096C409.7 449.366 410.18 448.336 409.87 447.386Z" fill="#777E87"/>
<path d="M375.58 447.386C375.27 448.336 375.75 449.366 377.02 450.096L389.01 457.016C390.08 457.636 391.51 457.916 392.92 457.896V438.256L388.39 437.036H378.94L375.58 447.386Z" fill="black"/>
<path d="M409.87 447.386L406.51 437.036H378.93L375.57 447.386C375.26 448.336 375.74 449.366 377.01 450.096L389 457.016C391.05 458.196 394.39 458.196 396.44 457.016L408.43 450.096C409.7 449.366 410.18 448.336 409.87 447.386Z" stroke="black" stroke-linecap="round" stroke-linejoin="round"/>
<path d="M395.72 430.196C394.08 429.246 391.38 429.246 389.74 430.196L380.1 435.766C378.46 436.716 378.46 438.266 380.1 439.216L389.74 444.786C391.38 445.736 394.08 445.736 395.72 444.786L405.36 439.216C407 438.266 407 436.716 405.36 435.766L395.72 430.196Z" fill="#777E87" stroke="black" stroke-linecap="round" stroke-linejoin="round"/>
<path d="M493.53 423.237L490.17 412.887H462.59L459.23 423.237C458.92 424.187 459.4 425.217 460.67 425.947L472.66 432.867C474.71 434.047 478.05 434.047 480.1 432.867L492.09 425.947C493.36 425.217 493.84 424.187 493.53 423.237Z" fill="#E9EAEB"/>
<path d="M459.24 423.237C458.93 424.187 459.41 425.217 460.68 425.947L472.67 432.867C473.74 433.487 475.17 433.767 476.58 433.747V414.107L472.05 412.887H462.6L459.24 423.237Z" fill="#C2C8CF"/>
<path d="M493.53 423.237L490.17 412.887H462.59L459.23 423.237C458.92 424.187 459.4 425.217 460.67 425.947L472.66 432.867C474.71 434.047 478.05 434.047 480.1 432.867L492.09 425.947C493.36 425.217 493.84 424.187 493.53 423.237Z" stroke="black" stroke-linecap="round" stroke-linejoin="round"/>
<path d="M479.37 406.046C477.73 405.096 475.03 405.096 473.39 406.046L463.75 411.616C462.11 412.566 462.11 414.116 463.75 415.066L473.39 420.636C475.03 421.586 477.73 421.586 479.37 420.636L489.01 415.066C490.65 414.116 490.65 412.566 489.01 411.616L479.37 406.046Z" fill="white" stroke="black" stroke-linecap="round" stroke-linejoin="round"/>
<path d="M535.36 447.387L532 437.037L483.51 424.967L480.15 435.317C479.84 436.267 480.32 437.297 481.59 438.027L514.49 457.027C516.54 458.207 519.88 458.207 521.93 457.027L533.92 450.107C535.19 449.377 535.67 448.347 535.36 447.397V447.387Z" fill="#2FFD76"/>
<path d="M480.15 435.317C479.84 436.267 480.32 437.297 481.59 438.027L514.49 457.027C515.56 457.647 516.99 457.927 518.4 457.907V438.267L513.87 437.047L483.5 424.977L480.14 435.327L480.15 435.317Z" fill="#0E4622"/>
<path d="M535.36 447.387L532 437.037L483.51 424.967L480.15 435.317C479.84 436.267 480.32 437.297 481.59 438.027L514.49 457.027C516.54 458.207 519.88 458.207 521.93 457.027L533.92 450.107C535.19 449.377 535.67 448.347 535.36 447.397V447.387Z" stroke="black" stroke-linecap="round" stroke-linejoin="round"/>
<path d="M500.29 418.127C498.65 417.177 495.95 417.177 494.31 418.127L484.67 423.697C483.03 424.647 483.03 426.197 484.67 427.147L515.22 444.787C516.86 445.737 519.56 445.737 521.2 444.787L530.84 439.217C532.48 438.267 532.48 436.717 530.84 435.767L500.29 418.127Z" fill="#2FFD76" stroke="black" stroke-linecap="round" stroke-linejoin="round"/>
<path d="M472.62 435.317L469.26 424.967H441.68L438.32 435.317C438.01 436.267 438.49 437.297 439.76 438.027L451.75 444.947C453.8 446.127 457.14 446.127 459.19 444.947L471.18 438.027C472.45 437.297 472.93 436.267 472.62 435.317Z" fill="#E9EAEB"/>
<path d="M438.32 435.317C438.01 436.267 438.49 437.297 439.76 438.027L451.75 444.947C452.82 445.567 454.25 445.847 455.66 445.827V426.187L451.13 424.967H441.68L438.32 435.317Z" fill="#C2C8CF"/>
<path d="M472.62 435.317L469.26 424.967H441.68L438.32 435.317C438.01 436.267 438.49 437.297 439.76 438.027L451.75 444.947C453.8 446.127 457.14 446.127 459.19 444.947L471.18 438.027C472.45 437.297 472.93 436.267 472.62 435.317Z" stroke="black" stroke-linecap="round" stroke-linejoin="round"/>
<path d="M458.46 418.127C456.82 417.177 454.12 417.177 452.48 418.127L442.84 423.697C441.2 424.647 441.2 426.197 442.84 427.147L452.48 432.717C454.12 433.667 456.82 433.667 458.46 432.717L468.1 427.147C469.74 426.197 469.74 424.647 468.1 423.697L458.46 418.127Z" fill="white" stroke="black" stroke-linecap="round" stroke-linejoin="round"/>
<path d="M451.7 447.386L448.34 437.036H420.76L417.4 447.386C417.09 448.336 417.57 449.366 418.84 450.096L430.83 457.016C432.88 458.196 436.22 458.196 438.27 457.016L450.26 450.096C451.53 449.366 452.01 448.336 451.7 447.386Z" fill="#E9EAEB"/>
<path d="M417.41 447.386C417.1 448.336 417.58 449.366 418.85 450.096L430.84 457.016C431.91 457.636 433.34 457.916 434.75 457.896V438.256L430.22 437.036H420.77L417.41 447.386Z" fill="#C2C8CF"/>
<path d="M451.7 447.386L448.34 437.036H420.76L417.4 447.386C417.09 448.336 417.57 449.366 418.84 450.096L430.83 457.016C432.88 458.196 436.22 458.196 438.27 457.016L450.26 450.096C451.53 449.366 452.01 448.336 451.7 447.386Z" stroke="black" stroke-linecap="round" stroke-linejoin="round"/>
<path d="M437.55 430.196C435.91 429.246 433.21 429.246 431.57 430.196L421.93 435.766C420.29 436.716 420.29 438.266 421.93 439.216L431.57 444.786C433.21 445.736 435.91 445.736 437.55 444.786L447.19 439.216C448.83 438.266 448.83 436.716 447.19 435.766L437.55 430.196Z" fill="white" stroke="black" stroke-linecap="round" stroke-linejoin="round"/>
<path d="M430.79 459.466L427.43 449.116H399.85L396.49 459.466C396.18 460.416 396.66 461.446 397.93 462.176L409.92 469.096C411.97 470.276 415.31 470.276 417.36 469.096L429.35 462.176C430.62 461.446 431.1 460.416 430.79 459.466Z" fill="#E9EAEB"/>
<path d="M396.5 459.466C396.19 460.416 396.67 461.446 397.94 462.176L409.93 469.096C411 469.716 412.43 469.996 413.84 469.976V450.336L409.31 449.116H399.86L396.5 459.466Z" fill="#C2C8CF"/>
<path d="M430.79 459.466L427.43 449.116H399.85L396.49 459.466C396.18 460.416 396.66 461.446 397.93 462.176L409.92 469.096C411.97 470.276 415.31 470.276 417.36 469.096L429.35 462.176C430.62 461.446 431.1 460.416 430.79 459.466Z" stroke="black" stroke-linecap="round" stroke-linejoin="round"/>
<path d="M416.63 442.276C414.99 441.326 412.29 441.326 410.65 442.276L401.01 447.846C399.37 448.796 399.37 450.346 401.01 451.296L410.65 456.866C412.29 457.816 414.99 457.816 416.63 456.866L426.27 451.296C427.91 450.346 427.91 448.796 426.27 447.846L416.63 442.276Z" fill="white" stroke="black" stroke-linecap="round" stroke-linejoin="round"/>
<path d="M493.53 447.386L490.17 437.036H462.59L459.23 447.386C458.92 448.336 459.4 449.366 460.67 450.096L472.66 457.016C474.71 458.196 478.05 458.196 480.1 457.016L492.09 450.096C493.36 449.366 493.84 448.336 493.53 447.386Z" fill="#E9EAEB"/>
<path d="M459.24 447.386C458.93 448.336 459.41 449.366 460.68 450.096L472.67 457.016C473.74 457.636 475.17 457.916 476.58 457.896V438.256L472.05 437.036H462.6L459.24 447.386Z" fill="#C2C8CF"/>
<path d="M493.53 447.386L490.17 437.036H462.59L459.23 447.386C458.92 448.336 459.4 449.366 460.67 450.096L472.66 457.016C474.71 458.196 478.05 458.196 480.1 457.016L492.09 450.096C493.36 449.366 493.84 448.336 493.53 447.386Z" stroke="black" stroke-linecap="round" stroke-linejoin="round"/>
<path d="M479.37 430.196C477.73 429.246 475.03 429.246 473.39 430.196L463.75 435.766C462.11 436.716 462.11 438.266 463.75 439.216L473.39 444.786C475.03 445.736 477.73 445.736 479.37 444.786L489.01 439.216C490.65 438.266 490.65 436.716 489.01 435.766L479.37 430.196Z" fill="white" stroke="black" stroke-linecap="round" stroke-linejoin="round"/>
<path d="M472.62 459.466L469.26 449.116H441.68L438.32 459.466C438.01 460.416 438.49 461.446 439.76 462.176L451.75 469.096C453.8 470.276 457.14 470.276 459.19 469.096L471.18 462.176C472.45 461.446 472.93 460.416 472.62 459.466Z" fill="#E9EAEB"/>
<path d="M438.32 459.466C438.01 460.416 438.49 461.446 439.76 462.176L451.75 469.096C452.82 469.716 454.25 469.996 455.66 469.976V450.336L451.13 449.116H441.68L438.32 459.466Z" fill="#C2C8CF"/>
<path d="M472.62 459.466L469.26 449.116H441.68L438.32 459.466C438.01 460.416 438.49 461.446 439.76 462.176L451.75 469.096C453.8 470.276 457.14 470.276 459.19 469.096L471.18 462.176C472.45 461.446 472.93 460.416 472.62 459.466Z" stroke="black" stroke-linecap="round" stroke-linejoin="round"/>
<path d="M458.46 442.276C456.82 441.326 454.12 441.326 452.48 442.276L442.84 447.846C441.2 448.796 441.2 450.346 442.84 451.296L452.48 456.866C454.12 457.816 456.82 457.816 458.46 456.866L468.1 451.296C469.74 450.346 469.74 448.796 468.1 447.846L458.46 442.276Z" fill="white" stroke="black" stroke-linecap="round" stroke-linejoin="round"/>
<path d="M451.7 471.537L448.34 461.187H420.76L417.4 471.537C417.09 472.487 417.57 473.517 418.84 474.247L430.83 481.167C432.88 482.347 436.22 482.347 438.27 481.167L450.26 474.247C451.53 473.517 452.01 472.487 451.7 471.537Z" fill="#E9EAEB"/>
<path d="M417.41 471.537C417.1 472.487 417.58 473.517 418.85 474.247L430.84 481.167C431.91 481.787 433.34 482.067 434.75 482.047V462.407L430.22 461.187H420.77L417.41 471.537Z" fill="#C2C8CF"/>
<path d="M451.7 471.537L448.34 461.187H420.76L417.4 471.537C417.09 472.487 417.57 473.517 418.84 474.247L430.83 481.167C432.88 482.347 436.22 482.347 438.27 481.167L450.26 474.247C451.53 473.517 452.01 472.487 451.7 471.537Z" stroke="black" stroke-linecap="round" stroke-linejoin="round"/>
<path d="M437.55 454.346C435.91 453.396 433.21 453.396 431.57 454.346L421.93 459.916C420.29 460.866 420.29 462.416 421.93 463.366L431.57 468.936C433.21 469.886 435.91 469.886 437.55 468.936L447.19 463.366C448.83 462.416 448.83 460.866 447.19 459.916L437.55 454.346Z" fill="white" stroke="black" stroke-linecap="round" stroke-linejoin="round"/>
<path d="M514.44 459.466L511.08 449.116H483.5L480.14 459.466C479.83 460.416 480.31 461.446 481.58 462.176L493.57 469.096C495.62 470.276 498.96 470.276 501.01 469.096L513 462.176C514.27 461.446 514.75 460.416 514.44 459.466Z" fill="#E9EAEB"/>
<path d="M480.15 459.466C479.84 460.416 480.32 461.446 481.59 462.176L493.58 469.096C494.65 469.716 496.08 469.996 497.49 469.976V450.336L492.96 449.116H483.51L480.15 459.466Z" fill="#C2C8CF"/>
<path d="M514.44 459.466L511.08 449.116H483.5L480.14 459.466C479.83 460.416 480.31 461.446 481.58 462.176L493.57 469.096C495.62 470.276 498.96 470.276 501.01 469.096L513 462.176C514.27 461.446 514.75 460.416 514.44 459.466Z" stroke="black" stroke-linecap="round" stroke-linejoin="round"/>
<path d="M500.29 442.276C498.65 441.326 495.95 441.326 494.31 442.276L484.67 447.846C483.03 448.796 483.03 450.346 484.67 451.296L494.31 456.866C495.95 457.816 498.65 457.816 500.29 456.866L509.93 451.296C511.57 450.346 511.57 448.796 509.93 447.846L500.29 442.276Z" fill="white" stroke="black" stroke-linecap="round" stroke-linejoin="round"/>
<path d="M493.53 471.537L490.17 461.187H462.59L459.23 471.537C458.92 472.487 459.4 473.517 460.67 474.247L472.66 481.167C474.71 482.347 478.05 482.347 480.1 481.167L492.09 474.247C493.36 473.517 493.84 472.487 493.53 471.537Z" fill="#E9EAEB"/>
<path d="M459.24 471.537C458.93 472.487 459.41 473.517 460.68 474.247L472.67 481.167C473.74 481.787 475.17 482.067 476.58 482.047V462.407L472.05 461.187H462.6L459.24 471.537Z" fill="#C2C8CF"/>
<path d="M493.53 471.537L490.17 461.187H462.59L459.23 471.537C458.92 472.487 459.4 473.517 460.67 474.247L472.66 481.167C474.71 482.347 478.05 482.347 480.1 481.167L492.09 474.247C493.36 473.517 493.84 472.487 493.53 471.537Z" stroke="black" stroke-linecap="round" stroke-linejoin="round"/>
<path d="M479.37 454.346C477.73 453.396 475.03 453.396 473.39 454.346L463.75 459.916C462.11 460.866 462.11 462.416 463.75 463.366L473.39 468.936C475.03 469.886 477.73 469.886 479.37 468.936L489.01 463.366C490.65 462.416 490.65 460.866 489.01 459.916L479.37 454.346Z" fill="white" stroke="black" stroke-linecap="round" stroke-linejoin="round"/>
<path d="M472.62 483.617L469.26 473.267H441.68L438.32 483.617C438.01 484.567 438.49 485.597 439.76 486.327L451.75 493.247C453.8 494.427 457.14 494.427 459.19 493.247L471.18 486.327C472.45 485.597 472.93 484.567 472.62 483.617Z" fill="#E9EAEB"/>
<path d="M438.32 483.617C438.01 484.567 438.49 485.597 439.76 486.327L451.75 493.247C452.82 493.867 454.25 494.147 455.66 494.127V474.487L451.13 473.267H441.68L438.32 483.617Z" fill="#C2C8CF"/>
<path d="M472.62 483.617L469.26 473.267H441.68L438.32 483.617C438.01 484.567 438.49 485.597 439.76 486.327L451.75 493.247C453.8 494.427 457.14 494.427 459.19 493.247L471.18 486.327C472.45 485.597 472.93 484.567 472.62 483.617Z" stroke="black" stroke-linecap="round" stroke-linejoin="round"/>
<path d="M458.46 466.426C456.82 465.476 454.12 465.476 452.48 466.426L442.84 471.996C441.2 472.946 441.2 474.496 442.84 475.446L452.48 481.016C454.12 481.966 456.82 481.966 458.46 481.016L468.1 475.446C469.74 474.496 469.74 472.946 468.1 471.996L458.46 466.426Z" fill="white" stroke="black" stroke-linecap="round" stroke-linejoin="round"/>
<path d="M412.88 449.156L411.88 449.736L411.3 449.396C411.82 449.076 412.1 448.676 411.62 448.296L412.39 447.856L416.86 450.436L415.98 450.946L412.88 449.156Z" fill="black"/>
<path d="M434.68 438.106C434.79 437.536 435.09 437.006 434.52 436.676C434.11 436.436 433.61 436.406 433.22 436.626C432.78 436.886 432.84 437.216 433.4 437.566L432.58 438.046C431.57 437.466 431.44 436.796 432.49 436.186C433.45 435.636 434.64 435.696 435.41 436.136C436.25 436.616 436.07 437.176 435.9 437.696C435.78 438.016 435.67 438.416 435.8 438.666L437.83 437.496L438.56 437.916L435.4 439.746C434.58 439.236 434.59 438.636 434.7 438.116L434.68 438.106Z" fill="black"/>
<path d="M454.65 426.867L455.49 426.387C456.05 426.677 456.65 426.756 457.26 426.406C457.75 426.126 457.77 425.807 457.32 425.547C456.89 425.297 456.36 425.307 455.82 425.617L455.55 425.777L454.88 425.387L455.13 425.246C455.55 425.006 455.63 424.716 455.25 424.496C454.9 424.296 454.43 424.297 454.04 424.517C453.54 424.807 453.62 425.137 454.06 425.417L453.22 425.897C452.38 425.377 452.34 424.717 453.36 424.127C454.28 423.597 455.33 423.517 456.07 423.947C456.57 424.237 456.54 424.587 456.25 424.917H456.26C456.96 424.677 457.65 424.697 458.27 425.047C459.19 425.577 458.88 426.267 457.98 426.797C456.84 427.457 455.62 427.427 454.64 426.867H454.65Z" fill="black"/>
<path d="M433.11 462.716C432.32 462.266 431.84 461.816 431.79 461.326C431.75 460.976 431.95 460.646 432.54 460.296C433.42 459.786 434.43 459.766 435.2 460.086L434.36 460.576C434.02 460.456 433.63 460.456 433.24 460.676C432.6 461.046 432.77 461.506 433.56 461.956H433.57C433.53 461.656 433.63 461.386 434.14 461.086C434.96 460.616 436.31 460.576 437.26 461.116C438.17 461.646 438.09 462.426 437.18 462.956C435.92 463.686 434.32 463.396 433.11 462.716ZM436.45 461.606C435.94 461.316 435.21 461.296 434.73 461.576C434.19 461.886 434.24 462.286 434.76 462.576C435.26 462.866 435.97 462.866 436.46 462.576C436.94 462.306 436.93 461.876 436.45 461.606Z" fill="black"/>
<path d="M454.83 451.177L455.69 450.677C456.2 450.887 456.77 450.797 457.22 450.527C457.72 450.237 457.67 449.847 457.2 449.577C456.67 449.277 456.03 449.307 455.57 449.577C455.24 449.767 455.11 449.997 455.13 450.157L454.29 450.647L452.29 449.007L454.89 447.507L455.62 447.927L453.63 449.077L454.42 449.727H454.43C454.45 449.507 454.66 449.267 455.06 449.027C455.84 448.577 457.14 448.507 458.1 449.057C459.03 449.587 458.93 450.387 457.97 450.947C456.99 451.507 455.76 451.627 454.82 451.177H454.83Z" fill="black"/>
<path d="M474.94 438.567C474.15 438.117 473.67 437.667 473.62 437.177C473.58 436.827 473.78 436.497 474.37 436.147C475.25 435.637 476.26 435.617 477.03 435.937L476.19 436.427C475.85 436.307 475.46 436.307 475.07 436.527C474.43 436.897 474.6 437.357 475.39 437.807H475.4C475.36 437.507 475.46 437.237 475.97 436.937C476.79 436.467 478.14 436.427 479.09 436.967C480 437.497 479.92 438.277 479 438.807C477.74 439.537 476.14 439.247 474.93 438.567H474.94ZM478.28 437.457C477.77 437.167 477.04 437.147 476.56 437.427C476.02 437.737 476.07 438.137 476.59 438.427C477.09 438.717 477.8 438.717 478.29 438.427C478.77 438.157 478.76 437.727 478.28 437.457Z" fill="black"/>
<path d="M454.83 472.576H454.82L452.63 473.826L451.87 473.386L455.01 471.576L455.74 471.996C455.76 472.916 456.31 474.086 457.86 475.056L456.91 475.606C455.34 474.626 454.86 473.356 454.83 472.576Z" fill="black"/>
<path d="M475.75 463.257C475.2 462.937 475.09 462.507 475.39 462.117H475.37C474.8 462.227 474.3 462.197 473.87 461.957C473.12 461.527 473.34 460.897 474.29 460.357C475.24 459.807 476.28 459.697 477.03 460.127C477.44 460.367 477.5 460.667 477.31 460.987H477.33C477.99 460.817 478.72 460.877 479.26 461.187C480.17 461.717 479.93 462.437 478.93 463.017C477.93 463.597 476.65 463.777 475.76 463.257H475.75ZM476.26 460.657C475.91 460.457 475.41 460.477 474.95 460.737C474.49 461.007 474.45 461.297 474.8 461.497C475.15 461.697 475.67 461.687 476.13 461.417C476.59 461.157 476.61 460.857 476.26 460.657ZM478.36 461.707C477.91 461.447 477.29 461.457 476.75 461.767C476.21 462.077 476.17 462.447 476.62 462.707C477.05 462.957 477.65 462.917 478.19 462.607C478.7 462.307 478.78 461.947 478.36 461.707Z" fill="black"/>
<path d="M497.08 451.196L497.93 450.706C498.27 450.816 498.69 450.826 499.08 450.596C499.36 450.436 499.48 450.266 499.44 450.066C499.39 449.836 499.13 449.576 498.67 449.306H498.66C498.7 449.606 498.61 449.906 498.12 450.186C497.23 450.706 495.93 450.736 494.98 450.186C494.07 449.656 494.14 448.876 495.08 448.326C496.25 447.646 497.65 447.706 499.15 448.566C500.57 449.386 501.06 450.206 499.76 450.956C498.84 451.486 497.82 451.506 497.06 451.176L497.08 451.196ZM497.57 448.706C497.06 448.416 496.33 448.426 495.83 448.716C495.32 449.006 495.33 449.426 495.81 449.706C496.31 449.996 496.99 450.016 497.53 449.706C498.03 449.416 498.08 448.996 497.57 448.706Z" fill="black"/>
<path d="M470.87 513.886C469.72 514.546 469.33 516.016 469.99 517.166C470.65 518.316 472.12 518.706 473.27 518.046L557.61 469.356C558.76 468.696 559.15 467.226 558.49 466.076C557.83 464.926 556.36 464.536 555.21 465.196L470.87 513.886Z" fill="black" stroke="black" stroke-linecap="round" stroke-linejoin="round"/>
<path d="M356.72 439.736C353.36 441.676 347.86 441.676 344.5 439.736L328.4 430.436C325.04 428.496 325.04 425.316 328.4 423.376L410.42 376.026C413.78 374.086 419.28 374.086 422.64 376.026L438.74 385.326C442.1 387.266 442.1 390.446 438.74 392.386L356.72 439.736Z" fill="black"/>
<path d="M342.95 430.007C342.51 430.257 341.84 430.277 341.44 430.047L336.8 427.367C336.4 427.137 336.44 426.747 336.87 426.497C337.31 426.247 337.98 426.227 338.38 426.457L343.02 429.137C343.42 429.367 343.38 429.757 342.95 430.007Z" fill="#E9EAEB"/>
<path d="M358.03 430.236C357.59 430.486 356.92 430.506 356.52 430.276L351.88 427.596C351.48 427.366 351.52 426.976 351.95 426.726C352.39 426.476 353.06 426.456 353.46 426.686L358.1 429.366C358.5 429.596 358.46 429.986 358.03 430.236Z" fill="#E9EAEB"/>
<path d="M350.29 425.766C349.85 426.016 349.18 426.036 348.78 425.806L344.14 423.126C343.74 422.896 343.78 422.506 344.21 422.256C344.65 422.006 345.32 421.986 345.72 422.216L350.36 424.896C350.76 425.126 350.72 425.516 350.29 425.766Z" fill="#E9EAEB"/>
<path d="M344.63 430.066L344.51 429.996C344.08 429.746 344.12 429.326 344.59 429.056L348.64 426.716C349.11 426.446 349.84 426.426 350.27 426.666L350.39 426.736C350.82 426.986 350.78 427.406 350.31 427.676L346.26 430.016C345.79 430.286 345.06 430.306 344.63 430.066Z" fill="#E9EAEB"/>
<path d="M336.89 425.596L336.77 425.526C336.34 425.276 336.38 424.856 336.85 424.586L340.9 422.246C341.37 421.976 342.1 421.956 342.53 422.196L342.65 422.266C343.08 422.516 343.04 422.936 342.57 423.206L338.52 425.546C338.05 425.816 337.32 425.836 336.89 425.596Z" fill="#E9EAEB"/>
<path d="M352.38 434.536L352.26 434.466C351.83 434.216 351.87 433.796 352.34 433.526L356.39 431.186C356.86 430.916 357.59 430.896 358.02 431.136L358.14 431.206C358.57 431.456 358.53 431.876 358.06 432.146L354.01 434.486C353.54 434.756 352.81 434.776 352.38 434.536Z" fill="#E9EAEB"/>
<path d="M369.33 423.717C368.89 423.967 368.22 423.987 367.82 423.757L363.18 421.077C362.78 420.847 362.82 420.457 363.25 420.207C363.69 419.957 364.36 419.937 364.76 420.167L369.4 422.847C369.8 423.077 369.76 423.467 369.33 423.717Z" fill="#E9EAEB"/>
<path d="M361.58 419.246C361.14 419.496 360.47 419.516 360.07 419.286L355.43 416.606C355.03 416.376 355.07 415.986 355.5 415.736C355.94 415.486 356.61 415.466 357.01 415.696L361.65 418.376C362.05 418.606 362.01 418.996 361.58 419.246Z" fill="#E9EAEB"/>
<path d="M348.19 419.076L348.07 419.006C347.64 418.756 347.68 418.336 348.15 418.066L352.2 415.726C352.67 415.456 353.4 415.436 353.83 415.676L353.95 415.746C354.38 415.996 354.34 416.416 353.87 416.686L349.82 419.026C349.35 419.296 348.62 419.316 348.19 419.076Z" fill="#E9EAEB"/>
<path d="M365.53 416.967C365.09 417.217 364.42 417.237 364.02 417.007L359.38 414.327C358.98 414.097 359.02 413.707 359.45 413.457C359.89 413.207 360.56 413.187 360.96 413.417L365.6 416.097C366 416.327 365.96 416.717 365.53 416.967Z" fill="#E9EAEB"/>
<path d="M380.62 417.196C380.18 417.446 379.51 417.466 379.11 417.236L374.47 414.556C374.07 414.326 374.11 413.936 374.54 413.686C374.98 413.436 375.65 413.416 376.05 413.646L380.69 416.326C381.09 416.556 381.05 416.946 380.62 417.196Z" fill="#E9EAEB"/>
<path d="M367.22 417.026L367.1 416.956C366.67 416.706 366.71 416.286 367.18 416.016L371.23 413.676C371.7 413.406 372.43 413.386 372.86 413.626L372.98 413.696C373.41 413.946 373.37 414.366 372.9 414.636L368.85 416.976C368.38 417.246 367.65 417.266 367.22 417.026Z" fill="#E9EAEB"/>
<path d="M359.48 412.556L359.36 412.486C358.93 412.236 358.97 411.816 359.44 411.546L363.49 409.206C363.96 408.936 364.69 408.916 365.12 409.156L365.24 409.226C365.67 409.476 365.63 409.896 365.16 410.166L361.11 412.506C360.64 412.776 359.91 412.796 359.48 412.556Z" fill="#E9EAEB"/>
<path d="M374.96 421.497L374.84 421.427C374.41 421.177 374.45 420.757 374.92 420.487L378.97 418.147C379.44 417.877 380.17 417.857 380.6 418.097L380.72 418.167C381.15 418.417 381.11 418.837 380.64 419.107L376.59 421.447C376.12 421.717 375.39 421.737 374.96 421.497Z" fill="#E9EAEB"/>
<path d="M384.57 414.917C384.13 415.167 383.46 415.187 383.06 414.957L378.42 412.277C378.02 412.047 378.06 411.657 378.49 411.407C378.93 411.157 379.6 411.137 380 411.367L384.64 414.047C385.04 414.277 385 414.667 384.57 414.917Z" fill="#E9EAEB"/>
<path d="M376.83 410.446C376.39 410.696 375.72 410.716 375.32 410.486L370.68 407.806C370.28 407.576 370.32 407.186 370.75 406.936C371.19 406.686 371.86 406.666 372.26 406.896L376.9 409.576C377.3 409.806 377.26 410.196 376.83 410.446Z" fill="#E9EAEB"/>
<path d="M391.91 410.677C391.47 410.927 390.8 410.947 390.4 410.717L385.76 408.037C385.36 407.807 385.4 407.417 385.83 407.167C386.27 406.917 386.94 406.897 387.34 407.127L391.98 409.807C392.38 410.037 392.34 410.427 391.91 410.677Z" fill="#E9EAEB"/>
<path d="M384.17 406.207C383.73 406.457 383.06 406.477 382.66 406.247L378.02 403.567C377.62 403.337 377.66 402.947 378.09 402.697C378.53 402.447 379.2 402.427 379.6 402.657L384.24 405.337C384.64 405.567 384.6 405.957 384.17 406.207Z" fill="#E9EAEB"/>
<path d="M370.77 406.036L370.65 405.966C370.22 405.716 370.26 405.296 370.73 405.026L374.78 402.686C375.25 402.416 375.98 402.396 376.41 402.636L376.53 402.706C376.96 402.956 376.92 403.376 376.45 403.646L372.4 405.986C371.93 406.256 371.2 406.276 370.77 406.036Z" fill="#E9EAEB"/>
<path d="M386.26 414.976L386.14 414.906C385.71 414.656 385.75 414.236 386.22 413.966L390.27 411.626C390.74 411.356 391.47 411.336 391.9 411.576L392.02 411.646C392.45 411.896 392.41 412.316 391.94 412.586L387.89 414.926C387.42 415.196 386.69 415.216 386.26 414.976Z" fill="#E9EAEB"/>
<path d="M395.86 408.396C395.42 408.646 394.75 408.666 394.35 408.436L389.71 405.756C389.31 405.526 389.35 405.136 389.78 404.886C390.22 404.636 390.89 404.616 391.29 404.846L395.93 407.526C396.33 407.756 396.29 408.146 395.86 408.396Z" fill="#E9EAEB"/>
<path d="M388.12 403.927C387.68 404.177 387.01 404.197 386.61 403.967L381.97 401.287C381.57 401.057 381.61 400.667 382.04 400.417C382.48 400.167 383.15 400.147 383.55 400.377L388.19 403.057C388.59 403.287 388.55 403.677 388.12 403.927Z" fill="#E9EAEB"/>
<path d="M403.21 404.156C402.77 404.406 402.1 404.426 401.7 404.196L397.06 401.516C396.66 401.286 396.7 400.896 397.13 400.646C397.57 400.396 398.24 400.376 398.64 400.606L403.28 403.286C403.68 403.516 403.64 403.906 403.21 404.156Z" fill="#E9EAEB"/>
<path d="M395.47 399.686C395.03 399.936 394.36 399.956 393.96 399.726L389.32 397.046C388.92 396.816 388.96 396.426 389.39 396.176C389.83 395.926 390.5 395.906 390.9 396.136L395.54 398.816C395.94 399.046 395.9 399.436 395.47 399.686Z" fill="#E9EAEB"/>
<path d="M382.07 399.516L381.95 399.446C381.52 399.196 381.56 398.776 382.03 398.506L386.08 396.166C386.55 395.896 387.28 395.876 387.71 396.116L387.83 396.186C388.26 396.436 388.22 396.856 387.75 397.126L383.7 399.466C383.23 399.736 382.5 399.756 382.07 399.516Z" fill="#E9EAEB"/>
<path d="M399.18 408.407C398.71 408.677 397.98 408.697 397.55 408.457L397.43 408.387C397 408.137 397.04 407.717 397.51 407.447L401.56 405.107C402.03 404.837 402.76 404.817 403.19 405.057L403.31 405.127C403.74 405.377 403.7 405.797 403.23 406.067L399.18 408.407Z" fill="#E9EAEB"/>
<path d="M646.24 550.627L662.91 638.257L515.57 552.717V547.977L488.33 532.417C483.62 529.697 481.93 526.537 480.06 523.127C477.92 519.227 475.96 515.247 475.96 515.247L539.29 478.677L646.24 550.637V550.627Z" fill="black" stroke="black" stroke-linecap="round" stroke-linejoin="round"/>
<path d="M501.29 515.057C503.75 514.237 506.03 513.157 508.16 511.917L588.58 465.177C586.45 466.417 584.17 467.497 581.71 468.317C578.15 469.497 574.47 470.067 570.48 470.057C566.07 470.047 560.77 469.807 556.37 466.967L475.95 513.707C479.88 515.707 485.65 516.787 490.06 516.797C494.05 516.807 497.73 516.247 501.29 515.057Z" fill="white" stroke="black" stroke-linecap="round" stroke-linejoin="round"/>
<path d="M508.22 511.966L588.64 465.226C592.54 462.956 595.93 460.186 598.94 457.596C599.29 457.296 599.66 457.036 600.04 456.816L519.62 503.556C519.24 503.776 518.87 504.036 518.52 504.336C515.51 506.926 512.12 509.696 508.22 511.966Z" fill="black" stroke="black" stroke-linecap="round" stroke-linejoin="round"/>
<path d="M600 456.756C601.84 455.686 604.08 455.496 606.55 456.206C607.63 456.516 608.73 456.996 609.82 457.636C611.54 458.626 613.24 459.996 614.8 461.646C617.24 464.226 619.22 467.356 620.51 470.676C621.92 474.316 622.46 478.126 622.07 481.686L619.69 503.246C619.28 506.956 619.65 510.547 620.79 513.917C621.79 516.857 623.39 519.627 625.43 521.917C626.95 523.627 628.69 525.066 630.5 526.106C631.3 526.566 632.12 526.956 632.94 527.256C635.51 528.206 637.83 528.187 639.49 527.227L559.07 573.966C557.42 574.926 555.1 574.936 552.52 573.996C551.71 573.696 550.89 573.316 550.08 572.846C548.28 571.806 546.53 570.366 545.01 568.656C542.97 566.356 541.36 563.596 540.37 560.656C539.23 557.286 538.86 553.696 539.27 549.986L541.65 528.426C542.04 524.866 541.5 521.057 540.09 517.417C538.8 514.097 536.82 510.966 534.38 508.386C532.82 506.726 531.12 505.366 529.4 504.376C528.31 503.746 527.2 503.266 526.13 502.946C523.66 502.226 521.43 502.426 519.58 503.496L600 456.756Z" fill="white" stroke="black" stroke-linecap="round" stroke-linejoin="round"/>
<path d="M551.91 537.717C549.73 531.497 548.78 526.177 549.1 521.907C549.38 518.157 550.67 515.317 552.83 513.697C553.07 513.517 553.32 513.357 553.57 513.207L633.99 466.467C633.73 466.617 633.49 466.777 633.25 466.957C631.1 468.577 629.81 471.417 629.52 475.167C629.19 479.437 630.14 484.757 632.33 490.977L640.75 514.927C641.88 518.157 642.32 520.907 642.03 523.067C641.77 524.997 640.93 526.437 639.59 527.247C639.57 527.257 639.54 527.277 639.52 527.287L559.1 574.027C559.1 574.027 559.15 573.997 559.17 573.987C560.51 573.177 561.36 571.737 561.61 569.807C561.9 567.647 561.47 564.897 560.33 561.667L551.91 537.717Z" fill="black" stroke="black" stroke-linecap="round" stroke-linejoin="round"/>
<path d="M639.51 527.297L563.36 571.567" stroke="#777E87" stroke-linecap="round" stroke-linejoin="round"/>
<path d="M633.94 466.407C635.82 465.317 638.15 465.067 640.73 465.697C642.15 466.037 643.58 466.627 644.99 467.447C646.52 468.327 648.03 469.477 649.47 470.867C652.36 473.657 654.85 477.317 656.66 481.467C658.72 486.167 659.91 491.417 660.2 497.047C660.25 498.127 660.3 499.247 660.35 500.337C660.58 505.417 660.82 510.667 661.74 516.157C662.79 522.377 664.58 527.957 667.24 533.197C670.47 539.567 674.94 545.487 680.9 551.267C684.16 554.437 687.92 557.587 692.06 560.627C696.44 563.847 701.39 567.057 706.78 570.167L743.29 591.307L662.87 638.047L626.36 616.907C620.96 613.787 616.01 610.587 611.64 607.367C607.49 604.317 603.74 601.167 600.48 598.007C594.51 592.227 590.04 586.307 586.82 579.937C584.16 574.697 582.37 569.127 581.32 562.897C580.4 557.407 580.16 552.157 579.93 547.077C579.88 545.987 579.83 544.867 579.78 543.787C579.49 538.147 578.3 532.907 576.24 528.207C574.43 524.057 571.94 520.407 569.05 517.607C567.61 516.217 566.1 515.067 564.57 514.187C563.16 513.367 561.72 512.777 560.31 512.437C557.72 511.807 555.39 512.057 553.52 513.147L633.94 466.407Z" fill="white" stroke="black" stroke-linecap="round" stroke-linejoin="round"/>
<path d="M584.28 516.417L629.91 489.896" stroke="#0E4622" stroke-linecap="round" stroke-linejoin="round"/>
<path d="M571.27 506.056L616.91 479.536" stroke="#0E4622" stroke-linecap="round" stroke-linejoin="round"/>
<path d="M545.34 502.016L590.98 475.496" stroke="#0E4622" stroke-linecap="round" stroke-linejoin="round"/>
<path d="M541.18 498.476L586.81 471.956" stroke="#0E4622" stroke-linecap="round" stroke-linejoin="round"/>
<path d="M587.21 521.826L632.84 495.306" stroke="#0E4622" stroke-linecap="round" stroke-linejoin="round"/>
<path d="M589.31 527.956L625.59 506.866" stroke="#0E4622" stroke-linecap="round" stroke-linejoin="round"/>
<path d="M592.88 558.646L638.52 532.126" stroke="#0E4622" stroke-linecap="round" stroke-linejoin="round"/>
<path d="M594.38 565.206L640.01 538.676" stroke="#0E4622" stroke-linecap="round" stroke-linejoin="round"/>
<path d="M596.67 571.206L642.31 544.676" stroke="#0E4622" stroke-linecap="round" stroke-linejoin="round"/>
<path d="M599.54 576.746L610.04 570.636" stroke="#0E4622" stroke-linecap="round" stroke-linejoin="round"/>
<path d="M653.23 591.656L629.91 605.196L634.95 608.106L658.26 594.556L653.23 591.656Z" fill="#0E4622"/>
<path d="M639.99 611.016L685.62 584.496" stroke="#0E4622" stroke-linecap="round" stroke-linejoin="round"/>
<path d="M645.02 613.926L690.66 587.406" stroke="#0E4622" stroke-linecap="round" stroke-linejoin="round"/>
<path d="M650.06 616.826L695.69 590.306" stroke="#0E4622" stroke-linecap="round" stroke-linejoin="round"/>
<path d="M655.09 619.736L700.73 593.216" stroke="#0E4622" stroke-linecap="round" stroke-linejoin="round"/>
<path d="M660.13 622.646L689.19 605.756" stroke="#0E4622" stroke-linecap="round" stroke-linejoin="round"/>
<path d="M262.63 627.286C271.07 632.156 284.88 632.156 293.32 627.286L404.09 563.336C412.53 558.466 412.53 550.496 404.09 545.616L296.38 483.426C287.94 478.556 274.13 478.556 265.69 483.426L154.92 547.376C146.48 552.246 146.48 560.216 154.92 565.096L262.63 627.286Z" fill="#C2C8CF" stroke="black" stroke-linecap="round" stroke-linejoin="round"/>
<path d="M262.63 621.866C271.07 626.736 284.88 626.736 293.32 621.866L404.09 557.916C412.53 553.046 412.53 545.076 404.09 540.196L296.38 478.006C287.94 473.136 274.13 473.136 265.69 478.006L154.92 541.956C146.48 546.826 146.48 554.796 154.92 559.676L262.63 621.866Z" fill="#C2C8CF" stroke="black" stroke-linecap="round" stroke-linejoin="round"/>
<path d="M262.63 616.456C271.07 621.326 284.88 621.326 293.32 616.456L404.09 552.506C412.53 547.636 412.53 539.666 404.09 534.786L296.38 472.596C287.94 467.726 274.13 467.726 265.69 472.596L154.92 536.546C146.48 541.416 146.48 549.386 154.92 554.266L262.63 616.456Z" fill="#C2C8CF" stroke="black" stroke-linecap="round" stroke-linejoin="round"/>
<path d="M396.48 534.786L288.77 472.595C285.52 470.715 281.46 469.576 277.23 469.146C273 469.576 268.94 470.725 265.69 472.595L154.92 536.545C146.48 541.415 146.48 549.386 154.92 554.266L262.63 616.456C265.88 618.336 269.94 619.476 274.17 619.906C278.4 619.476 282.46 618.326 285.71 616.456L396.48 552.505C404.92 547.635 404.92 539.666 396.48 534.786Z" fill="black"/>
<path d="M129.29 519.786C131.79 527.576 139.63 530.606 146.72 526.516L262.55 459.646C269.64 455.556 273.39 445.826 270.9 438.036L223.38 289.726C220.88 281.936 213.04 278.906 205.95 282.996L90.12 349.866C83.03 353.956 79.28 363.686 81.77 371.476L129.29 519.786Z" fill="#0E4622"/>
<path d="M94.9199 376.957L98.9099 374.657L97.1899 369.287L98.5499 368.507L100.27 373.877L104.26 371.577L104.81 373.297L100.82 375.597L102.54 380.967L101.18 381.747L99.4599 376.377L95.4699 378.677L94.9199 376.957Z" fill="black"/>
<path d="M107.08 365.447L104 367.227L103.52 365.727C105.23 364.677 106.44 362.987 105.84 360.117L107.18 359.347L113.11 377.857L111.38 378.857L107.08 365.447Z" fill="black"/>
<path d="M117.67 365.066C119.07 362.596 119.9 361.006 119.19 358.776C118.47 356.516 116.78 355.676 114.91 356.756C113.92 357.326 113.32 358.186 113.04 359.206C112.74 360.306 112.82 361.466 113.42 363.346L111.61 364.386C110.85 362.016 110.84 360.246 111.34 358.616C111.87 356.936 113.01 355.616 114.45 354.786C117.31 353.136 119.91 354.436 120.96 357.716C122.1 361.266 120.63 363.516 118.89 366.456C117.72 368.436 116.25 371.066 116.52 373.336L124.21 368.896L124.9 371.046L115.14 376.686C113.73 371.676 115.8 368.346 117.67 365.066Z" fill="black"/>
<path d="M124.71 364.917C123.86 362.257 124.71 360.047 126.07 358.457L126.04 358.377C124.52 358.487 123.2 357.627 122.58 355.727C121.64 352.797 123.07 349.737 125.66 348.247C128.25 346.747 130.88 347.427 131.82 350.387C132.43 352.297 132.02 354.127 130.92 355.557L130.95 355.637C132.73 355.337 134.54 356.267 135.34 358.767C136.68 362.957 134.49 365.977 131.9 367.477C129.31 368.967 126.03 369.077 124.7 364.917H124.71ZM130.18 351.437C129.58 349.557 128.09 349.077 126.28 350.127C124.47 351.167 123.7 352.957 124.31 354.837C124.91 356.717 126.4 357.197 128.21 356.147C130.02 355.107 130.79 353.327 130.18 351.437ZM133.63 359.767C132.86 357.347 131.04 356.617 128.78 357.917C126.56 359.197 125.71 361.477 126.48 363.897C127.25 366.287 129.05 366.907 131.31 365.597C133.51 364.327 134.39 362.137 133.63 359.767Z" fill="black"/>
<path d="M137.56 360.587L139.55 359.437L140.4 362.097L138.41 363.247L137.56 360.587Z" fill="black"/>
<path d="M139.87 356.097L141.58 355.117C142.54 357.267 144.24 358.007 146.23 356.857C148.24 355.697 148.97 353.177 148.11 350.487C147.22 347.717 145.25 346.947 143.4 348.017C141.88 348.897 141.09 350.307 140.85 351.757L139.19 352.717L137.58 341.927L145.08 337.597L145.73 339.617L139.44 343.247L140.29 349.317L140.33 349.297C140.81 347.837 141.7 346.657 143.06 345.877C145.57 344.427 148.6 345.447 149.91 349.537C151.17 353.457 149.82 357.167 146.9 358.847C143.98 360.527 141.11 359.457 139.89 356.117L139.87 356.097Z" fill="black"/>
<path d="M115.27 473.976C117.47 471.496 120.86 472.416 124.71 475.376L127.62 477.616C134.11 482.596 137.93 479.706 137.22 470.336L135.45 446.826C134.5 434.196 141.02 430.096 148.03 438.906L151.71 443.526C157.04 450.226 161.12 448.226 162.48 438.246L163.13 433.436C164.38 424.226 167.9 422.396 173.17 428.196L175.52 430.786C181.84 437.756 187.42 433.656 185.52 423.426L176.87 376.786C174.39 363.406 183.47 357.986 189.38 369.316L201.93 393.406C205.93 401.086 210.67 399.256 212.16 389.446L212.59 386.586C213.89 377.996 217 376.356 222.07 381.586L225.35 384.966C232.66 392.506 238.09 388.946 237.65 376.916L237 358.996C236.73 351.606 237.63 347.456 240.47 345.816" stroke="white" stroke-linecap="round" stroke-linejoin="round"/>
<path d="M180.3 367.137C181.631 367.137 182.71 365.561 182.71 363.617C182.71 361.673 181.631 360.097 180.3 360.097C178.969 360.097 177.89 361.673 177.89 363.617C177.89 365.561 178.969 367.137 180.3 367.137Z" fill="black"/>
<path d="M180.3 363.616L214.76 471.176" stroke="black" stroke-linecap="round" stroke-linejoin="round"/>
<path d="M154.06 524.766C148.36 516.716 140.7 511.286 134.55 510.936C132.18 510.806 132.4 505.426 134.85 505.526C142.71 505.856 151.76 512.136 158.48 521.626L154.06 524.756V524.766Z" fill="white" stroke="black" stroke-linecap="round" stroke-linejoin="round"/>
<path d="M147.27 524.766C142.52 531.426 144.43 533.536 151.52 529.446L267.35 462.576C274.44 458.486 284.12 449.686 288.87 443.016L340.63 370.386C345.38 363.726 343.47 361.616 336.38 365.706L220.55 432.576C213.46 436.666 203.78 445.466 199.03 452.136L147.27 524.766Z" fill="#777E87" stroke="black" stroke-linecap="round" stroke-linejoin="round"/>
<path d="M154.74 548.667C147.3 545.427 146.96 539.457 153.99 535.397L266.64 470.357C275.54 465.217 290.52 464.377 299.94 468.467L404.94 514.167C412.55 517.477 412.89 523.577 405.71 527.727L290.23 594.397C283.05 598.547 270.95 599.227 263.34 595.917L154.74 548.657V548.667Z" fill="#C2C8CF" stroke="black" stroke-linecap="round" stroke-linejoin="round"/>
<path d="M380.1 528.176C387.68 523.796 387.55 516.876 379.81 512.786L291.86 466.306C283.29 465.096 273.27 466.536 266.63 470.366L153.98 535.406C146.95 539.466 147.29 545.436 154.73 548.676L262.99 595.796L380.09 528.186L380.1 528.176Z" fill="black"/>
<path d="M153.99 535.396C146.96 539.456 147.3 545.427 154.74 548.667L263 595.786" stroke="#777E87" stroke-linecap="round" stroke-linejoin="round"/>
<path d="M162.4 545.816C162.16 543.376 161.62 540.816 160.8 538.216L165.96 536.586C166.89 539.546 167.51 542.466 167.78 545.286L162.39 545.816H162.4Z" fill="white" stroke="black" stroke-linecap="round" stroke-linejoin="round"/>
<path d="M155.8 541.827C147.52 541.287 146.63 537.447 153.81 533.297L269.29 466.627C276.47 462.477 289.12 459.527 297.4 460.077L392.61 466.317C400.89 466.857 401.78 470.697 394.6 474.847L279.12 541.517C271.94 545.667 259.29 548.617 251.01 548.067L155.8 541.827Z" fill="#2FFD76" stroke="black" stroke-linecap="round" stroke-linejoin="round"/>
<path d="M341.21 482.996C338.57 471.596 305.3 470.816 266.89 481.236C251.16 485.506 237.02 490.996 225.97 496.766L232.29 498.426C241.65 493.346 253.94 488.496 267.7 484.756C299.55 476.106 327.14 476.766 329.33 486.216C330.53 491.376 323.88 498.096 312.42 504.546L320.81 505.096C334.63 497.326 342.64 489.226 341.2 482.996H341.21Z" fill="white"/>
<path d="M312.43 504.547C302.91 509.897 290.08 515.067 275.63 518.987C266.71 521.407 258.13 523.097 250.34 524.067C230.32 526.567 215.57 524.327 213.99 517.527C212.75 512.157 219.98 505.107 232.29 498.427L225.97 496.767C210.04 505.097 200.57 514.017 202.12 520.747C204.02 528.957 221.8 531.657 245.95 528.637C255.34 527.467 265.69 525.427 276.44 522.507C293.87 517.777 309.34 511.547 320.82 505.097L312.43 504.547Z" fill="black"/>
<path d="M341.21 482.996C338.57 471.596 305.3 470.816 266.89 481.236C251.16 485.506 237.02 490.996 225.97 496.766C210.04 505.096 200.57 514.016 202.12 520.746C204.02 528.956 221.8 531.656 245.95 528.636C255.34 527.466 265.69 525.426 276.44 522.506C293.87 517.776 309.34 511.546 320.82 505.096C334.64 497.326 342.65 489.226 341.21 482.996Z" stroke="black" stroke-linecap="round" stroke-linejoin="round"/>
<path d="M291.02 478.227C296.66 474.967 296.32 470.337 290.26 467.947L277.78 463.017C274.59 464.037 271.64 465.267 269.29 466.627L153.81 533.297C146.63 537.447 147.52 541.287 155.8 541.827L178.31 543.307L291.02 478.237V478.227Z" fill="black"/>
<path d="M149.01 538.916C149.37 540.466 151.66 541.556 155.8 541.826L178.31 543.306" stroke="#777E87" stroke-linecap="round" stroke-linejoin="round"/>
<path d="M160.8 538.217C159.78 534.987 158.36 531.777 156.57 528.677C155.79 527.327 154.95 526.017 154.07 524.767L158.49 521.637C159.47 523.017 160.4 524.477 161.26 525.967C163.25 529.407 164.83 532.987 165.97 536.587L160.81 538.217H160.8Z" fill="white" stroke="black" stroke-linecap="round" stroke-linejoin="round"/>
<path d="M213.38 293.066C212.96 291.736 211.62 291.226 210.42 291.926L199.99 297.946C198.78 298.646 198.15 300.296 198.57 301.626C198.99 302.956 200.33 303.466 201.53 302.766L211.96 296.746C213.17 296.046 213.8 294.396 213.38 293.066Z" fill="black"/>
<path d="M357.69 633.267C365.102 633.267 371.11 629.797 371.11 625.517C371.11 621.236 365.102 617.767 357.69 617.767C350.278 617.767 344.27 621.236 344.27 625.517C344.27 629.797 350.278 633.267 357.69 633.267Z" fill="black"/>
<path d="M348.5 604.656V625.526C348.5 628.456 352.61 630.826 357.68 630.826C362.75 630.826 366.86 628.456 366.86 625.526V604.656H348.49H348.5Z" fill="white"/>
<path d="M358.53 607.187V630.827" stroke="#C2C8CF" stroke-linecap="round" stroke-linejoin="round"/>
<path d="M348.5 604.597V625.527C348.5 628.087 352.1 630.827 356.54 630.827V604.597H348.5Z" fill="#C2C8CF"/>
<path d="M348.5 604.656V625.526C348.5 628.456 352.61 630.826 357.68 630.826C362.75 630.826 366.86 628.456 366.86 625.526V604.656H348.49H348.5Z" stroke="black" stroke-linecap="round" stroke-linejoin="round"/>
<path d="M357.69 609.956C362.76 609.956 366.87 607.584 366.87 604.656C366.87 601.729 362.76 599.356 357.69 599.356C352.62 599.356 348.51 601.729 348.51 604.656C348.51 607.584 352.62 609.956 357.69 609.956Z" fill="white" stroke="black" stroke-linecap="round" stroke-linejoin="round"/>
<path d="M350.77 601.177L354.65 603.127" stroke="black" stroke-linecap="round" stroke-linejoin="round"/>
<path d="M51.62 447.566C52.16 449.236 53.84 449.886 55.36 449.006L61.97 445.196C62.92 444.646 63.43 443.336 63.09 442.286L60.38 433.816C59.94 432.426 58.54 431.886 57.28 432.616L51.23 436.106C49.71 436.986 48.9 439.066 49.44 440.736L51.63 447.556L51.62 447.566Z" fill="#C2C8CF" stroke="black" stroke-linecap="round" stroke-linejoin="round"/>
<path d="M31.8801 520.576C30.6301 520.576 29.6201 519.566 29.6201 518.316V472.466C29.6201 462.196 36.8601 449.666 45.7501 444.526L49.7301 442.226C50.8101 441.606 52.1901 441.976 52.8101 443.056C53.4301 444.136 53.0601 445.516 51.9801 446.136L48.0001 448.436C40.4801 452.776 34.1201 463.786 34.1201 472.466V518.316C34.1201 519.566 33.1101 520.576 31.8601 520.576H31.8801Z" fill="#C2C8CF" stroke="black" stroke-linecap="round" stroke-linejoin="round"/>
<path d="M29.6201 512.967C29.6201 514.217 30.6301 515.227 31.8801 515.227C33.1301 515.227 34.1401 514.217 34.1401 512.967V521.567C34.1401 522.817 33.1301 523.827 31.8801 523.827C30.6301 523.827 29.6201 522.817 29.6201 521.567V512.967Z" fill="black" stroke="black" stroke-linecap="round" stroke-linejoin="round"/>
<path d="M325 652.137C332.412 652.137 338.42 648.667 338.42 644.387C338.42 640.107 332.412 636.637 325 636.637C317.588 636.637 311.58 640.107 311.58 644.387C311.58 648.667 317.588 652.137 325 652.137Z" fill="black"/>
<path d="M315.82 623.526V644.396C315.82 647.326 319.93 649.696 325 649.696C330.07 649.696 334.18 647.326 334.18 644.396V623.526H315.81H315.82Z" fill="white"/>
<path d="M325.84 626.057V649.697" stroke="#C2C8CF" stroke-linecap="round" stroke-linejoin="round"/>
<path d="M315.82 623.467V644.397C315.82 646.957 319.42 649.697 323.86 649.697V623.467H315.82Z" fill="#C2C8CF"/>
<path d="M315.82 623.526V644.396C315.82 647.326 319.93 649.696 325 649.696C330.07 649.696 334.18 647.326 334.18 644.396V623.526H315.81H315.82Z" stroke="black" stroke-linecap="round" stroke-linejoin="round"/>
<path d="M325 628.827C330.07 628.827 334.18 626.454 334.18 623.527C334.18 620.599 330.07 618.227 325 618.227C319.93 618.227 315.82 620.599 315.82 623.527C315.82 626.454 319.93 628.827 325 628.827Z" fill="white" stroke="black" stroke-linecap="round" stroke-linejoin="round"/>
<path d="M318.08 620.047L321.97 621.997" stroke="black" stroke-linecap="round" stroke-linejoin="round"/>
<path d="M399.9 603.606C402.32 605.006 406.28 605.006 408.69 603.606L441.8 584.486C444.22 583.086 444.22 580.806 441.8 579.406L437.33 576.826C434.91 575.426 430.95 575.426 428.54 576.826L395.43 595.946C393.01 597.346 393.01 599.626 395.43 601.026L399.9 603.606Z" fill="white" stroke="black" stroke-linecap="round" stroke-linejoin="round"/>
<path d="M443.53 578.276L440.1 578.436L437.33 576.836C434.91 575.436 430.95 575.436 428.54 576.836L412.21 586.266L425.47 593.926L441.8 584.496C443.01 583.796 443.61 582.876 443.61 581.956L443.53 578.276Z" fill="black" stroke="black" stroke-linecap="round" stroke-linejoin="round"/>
<path d="M425.47 593.916L441.8 581.206C444.11 579.556 444.11 577.026 441.8 575.686L437.33 573.106C434.91 571.706 430.74 571.836 428.54 573.546L412.21 586.256L425.47 593.916Z" fill="white" stroke="black" stroke-linecap="round" stroke-linejoin="round"/>
</svg>
