<svg width="97" height="158" viewBox="0 0 97 158" fill="none" xmlns="http://www.w3.org/2000/svg">
<path d="M59.005 102.23C62.7998 101.107 67.4586 101.981 69.4064 104.185L95.2532 133.384C95.8328 134.039 96.11 134.737 96.11 135.425C96.11 136.602 95.3036 137.744 93.8454 138.586L90.3783 140.591C89.8239 140.908 89.1794 141.185 88.4449 141.405L59.0086 102.23H59.005Z" fill="black" stroke="black" stroke-width="0.3" stroke-linecap="round" stroke-linejoin="round"/>
<path d="M70.6412 99.8687L65.9392 94.5582C63.9914 92.3584 59.3325 91.4799 55.5414 92.6032L46.3785 95.3107L54.6197 104.6L70.6412 99.8687Z" fill="#2FFD76" stroke="black" stroke-width="0.3" stroke-linecap="round" stroke-linejoin="round"/>
<path d="M46.3785 95.3105V110.198L54.6197 116.239V104.599L46.3785 95.3105Z" fill="white" stroke="black" stroke-width="0.3" stroke-linecap="round" stroke-linejoin="round"/>
<path d="M70.6412 99.8691V111.509L54.6198 116.24V104.6L70.6412 99.8691Z" fill="#C2C8CF" stroke="black" stroke-width="0.3" stroke-linecap="round" stroke-linejoin="round"/>
<path d="M46.3929 92.0547L54.6197 101.347L38.6054 106.082L30.3787 96.7891L46.3929 92.0547Z" fill="#2FFD76" stroke="black" stroke-width="0.3" stroke-linecap="round" stroke-linejoin="round"/>
<path d="M38.6055 106.082V120.973L54.6198 116.239V101.348L38.6055 106.082Z" fill="#118338" stroke="black" stroke-width="0.3" stroke-linecap="round" stroke-linejoin="round"/>
<path d="M38.6054 106.082V120.973L30.3787 114.928V96.7891L38.6054 106.082Z" fill="white" stroke="black" stroke-width="0.3" stroke-linecap="round" stroke-linejoin="round"/>
<path d="M30.3787 93.542L38.6055 102.834L22.5876 107.569L14.3608 98.2764L30.3787 93.542Z" fill="#2FFD76" stroke="black" stroke-width="0.3" stroke-linecap="round" stroke-linejoin="round"/>
<path d="M22.5876 107.569V125.708L38.6055 120.973V102.835L22.5876 107.569Z" fill="#118338" stroke="black" stroke-width="0.3" stroke-linecap="round" stroke-linejoin="round"/>
<path d="M22.5876 107.569V125.707L14.3608 119.662V98.2764L22.5876 107.569Z" fill="white" stroke="black" stroke-width="0.3" stroke-linecap="round" stroke-linejoin="round"/>
<path d="M22.5875 125.707V104.317L6.56958 106.596V130.42L22.5875 125.707Z" fill="#118338" stroke="black" stroke-width="0.3" stroke-linecap="round" stroke-linejoin="round"/>
<path d="M1.01794 101.704V123.09C1.01794 123.777 1.29157 124.476 1.87483 125.131L6.55885 130.42H6.57326V106.593L1.02155 101.7L1.01794 101.704Z" fill="white" stroke="black" stroke-width="0.3" stroke-linecap="round" stroke-linejoin="round"/>
<path d="M6.5552 109.038L1.87116 103.749C1.29151 103.093 1.01428 102.395 1.01428 101.707C1.01428 100.084 2.54443 98.521 5.21227 97.7325L14.3751 95.0215L22.5839 104.321L6.5516 109.038H6.5552Z" fill="#2FFD76" stroke="black" stroke-width="0.3" stroke-linecap="round" stroke-linejoin="round"/>
<path d="M70.6412 99.8691L78.8679 109.162L62.8501 113.896L54.6233 104.604L70.6412 99.8691Z" fill="#2FFD76" stroke="black" stroke-width="0.3" stroke-linecap="round" stroke-linejoin="round"/>
<path d="M62.8501 113.897V125.515L78.868 120.78V109.162L62.8501 113.897Z" fill="#C2C8CF" stroke="black" stroke-width="0.3" stroke-linecap="round" stroke-linejoin="round"/>
<path d="M62.8501 113.896V125.514L54.6233 118.17V104.604L62.8501 113.896Z" fill="white" stroke="black" stroke-width="0.3" stroke-linecap="round" stroke-linejoin="round"/>
<path d="M54.6233 103.627L62.85 112.919L46.8358 117.657L38.609 108.361L54.6233 103.627Z" fill="#2FFD76" stroke="black" stroke-width="0.3" stroke-linecap="round" stroke-linejoin="round"/>
<path d="M46.8358 117.658V130.248L62.8501 125.514V112.92L46.8358 117.658Z" fill="#118338" stroke="black" stroke-width="0.3" stroke-linecap="round" stroke-linejoin="round"/>
<path d="M46.8358 117.657V130.248L38.609 121.931V108.361L46.8358 117.657Z" fill="white" stroke="black" stroke-width="0.3" stroke-linecap="round" stroke-linejoin="round"/>
<path d="M38.609 107.391L46.8357 116.683L30.8178 121.418L22.5911 112.125L38.609 107.391Z" fill="#2FFD76" stroke="black" stroke-width="0.3" stroke-linecap="round" stroke-linejoin="round"/>
<path d="M30.8179 121.418V134.984L46.8358 130.25V116.684L30.8179 121.418Z" fill="#118338" stroke="black" stroke-width="0.3" stroke-linecap="round" stroke-linejoin="round"/>
<path d="M30.8178 121.417V134.984L22.5911 126.667V112.125L30.8178 121.417Z" fill="white" stroke="black" stroke-width="0.3" stroke-linecap="round" stroke-linejoin="round"/>
<path d="M22.5911 111.147L30.8178 120.44L14.8035 125.174L6.57678 115.882L22.5911 111.147Z" fill="#2FFD76" stroke="black" stroke-width="0.3" stroke-linecap="round" stroke-linejoin="round"/>
<path d="M14.8036 125.174V139.716L30.8179 134.981V120.439L14.8036 125.174Z" fill="#118338" stroke="black" stroke-width="0.3" stroke-linecap="round" stroke-linejoin="round"/>
<path d="M14.8035 125.174V139.716L6.57678 130.424V115.882L14.8035 125.174Z" fill="white" stroke="black" stroke-width="0.3" stroke-linecap="round" stroke-linejoin="round"/>
<path d="M78.886 109.184L87.1128 118.476L71.0985 123.21L62.8717 113.918L78.886 109.184Z" fill="#2FFD76" stroke="black" stroke-width="0.3" stroke-linecap="round" stroke-linejoin="round"/>
<path d="M71.0985 123.211L71.0769 134.808L87.0948 130.073L87.1128 118.477L71.0985 123.211Z" fill="#C2C8CF" stroke="black" stroke-width="0.3" stroke-linecap="round" stroke-linejoin="round"/>
<path d="M71.0985 123.21L71.0769 133.507L62.8501 124.215L62.8717 113.918L71.0985 123.21Z" fill="white" stroke="black" stroke-width="0.3" stroke-linecap="round" stroke-linejoin="round"/>
<path d="M62.8718 115.217L71.0985 124.509L55.0806 129.247L46.8539 119.951L62.8718 115.217Z" fill="#2FFD76" stroke="black" stroke-width="0.3" stroke-linecap="round" stroke-linejoin="round"/>
<path d="M55.0806 129.248L55.0626 139.541L71.0769 134.807L71.0985 124.51L55.0806 129.248Z" fill="#118338" stroke="black" stroke-width="0.3" stroke-linecap="round" stroke-linejoin="round"/>
<path d="M55.0806 129.247L55.0626 139.541L46.8358 130.248L46.8538 119.951L55.0806 129.247Z" fill="white" stroke="black" stroke-width="0.3" stroke-linecap="round" stroke-linejoin="round"/>
<path d="M46.8538 121.252L55.0805 130.548L39.0662 135.282L30.8395 125.99L46.8538 121.252Z" fill="#2FFD76" stroke="black" stroke-width="0.3" stroke-linecap="round" stroke-linejoin="round"/>
<path d="M39.0663 135.283L39.0447 144.277L55.0626 139.542L55.0806 130.549L39.0663 135.283Z" fill="#118338" stroke="black" stroke-width="0.3" stroke-linecap="round" stroke-linejoin="round"/>
<path d="M39.0662 135.283L39.0446 144.276L30.8179 134.984L30.8395 125.99L39.0662 135.283Z" fill="white" stroke="black" stroke-width="0.3" stroke-linecap="round" stroke-linejoin="round"/>
<path d="M30.8395 127.289L39.0663 136.582L23.0484 141.316L14.8217 132.023L30.8395 127.289Z" fill="#2FFD76" stroke="black" stroke-width="0.3" stroke-linecap="round" stroke-linejoin="round"/>
<path d="M23.0484 141.316L23.0304 149.014L39.0447 144.276L39.0663 136.582L23.0484 141.316Z" fill="#118338" stroke="black" stroke-width="0.3" stroke-linecap="round" stroke-linejoin="round"/>
<path d="M23.0483 141.316L23.0303 149.013L14.8036 139.717L14.8216 132.023L23.0483 141.316Z" fill="white" stroke="black" stroke-width="0.3" stroke-linecap="round" stroke-linejoin="round"/>
<path d="M79.3108 132.487L79.3252 144.102L88.4413 141.405C91.1055 140.617 92.6357 139.054 92.6357 137.43L92.6501 125.809L79.3073 132.487H79.3108Z" fill="#C2C8CF" stroke="black" stroke-width="0.3" stroke-linecap="round" stroke-linejoin="round"/>
<path d="M87.1129 118.474L91.797 123.763C92.3766 124.418 92.6502 125.117 92.6502 125.805C92.6502 127.428 91.1201 128.991 88.4558 129.779L79.3398 132.476L71.0842 123.191C71.0842 123.191 87.1309 118.489 87.1165 118.471L87.1129 118.474Z" fill="#2FFD76" stroke="black" stroke-width="0.3" stroke-linecap="round" stroke-linejoin="round"/>
<path d="M71.084 123.193L71.066 134.815L79.3252 144.1L79.3396 132.479L71.084 123.193Z" fill="white" stroke="black" stroke-width="0.3" stroke-linecap="round" stroke-linejoin="round"/>
<path d="M71.084 126.443L79.3108 135.739L63.2929 140.474L55.0662 131.178L71.084 126.443Z" fill="#2FFD76" stroke="black" stroke-width="0.3" stroke-linecap="round" stroke-linejoin="round"/>
<path d="M63.293 140.475L63.3074 148.838L79.3253 144.104L79.3108 135.74L63.293 140.475Z" fill="#C2C8CF" stroke="black" stroke-width="0.3" stroke-linecap="round" stroke-linejoin="round"/>
<path d="M63.2929 140.474L63.3073 148.837L55.0806 139.545L55.0662 131.178L63.2929 140.474Z" fill="white" stroke="black" stroke-width="0.3" stroke-linecap="round" stroke-linejoin="round"/>
<path d="M55.0662 134.428L63.2929 143.72L47.2786 148.455L39.0519 139.162L55.0662 134.428Z" fill="#2FFD76" stroke="black" stroke-width="0.3" stroke-linecap="round" stroke-linejoin="round"/>
<path d="M47.2787 148.455L47.2931 153.571L63.3074 148.837L63.293 143.721L47.2787 148.455Z" fill="#C2C8CF" stroke="black" stroke-width="0.3" stroke-linecap="round" stroke-linejoin="round"/>
<path d="M47.2786 148.455L47.293 153.571L39.0663 144.278L39.0519 139.162L47.2786 148.455Z" fill="white" stroke="black" stroke-width="0.3" stroke-linecap="round" stroke-linejoin="round"/>
<path d="M33.8098 151.703L23.0304 147.145V149.013L27.7324 154.324C28.971 155.721 31.3004 156.585 33.8098 156.739C35.2499 156.829 36.7477 156.689 38.1302 156.279L47.2894 153.571V151.703H33.8062H33.8098Z" fill="white"/>
<path d="M32.6505 154.748V156.627" stroke="#C2C8CF" stroke-linecap="round" stroke-linejoin="round"/>
<path d="M33.8097 151.703V156.74C35.2499 156.83 36.7476 156.69 38.1301 156.279L47.2894 153.572V151.703H33.8062H33.8097Z" fill="#C2C8CF"/>
<path d="M33.8098 151.703L23.0304 147.145V149.013L27.7324 154.324C28.971 155.721 31.3004 156.585 33.8098 156.739C35.2499 156.829 36.7477 156.689 38.1302 156.279L47.2894 153.571V151.703H33.8062H33.8098Z" stroke="black" stroke-width="0.3" stroke-linecap="round" stroke-linejoin="round"/>
<path d="M47.2931 151.703L38.1339 154.41C34.3391 155.534 29.6839 154.655 27.7361 152.455L23.0341 147.145L39.0555 142.414L47.2967 151.703H47.2931Z" fill="#2FFD76" stroke="black" stroke-width="0.3" stroke-linecap="round" stroke-linejoin="round"/>
<path d="M70.6268 8.75445L65.9247 3.44396C63.977 1.24416 59.3181 0.365674 55.527 1.48898L46.3641 4.19643L54.6053 13.4853L70.6268 8.75445Z" fill="white" stroke="black" stroke-width="0.3" stroke-linecap="round" stroke-linejoin="round"/>
<path d="M46.3641 4.19629L46.3785 15.8326L54.6053 25.125V13.4851L46.3641 4.19629Z" fill="white" stroke="black" stroke-width="0.3" stroke-linecap="round" stroke-linejoin="round"/>
<path d="M70.6268 8.75488V20.3948L54.6053 25.1256V13.4857L70.6268 8.75488Z" fill="#C2C8CF" stroke="black" stroke-width="0.3" stroke-linecap="round" stroke-linejoin="round"/>
<path d="M46.3787 4.19336L54.6054 13.4858L38.5911 18.2203L30.3644 8.9278L46.3787 4.19336Z" fill="white" stroke="black" stroke-width="0.3" stroke-linecap="round" stroke-linejoin="round"/>
<path d="M38.5912 18.2198V62.6767L54.6055 57.9423V13.4854L38.5912 18.2198Z" fill="#118338" stroke="black" stroke-width="0.3" stroke-linecap="round" stroke-linejoin="round"/>
<path d="M38.5911 18.2202V62.6771L30.3644 53.3846V8.92773L38.5911 18.2202Z" fill="white" stroke="black" stroke-width="0.3" stroke-linecap="round" stroke-linejoin="round"/>
<path d="M30.3643 8.92676L38.5911 18.2192L22.5732 22.9537L14.3464 13.6612L30.3643 8.92676Z" fill="white" stroke="black" stroke-width="0.3" stroke-linecap="round" stroke-linejoin="round"/>
<path d="M22.5732 22.9532V83.3344L38.5911 78.5999V18.2188L22.5732 22.9532Z" fill="#118338" stroke="black" stroke-width="0.3" stroke-linecap="round" stroke-linejoin="round"/>
<path d="M22.5732 22.9536V83.3348L14.3464 74.0387V13.6611L22.5732 22.9536Z" fill="white" stroke="black" stroke-width="0.3" stroke-linecap="round" stroke-linejoin="round"/>
<path d="M22.5732 104.326V22.9551L6.5553 25.2341V109.039L22.5732 104.326Z" fill="#118338" stroke="black" stroke-width="0.3" stroke-linecap="round" stroke-linejoin="round"/>
<path d="M1.00366 20.3408V101.712C1.00366 102.4 1.27729 103.098 1.86054 103.753L6.54458 109.042H6.55897V25.2337L1.00727 20.3408H1.00366Z" fill="white" stroke="black" stroke-width="0.3" stroke-linecap="round" stroke-linejoin="round"/>
<path d="M6.54091 27.6714L1.85687 22.3825C1.27722 21.7272 1 21.0288 1 20.3411C1 18.7173 2.53013 17.1548 5.19798 16.3663L14.3608 13.6553L22.5696 22.9549L6.5373 27.6714H6.54091Z" fill="white" stroke="black" stroke-width="0.3" stroke-linecap="round" stroke-linejoin="round"/>
<path d="M70.6268 8.75391L78.8535 18.0464L62.8356 22.7808L54.6089 13.4883L70.6268 8.75391Z" fill="white" stroke="black" stroke-width="0.3" stroke-linecap="round" stroke-linejoin="round"/>
<path d="M62.8357 22.7803V34.3986L78.8536 29.6642V18.0459L62.8357 22.7803Z" fill="#C2C8CF" stroke="black" stroke-width="0.3" stroke-linecap="round" stroke-linejoin="round"/>
<path d="M62.8356 22.7807V34.399L54.6089 27.0579V13.4883L62.8356 22.7807Z" fill="white" stroke="black" stroke-width="0.3" stroke-linecap="round" stroke-linejoin="round"/>
<path d="M54.609 13.4883L62.8358 22.7807L46.8215 27.5152L38.5947 18.2227L54.609 13.4883Z" fill="white" stroke="black" stroke-width="0.3" stroke-linecap="round" stroke-linejoin="round"/>
<path d="M46.8215 27.5147V40.1087L62.8358 35.3742V22.7803L46.8215 27.5147Z" fill="#118338" stroke="black" stroke-width="0.3" stroke-linecap="round" stroke-linejoin="round"/>
<path d="M46.8215 27.5151V40.1091L38.5947 31.7923V18.2227L46.8215 27.5151Z" fill="white" stroke="black" stroke-width="0.3" stroke-linecap="round" stroke-linejoin="round"/>
<path d="M38.5947 18.2227L46.8214 27.5151L30.8035 32.2532L22.5768 22.9571L38.5947 18.2227Z" fill="white" stroke="black" stroke-width="0.3" stroke-linecap="round" stroke-linejoin="round"/>
<path d="M30.8036 32.2527V45.8187L46.8215 41.0843V27.5146L30.8036 32.2527Z" fill="#118338" stroke="black" stroke-width="0.3" stroke-linecap="round" stroke-linejoin="round"/>
<path d="M30.8035 32.2531V45.8191L22.5768 37.5024V22.957L30.8035 32.2531Z" fill="white" stroke="black" stroke-width="0.3" stroke-linecap="round" stroke-linejoin="round"/>
<path d="M22.5768 22.958L30.8035 32.2541L14.7893 36.9885L6.5625 27.696L22.5768 22.958Z" fill="white" stroke="black" stroke-width="0.3" stroke-linecap="round" stroke-linejoin="round"/>
<path d="M14.7893 36.9883V67.7748L30.8036 63.0404V32.2539L14.7893 36.9883Z" fill="#118338" stroke="black" stroke-width="0.3" stroke-linecap="round" stroke-linejoin="round"/>
<path d="M14.7893 36.9887V67.7752L6.5625 58.4827V27.6963L14.7893 36.9887Z" fill="white" stroke="black" stroke-width="0.3" stroke-linecap="round" stroke-linejoin="round"/>
<path d="M78.8538 18.0469L87.0806 27.3393L71.0627 32.0738L62.8359 22.7813L78.8538 18.0469Z" fill="white" stroke="black" stroke-width="0.3" stroke-linecap="round" stroke-linejoin="round"/>
<path d="M71.0624 32.0733L71.0444 43.67L87.0623 38.9355L87.0803 27.3389L71.0624 32.0733Z" fill="#C2C8CF" stroke="black" stroke-width="0.3" stroke-linecap="round" stroke-linejoin="round"/>
<path d="M71.0625 32.0737L71.0445 42.3707L62.8177 33.0782L62.8358 22.7812L71.0625 32.0737Z" fill="white" stroke="black" stroke-width="0.3" stroke-linecap="round" stroke-linejoin="round"/>
<path d="M62.8359 22.7812L71.0627 32.0737L55.0484 36.8117L46.8217 27.5157L62.8359 22.7812Z" fill="white" stroke="black" stroke-width="0.3" stroke-linecap="round" stroke-linejoin="round"/>
<path d="M55.0482 36.8113L55.0266 47.1046L71.0445 42.3702L71.0625 32.0732L55.0482 36.8113Z" fill="#118338" stroke="black" stroke-width="0.3" stroke-linecap="round" stroke-linejoin="round"/>
<path d="M55.0482 36.8117L55.0266 47.105L46.7998 37.8126L46.8214 27.5156L55.0482 36.8117Z" fill="white" stroke="black" stroke-width="0.3" stroke-linecap="round" stroke-linejoin="round"/>
<path d="M46.8216 27.5156L55.0484 36.8117L39.0305 41.5461L30.8037 32.2537L46.8216 27.5156Z" fill="white" stroke="black" stroke-width="0.3" stroke-linecap="round" stroke-linejoin="round"/>
<path d="M39.0303 41.546L39.0123 50.5432L55.0266 45.8052L55.0482 36.8115L39.0303 41.546Z" fill="#118338" stroke="black" stroke-width="0.3" stroke-linecap="round" stroke-linejoin="round"/>
<path d="M39.0303 41.5464L39.0123 50.5436L30.7855 41.2475L30.8035 32.2539L39.0303 41.5464Z" fill="white" stroke="black" stroke-width="0.3" stroke-linecap="round" stroke-linejoin="round"/>
<path d="M30.8035 32.2529L39.0302 41.5454L23.0159 46.2798L14.7892 36.9874L30.8035 32.2529Z" fill="white" stroke="black" stroke-width="0.3" stroke-linecap="round" stroke-linejoin="round"/>
<path d="M23.016 46.2794L22.9944 57.2244L39.0123 52.4899L39.0303 41.5449L23.016 46.2794Z" fill="#118338" stroke="black" stroke-width="0.3" stroke-linecap="round" stroke-linejoin="round"/>
<path d="M23.0159 46.2798L22.9943 57.2248L14.7676 47.9323L14.7892 36.9873L23.0159 46.2798Z" fill="white" stroke="black" stroke-width="0.3" stroke-linecap="round" stroke-linejoin="round"/>
<path d="M79.2785 41.3778L79.2929 52.9925L88.4089 50.2959C91.0732 49.5074 92.6033 47.9448 92.6033 46.3211L92.6177 34.6992L79.2749 41.3778H79.2785Z" fill="#C2C8CF" stroke="black" stroke-width="0.3" stroke-linecap="round" stroke-linejoin="round"/>
<path d="M87.084 27.3688L91.768 32.6577C92.3477 33.313 92.6213 34.0114 92.6213 34.6991C92.6213 36.3229 91.0911 37.8854 88.4269 38.6739L79.3109 41.3705L71.0553 32.0853C71.0553 32.0853 87.102 27.3832 87.0876 27.3652L87.084 27.3688Z" fill="white" stroke="black" stroke-width="0.3" stroke-linecap="round" stroke-linejoin="round"/>
<path d="M71.0517 32.085L71.0374 43.7068L79.2929 52.9921L79.3109 41.3702L71.0517 32.085Z" fill="white" stroke="black" stroke-width="0.3" stroke-linecap="round" stroke-linejoin="round"/>
<path d="M71.0842 32.0781L79.3109 41.3706L63.293 46.105L55.0663 36.8126L71.0842 32.0781Z" fill="white" stroke="black" stroke-width="0.3" stroke-linecap="round" stroke-linejoin="round"/>
<path d="M63.2931 46.1055L63.3075 54.4691L79.3254 49.7347L79.311 41.3711L63.2931 46.1055Z" fill="#C2C8CF" stroke="black" stroke-width="0.3" stroke-linecap="round" stroke-linejoin="round"/>
<path d="M63.293 46.105L63.3075 54.4685L55.0807 45.1761L55.0663 36.8125L63.293 46.105Z" fill="white" stroke="black" stroke-width="0.3" stroke-linecap="round" stroke-linejoin="round"/>
<path d="M55.0663 36.8115L63.293 46.104L47.2788 50.8384L39.052 41.546L55.0663 36.8115Z" fill="white" stroke="black" stroke-width="0.3" stroke-linecap="round" stroke-linejoin="round"/>
<path d="M47.2788 50.8389L47.2932 55.955L63.3075 51.2206L63.2931 46.1045L47.2788 50.8389Z" fill="#C2C8CF" stroke="black" stroke-width="0.3" stroke-linecap="round" stroke-linejoin="round"/>
<path d="M47.2788 50.8384L47.2932 55.9544L39.0664 46.662L39.052 41.5459L47.2788 50.8384Z" fill="white" stroke="black" stroke-width="0.3" stroke-linecap="round" stroke-linejoin="round"/>
<path d="M33.7955 50.8402L23.0161 46.2822V48.1508L27.7181 53.4613C28.9567 54.8582 31.2861 55.7223 33.7955 55.8771C35.2356 55.9671 36.7334 55.8267 38.1159 55.4163L47.2752 52.7088V50.8402H33.7919H33.7955Z" fill="white"/>
<path d="M32.6362 53.8857V55.7687" stroke="#C2C8CF" stroke-linecap="round" stroke-linejoin="round"/>
<path d="M33.7955 50.8398V55.8767C35.2356 55.9667 36.7333 55.8263 38.1159 55.4159L47.2751 52.7084V50.8398H33.7919H33.7955Z" fill="#C2C8CF"/>
<path d="M33.7955 50.8402L23.0161 46.2822V48.1508L27.7181 53.4613C28.9567 54.8582 31.2861 55.7223 33.7955 55.8771C35.2356 55.9671 36.7334 55.8267 38.1159 55.4163L47.2752 52.7088V50.8402H33.7919H33.7955Z" stroke="black" stroke-width="0.3" stroke-linecap="round" stroke-linejoin="round"/>
<path d="M47.2788 50.8396L38.1196 53.5471C34.3248 54.6704 29.6696 53.7919 27.7218 51.5921L23.0198 46.2816L39.0413 41.5508L47.2824 50.8396H47.2788Z" fill="white" stroke="black" stroke-width="0.3" stroke-linecap="round" stroke-linejoin="round"/>
<path d="M63.9591 98.1794C65.2048 100.264 65.3704 103.767 64.3227 105.96L54.4218 126.705C53.3741 128.897 51.4983 128.987 50.2526 126.899L26.278 86.7951C25.0323 84.7105 24.8667 81.2074 25.9144 79.0148L35.8153 58.2697C36.863 56.0771 38.7388 55.9871 39.9845 58.0753L63.9591 98.1794Z" fill="black" stroke="black" stroke-width="0.3" stroke-linecap="round" stroke-linejoin="round"/>
<path d="M41.1473 79.9757C41.3345 80.2889 41.3597 80.811 41.2013 81.1422L39.1887 85.3618C39.0303 85.6894 38.7495 85.7038 38.5658 85.3906L34.9763 79.3852C34.7891 79.072 34.7639 78.55 34.9223 78.2187L36.9349 73.9991C37.0933 73.6715 37.3741 73.6571 37.5577 73.9703L41.1473 79.9757Z" fill="white"/>
<path d="M39.3976 83.4142L36.0601 77.8301" stroke="black" stroke-width="0.3" stroke-linecap="round" stroke-linejoin="round"/>
<path d="M40.4057 81.2941L37.0646 75.71" stroke="black" stroke-width="0.3" stroke-linecap="round" stroke-linejoin="round"/>
<path d="M40.0961 78.2148L39.4768 79.7378" stroke="black" stroke-width="0.3" stroke-linecap="round" stroke-linejoin="round"/>
<path d="M38.735 75.9365L38.1122 77.4631" stroke="black" stroke-width="0.3" stroke-linecap="round" stroke-linejoin="round"/>
<path d="M38.4615 81.8477L37.8386 83.3742" stroke="black" stroke-width="0.3" stroke-linecap="round" stroke-linejoin="round"/>
<path d="M37.1005 79.5684L36.4777 81.0949" stroke="black" stroke-width="0.3" stroke-linecap="round" stroke-linejoin="round"/>
<path d="M50.2525 126.9C51.4982 128.984 53.3776 128.898 54.4217 126.705L62.5333 109.712L32.8413 97.7803L50.2489 126.9H50.2525Z" fill="#118338" stroke="black" stroke-width="0.3" stroke-linecap="round" stroke-linejoin="round"/>
<path d="M61.8925 111.058L34.0907 99.8857" stroke="black" stroke-width="0.3" stroke-linecap="round" stroke-linejoin="round"/>
<path d="M52.1679 123.68C51.8979 124.245 51.4155 124.267 51.095 123.73L49.0249 120.267C48.7044 119.73 48.6612 118.83 48.9312 118.265C49.2013 117.7 49.6837 117.678 50.0041 118.215L52.0743 121.678C52.3948 122.215 52.438 123.115 52.1679 123.68Z" fill="black"/>
<path d="M80.0454 107.147L82.5584 109.985L77.662 111.432L75.1489 108.595L80.0454 107.147Z" fill="black" stroke="black" stroke-width="0.3" stroke-linecap="round" stroke-linejoin="round"/>
<path d="M78.8285 114.57L75.1489 108.594L77.662 111.431L78.8285 114.57Z" fill="black" stroke="black" stroke-width="0.3" stroke-linecap="round" stroke-linejoin="round"/>
<path d="M78.8285 114.57L82.5584 109.983L77.662 111.431L78.8285 114.57Z" fill="#2FFD76" stroke="black" stroke-width="0.3" stroke-linecap="round" stroke-linejoin="round"/>
<path d="M78.8285 101.423L75.1489 107.259L77.662 110.1L78.8285 101.423Z" fill="#118338" stroke="black" stroke-width="0.3" stroke-linecap="round" stroke-linejoin="round"/>
<path d="M78.8285 101.423L82.5584 108.652L77.662 110.1L78.8285 101.423Z" fill="#2FFD76" stroke="black" stroke-width="0.3" stroke-linecap="round" stroke-linejoin="round"/>
<path d="M17.3959 77.9893L20.5498 81.5536L14.4112 83.3682L11.2573 79.8038L17.3959 77.9893Z" fill="black" stroke="black" stroke-width="0.3" stroke-linecap="round" stroke-linejoin="round"/>
<path d="M15.8693 87.3042L11.2573 79.8047L14.4112 83.369L15.8693 87.3042Z" fill="black" stroke="black" stroke-width="0.3" stroke-linecap="round" stroke-linejoin="round"/>
<path d="M15.8694 87.3044L20.5498 81.5547L14.4113 83.3693L15.8694 87.3044Z" fill="#2FFD76" stroke="black" stroke-width="0.3" stroke-linecap="round" stroke-linejoin="round"/>
<path d="M15.8693 70.8105L11.2573 78.1336L14.4112 81.6944L15.8693 70.8105Z" fill="#118338" stroke="black" stroke-width="0.3" stroke-linecap="round" stroke-linejoin="round"/>
<path d="M15.8694 70.8105L20.5498 79.8798L14.4113 81.6944L15.8694 70.8105Z" fill="#2FFD76" stroke="black" stroke-width="0.3" stroke-linecap="round" stroke-linejoin="round"/>
<path d="M61.59 72.585L63.5486 74.7956L59.7395 75.9189L57.7809 73.7119L61.59 72.585Z" fill="#2FFD76" stroke="black" stroke-width="0.3" stroke-linecap="round" stroke-linejoin="round"/>
<path d="M60.6431 78.3635L57.7809 73.7119L59.7395 75.9189L60.6431 78.3635Z" fill="black" stroke="black" stroke-width="0.3" stroke-linecap="round" stroke-linejoin="round"/>
<path d="M60.6431 78.3638L63.5485 74.7959L59.7394 75.9192L60.6431 78.3638Z" fill="#2FFD76" stroke="black" stroke-width="0.3" stroke-linecap="round" stroke-linejoin="round"/>
<path d="M53.7377 94.0166L50.5479 99.0787L52.7297 101.541L53.7377 94.0166Z" fill="#118338" stroke="black" stroke-width="0.3" stroke-linecap="round" stroke-linejoin="round"/>
<path d="M53.7377 94.0166L56.9708 100.288L52.7296 101.541L53.7377 94.0166Z" fill="#2FFD76" stroke="black" stroke-width="0.3" stroke-linecap="round" stroke-linejoin="round"/>
</svg>
