<svg width="652" height="683" viewBox="0 0 652 683" fill="none" xmlns="http://www.w3.org/2000/svg">
<path d="M383.02 547.71L228.14 501.92C216.46 498.47 202.13 501.16 196.13 507.93L116.58 597.79C114.79 599.81 113.95 601.96 113.95 604.08C113.95 607.38 116.02 610.6 119.79 613.11L119.88 613.17C120.54 613.61 121.26 614.02 122.02 614.41L129.13 618.52L130.83 616.23L281.75 662.12C293.43 665.57 307.76 662.88 313.76 656.1L393.31 566.24C395.09 564.22 395.94 562.07 395.94 559.96C395.94 554.96 391.23 550.15 383.03 547.72L383.02 547.71Z" fill="black" stroke="black" stroke-linecap="round" stroke-linejoin="round"/>
<path d="M373.08 547.04L236.39 506.63C224.71 503.18 210.38 505.87 204.38 512.64L134.86 591.17H122.2V608.78C122.2 613.78 126.91 618.59 135.12 621.02L290 666.81C301.68 670.26 316.01 667.57 322.01 660.79L401.56 570.93C403.34 568.91 404.19 566.76 404.19 564.65V547.04H373.09H373.08Z" fill="#C2C8CF"/>
<path d="M301.52 525.89V668.32C309.9 668.16 317.9 665.44 322.01 660.81L401.56 570.95C403.34 568.93 404.19 566.78 404.19 564.67V547.06H373.09L301.53 525.9L301.52 525.89Z" fill="white"/>
<path d="M305.55 667.9V650.29" stroke="#C2C8CF" stroke-linecap="round" stroke-linejoin="round"/>
<path d="M373.08 547.04L236.39 506.63C224.71 503.18 210.38 505.87 204.38 512.64L134.86 591.17H122.2V608.78C122.2 613.78 126.91 618.59 135.12 621.02L290 666.81C301.68 670.26 316.01 667.57 322.01 660.79L401.56 570.93C403.34 568.91 404.19 566.76 404.19 564.65V547.04H373.09H373.08Z" stroke="black" stroke-linecap="round" stroke-linejoin="round"/>
<path d="M124.83 584.9C123.04 586.92 122.2 589.07 122.2 591.19C122.2 596.19 126.91 601 135.12 603.43L290 649.22C301.68 652.67 316.01 649.98 322.01 643.2L401.56 553.34C403.34 551.32 404.19 549.17 404.19 547.06C404.19 542.06 399.48 537.25 391.28 534.82L236.4 489.03C224.72 485.58 210.39 488.27 204.39 495.04L124.84 584.9H124.83Z" fill="white" stroke="black" stroke-linecap="round" stroke-linejoin="round"/>
<path d="M142.8 585.06C139.89 588.35 142.12 592.37 147.79 594.05L294.89 637.54C300.55 639.21 307.5 637.91 310.42 634.62L319.94 623.86C322.85 620.57 320.62 616.55 314.95 614.88L167.85 571.39C162.18 569.71 155.23 571.02 152.32 574.31L142.8 585.07V585.06Z" fill="white" stroke="black" stroke-linecap="round" stroke-linejoin="round"/>
<path d="M252.31 620.21L266.31 604.39" stroke="black" stroke-linecap="round" stroke-linejoin="round"/>
<path d="M196.69 603.77L210.69 587.95" stroke="black" stroke-linecap="round" stroke-linejoin="round"/>
<path d="M185.33 537.01C182.42 540.3 184.65 544.32 190.32 546L337.42 589.49C343.08 591.16 350.03 589.86 352.95 586.57L371.11 566.05C374.02 562.76 371.79 558.74 366.12 557.07L219.02 513.58C213.35 511.9 206.4 513.21 203.49 516.5L185.33 537.02V537.01Z" fill="white" stroke="black" stroke-linecap="round" stroke-linejoin="round"/>
<path d="M220.33 531.39C215.33 529.91 211.71 534.25 216.54 535.67L297.72 559.67L301.52 555.39L220.34 531.39H220.33Z" fill="#2FFD76" stroke="black" stroke-linecap="round" stroke-linejoin="round"/>
<path d="M339.77 566.69L301.52 555.38L297.72 559.66L335.97 570.97C340.98 572.45 344.58 568.11 339.76 566.69H339.77Z" fill="black" stroke="black" stroke-linecap="round" stroke-linejoin="round"/>
<path d="M166.43 560.25C168.1 558.36 171.16 557.44 174.01 558.29C176.38 558.99 176.96 560.34 176.09 561.61L174.15 561.04C174.54 560.35 174.19 559.71 173.05 559.38C171.27 558.85 169.55 559.58 168.43 560.85C167.28 562.15 167.48 563.39 169.09 563.87C170.24 564.21 171.45 563.99 172.16 563.36L174.08 563.93C173.53 564.48 172.68 564.91 171.68 565.12C170.66 565.33 169.49 565.33 168.15 564.93C165.44 564.13 164.73 562.18 166.43 560.26V560.25Z" fill="black"/>
<path d="M174.87 563.86C176.08 562.5 178.48 561.88 180.62 562.51C182.76 563.14 183.3 564.63 182.1 565.99C180.89 567.35 178.49 567.97 176.35 567.34C174.2 566.71 173.66 565.22 174.87 563.86ZM180.24 565.45C181.03 564.56 180.93 563.77 179.81 563.43C178.68 563.1 177.52 563.52 176.73 564.41C175.94 565.3 176.03 566.08 177.17 566.42C178.29 566.75 179.45 566.34 180.24 565.45Z" fill="black"/>
<path d="M186.6 562.16L188.43 562.7L182.79 569.07L180.96 568.53L186.6 562.16Z" fill="black"/>
<path d="M185.69 567.05C186.9 565.69 189.3 565.07 191.44 565.7C193.58 566.33 194.12 567.82 192.92 569.18C191.71 570.54 189.31 571.16 187.17 570.53C185.02 569.9 184.48 568.41 185.69 567.05ZM191.06 568.64C191.85 567.75 191.75 566.96 190.63 566.62C189.5 566.28 188.34 566.71 187.55 567.6C186.76 568.49 186.85 569.27 187.99 569.61C189.11 569.94 190.27 569.53 191.06 568.64Z" fill="black"/>
<path d="M196.12 573.01L196.59 572.48H196.55C195.71 572.75 194.95 572.83 193.98 572.54C192.44 572.08 192.15 571.18 193.04 570.18L195.74 567.13L197.56 567.67L195.04 570.51C194.57 571.04 194.67 571.45 195.45 571.68C196.31 571.93 197.22 571.66 197.75 571.06L200.08 568.42L201.92 568.96L197.87 573.53L196.1 573.01H196.12Z" fill="black"/>
<path d="M204.23 570.57H204.27C205.15 570.19 205.85 570.06 206.66 570.3C206.86 570.36 206.98 570.4 207.06 570.46L206.12 571.52H206.08C204.95 571.07 203.72 571.24 202.86 572.2L200.89 574.43L199.06 573.89L203.11 569.32L204.88 569.84L204.23 570.57Z" fill="black"/>
<path d="M219.92 504.01L220.17 499.15L222.3 499.78L222.08 502.1C222.04 502.57 221.91 503.2 221.91 503.2H221.94C221.94 503.2 222.77 502.79 223.39 502.49L226.49 501.02L228.54 501.63L221.87 504.59L219.69 507.05L217.73 506.47L219.91 504.01H219.92Z" fill="black"/>
<path d="M223.82 505.39C225.03 504.03 227.43 503.41 229.57 504.04C231.71 504.67 232.25 506.16 231.05 507.52C229.84 508.88 227.44 509.5 225.3 508.87C223.15 508.24 222.62 506.75 223.82 505.39ZM229.19 506.98C229.98 506.09 229.88 505.29 228.76 504.96C227.63 504.63 226.47 505.05 225.68 505.94C224.89 506.83 224.98 507.61 226.12 507.95C227.24 508.28 228.4 507.87 229.19 506.98Z" fill="black"/>
<path d="M234.25 511.35L234.72 510.82H234.68C233.84 511.09 233.08 511.17 232.11 510.88C230.57 510.42 230.28 509.52 231.17 508.52L233.87 505.47L235.69 506.01L233.17 508.85C232.7 509.39 232.8 509.79 233.58 510.02C234.44 510.28 235.35 510 235.88 509.4L238.21 506.76L240.05 507.3L236 511.87L234.23 511.35H234.25Z" fill="black"/>
<path d="M242.37 508.91H242.41C243.29 508.53 243.99 508.4 244.8 508.64C245 508.7 245.12 508.74 245.2 508.8L244.26 509.86H244.22C243.09 509.41 241.86 509.58 241.01 510.54L239.04 512.77L237.21 512.23L241.26 507.66L243.03 508.18L242.38 508.91H242.37Z" fill="black"/>
<path d="M245.08 512.69L246.78 513.19C246.44 513.75 246.8 514.15 247.62 514.39C248.43 514.63 249.07 514.56 249.35 514.24C249.74 513.8 248.9 513.5 248.07 513.09C246.97 512.56 245.95 511.98 246.84 510.98C247.72 509.99 249.38 509.89 250.95 510.35C252.77 510.89 253.25 511.78 252.58 512.74L250.92 512.25C251.27 511.74 250.96 511.42 250.18 511.19C249.47 510.98 248.83 511.02 248.54 511.35C248.19 511.74 249.08 512.05 249.95 512.47C250.97 512.97 252.06 513.56 251.11 514.64C250.3 515.56 248.62 515.76 246.89 515.25C244.88 514.66 244.33 513.68 245.08 512.68V512.69Z" fill="black"/>
<path d="M254.79 511.66L256.62 512.2L252.57 516.77L250.74 516.23L254.79 511.66ZM256.38 509.86L258.21 510.4L257.25 511.49L255.42 510.95L256.38 509.86Z" fill="black"/>
<path d="M254.35 516.13L260.27 514.52L260.29 514.49L257.13 513.56L257.97 512.61L263.26 514.17L262.4 515.14L256.62 516.71L256.6 516.74L260.26 517.82L259.4 518.79L253.53 517.06L254.35 516.13Z" fill="black"/>
<path d="M261.79 516.61C262.99 515.25 265.31 514.61 267.33 515.21C269.56 515.87 269.75 517.34 268.31 518.97L263.29 517.49C262.8 518.23 263.01 518.85 264.05 519.15C264.77 519.36 265.37 519.27 265.88 518.98L267.69 519.51C266.71 520.25 265.01 520.61 263.23 520.08C260.94 519.4 260.58 517.96 261.79 516.6V516.61ZM264.06 516.66L267.14 517.57C267.6 516.97 267.37 516.4 266.54 516.15C265.57 515.86 264.76 516.11 264.07 516.66H264.06Z" fill="black"/>
<path d="M163.11 585.83H163.09C162.1 586.23 161.25 586.22 160.38 585.96C159.28 585.63 158.65 585.12 158.44 584.5C158.23 583.88 158.44 583.15 159.08 582.42C159.79 581.62 160.84 581.04 162.02 580.8C162.93 580.62 163.88 580.65 164.86 580.94C166.69 581.48 167.16 582.46 166.55 583.47L165.1 583.04C165.35 582.53 165.1 582.03 164.17 581.75C162.79 581.34 161.44 581.9 160.6 582.85C159.73 583.83 159.87 584.79 161.13 585.16C162.26 585.49 163.5 585.16 163.97 584.62L163.99 584.59L162.24 584.07L162.91 583.32L165.98 584.23L163.71 586.79L162.6 586.46L163.12 585.8L163.11 585.83Z" fill="black"/>
<path d="M168.78 584.66H168.81C169.47 584.37 170.01 584.27 170.62 584.45C170.77 584.49 170.86 584.53 170.92 584.57L170.21 585.37H170.18C169.33 585.03 168.39 585.16 167.75 585.88L166.26 587.57L164.87 587.16L167.93 583.7L169.27 584.1L168.78 584.65V584.66Z" fill="black"/>
<path d="M169.83 586.45C170.74 585.43 172.49 584.94 174.02 585.39C175.7 585.89 175.85 587 174.76 588.24L170.97 587.12C170.6 587.68 170.76 588.15 171.54 588.38C172.08 588.54 172.54 588.47 172.93 588.25L174.3 588.65C173.57 589.21 172.28 589.48 170.93 589.08C169.2 588.57 168.93 587.48 169.84 586.45H169.83ZM171.54 586.49L173.87 587.18C174.22 586.73 174.05 586.3 173.41 586.11C172.68 585.89 172.06 586.08 171.54 586.49Z" fill="black"/>
<path d="M175.63 588.16C176.54 587.14 178.29 586.65 179.82 587.1C181.5 587.6 181.65 588.71 180.56 589.95L176.77 588.83C176.4 589.39 176.56 589.86 177.34 590.09C177.88 590.25 178.34 590.18 178.73 589.96L180.1 590.36C179.37 590.92 178.08 591.19 176.73 590.79C175 590.28 174.73 589.19 175.64 588.15L175.63 588.16ZM177.34 588.2L179.67 588.89C180.02 588.44 179.85 588.01 179.21 587.82C178.48 587.6 177.86 587.79 177.34 588.2Z" fill="black"/>
<path d="M184.16 589.1H184.19C184.87 588.84 185.53 588.79 186.24 589C187.32 589.32 187.57 590.07 186.9 590.83L184.9 593.09L183.51 592.68L185.39 590.56C185.72 590.19 185.63 589.83 185.04 589.66C184.43 589.48 183.69 589.66 183.28 590.14L181.54 592.1L180.15 591.69L183.21 588.23L184.57 588.63L184.15 589.1H184.16Z" fill="black"/>
<path d="M220.15 597.42L221.66 597.87L220.49 600.54C220.27 600.99 219.88 601.68 219.88 601.68H219.9C219.9 601.68 220.62 601.14 221.14 600.76L224.08 598.58L225.51 599L224.17 601.65C223.95 602.12 223.59 602.78 223.59 602.78H223.61C223.61 602.78 224.39 602.21 224.9 601.83L227.93 599.72L229.39 600.15L223.04 604.35L221.66 603.94L223.06 601.1C223.25 600.71 223.56 600.17 223.56 600.17H223.54C223.54 600.17 222.98 600.64 222.55 600.95L219.37 603.27L218 602.87L220.14 597.42H220.15Z" fill="black"/>
<path d="M229.93 602.6H229.96C230.66 602.36 231.25 602.3 231.96 602.51C233.04 602.83 233.29 603.58 232.62 604.34L230.62 606.6L229.23 606.19L231.11 604.07C231.44 603.7 231.35 603.34 230.76 603.17C230.15 602.99 229.41 603.17 229 603.65L227.26 605.61L225.87 605.2L230.14 600.38L231.53 600.79L229.93 602.6Z" fill="black"/>
<path d="M234.8 603.47L236.19 603.88L233.13 607.34L231.74 606.93L234.8 603.47ZM236.01 602.11L237.4 602.52L236.67 603.34L235.28 602.93L236.01 602.11Z" fill="black"/>
<path d="M237.03 604.13L237.75 604.34L238.71 603.26L240.07 603.66L239.11 604.74L240.01 605.01L239.47 605.62L238.57 605.35L236.95 607.18C236.72 607.44 236.86 607.59 237.17 607.68C237.34 607.73 237.58 607.79 237.58 607.79L236.98 608.46C236.98 608.46 236.65 608.38 236.1 608.22C235.43 608.02 234.84 607.63 235.42 606.97L237.22 604.94L236.5 604.73L237.04 604.12L237.03 604.13Z" fill="black"/>
<path d="M239.14 606.93C240.05 605.91 241.8 605.42 243.33 605.87C245.01 606.37 245.16 607.48 244.07 608.72L240.28 607.6C239.91 608.16 240.07 608.63 240.85 608.86C241.39 609.02 241.85 608.95 242.24 608.74L243.61 609.14C242.87 609.7 241.59 609.97 240.24 609.57C238.51 609.06 238.24 607.97 239.15 606.94L239.14 606.93ZM240.86 606.97L243.19 607.66C243.54 607.21 243.37 606.78 242.73 606.59C242 606.37 241.38 606.56 240.86 606.97Z" fill="black"/>
<path d="M276.7 614.13L279.96 615.09C280.75 615.32 281.23 615.63 281.41 615.96C281.6 616.31 281.53 616.66 281.19 617.04C280.75 617.53 280.01 617.71 279.19 617.67L279.17 617.69C279.84 618.08 280 618.69 279.47 619.28C279.07 619.73 278.58 619.98 277.94 620.09C277.31 620.21 276.54 620.16 275.76 619.93L272.42 618.94L276.69 614.12L276.7 614.13ZM274.63 618.58L276.33 619.08C277.04 619.29 277.71 619.15 278.05 618.76C278.46 618.3 278.16 617.92 277.48 617.72L275.82 617.23L274.63 618.58ZM278.06 616.98C278.7 617.17 279.32 617.1 279.65 616.72C279.97 616.36 279.75 616.04 279.1 615.84L277.47 615.36L276.45 616.51L278.05 616.98H278.06Z" fill="black"/>
<path d="M283.55 616.16L284.94 616.57L280.67 621.39L279.28 620.98L283.55 616.16Z" fill="black"/>
<path d="M285.31 622.28H285.29C284.79 622.46 284.24 622.55 283.34 622.28C282.27 621.96 281.84 621.37 282.45 620.68C283.12 619.92 284.28 619.95 285.54 620.19C286.48 620.37 286.92 620.44 287.15 620.17C287.37 619.92 287.22 619.67 286.64 619.5C285.99 619.31 285.53 619.37 285.2 619.69L283.97 619.32C284.55 618.73 285.7 618.4 287.23 618.85C288.8 619.31 289.02 619.97 288.31 620.77L286.75 622.53C286.52 622.79 286.44 622.97 286.51 623.06L286.48 623.09L285.14 622.7C285.12 622.61 285.21 622.43 285.32 622.27L285.31 622.28ZM286.06 621.45L286.52 620.93C286.19 620.95 285.77 620.89 285.37 620.85C284.55 620.74 284.1 620.75 283.81 621.07C283.52 621.39 283.75 621.61 284.24 621.75C285.03 621.99 285.76 621.79 286.06 621.45Z" fill="black"/>
<path d="M288.69 621.59C289.6 620.56 291.33 620.06 292.92 620.54C294.28 620.94 294.65 621.71 294.17 622.51L292.81 622.11C292.99 621.78 292.83 621.44 292.32 621.29C291.48 621.04 290.68 621.34 290.09 622.01C289.51 622.66 289.52 623.22 290.37 623.47C290.93 623.64 291.5 623.56 291.94 623.19L293.28 623.58C292.54 624.29 291.15 624.62 289.75 624.2C288.1 623.71 287.77 622.61 288.68 621.58L288.69 621.59Z" fill="black"/>
<path d="M296.43 624.06L295.46 624.29L294.43 625.46L293.05 625.05L297.32 620.23L298.7 620.64L296.34 623.31L299.35 622.55L301.01 623.04L297.92 623.78L298.18 626.56L296.5 626.06L296.43 624.05V624.06Z" fill="black"/>
<path d="M318.81 548.13C316.46 546.71 315.01 544.16 315.01 541.41V531.76C315.01 528.81 314.18 527.09 312.85 526.7L303.81 524.02C302.58 523.67 300.93 524.45 299.12 526.5L290.73 535.98C287.88 539.2 285.42 544.65 284.39 549.58L276.01 559.05C273.1 562.34 275.33 566.36 281 568.04L294.74 572.1C300.4 573.77 307.35 572.47 310.26 569.18L321.82 556.12C324.02 553.63 322.28 550.23 318.81 548.13Z" fill="white"/>
<path d="M318.81 548.13C316.46 546.71 315.01 544.16 315.01 541.41V531.76C315.01 528.81 314.18 527.09 312.85 526.7C311.62 526.34 309.97 527.12 308.16 529.17L299.77 538.65C296 542.91 292.92 551.04 292.92 556.73V563.48C292.92 565.83 293.91 568.19 295.48 570.04L298.14 572.74C302.95 573.19 307.92 571.83 310.27 569.18L321.83 556.12C324.03 553.63 322.29 550.23 318.82 548.13H318.81Z" fill="#C2C8CF"/>
<path d="M318.81 548.13C316.46 546.71 315.01 544.16 315.01 541.41V531.76C315.01 528.81 314.18 527.09 312.85 526.7L303.81 524.02C302.58 523.67 300.93 524.45 299.12 526.5L290.73 535.98C287.88 539.2 285.42 544.65 284.39 549.58L276.01 559.05C273.1 562.34 275.33 566.36 281 568.04L294.74 572.1C300.4 573.77 307.35 572.47 310.26 569.18L321.82 556.12C324.02 553.63 322.28 550.23 318.81 548.13Z" stroke="black" stroke-linecap="round" stroke-linejoin="round"/>
<path d="M294.92 569.32C293.68 567.6 292.92 565.54 292.92 563.48V556.73C292.92 551.04 296 542.91 299.77 538.65L308.16 529.17C311.93 524.91 315.01 526.08 315.01 531.77" stroke="black" stroke-linecap="round" stroke-linejoin="round"/>
<path d="M281.67 565.79C283.04 564.74 283.88 562.99 283.88 560.81V554.06C283.88 548.37 286.96 540.24 290.73 535.98" stroke="black" stroke-linecap="round" stroke-linejoin="round"/>
<path d="M337.09 413.54C327.77 418.92 327.73 427.64 336.98 433.01L364.44 448.97L521.68 358.19L494.22 342.23C484.97 336.85 469.92 336.85 460.6 342.23L337.08 413.54H337.09Z" fill="black"/>
<path d="M364.45 368.32C355.13 373.7 355.09 382.42 364.34 387.79L487.06 459.1C496.31 464.48 511.36 464.48 520.68 459.1L644.2 387.79C653.51 382.41 653.56 373.69 644.31 368.32L521.59 297.01C512.34 291.63 497.29 291.63 487.97 297.01L364.45 368.32Z" fill="white" stroke="black" stroke-linecap="round" stroke-linejoin="round"/>
<path d="M364.34 387.8L487.06 459.11C496.31 464.49 511.36 464.49 520.68 459.11L644.2 387.8C648.89 385.09 651.23 381.54 651.22 378L651.32 439.17C651.33 442.72 648.99 446.27 644.3 448.97L520.78 520.28C511.46 525.66 496.42 525.66 487.16 520.28L364.44 448.97C359.84 446.3 357.54 442.8 357.53 439.3L357.43 378.13C357.44 381.63 359.74 385.13 364.34 387.8Z" fill="white"/>
<path d="M507.91 462.88V524.12" stroke="#C2C8CF" stroke-linecap="round" stroke-linejoin="round"/>
<path d="M504.42 524.3C498.18 524.37 491.9 523.04 487.16 520.28L364.44 448.97C359.84 446.3 357.54 442.8 357.53 439.3L357.43 378.13C357.44 381.63 359.74 385.13 364.34 387.8L487.06 459.11C491.83 461.88 498.15 463.22 504.42 463.13V524.3Z" fill="#C2C8CF"/>
<path d="M364.34 387.8L487.06 459.11C496.31 464.49 511.36 464.49 520.68 459.11L644.2 387.8C648.89 385.09 651.23 381.54 651.22 378L651.32 439.17C651.33 442.72 648.99 446.27 644.3 448.97L520.78 520.28C511.46 525.66 496.42 525.66 487.16 520.28L364.44 448.97C359.84 446.3 357.54 442.8 357.53 439.3L357.43 378.13C357.44 381.63 359.74 385.13 364.34 387.8Z" stroke="black" stroke-linecap="round" stroke-linejoin="round"/>
<path d="M376.38 361.4L499.23 432.33C505.09 435.71 514.55 435.71 520.36 432.33L558.16 410.36C563.98 406.98 563.95 401.5 558.09 398.12L435.22 327.18L376.37 361.4H376.38Z" fill="black"/>
<path d="M410.96 567.62L396.75 563.42C394.67 562.8 392.04 565.48 390.88 569.41C389.72 573.33 390.47 577.01 392.55 577.63L393.36 577.87L385.74 587.84L395.01 594.25L409.11 581.3L410.47 574.73L409.02 574.13L410.94 567.62H410.96Z" fill="white"/>
<path d="M393.36 577.87L392.55 577.63C390.47 577.01 389.72 573.33 390.88 569.41C392.04 565.49 394.67 562.81 396.75 563.42L410.96 567.62L409.04 574.13L410.49 574.73L409.13 581.3L395.03 594.25L385.76 587.84L396.42 573.85" stroke="black" stroke-linecap="round" stroke-linejoin="round"/>
<path d="M412.328 575.73C413.488 571.806 413.042 568.214 411.331 567.709C409.621 567.203 407.293 569.974 406.133 573.899C404.973 577.823 405.419 581.415 407.13 581.921C408.84 582.426 411.168 579.655 412.328 575.73Z" fill="white" stroke="black" stroke-linecap="round" stroke-linejoin="round"/>
<path d="M410.995 575.336C411.653 573.112 411.396 571.075 410.421 570.787C409.447 570.499 408.124 572.069 407.466 574.293C406.808 576.517 407.065 578.554 408.04 578.842C409.014 579.13 410.337 577.561 410.995 575.336Z" fill="black"/>
<path d="M394.931 594.403C396.105 592.37 394.862 589.455 392.155 587.892C389.448 586.329 386.302 586.71 385.128 588.743C383.954 590.776 385.198 593.691 387.905 595.254C390.612 596.817 393.758 596.436 394.931 594.403Z" fill="black" stroke="black" stroke-linecap="round" stroke-linejoin="round"/>
<path d="M482.26 682C470.67 682 457.27 680.35 442.21 675.88L386.28 659.26C374.74 655.83 366.85 648.7 364.05 639.18C360.99 628.77 364.4 616.79 373.41 606.31L387.76 589.62C388.84 588.36 390.73 588.22 391.99 589.3C393.25 590.38 393.39 592.27 392.31 593.53L377.96 610.22C370.3 619.13 367.33 629.07 369.81 637.49C372.02 644.99 378.48 650.68 388 653.51L443.93 670.13C475.75 679.58 499.72 675.88 514.22 671.12C532.44 665.13 546.25 653.89 552.1 640.28C561.19 619.13 549.89 596.85 521.87 580.68L470.26 549.9C441.01 532.46 425.79 491.93 436.33 459.54L452.98 408.38C453.49 406.8 455.19 405.94 456.76 406.46C458.34 406.97 459.2 408.67 458.68 410.24L442.03 461.4C432.31 491.27 446.35 528.66 473.33 544.75L524.9 575.51C540.8 584.68 551.69 595.61 557.22 607.96C562.33 619.37 562.46 631.37 557.61 642.66C551.08 657.85 535.94 670.31 516.09 676.83C507.69 679.59 496.31 682.02 482.26 682.02V682Z" fill="white"/>
<path d="M488.98 559.56C488.63 559.56 488.28 559.47 487.96 559.28L470.78 549.04C441.91 531.82 426.89 491.81 437.29 459.85L453.94 408.69C454.28 407.64 455.41 407.07 456.46 407.41C457.51 407.75 458.08 408.88 457.74 409.93L441.09 461.09C431.24 491.38 445.47 529.29 472.83 545.6L490.01 555.84C490.96 556.41 491.27 557.63 490.7 558.58C490.33 559.21 489.66 559.56 488.98 559.56Z" fill="#2FFD76"/>
<path d="M523.37 580.07C523.02 580.07 522.67 579.98 522.35 579.79L499.42 566.11C498.47 565.54 498.16 564.32 498.73 563.37C499.3 562.42 500.52 562.11 501.47 562.68L524.4 576.36C525.35 576.93 525.66 578.15 525.09 579.1C524.72 579.73 524.05 580.08 523.37 580.08V580.07Z" fill="#2FFD76"/>
<path d="M161.93 577.7C164.128 577.7 165.91 576.742 165.91 575.56C165.91 574.378 164.128 573.42 161.93 573.42C159.732 573.42 157.95 574.378 157.95 575.56C157.95 576.742 159.732 577.7 161.93 577.7Z" fill="#2FFD76"/>
<path d="M324.94 392.14V94.25C324.94 42.53 252.32 0.610001 162.75 0.610001C73.18 0.610001 0.550049 42.53 0.550049 94.25V392.14C0.550049 443.86 73.17 485.79 162.74 485.79C252.31 485.79 324.93 443.86 324.93 392.15L324.94 392.14Z" fill="#2FFD76" stroke="black" stroke-linecap="round" stroke-linejoin="round"/>
<path d="M162.74 485.78C252.315 485.78 324.93 443.856 324.93 392.14C324.93 340.424 252.315 298.5 162.74 298.5C73.165 298.5 0.550049 340.424 0.550049 392.14C0.550049 443.856 73.165 485.78 162.74 485.78Z" fill="#2FFD76" stroke="black" stroke-linecap="round" stroke-linejoin="round"/>
<path d="M244.28 407.42C254.73 401.38 254.73 391.51 244.28 385.47L104.44 304.73C68.4401 312.74 38.6401 327.95 20.3201 347.3L97.4401 391.83L126.45 405.74C147.76 415.96 178.22 419.17 205.83 419.03C214.12 418.99 226.52 417.67 233.7 413.52L244.27 407.42H244.28Z" fill="black"/>
<path d="M302.61 382.41C311.93 387.79 311.97 396.51 302.72 401.88L180 473.19C170.75 478.57 155.7 478.57 146.38 473.19L22.8601 401.88C13.5501 396.5 13.5001 387.78 22.7501 382.41L145.47 311.1C154.72 305.72 169.77 305.72 179.09 311.1L302.61 382.41Z" stroke="black" stroke-linecap="round" stroke-linejoin="round"/>
<path d="M284.36 433.97C287.28 435.66 287.3 438.39 284.39 440.08L245.9 462.45C243 464.14 238.28 464.14 235.36 462.45L225.59 456.81C222.67 455.12 222.65 452.39 225.56 450.7L264.05 428.33C266.95 426.64 271.67 426.64 274.59 428.33L284.36 433.97Z" fill="black"/>
<path d="M234.06 453.97L238.45 456.51L240.95 455.07L236.55 452.53L234.06 453.97Z" fill="#2FFD76"/>
<path d="M238.49 451.41L242.88 453.95L245.38 452.51L240.99 449.97L238.49 451.41Z" fill="#2FFD76"/>
<path d="M242.92 448.86L247.32 451.39L249.81 449.95L245.42 447.41L242.92 448.86Z" fill="#2FFD76"/>
<path d="M247.36 446.3L251.75 448.83L254.25 447.39L249.85 444.85L247.36 446.3Z" fill="#2FFD76"/>
<path d="M240.45 458.17L275.88 437.71" stroke="#2FFD76" stroke-linecap="round" stroke-linejoin="round"/>
<path d="M52.5 365.18L110.59 331.38" stroke="#2FFD76" stroke-linecap="round" stroke-linejoin="round"/>
<path d="M246.75 383.35C247.275 383.35 247.7 382.925 247.7 382.4C247.7 381.875 247.275 381.45 246.75 381.45C246.226 381.45 245.8 381.875 245.8 382.4C245.8 382.925 246.226 383.35 246.75 383.35Z" fill="black"/>
<path d="M229.87 373.6C230.395 373.6 230.82 373.175 230.82 372.65C230.82 372.125 230.395 371.7 229.87 371.7C229.345 371.7 228.92 372.125 228.92 372.65C228.92 373.175 229.345 373.6 229.87 373.6Z" fill="#2FFD76"/>
<path d="M263.63 393.09C264.155 393.09 264.58 392.665 264.58 392.14C264.58 391.615 264.155 391.19 263.63 391.19C263.106 391.19 262.68 391.615 262.68 392.14C262.68 392.665 263.106 393.09 263.63 393.09Z" fill="black"/>
<path d="M212.99 363.85C213.515 363.85 213.94 363.425 213.94 362.9C213.94 362.375 213.515 361.95 212.99 361.95C212.465 361.95 212.04 362.375 212.04 362.9C212.04 363.425 212.465 363.85 212.99 363.85Z" fill="#2FFD76"/>
<path d="M196.1 354.11C196.625 354.11 197.05 353.685 197.05 353.16C197.05 352.635 196.625 352.21 196.1 352.21C195.575 352.21 195.15 352.635 195.15 353.16C195.15 353.685 195.575 354.11 196.1 354.11Z" fill="#2FFD76"/>
<path d="M179.22 344.36C179.745 344.36 180.17 343.935 180.17 343.41C180.17 342.885 179.745 342.46 179.22 342.46C178.695 342.46 178.27 342.885 178.27 343.41C178.27 343.935 178.695 344.36 179.22 344.36Z" fill="#2FFD76"/>
<path d="M162.34 334.61C162.865 334.61 163.29 334.185 163.29 333.66C163.29 333.135 162.865 332.71 162.34 332.71C161.815 332.71 161.39 333.135 161.39 333.66C161.39 334.185 161.815 334.61 162.34 334.61Z" fill="#2FFD76"/>
<path d="M229.87 393.09C230.395 393.09 230.82 392.665 230.82 392.14C230.82 391.615 230.395 391.19 229.87 391.19C229.345 391.19 228.92 391.615 228.92 392.14C228.92 392.665 229.345 393.09 229.87 393.09Z" fill="#2FFD76"/>
<path d="M212.99 383.35C213.515 383.35 213.94 382.925 213.94 382.4C213.94 381.875 213.515 381.45 212.99 381.45C212.465 381.45 212.04 381.875 212.04 382.4C212.04 382.925 212.465 383.35 212.99 383.35Z" fill="#2FFD76"/>
<path d="M196.1 373.6C196.625 373.6 197.05 373.175 197.05 372.65C197.05 372.125 196.625 371.7 196.1 371.7C195.575 371.7 195.15 372.125 195.15 372.65C195.15 373.175 195.575 373.6 196.1 373.6Z" fill="#2FFD76"/>
<path d="M179.22 363.85C179.745 363.85 180.17 363.425 180.17 362.9C180.17 362.375 179.745 361.95 179.22 361.95C178.695 361.95 178.27 362.375 178.27 362.9C178.27 363.425 178.695 363.85 179.22 363.85Z" fill="#2FFD76"/>
<path d="M162.34 354.11C162.865 354.11 163.29 353.685 163.29 353.16C163.29 352.635 162.865 352.21 162.34 352.21C161.815 352.21 161.39 352.635 161.39 353.16C161.39 353.685 161.815 354.11 162.34 354.11Z" fill="#2FFD76"/>
<path d="M145.46 344.36C145.985 344.36 146.41 343.935 146.41 343.41C146.41 342.885 145.985 342.46 145.46 342.46C144.936 342.46 144.51 342.885 144.51 343.41C144.51 343.935 144.936 344.36 145.46 344.36Z" fill="#2FFD76"/>
<path d="M212.99 402.84C213.515 402.84 213.94 402.415 213.94 401.89C213.94 401.365 213.515 400.94 212.99 400.94C212.465 400.94 212.04 401.365 212.04 401.89C212.04 402.415 212.465 402.84 212.99 402.84Z" fill="#2FFD76"/>
<path d="M196.1 393.09C196.625 393.09 197.05 392.665 197.05 392.14C197.05 391.615 196.625 391.19 196.1 391.19C195.575 391.19 195.15 391.615 195.15 392.14C195.15 392.665 195.575 393.09 196.1 393.09Z" fill="#2FFD76"/>
<path d="M179.22 383.35C179.745 383.35 180.17 382.925 180.17 382.4C180.17 381.875 179.745 381.45 179.22 381.45C178.695 381.45 178.27 381.875 178.27 382.4C178.27 382.925 178.695 383.35 179.22 383.35Z" fill="#2FFD76"/>
<path d="M162.34 373.6C162.865 373.6 163.29 373.175 163.29 372.65C163.29 372.125 162.865 371.7 162.34 371.7C161.815 371.7 161.39 372.125 161.39 372.65C161.39 373.175 161.815 373.6 162.34 373.6Z" fill="#2FFD76"/>
<path d="M145.46 363.85C145.985 363.85 146.41 363.425 146.41 362.9C146.41 362.375 145.985 361.95 145.46 361.95C144.936 361.95 144.51 362.375 144.51 362.9C144.51 363.425 144.936 363.85 145.46 363.85Z" fill="#2FFD76"/>
<path d="M128.58 354.11C129.105 354.11 129.53 353.685 129.53 353.16C129.53 352.635 129.105 352.21 128.58 352.21C128.055 352.21 127.63 352.635 127.63 353.16C127.63 353.685 128.055 354.11 128.58 354.11Z" fill="#2FFD76"/>
<path d="M196.1 412.59C196.625 412.59 197.05 412.165 197.05 411.64C197.05 411.115 196.625 410.69 196.1 410.69C195.575 410.69 195.15 411.115 195.15 411.64C195.15 412.165 195.575 412.59 196.1 412.59Z" fill="#2FFD76"/>
<path d="M179.22 402.84C179.745 402.84 180.17 402.415 180.17 401.89C180.17 401.365 179.745 400.94 179.22 400.94C178.695 400.94 178.27 401.365 178.27 401.89C178.27 402.415 178.695 402.84 179.22 402.84Z" fill="#2FFD76"/>
<path d="M162.34 393.09C162.865 393.09 163.29 392.665 163.29 392.14C163.29 391.615 162.865 391.19 162.34 391.19C161.815 391.19 161.39 391.615 161.39 392.14C161.39 392.665 161.815 393.09 162.34 393.09Z" fill="#2FFD76"/>
<path d="M145.46 383.35C145.985 383.35 146.41 382.925 146.41 382.4C146.41 381.875 145.985 381.45 145.46 381.45C144.936 381.45 144.51 381.875 144.51 382.4C144.51 382.925 144.936 383.35 145.46 383.35Z" fill="#2FFD76"/>
<path d="M128.58 373.6C129.105 373.6 129.53 373.175 129.53 372.65C129.53 372.125 129.105 371.7 128.58 371.7C128.055 371.7 127.63 372.125 127.63 372.65C127.63 373.175 128.055 373.6 128.58 373.6Z" fill="#2FFD76"/>
<path d="M111.69 363.85C112.215 363.85 112.64 363.425 112.64 362.9C112.64 362.375 112.215 361.95 111.69 361.95C111.165 361.95 110.74 362.375 110.74 362.9C110.74 363.425 111.165 363.85 111.69 363.85Z" fill="#2FFD76"/>
<path d="M179.22 422.34C179.745 422.34 180.17 421.915 180.17 421.39C180.17 420.865 179.745 420.44 179.22 420.44C178.695 420.44 178.27 420.865 178.27 421.39C178.27 421.915 178.695 422.34 179.22 422.34Z" fill="black"/>
<path d="M162.34 412.59C162.865 412.59 163.29 412.165 163.29 411.64C163.29 411.115 162.865 410.69 162.34 410.69C161.815 410.69 161.39 411.115 161.39 411.64C161.39 412.165 161.815 412.59 162.34 412.59Z" fill="#2FFD76"/>
<path d="M145.46 402.84C145.985 402.84 146.41 402.415 146.41 401.89C146.41 401.365 145.985 400.94 145.46 400.94C144.936 400.94 144.51 401.365 144.51 401.89C144.51 402.415 144.936 402.84 145.46 402.84Z" fill="#2FFD76"/>
<path d="M128.58 393.09C129.105 393.09 129.53 392.665 129.53 392.14C129.53 391.615 129.105 391.19 128.58 391.19C128.055 391.19 127.63 391.615 127.63 392.14C127.63 392.665 128.055 393.09 128.58 393.09Z" fill="#2FFD76"/>
<path d="M111.69 383.35C112.215 383.35 112.64 382.925 112.64 382.4C112.64 381.875 112.215 381.45 111.69 381.45C111.165 381.45 110.74 381.875 110.74 382.4C110.74 382.925 111.165 383.35 111.69 383.35Z" fill="#2FFD76"/>
<path d="M94.8101 373.6C95.3348 373.6 95.7601 373.175 95.7601 372.65C95.7601 372.125 95.3348 371.7 94.8101 371.7C94.2854 371.7 93.8601 372.125 93.8601 372.65C93.8601 373.175 94.2854 373.6 94.8101 373.6Z" fill="#2FFD76"/>
<path d="M162.34 432.08C162.865 432.08 163.29 431.655 163.29 431.13C163.29 430.605 162.865 430.18 162.34 430.18C161.815 430.18 161.39 430.605 161.39 431.13C161.39 431.655 161.815 432.08 162.34 432.08Z" fill="black"/>
<path d="M246.75 402.84C247.275 402.84 247.7 402.415 247.7 401.89C247.7 401.365 247.275 400.94 246.75 400.94C246.226 400.94 245.8 401.365 245.8 401.89C245.8 402.415 246.226 402.84 246.75 402.84Z" fill="black"/>
<path d="M229.87 412.59C230.395 412.59 230.82 412.165 230.82 411.64C230.82 411.115 230.395 410.69 229.87 410.69C229.345 410.69 228.92 411.115 228.92 411.64C228.92 412.165 229.345 412.59 229.87 412.59Z" fill="#2FFD76"/>
<path d="M212.99 422.34C213.515 422.34 213.94 421.915 213.94 421.39C213.94 420.865 213.515 420.44 212.99 420.44C212.465 420.44 212.04 420.865 212.04 421.39C212.04 421.915 212.465 422.34 212.99 422.34Z" fill="black"/>
<path d="M196.1 432.08C196.625 432.08 197.05 431.655 197.05 431.13C197.05 430.605 196.625 430.18 196.1 430.18C195.575 430.18 195.15 430.605 195.15 431.13C195.15 431.655 195.575 432.08 196.1 432.08Z" fill="black"/>
<path d="M179.22 441.83C179.745 441.83 180.17 441.405 180.17 440.88C180.17 440.355 179.745 439.93 179.22 439.93C178.695 439.93 178.27 440.355 178.27 440.88C178.27 441.405 178.695 441.83 179.22 441.83Z" fill="black"/>
<path d="M162.34 451.58C162.865 451.58 163.29 451.155 163.29 450.63C163.29 450.105 162.865 449.68 162.34 449.68C161.815 449.68 161.39 450.105 161.39 450.63C161.39 451.155 161.815 451.58 162.34 451.58Z" fill="black"/>
<path d="M145.46 422.34C145.985 422.34 146.41 421.915 146.41 421.39C146.41 420.865 145.985 420.44 145.46 420.44C144.936 420.44 144.51 420.865 144.51 421.39C144.51 421.915 144.936 422.34 145.46 422.34Z" fill="black"/>
<path d="M128.58 412.59C129.105 412.59 129.53 412.165 129.53 411.64C129.53 411.115 129.105 410.69 128.58 410.69C128.055 410.69 127.63 411.115 127.63 411.64C127.63 412.165 128.055 412.59 128.58 412.59Z" fill="black"/>
<path d="M111.69 402.84C112.215 402.84 112.64 402.415 112.64 401.89C112.64 401.365 112.215 400.94 111.69 400.94C111.165 400.94 110.74 401.365 110.74 401.89C110.74 402.415 111.165 402.84 111.69 402.84Z" fill="black"/>
<path d="M94.8101 393.09C95.3348 393.09 95.7601 392.665 95.7601 392.14C95.7601 391.615 95.3348 391.19 94.8101 391.19C94.2854 391.19 93.8601 391.615 93.8601 392.14C93.8601 392.665 94.2854 393.09 94.8101 393.09Z" fill="black"/>
<path d="M77.93 383.35C78.4546 383.35 78.88 382.925 78.88 382.4C78.88 381.875 78.4546 381.45 77.93 381.45C77.4053 381.45 76.98 381.875 76.98 382.4C76.98 382.925 77.4053 383.35 77.93 383.35Z" fill="black"/>
<path d="M145.46 441.83C145.985 441.83 146.41 441.405 146.41 440.88C146.41 440.355 145.985 439.93 145.46 439.93C144.936 439.93 144.51 440.355 144.51 440.88C144.51 441.405 144.936 441.83 145.46 441.83Z" fill="black"/>
<path d="M128.58 432.08C129.105 432.08 129.53 431.655 129.53 431.13C129.53 430.605 129.105 430.18 128.58 430.18C128.055 430.18 127.63 430.605 127.63 431.13C127.63 431.655 128.055 432.08 128.58 432.08Z" fill="black"/>
<path d="M111.69 422.34C112.215 422.34 112.64 421.915 112.64 421.39C112.64 420.865 112.215 420.44 111.69 420.44C111.165 420.44 110.74 420.865 110.74 421.39C110.74 421.915 111.165 422.34 111.69 422.34Z" fill="black"/>
<path d="M94.8101 412.59C95.3348 412.59 95.7601 412.165 95.7601 411.64C95.7601 411.115 95.3348 410.69 94.8101 410.69C94.2854 410.69 93.8601 411.115 93.8601 411.64C93.8601 412.165 94.2854 412.59 94.8101 412.59Z" fill="black"/>
<path d="M77.93 402.84C78.4546 402.84 78.88 402.415 78.88 401.89C78.88 401.365 78.4546 400.94 77.93 400.94C77.4053 400.94 76.98 401.365 76.98 401.89C76.98 402.415 77.4053 402.84 77.93 402.84Z" fill="black"/>
<path d="M61.0501 393.09C61.5748 393.09 62.0001 392.665 62.0001 392.14C62.0001 391.615 61.5748 391.19 61.0501 391.19C60.5254 391.19 60.1001 391.615 60.1001 392.14C60.1001 392.665 60.5254 393.09 61.0501 393.09Z" fill="black"/>
<path d="M286.06 394.59C288.291 394.59 290.1 393.547 290.1 392.26C290.1 390.973 288.291 389.93 286.06 389.93C283.829 389.93 282.02 390.973 282.02 392.26C282.02 393.547 283.829 394.59 286.06 394.59Z" fill="black"/>
<path d="M163.35 465.91C165.581 465.91 167.39 464.867 167.39 463.58C167.39 462.293 165.581 461.25 163.35 461.25C161.119 461.25 159.31 462.293 159.31 463.58C159.31 464.867 161.119 465.91 163.35 465.91Z" fill="black"/>
<path d="M286.06 396.58C290.191 396.58 293.54 394.646 293.54 392.26C293.54 389.874 290.191 387.94 286.06 387.94C281.929 387.94 278.58 389.874 278.58 392.26C278.58 394.646 281.929 396.58 286.06 396.58Z" stroke="black" stroke-linecap="round" stroke-linejoin="round"/>
<path d="M162.34 325.15C166.471 325.15 169.82 323.216 169.82 320.83C169.82 318.444 166.471 316.51 162.34 316.51C158.209 316.51 154.86 318.444 154.86 320.83C154.86 323.216 158.209 325.15 162.34 325.15Z" stroke="black" stroke-linecap="round" stroke-linejoin="round"/>
<path d="M39.6302 396.46C43.7612 396.46 47.1102 394.526 47.1102 392.14C47.1102 389.754 43.7612 387.82 39.6302 387.82C35.4991 387.82 32.1501 389.754 32.1501 392.14C32.1501 394.526 35.4991 396.46 39.6302 396.46Z" stroke="black" stroke-linecap="round" stroke-linejoin="round"/>
<path d="M163.35 467.9C167.481 467.9 170.83 465.966 170.83 463.58C170.83 461.194 167.481 459.26 163.35 459.26C159.219 459.26 155.87 461.194 155.87 463.58C155.87 465.966 159.219 467.9 163.35 467.9Z" stroke="black" stroke-linecap="round" stroke-linejoin="round"/>
<path d="M163.35 463.58V429.2C163.35 423.72 167.24 417 171.99 414.26L277.31 353.76C282.06 351.03 285.97 353.28 285.98 358.76L286.06 392.26" stroke="black" stroke-width="4" stroke-linecap="round" stroke-linejoin="round"/>
<path d="M231.21 377.93L171 412.52C169.27 413.51 167.67 414.94 166.28 416.62C167.93 416.85 169.58 417.06 171.25 417.25C171.81 416.77 172.4 416.34 173 415.99L235.23 380.24L231.22 377.93H231.21Z" fill="#2FFD76"/>
<path d="M162.34 323.16C164.572 323.16 166.38 322.117 166.38 320.83C166.38 319.543 164.572 318.5 162.34 318.5C160.109 318.5 158.3 319.543 158.3 320.83C158.3 322.117 160.109 323.16 162.34 323.16Z" fill="black"/>
<path d="M39.6301 394.47C41.8613 394.47 43.6701 393.427 43.6701 392.14C43.6701 390.853 41.8613 389.81 39.6301 389.81C37.3989 389.81 35.5901 390.853 35.5901 392.14C35.5901 393.427 37.3989 394.47 39.6301 394.47Z" fill="black"/>
<path d="M39.6301 392.14V231.76C39.6301 226.28 43.5201 219.56 48.2701 216.82L153.59 156.32C158.34 153.59 162.24 155.84 162.24 161.32L162.34 320.82" stroke="black" stroke-width="4" stroke-linecap="round" stroke-linejoin="round"/>
<path d="M155.62 310.21C166.9 297.93 200.83 256.85 223.25 243.91L237.62 235.61L233.95 203.25L171.43 177.61L172.82 101.21L161.44 98.01C156.69 96.67 149.3 97.6 145.02 100.07L127.55 110.16C117.73 115.83 113.43 121.49 110.93 127.21L98.27 166.3L116.3 251.18L143.26 323.78L147.61 316.06L155.62 310.2V310.21Z" fill="#2FFD76" stroke="black" stroke-linecap="round" stroke-linejoin="round"/>
<path d="M143.48 311.51L168.43 253.7C170.92 247.92 170.4 238.73 167.27 233.27L126.94 163.02C123.42 156.88 120.99 146.09 121.55 139.03L123.6 113.2L120.18 115.8L117.33 118.42L115.69 140.88C115.17 147.94 117.57 158.76 121.04 164.93L146.05 209.47C149.13 214.96 149.34 224.05 146.51 229.67L132.34 257.86L143.48 311.51Z" fill="#C2C8CF"/>
<path d="M209.61 202.5L167.67 189.07C156.56 185.51 149.61 173.3 152.22 161.93L161.91 119.71C167.59 94.96 176.36 95.07 181.4 119.96L186.5 145.13C187.99 152.49 194.14 162.17 200.18 166.64L236.57 193.61L209.63 202.5H209.61Z" fill="black" stroke="black" stroke-linecap="round" stroke-linejoin="round"/>
<path d="M215.05 202.02L176.29 189.61C166.03 186.32 159.6 175.04 162.01 164.53L170.96 125.51C172.83 117.35 175.07 112.11 177.38 109.8" stroke="#2FFD76" stroke-linecap="round" stroke-linejoin="round"/>
<path d="M127.54 230.65L110.12 156.09C108.25 148.09 108.61 135.1 110.93 127.22L76.23 124.46L70.27 127.9C65.2 130.82 59.98 137.88 58.66 143.58L53.04 167.79C51.71 173.53 52.96 182.44 55.82 187.59L93.74 255.94C96.91 261.66 102.37 264.4 107.82 261.75L118.3 256.57L116.3 251.18L127.54 230.65Z" fill="white" stroke="black" stroke-linecap="round" stroke-linejoin="round"/>
<path d="M100.13 224.84L77.4401 180.15C76.4101 178.12 75.9501 174.64 76.4101 172.42L79.6301 157.02C80.2201 154.18 83.0801 152.02 85.9701 152.21L109.66 153.78" stroke="black" stroke-linecap="round" stroke-linejoin="round"/>
<path d="M97.3999 219.45L117.41 187.29" stroke="black" stroke-linecap="round" stroke-linejoin="round"/>
<path d="M92.95 210.69L114.74 175.68" stroke="black" stroke-linecap="round" stroke-linejoin="round"/>
<path d="M88.51 201.94L112.01 164.17" stroke="black" stroke-linecap="round" stroke-linejoin="round"/>
<path d="M84.0601 193.19L108.63 153.71" stroke="black" stroke-linecap="round" stroke-linejoin="round"/>
<path d="M135.29 263.72C133.34 255.41 128.42 254.76 124.36 262.27L111.42 286.25L115.6 295.36L131.21 323.49C133.05 326.8 135.24 330.22 137.69 333.66L147.61 316.07L135.3 263.72H135.29Z" fill="white" stroke="black" stroke-linecap="round" stroke-linejoin="round"/>
<path d="M241.18 233.55C245.85 230.85 248.43 232.24 248.95 236.07L250.88 181.94C251.3 170.28 243.37 165.51 233.26 171.34L214.19 182.35C209.29 185.18 204.98 192.12 204.62 197.77L204.12 205.66L200.72 261.76C208.65 254.29 216.47 247.81 223.24 243.9L241.18 233.54V233.55Z" fill="white" stroke="black" stroke-linecap="round" stroke-linejoin="round"/>
<path d="M194.11 219.88C196.176 219.88 197.85 218.206 197.85 216.14C197.85 214.074 196.176 212.4 194.11 212.4C192.045 212.4 190.37 214.074 190.37 216.14C190.37 218.206 192.045 219.88 194.11 219.88Z" fill="black"/>
<path d="M192.66 238.51C194.725 238.51 196.4 236.836 196.4 234.77C196.4 232.704 194.725 231.03 192.66 231.03C190.594 231.03 188.92 232.704 188.92 234.77C188.92 236.836 190.594 238.51 192.66 238.51Z" fill="black"/>
<path d="M191.14 257.14C193.205 257.14 194.88 255.466 194.88 253.4C194.88 251.334 193.205 249.66 191.14 249.66C189.074 249.66 187.4 251.334 187.4 253.4C187.4 255.466 189.074 257.14 191.14 257.14Z" fill="black"/>
<path d="M194.11 216.14L202.58 218.01C210.49 219.75 222.69 217.87 229.7 213.82L250.17 202" stroke="black" stroke-width="4" stroke-linecap="round" stroke-linejoin="round"/>
<path d="M192.66 234.77L201.13 236.64C209.04 238.38 221.24 236.5 228.25 232.45L248.72 220.63" stroke="black" stroke-width="4" stroke-linecap="round" stroke-linejoin="round"/>
<path d="M191.21 253.4L199.68 255.27C207.59 257.01 219.79 255.13 226.8 251.08L247.27 239.26" stroke="black" stroke-width="4" stroke-linecap="round" stroke-linejoin="round"/>
<path d="M180.41 372.49L223.64 391.66L257.56 383.16H264.23C269.34 380.21 271.68 373.33 269.43 367.87L246.27 311.74L237.63 235.62L223.26 243.92C200.84 256.86 166.91 297.95 155.63 310.22L147.62 316.08L143.27 323.8L151.68 346.44L180.43 372.5L180.41 372.49Z" fill="black"/>
<path d="M137.69 333.66C153.15 355.35 179.58 378.49 201.25 388.46L207.18 391.19C222.23 398.12 239.7 397.31 254.04 389.03L264.22 383.15C269.33 380.2 271.67 373.32 269.42 367.86L267.74 363.78C267.36 369.85 263.97 375.32 258.71 378.36L255.21 380.38C240.86 388.66 223.39 389.47 208.35 382.54L202.42 379.81C190.11 374.14 176.25 364.22 163.74 352.73C160.49 349.74 156.97 346.18 153.95 343.03L147.6 316.05L137.68 333.64L137.69 333.66Z" fill="black"/>
<path d="M218.94 316.17C221.96 320.66 228.27 322.12 232.96 319.42L246.26 311.74L248.96 236.08C248.44 232.25 245.86 230.87 241.19 233.56L223.25 243.92C216.48 247.83 208.66 254.31 200.73 261.78L199.21 286.86L218.94 316.17Z" fill="black"/>
<path d="M101.43 153.24L90.56 152.52C88.17 152.36 85.81 154.15 85.32 156.5L82.66 169.23C82.27 171.07 82.66 173.95 83.51 175.62L85.31 179.16L101.44 153.25L101.43 153.24Z" fill="black" stroke="black" stroke-linecap="round" stroke-linejoin="round"/>
<path d="M137.69 333.66L224.37 283.62L239.36 261.71C245.49 252.74 248.73 244.1 249.04 238.5C249.35 232.9 246.74 230.34 241.18 233.55L223.24 243.91C200.82 256.85 166.89 297.94 155.61 310.21L147.6 316.07L137.68 333.66H137.69Z" fill="#2FFD76" stroke="black" stroke-linecap="round" stroke-linejoin="round"/>
<path d="M162.8 302.15L173.59 312.93" stroke="black" stroke-linecap="round" stroke-linejoin="round"/>
<path d="M179.37 309.59L167.08 297.3" stroke="black" stroke-linecap="round" stroke-linejoin="round"/>
<path d="M164.94 299.72L176.48 311.26" stroke="black" stroke-linecap="round" stroke-linejoin="round"/>
<path d="M185.15 306.26L171.37 292.47" stroke="black" stroke-linecap="round" stroke-linejoin="round"/>
<path d="M169.22 294.88L182.26 307.93" stroke="black" stroke-linecap="round" stroke-linejoin="round"/>
<path d="M173.52 290.07L188.04 304.59" stroke="black" stroke-linecap="round" stroke-linejoin="round"/>
<path d="M196.72 299.58L180.04 282.9" stroke="black" stroke-linecap="round" stroke-linejoin="round"/>
<path d="M177.86 285.28L193.82 301.25" stroke="black" stroke-linecap="round" stroke-linejoin="round"/>
<path d="M175.68 287.67L190.93 302.92" stroke="black" stroke-linecap="round" stroke-linejoin="round"/>
<path d="M170.7 314.6L160.67 304.57" stroke="black" stroke-linecap="round" stroke-linejoin="round"/>
<path d="M158.52 306.99L167.81 316.27" stroke="black" stroke-linecap="round" stroke-linejoin="round"/>
<path d="M144.68 329.62L141.67 326.61" stroke="black" stroke-linecap="round" stroke-linejoin="round"/>
<path d="M140.02 329.52L141.79 331.29" stroke="black" stroke-linecap="round" stroke-linejoin="round"/>
<path d="M150.46 326.28L144.95 320.78" stroke="black" stroke-linecap="round" stroke-linejoin="round"/>
<path d="M143.31 323.69L147.57 327.95" stroke="black" stroke-linecap="round" stroke-linejoin="round"/>
<path d="M156.25 322.95L148.62 315.33" stroke="black" stroke-linecap="round" stroke-linejoin="round"/>
<path d="M146.6 317.86L153.35 324.62" stroke="black" stroke-linecap="round" stroke-linejoin="round"/>
<path d="M156.37 309.39L164.92 317.94" stroke="black" stroke-linecap="round" stroke-linejoin="round"/>
<path d="M162.03 319.61L153.89 311.47" stroke="black" stroke-linecap="round" stroke-linejoin="round"/>
<path d="M151.26 313.4L159.14 321.28" stroke="black" stroke-linecap="round" stroke-linejoin="round"/>
<path d="M202.5 296.24L184.44 278.18" stroke="black" stroke-linecap="round" stroke-linejoin="round"/>
<path d="M182.23 280.54L199.61 297.91" stroke="black" stroke-linecap="round" stroke-linejoin="round"/>
<path d="M186.65 275.84L205.39 294.57" stroke="black" stroke-linecap="round" stroke-linejoin="round"/>
<path d="M243.42 255.09L228.95 240.62" stroke="black" stroke-linecap="round" stroke-linejoin="round"/>
<path d="M226.05 242.28L241.75 257.98" stroke="black" stroke-linecap="round" stroke-linejoin="round"/>
<path d="M238.14 263.49L220.35 245.7" stroke="black" stroke-linecap="round" stroke-linejoin="round"/>
<path d="M217.64 247.55L236.29 266.2" stroke="black" stroke-linecap="round" stroke-linejoin="round"/>
<path d="M223.17 243.96L239.98 260.77" stroke="black" stroke-linecap="round" stroke-linejoin="round"/>
<path d="M243.59 232.46L249.06 237.93" stroke="black" stroke-linecap="round" stroke-linejoin="round"/>
<path d="M231.84 238.95L244.95 252.07" stroke="black" stroke-linecap="round" stroke-linejoin="round"/>
<path d="M248.55 241.98L240.51 233.94" stroke="black" stroke-linecap="round" stroke-linejoin="round"/>
<path d="M237.62 235.61L247.58 245.57" stroke="black" stroke-linecap="round" stroke-linejoin="round"/>
<path d="M234.73 237.28L246.36 248.91" stroke="black" stroke-linecap="round" stroke-linejoin="round"/>
<path d="M216.95 287.9L195.69 266.63" stroke="black" stroke-linecap="round" stroke-linejoin="round"/>
<path d="M193.4 268.91L214.06 289.57" stroke="black" stroke-linecap="round" stroke-linejoin="round"/>
<path d="M197.99 264.38L219.84 286.23" stroke="black" stroke-linecap="round" stroke-linejoin="round"/>
<path d="M211.17 291.24L191.14 271.2" stroke="black" stroke-linecap="round" stroke-linejoin="round"/>
<path d="M188.89 273.51L208.28 292.91" stroke="black" stroke-linecap="round" stroke-linejoin="round"/>
<path d="M234.43 268.9L215.01 249.48" stroke="black" stroke-linecap="round" stroke-linejoin="round"/>
<path d="M212.45 251.48L232.58 271.61" stroke="black" stroke-linecap="round" stroke-linejoin="round"/>
<path d="M230.73 274.32L209.95 253.53" stroke="black" stroke-linecap="round" stroke-linejoin="round"/>
<path d="M207.49 255.63L228.88 277.03" stroke="black" stroke-linecap="round" stroke-linejoin="round"/>
<path d="M200.32 262.15L222.73 284.56" stroke="black" stroke-linecap="round" stroke-linejoin="round"/>
<path d="M227.02 279.73L205.06 257.77" stroke="black" stroke-linecap="round" stroke-linejoin="round"/>
<path d="M202.68 259.95L225.17 282.44" stroke="black" stroke-linecap="round" stroke-linejoin="round"/>
<path d="M137.69 333.66C153.15 355.35 179.58 378.49 201.25 388.46L207.18 391.19C222.23 398.12 239.7 397.31 254.04 389.03L264.22 383.15C269.33 380.2 271.67 373.32 269.42 367.86L267.74 363.78L246.26 311.73L248.96 236.07" stroke="white" stroke-linecap="round" stroke-linejoin="round"/>
<path d="M259.74 385.74C264.93 382.47 267.06 375.24 264.47 369.68L244.1 325.97C241.48 320.34 239.33 310.66 239.32 304.45L239.26 234.78" stroke="white" stroke-linecap="round" stroke-linejoin="round"/>
<path d="M155.96 355.02L235.35 308.94L245.68 284.03C246.92 281.05 247.46 277.58 247.52 276.47C247.78 271.86 245.22 270 240.67 272.64L225.99 281.16C207.64 291.81 159.57 348.58 159.57 348.58L155.96 355.02Z" stroke="white" stroke-linecap="round" stroke-linejoin="round"/>
<path d="M184.05 378.27L250.43 339.74C250.43 339.74 252.99 328.04 250.93 323.04C249.71 320.09 247.25 317.63 243.96 319.54L228.1 328.75C214.87 336.43 186.6 370.76 186.6 370.76L184.05 378.27Z" stroke="white" stroke-linecap="round" stroke-linejoin="round"/>
<path d="M263.07 366.67L264.5 361.12C266.35 353.94 259.25 354.06 255.97 355.97L242.5 363.8C235.25 368.01 225.42 374.68 221.71 383.83L217.39 394.48" stroke="white" stroke-linecap="round" stroke-linejoin="round"/>
<path d="M224.67 395.72L229.62 392.33C234.92 388.7 236.74 381.13 233.66 375.49L205.65 324.31C202.1 317.83 199.39 306.49 199.61 299.11L200.73 261.76" stroke="white" stroke-linecap="round" stroke-linejoin="round"/>
<path d="M249.04 238.5C249.35 232.9 246.74 230.34 241.18 233.55L223.24 243.91C200.82 256.85 166.89 297.94 155.61 310.21L147.6 316.07L137.68 333.66" stroke="black" stroke-linecap="round" stroke-linejoin="round"/>
<path d="M267.74 363.79C267.36 369.86 263.97 375.33 258.71 378.37L255.21 380.39C240.86 388.67 223.39 389.48 208.35 382.55L202.42 379.82C190.11 374.15 176.25 364.23 163.74 352.74C161.93 351.08 160.04 349.24 158.19 347.39C155.42 344.61 153.5 341.15 152.61 337.33L147.61 316.06" stroke="white" stroke-linecap="round" stroke-linejoin="round"/>
<path d="M200.732 216.352C200.963 212.637 198.139 209.438 194.423 209.207C190.708 208.976 187.509 211.8 187.278 215.515L186.138 233.84C185.907 237.555 188.731 240.754 192.446 240.985C196.161 241.216 199.361 238.392 199.592 234.677L200.732 216.352Z" stroke="black" stroke-linecap="round" stroke-linejoin="round"/>
<path d="M162.74 187.89C252.315 187.89 324.93 145.966 324.93 94.25C324.93 42.5341 252.315 0.610001 162.74 0.610001C73.165 0.610001 0.550049 42.5341 0.550049 94.25C0.550049 145.966 73.165 187.89 162.74 187.89Z" stroke="black" stroke-linecap="round" stroke-linejoin="round"/>
<path d="M604.68 156.56C607.6 146.78 602.76 134.61 593.92 129.51L513.31 82.97C511.04 81.66 508.72 80.95 506.48 80.76L497.71 80.03V83.1C495.1 84.93 493.04 87.77 491.94 91.46L414.36 351.31C411.44 361.09 416.28 373.26 425.12 378.36L503.91 423.85L503.79 426.4L512.56 427.12C519.06 427.64 524.93 423.67 527.1 416.41L604.68 156.56Z" fill="white"/>
<path d="M604.64 144.16L578.06 141.89L413.62 359.42C414.31 367.05 418.63 374.61 425.12 378.36L503.91 423.85L503.79 426.4L512.56 427.12C519.06 427.64 524.93 423.67 527.1 416.41L604.68 156.56C605.86 152.61 605.75 148.27 604.65 144.16H604.64Z" fill="#C2C8CF"/>
<path d="M604.68 156.56C607.6 146.78 602.76 134.61 593.92 129.51L513.31 82.97C511.04 81.66 508.72 80.95 506.48 80.76L497.71 80.03V83.1C495.1 84.93 493.04 87.77 491.94 91.46L414.36 351.31C411.44 361.09 416.28 373.26 425.12 378.36L503.91 423.85L503.79 426.4L512.56 427.12C519.06 427.64 524.93 423.67 527.1 416.41L604.68 156.56Z" stroke="black" stroke-linecap="round" stroke-linejoin="round"/>
<path d="M585.15 128.8C593.99 133.9 598.83 146.07 595.91 155.85L518.33 415.7C515.41 425.48 505.79 429.3 496.96 424.2L416.35 377.66C407.51 372.56 402.67 360.39 405.59 350.61L483.17 90.76C486.09 80.98 495.71 77.16 504.54 82.26L585.15 128.8Z" fill="white" stroke="black" stroke-linecap="round" stroke-linejoin="round"/>
<path d="M583.41 132.8C590.43 136.86 594.28 146.53 591.96 154.3L514.57 413.5C512.32 421.03 504.92 423.97 498.11 420.04L418.19 373.9C411.08 369.79 407.18 360 409.53 352.13L486.33 94.89C488.87 86.38 497.24 83.05 504.94 87.49L583.4 132.79L583.41 132.8Z" fill="black"/>
<path d="M511.15 411.75C509.48 417.34 504 419.5 498.96 416.56L418.94 369.76C413.91 366.82 411.15 359.83 412.82 354.25L415.22 346.2C416.89 340.61 422.37 338.45 427.41 341.39L507.43 388.19C512.46 391.13 515.22 398.12 513.55 403.7L511.15 411.75Z" fill="#2D3033"/>
<path d="M446.35 374.49L444.76 373.56L446.57 367.52L448.16 368.44L446.35 374.49Z" fill="white"/>
<path d="M443.78 372.99L442.19 372.06L444.71 363.61L446.3 364.54L443.78 372.99Z" fill="white"/>
<path d="M441.2 371.48L439.62 370.55L440.6 367.25L442.19 368.18L441.2 371.48Z" fill="white"/>
<path d="M464.18 384.96L457.45 381.02L458.98 375.88L463.39 374.58L465.71 379.82L464.18 384.96Z" fill="white"/>
<path d="M483.17 391.65C482.57 393.66 480.58 394.4 478.72 393.31C476.86 392.22 475.84 389.71 476.44 387.71L476.79 386.53C477.39 384.52 479.38 383.78 481.24 384.87C483.1 385.96 484.12 388.47 483.52 390.47L483.17 391.65Z" fill="white"/>
<path d="M429.281 361.4L422.541 357.46L424.341 351.45L431.071 355.39L429.281 361.4Z" fill="white"/>
<path d="M421.9 359.77L424.78 358.37L422.54 357.46L421.9 359.77Z" fill="white"/>
<path d="M497.57 396.73L498.16 394.78L494.8 396.42L497.24 397.85L501.53 400.36L501.86 399.24L497.57 396.73Z" fill="white"/>
<path d="M494.03 398.97L493.7 400.08L497.99 402.59L497.41 404.55L500.77 402.91L498.32 401.48L494.03 398.97Z" fill="white"/>
<path d="M579.25 162.62L563.6 153.59L564.13 151.81L579.78 160.85L579.25 162.62Z" fill="white"/>
<path d="M577.53 168.37L561.88 159.33L562.41 157.56L578.06 166.59L577.53 168.37Z" fill="white"/>
<path d="M490.11 112.93C491.19 109.31 493.72 107.53 496.44 109.1C498.71 110.41 499.52 112.98 499.02 115.41L497.16 114.34C497.36 113.01 496.9 111.81 495.82 111.18C494.12 110.2 492.74 111.61 492.02 114.03C491.28 116.52 491.72 118.88 493.27 119.78C494.37 120.41 495.4 119.99 495.9 118.78L497.73 119.84C497.36 120.89 496.7 121.73 495.85 122.14C494.98 122.56 493.94 122.56 492.66 121.82C490.06 120.32 489.01 116.61 490.11 112.94V112.93Z" fill="white"/>
<path d="M498.31 119.64C499.09 117.03 501.1 115.83 503.15 117.01C505.2 118.2 506.01 121.02 505.23 123.64C504.45 126.25 502.44 127.46 500.39 126.27C498.34 125.08 497.53 122.26 498.31 119.64ZM503.45 122.61C503.96 120.9 503.7 119.39 502.63 118.77C501.55 118.15 500.61 118.96 500.1 120.67C499.59 122.38 499.84 123.87 500.93 124.49C502 125.11 502.95 124.32 503.46 122.61H503.45Z" fill="white"/>
<path d="M508.28 116.21L510.04 117.22L506.39 129.43L504.63 128.42L508.28 116.21Z" fill="white"/>
<path d="M511.101 117.84L512.861 118.85L509.211 131.06L507.451 130.05L511.101 117.84Z" fill="white"/>
<path d="M511.23 127.08C512.01 124.48 513.94 123.24 515.87 124.35C518 125.58 518.49 128.39 517.56 131.51L512.76 128.74C512.49 130.16 512.8 131.33 513.8 131.9C514.48 132.29 515.01 132.12 515.4 131.56L517.13 132.56C516.42 133.97 514.98 134.68 513.28 133.7C511.09 132.43 510.45 129.68 511.23 127.07V127.08ZM513.27 127.15L516.21 128.85C516.49 127.71 516.16 126.62 515.36 126.16C514.43 125.62 513.76 126.1 513.26 127.15H513.27Z" fill="white"/>
<path d="M518.121 131.08C518.901 128.47 520.791 127.2 522.811 128.36C524.531 129.35 525.191 131.28 524.861 133.31L523.141 132.32C523.251 131.49 522.971 130.64 522.331 130.27C521.271 129.66 520.411 130.42 519.901 132.11C519.411 133.77 519.581 135.17 520.651 135.79C521.361 136.2 522.011 136 522.421 135.07L524.111 136.05C523.441 137.84 521.901 138.7 520.131 137.67C518.041 136.46 517.341 133.69 518.121 131.08Z" fill="white"/>
<path d="M526.06 130.52L526.98 131.05L527.8 128.32L529.52 129.31L528.7 132.04L529.84 132.7L529.38 134.24L528.24 133.58L526.85 138.22C526.66 138.87 526.86 139.25 527.25 139.47C527.47 139.6 527.77 139.75 527.77 139.75L527.26 141.46C527.26 141.46 526.85 141.26 526.15 140.86C525.3 140.37 524.49 139.38 524.98 137.72L526.51 132.58L525.59 132.05L526.05 130.51L526.06 130.52Z" fill="white"/>
<path d="M530.6 133.14L532.36 134.15L529.74 142.91L527.98 141.9L530.6 133.14ZM531.63 129.69L533.391 130.7L532.771 132.78L531.01 131.77L531.63 129.69Z" fill="white"/>
<path d="M531.73 138.94C532.51 136.33 534.52 135.12 536.57 136.31C538.62 137.5 539.43 140.32 538.65 142.94C537.87 145.55 535.86 146.76 533.81 145.57C531.76 144.38 530.95 141.56 531.73 138.94ZM536.87 141.91C537.38 140.2 537.12 138.69 536.05 138.07C534.97 137.44 534.02 138.26 533.51 139.97C533 141.68 533.25 143.17 534.34 143.79C535.41 144.41 536.36 143.62 536.87 141.91Z" fill="white"/>
<path d="M542.011 141.13L542.051 141.15C542.781 140.47 543.541 140.33 544.441 140.85C545.811 141.64 546.321 143.54 545.751 145.45L544.041 151.17L542.281 150.16L543.891 144.78C544.171 143.84 543.961 142.94 543.221 142.51C542.451 142.06 541.631 142.55 541.281 143.75L539.801 148.72L538.041 147.71L540.661 138.95L542.381 139.94L542.021 141.13H542.011Z" fill="white"/>
<path d="M584.1 206.62C584.37 205.7 585.38 205.01 586.33 205.09C587.28 205.17 587.84 205.98 587.57 206.9L578.79 236.29C578.52 237.21 577.51 237.91 576.55 237.84C575.59 237.77 575.03 236.96 575.31 236.04L584.1 206.61V206.62Z" fill="#C2C8CF"/>
<path d="M576.56 237.85C575.6 237.78 575.04 236.97 575.32 236.05L584.11 206.62C584.38 205.7 585.39 205.01 586.34 205.09" stroke="black" stroke-linecap="round" stroke-linejoin="round"/>
<path d="M560.69 229.69L530.01 332.44C528.47 337.61 530.34 343.82 534.24 347.63L571.61 222.45C566.78 221.6 562.28 224.35 560.68 229.69H560.69Z" fill="#777E87"/>
<path d="M550.59 209.52C556.14 212.72 559.18 220.37 557.35 226.51L526.21 330.81C524.43 336.76 518.58 339.09 513.21 335.98L450.06 299.52C444.44 296.28 441.36 288.53 443.22 282.32L473.9 179.57C475.91 172.84 482.52 170.21 488.6 173.72L550.6 209.52H550.59Z" fill="#2FFD76"/>
<path d="M473.81 237.82L465.92 247.1C464.3 249.01 464.18 252.34 465.65 254.51L471.78 263.51L492.63 275.55L492.98 267.14L493.04 259.5L473.81 237.82Z" fill="white"/>
<path d="M539.61 275.33C537.09 273.44 533.78 269.17 532.25 265.83L528.71 267.99L521.27 261.92L505.98 231.04L499.18 234.23C495.6 235.91 490.9 233.75 488.73 229.42L484.66 221.28L473.61 232.9L473.8 237.83L493.03 259.51L492.97 267.15L496.17 268.91L501.07 272.21L518.8 286.87L539.3 286.91L542.18 277.26L539.6 275.33H539.61Z" fill="#49E980"/>
<path d="M521.27 261.92L528.71 267.99L532.25 265.83L511.62 220.86L507.18 224.6C506.09 225.52 505.43 227.69 505.72 229.43L505.99 231.05L521.28 261.93L521.27 261.92Z" fill="white"/>
<path d="M506.46 241.62L517.13 232.87" stroke="black" stroke-linecap="round" stroke-linejoin="round"/>
<path d="M509.391 248.02L520.061 239.27" stroke="black" stroke-linecap="round" stroke-linejoin="round"/>
<path d="M512.25 254.25L522.92 245.5" stroke="black" stroke-linecap="round" stroke-linejoin="round"/>
<path d="M487.62 253.39L487.09 266.03" stroke="black" stroke-linecap="round" stroke-linejoin="round"/>
<path d="M483.431 248.67L482.831 263.1" stroke="black" stroke-linecap="round" stroke-linejoin="round"/>
<path d="M478.89 247.65L476.67 245.25L473.96 249.93C473.39 250.91 473.14 252.16 473.26 253.41C473.38 254.66 473.85 255.79 474.58 256.56L478.35 260.52L478.89 247.66V247.65Z" fill="black"/>
<path d="M525.421 286.89C521.791 286.89 516.451 284.37 513.551 281.31L499.071 266.01C498.411 265.31 497.491 265.29 496.831 265.96C496.161 266.63 495.901 267.83 496.191 268.91L498.601 279.01L514.451 288.16C518.711 290.62 525.951 292.53 530.541 292.4L537.731 292.21L539.311 286.92L525.421 286.89Z" fill="white"/>
<path d="M475.32 234.86L484.48 245.46L495.09 249.63C496.72 250.27 498.28 252.68 498.55 254.99L499.94 266.92L513.56 281.31L508.49 254C508.22 252.55 507.42 251.39 506.38 250.96L486.13 242.5L477.16 231.35L475.34 233.26L475.32 234.87V234.86Z" fill="#C2C8CF"/>
<path d="M473.811 237.82L493.041 259.5L492.991 267.14" stroke="black" stroke-linecap="round" stroke-linejoin="round"/>
<path d="M532.39 286.9H525.42C521.79 286.88 516.45 284.37 513.55 281.31L499.07 266.01" stroke="black" stroke-linecap="round" stroke-linejoin="round"/>
<path d="M495.8 190.68C495.49 191.72 494.46 192.13 493.52 191.59L482.78 185.39C481.84 184.85 481.32 183.55 481.63 182.5C481.94 181.45 482.97 181.05 483.91 181.59L494.65 187.79C495.59 188.33 496.11 189.63 495.8 190.68Z" fill="#0E0F0D"/>
<path d="M486.54 313.49C483.44 311.39 482.96 308.09 483.68 305.26L485.22 306.15C484.7 308.55 485.12 310.45 487.03 311.84L488.91 305.55C486.85 303.59 485.4 301.79 486.32 298.7C487.13 295.98 489.23 295.22 491.63 296.44L492.03 295.1L493.06 295.69L492.66 297.03C495.05 298.7 495.77 300.99 495.27 303.75L493.78 302.89C494.1 301.17 493.55 299.71 492.18 298.66L490.43 304.52C492.63 306.53 494.22 308.42 493.24 311.7C492.37 314.62 490 315.33 487.56 314.12L486.95 316.16L485.92 315.57L486.54 313.5V313.49ZM489.48 303.65L491.16 298.04C489.63 297.33 488.32 297.74 487.81 299.44C487.35 300.99 487.93 302.16 489.48 303.65ZM489.85 306.46L488.06 312.46C489.57 313.16 491.16 312.77 491.72 310.9C492.26 309.1 491.46 308.02 489.86 306.46H489.85Z" fill="black"/>
<path d="M499.17 306.56L496.41 304.97L496.82 303.61C498.38 304.45 499.93 304.46 500.9 302.15L502.09 302.84L497.09 319.58L495.55 318.69L499.17 306.57V306.56Z" fill="black"/>
<path d="M500.31 315L501.84 315.88C501.1 318.59 501.96 320.82 504.04 322.02C505.79 323.03 507.36 322.6 508.06 320.24C508.69 318.13 507.83 316.32 505.72 315.1L504.93 314.64L505.4 313.06L506.17 313.51C508.14 314.65 509.46 314.13 509.99 312.35C510.53 310.53 509.63 308.72 508.12 307.85C506.3 306.8 504.75 307.73 504.06 310.04L502.55 309.17C503.55 305.9 505.87 304.68 508.65 306.28C510.98 307.63 512.34 310.38 511.48 313.27C510.92 315.14 509.73 315.74 508.36 315.57L508.34 315.64C509.92 317.27 510.25 319.19 509.61 321.36C508.66 324.54 506.15 325.23 503.59 323.76C500.82 322.16 499.24 318.83 500.32 315.01L500.31 315Z" fill="black"/>
<path d="M511.91 318.36C513.52 312.97 516.44 310.78 519.42 312.49C522.4 314.21 523.32 318.56 521.69 324C520.11 329.3 517.35 331.69 514.2 329.88C511.09 328.09 510.33 323.66 511.91 318.36ZM520.09 323.08C521.35 318.85 521.08 315.5 518.89 314.24C516.67 312.96 514.79 314.98 513.51 319.28C512.25 323.51 512.53 326.83 514.75 328.12C516.99 329.41 518.81 327.38 520.09 323.08Z" fill="black"/>
<path d="M486.958 341.287C488.344 340.836 489.01 339.061 488.445 337.323C487.88 335.584 486.298 334.54 484.911 334.991C483.524 335.442 482.859 337.217 483.424 338.955C483.989 340.693 485.571 341.737 486.958 341.287Z" fill="#2D3033"/>
<path d="M467.969 330.322C469.356 329.871 470.022 328.096 469.456 326.358C468.891 324.619 467.309 323.575 465.922 324.026C464.536 324.477 463.87 326.252 464.435 327.99C465 329.729 466.582 330.773 467.969 330.322Z" fill="#2FFD76"/>
<path d="M477.458 335.809C478.845 335.358 479.511 333.584 478.946 331.845C478.38 330.107 476.798 329.063 475.412 329.514C474.025 329.964 473.359 331.739 473.924 333.478C474.489 335.216 476.072 336.26 477.458 335.809Z" fill="white"/>
<path d="M439.74 280.32L470.42 177.57C471.96 172.4 470.09 166.19 466.19 162.38L428.82 287.56C433.65 288.41 438.15 285.66 439.75 280.32H439.74Z" fill="#C2C8CF"/>
<path d="M451.1 397.71L447.09 411.13C446.57 412.86 447.43 415.01 448.99 415.91L456.94 420.5C458.5 421.4 460.2 420.73 460.72 419L464.73 405.58L451.1 397.71Z" fill="white"/>
<path d="M456.69 420.35L456.94 420.5C458.5 421.4 460.2 420.73 460.72 419L464.73 405.59L461.64 403.8L456.7 420.36L456.69 420.35Z" fill="#C2C8CF"/>
<path d="M451.1 397.71L447.09 411.13C446.57 412.86 447.43 415.01 448.99 415.91L456.94 420.5C458.5 421.4 460.2 420.73 460.72 419L464.73 405.58L451.1 397.71Z" stroke="black" stroke-linecap="round" stroke-linejoin="round"/>
</svg>
