<svg width="131" height="212" viewBox="0 0 131 212" fill="none" xmlns="http://www.w3.org/2000/svg">
<path d="M25.7155 6.58817L20.0556 9.18817L20.5355 10.2382C13.6555 17.2182 12.1355 29.9282 17.5355 41.6882C22.9355 53.4482 33.5755 60.5682 43.3555 59.8882L43.8355 60.9382L49.4955 58.3382C60.5755 53.2482 64.2355 37.5282 57.6655 23.2382C51.0955 8.94817 36.7855 1.48817 25.7055 6.58817H25.7155Z" fill="#118338" stroke="black" stroke-linecap="round" stroke-linejoin="round"/>
<path d="M25.4355 52.7276C30.7455 57.6676 37.2155 60.3176 43.3555 59.8976L43.8355 60.9476L49.4955 58.3476C56.9555 54.9176 61.0255 46.6776 60.9055 37.3076L25.4255 52.7376L25.4355 52.7276Z" fill="black" stroke="black" stroke-linecap="round" stroke-linejoin="round"/>
<path d="M43.8467 60.9769C54.9272 55.8851 58.5856 40.1712 52.018 25.8789C45.4503 11.5866 31.1436 4.12818 20.063 9.21997C8.98251 14.3118 5.32415 30.0256 11.8918 44.3179C18.4595 58.6102 32.7662 66.0687 43.8467 60.9769Z" fill="#2FFD76"/>
<path d="M20.0556 9.18778C11.4356 13.1478 7.31558 23.5278 8.98558 34.6678L53.1656 51.0278C56.2156 43.9578 56.0555 34.6378 52.0055 25.8378C45.4355 11.5478 31.1256 4.08778 20.0456 9.18778H20.0556Z" fill="white"/>
<path d="M43.6955 28.7977L36.1555 33.0877C34.4355 34.0677 33.2655 32.9577 33.5455 30.6277L34.7855 20.4077L33.1255 19.6777L31.8855 29.8977C31.6055 32.2277 30.2955 32.2377 28.9755 29.9177L23.1955 19.7577L21.8655 20.5177L27.6455 30.6777C28.9655 32.9877 28.2855 34.1077 26.1355 33.1677L16.7155 29.0177L16.4955 30.8177L25.9155 34.9677C28.0655 35.9177 28.4155 37.4877 26.6955 38.4677L19.1555 42.7577L20.1755 44.5477L27.7155 40.2577C29.4355 39.2777 30.6055 40.3877 30.3255 42.7177L29.0855 52.9277L30.7455 53.6577L31.9855 43.4477C32.2655 41.1177 33.5755 41.1077 34.8955 43.4277L40.6755 53.5877L42.0055 52.8277L36.2255 42.6677C34.9055 40.3577 35.5855 39.2377 37.7355 40.1777L47.1555 44.3277L47.3755 42.5277L37.9555 38.3777C35.8055 37.4277 35.4555 35.8577 37.1755 34.8777L44.7155 30.5877L43.6955 28.7977Z" fill="black"/>
<path d="M43.8467 60.9769C54.9272 55.8851 58.5856 40.1712 52.018 25.8789C45.4503 11.5866 31.1436 4.12818 20.063 9.21997C8.98251 14.3118 5.32415 30.0256 11.8918 44.3179C18.4595 58.6102 32.7662 66.0687 43.8467 60.9769Z" stroke="black" stroke-linecap="round" stroke-linejoin="round"/>
<path d="M46.5056 208.968L52.1656 206.368C59.6356 202.928 63.7156 194.658 63.5856 185.258" stroke="#118338" stroke-linecap="round" stroke-linejoin="round"/>
<path d="M14.5457 192.317C21.1157 206.607 35.4257 214.067 46.5057 208.967C54.0057 205.517 58.0857 197.207 57.9257 187.767L14.1457 165.607C10.3657 172.817 10.2157 182.867 14.5557 192.307L14.5457 192.317Z" stroke="#118338" stroke-linecap="round" stroke-linejoin="round"/>
<path d="M60.3457 171.267C53.7757 156.977 39.4657 149.517 28.3857 154.617L22.7257 157.217L23.2057 158.267L57.9257 187.777L63.5857 185.267C63.5157 180.727 62.4857 175.927 60.3457 171.277V171.267Z" fill="#118338" stroke="black" stroke-linecap="round" stroke-linejoin="round"/>
<path d="M54.6857 173.867C48.1157 159.577 33.8058 152.117 22.7258 157.217C18.9658 158.947 16.0858 161.917 14.1458 165.617L57.9258 187.777C57.8458 183.267 56.8057 178.497 54.6857 173.877V173.867Z" fill="#2FFD76" stroke="black" stroke-linecap="round" stroke-linejoin="round"/>
<path d="M126.516 114.329L120.326 111.139L119.796 112.169C114.316 113.249 106.486 121.499 100.566 132.999C94.6457 144.499 92.4957 155.669 94.7957 160.759L94.2657 161.789L100.456 164.979C105.636 167.639 115.666 158.459 122.856 144.479C130.046 130.489 131.686 116.999 126.506 114.329H126.516Z" fill="#118338" stroke="black" stroke-linecap="round" stroke-linejoin="round"/>
<path d="M95.5557 145.408C93.6657 151.968 93.3457 157.558 94.7957 160.748L94.2657 161.778L100.456 164.968C103.936 166.758 109.616 163.178 115.156 156.388L95.5557 145.408Z" fill="black" stroke="black" stroke-linecap="round" stroke-linejoin="round"/>
<path d="M116.66 141.276C123.855 127.289 125.491 113.792 120.314 111.129C115.138 108.466 105.109 117.647 97.9145 131.634C90.7199 145.621 89.0838 159.118 94.2602 161.781C99.4366 164.444 109.465 155.263 116.66 141.276Z" fill="#2FFD76"/>
<path d="M120.326 111.139C116.296 109.069 109.346 114.159 103.066 123.099L101.966 159.999C106.746 156.669 112.246 149.889 116.676 141.289C123.866 127.299 125.506 113.809 120.326 111.139Z" fill="white"/>
<path d="M116.66 141.276C123.855 127.289 125.491 113.792 120.314 111.129C115.138 108.466 105.109 117.647 97.9145 131.634C90.7199 145.621 89.0838 159.118 94.2602 161.781C99.4366 164.444 109.465 155.263 116.66 141.276Z" stroke="black" stroke-linecap="round" stroke-linejoin="round"/>
</svg>
