<svg width="120" height="40" viewBox="0 0 120 40" fill="none" xmlns="http://www.w3.org/2000/svg">
<path d="M110.108 0.000129935H9.55775C9.19123 0.000129935 8.82911 0.000129935 8.46356 0.00212894C8.15757 0.00412794 7.85401 0.00993503 7.54507 0.0148226C6.87392 0.0227204 6.20435 0.0817654 5.54217 0.191444C4.88093 0.303511 4.2404 0.514788 3.64224 0.818131C3.04482 1.12404 2.49894 1.52154 2.0244 1.9962C1.54737 2.46953 1.14973 3.01664 0.846772 3.61648C0.542975 4.21513 0.33232 4.85664 0.222085 5.51885C0.110801 6.18022 0.0509189 6.84922 0.0429745 7.51985C0.0336991 7.82629 0.0327196 8.13376 0.027832 8.44025V31.5429C0.0327196 31.8533 0.0336991 32.1539 0.0429745 32.4644C0.0509213 33.135 0.110804 33.8039 0.222085 34.4653C0.332016 35.1279 0.542683 35.7698 0.846772 36.3686C1.1496 36.9665 1.54729 37.5114 2.0244 37.9821C2.49714 38.4589 3.04338 38.8567 3.64224 39.1602C4.24039 39.4644 4.88085 39.6769 5.54217 39.7907C6.20446 39.8995 6.87396 39.9586 7.54507 39.9674C7.85401 39.9742 8.15757 39.9781 8.46356 39.9781C8.8291 39.9801 9.19125 39.9801 9.55775 39.9801H110.108C110.467 39.9801 110.832 39.9801 111.191 39.9781C111.496 39.9781 111.808 39.9742 112.112 39.9674C112.782 39.9591 113.451 39.9 114.111 39.7907C114.775 39.6761 115.418 39.4636 116.019 39.1602C116.617 38.8565 117.163 38.4587 117.635 37.9821C118.111 37.5096 118.509 36.9651 118.816 36.3686C119.118 35.7693 119.327 35.1275 119.435 34.4653C119.546 33.8039 119.608 33.135 119.62 32.4644C119.624 32.1539 119.624 31.8533 119.624 31.5429C119.632 31.1798 119.632 30.8187 119.632 30.4497V9.53149C119.632 9.16546 119.632 8.80237 119.624 8.44025C119.624 8.13376 119.624 7.82629 119.62 7.51981C119.608 6.84913 119.546 6.18027 119.435 5.51881C119.326 4.85698 119.118 4.21552 118.816 3.61644C118.199 2.41412 117.221 1.43544 116.019 0.818041C115.418 0.515439 114.775 0.304218 114.111 0.191354C113.451 0.0811922 112.782 0.0221267 112.112 0.0146827C111.808 0.00980509 111.496 0.00394802 111.191 0.001999C110.832 0 110.467 0.000129935 110.108 0.000129935Z" fill="#A6A6A6"/>
<path d="M8.46842 39.1059C8.1639 39.1059 7.86673 39.102 7.56459 39.0952C6.93868 39.087 6.31424 39.0325 5.69638 38.9322C5.12026 38.8329 4.56215 38.6484 4.04047 38.3845C3.52357 38.1229 3.05212 37.7798 2.64417 37.3684C2.23032 36.9619 1.88576 36.4904 1.62417 35.9726C1.35969 35.4515 1.17666 34.8929 1.08144 34.3163C0.978616 33.6967 0.922984 33.0702 0.915023 32.4422C0.908687 32.2314 0.900391 31.5296 0.900391 31.5296V8.44055C0.900391 8.44055 0.909226 7.74949 0.915073 7.54646C0.922695 6.91946 0.978004 6.29394 1.08052 5.67533C1.17591 5.09714 1.35909 4.53692 1.62371 4.01406C1.88434 3.49663 2.22698 3.02478 2.63834 2.61681C3.04924 2.20496 3.5222 1.86011 4.03998 1.59485C4.56046 1.33187 5.11752 1.1486 5.69247 1.05118C6.31236 0.949799 6.93897 0.894986 7.56705 0.887204L8.46891 0.875H111.186L112.099 0.887694C112.721 0.895089 113.342 0.949413 113.956 1.0502C114.537 1.14884 115.1 1.33339 115.626 1.59778C116.664 2.13236 117.508 2.97811 118.04 4.0165C118.3 4.53575 118.481 5.0914 118.575 5.66459C118.679 6.28828 118.737 6.91871 118.749 7.55086C118.752 7.83392 118.752 8.13797 118.752 8.44055C118.759 8.81537 118.759 9.17212 118.759 9.5318V30.45C118.759 30.8131 118.759 31.1674 118.752 31.5247C118.752 31.8497 118.752 32.1475 118.748 32.4539C118.736 33.0748 118.679 33.6939 118.577 34.3065C118.484 34.8872 118.302 35.4502 118.037 35.9756C117.774 36.4878 117.431 36.9552 117.022 37.3606C116.614 37.7742 116.141 38.1193 115.623 38.3826C115.098 38.6485 114.536 38.8337 113.956 38.9322C113.338 39.0331 112.714 39.0876 112.088 39.0952C111.795 39.102 111.489 39.1059 111.191 39.1059L110.108 39.1079L8.46842 39.1059Z" fill="black"/>
<path d="M24.7843 20.2913C24.795 19.4571 25.0166 18.6391 25.4285 17.9135C25.8403 17.1879 26.4289 16.5783 27.1397 16.1413C26.6882 15.4965 26.0925 14.9658 25.4 14.5914C24.7076 14.2171 23.9373 14.0093 23.1505 13.9847C21.4721 13.8085 19.845 14.989 18.9897 14.989C18.1179 14.989 16.801 14.0022 15.383 14.0314C14.4658 14.061 13.5719 14.3277 12.7884 14.8056C12.0049 15.2834 11.3586 15.956 10.9123 16.7579C8.97929 20.1046 10.4212 25.0232 12.2728 27.7285C13.1993 29.0532 14.282 30.5329 15.6988 30.4804C17.0851 30.4229 17.6029 29.5964 19.2764 29.5964C20.9343 29.5964 21.4201 30.4804 22.8656 30.447C24.3532 30.4229 25.2905 29.1165 26.1844 27.7792C26.8501 26.8354 27.3623 25.7922 27.7021 24.6883C26.8378 24.3227 26.1003 23.7109 25.5814 22.929C25.0625 22.147 24.7853 21.2297 24.7843 20.2913Z" fill="white"/>
<path d="M22.054 12.2057C22.8651 11.232 23.2647 9.9804 23.168 8.7168C21.9288 8.84695 20.7841 9.43921 19.962 10.3756C19.5601 10.833 19.2522 11.3652 19.0561 11.9417C18.8599 12.5181 18.7793 13.1276 18.8189 13.7353C19.4387 13.7417 20.0519 13.6073 20.6123 13.3424C21.1727 13.0774 21.6656 12.6888 22.054 12.2057Z" fill="white"/>
<path d="M42.3089 27.1273H37.5779L36.4417 30.4821H34.4379L38.919 18.0703H41.001L45.4821 30.4821H43.4441L42.3089 27.1273ZM38.0679 25.5793H41.818L39.9693 20.1347H39.9176L38.0679 25.5793Z" fill="white"/>
<path d="M55.16 25.9574C55.16 28.7694 53.6548 30.5762 51.3835 30.5762C50.8082 30.6063 50.2359 30.4737 49.7324 30.1937C49.2289 29.9137 48.8143 29.4976 48.5363 28.9929H48.4933V33.4751H46.6359V21.4323H48.4338V22.9374H48.468C48.7588 22.4352 49.1803 22.0212 49.6877 21.7395C50.1951 21.4578 50.7693 21.3189 51.3494 21.3376C53.646 21.3376 55.16 23.1531 55.16 25.9574ZM53.2507 25.9574C53.2507 24.1253 52.3039 22.9208 50.8594 22.9208C49.4402 22.9208 48.4855 24.1507 48.4855 25.9574C48.4855 27.7807 49.4402 29.0018 50.8594 29.0018C52.304 29.0018 53.2507 27.8061 53.2507 25.9574Z" fill="white"/>
<path d="M65.1198 25.9574C65.1198 28.7694 63.6147 30.5761 61.3434 30.5761C60.768 30.6062 60.1958 30.4737 59.6922 30.1937C59.1887 29.9137 58.7742 29.4976 58.4962 28.9929H58.4532V33.4751H56.5957V21.4323H58.3936V22.9374H58.4278C58.7186 22.4352 59.1401 22.0212 59.6475 21.7395C60.1549 21.4578 60.7291 21.3189 61.3092 21.3376C63.6059 21.3376 65.1198 23.1531 65.1198 25.9574ZM63.2106 25.9574C63.2106 24.1253 62.2638 22.9208 60.8192 22.9208C59.4 22.9208 58.4454 24.1506 58.4454 25.9574C58.4454 27.7807 59.4 29.0017 60.8192 29.0017C62.2638 29.0017 63.2106 27.8061 63.2106 25.9574Z" fill="white"/>
<path d="M71.7024 27.0238C71.8401 28.2546 73.0358 29.0628 74.6697 29.0628C76.2353 29.0628 77.3617 28.2546 77.3617 27.1448C77.3617 26.1814 76.6824 25.6045 75.0738 25.2092L73.4652 24.8217C71.1861 24.2712 70.128 23.2053 70.128 21.4757C70.128 19.3342 71.9943 17.8633 74.6443 17.8633C77.267 17.8633 79.065 19.3342 79.1255 21.4757H77.2504C77.1382 20.2371 76.1143 19.4894 74.618 19.4894C73.1216 19.4894 72.0977 20.2459 72.0977 21.3469C72.0977 22.2244 72.7517 22.7407 74.3515 23.136L75.719 23.4718C78.2655 24.074 79.3236 25.097 79.3236 26.9124C79.3236 29.2345 77.4739 30.6889 74.5321 30.6889C71.7795 30.6889 69.9211 29.2687 69.801 27.0237L71.7024 27.0238Z" fill="white"/>
<path d="M83.3324 19.291V21.4325H85.0532V22.9035H83.3324V27.8922C83.3324 28.6672 83.6769 29.0283 84.4334 29.0283C84.6377 29.0248 84.8416 29.0104 85.0444 28.9854V30.4475C84.7043 30.5111 84.3586 30.5398 84.0127 30.5334C82.1806 30.5334 81.4661 29.8453 81.4661 28.0903V22.9035H80.1504V21.4325H81.4661V19.291H83.3324Z" fill="white"/>
<path d="M86.0498 25.9586C86.0498 23.1114 87.7267 21.3223 90.3416 21.3223C92.9653 21.3223 94.6344 23.1114 94.6344 25.9586C94.6344 28.8136 92.9741 30.595 90.3416 30.595C87.7101 30.595 86.0498 28.8136 86.0498 25.9586ZM92.7418 25.9586C92.7418 24.0055 91.8467 22.8527 90.3416 22.8527C88.8365 22.8527 87.9424 24.0143 87.9424 25.9586C87.9424 27.9195 88.8365 29.0635 90.3416 29.0635C91.8467 29.0635 92.7418 27.9195 92.7418 25.9586Z" fill="white"/>
<path d="M96.1658 21.4322H97.9374V22.9724H97.9803C98.1002 22.4914 98.382 22.0663 98.7784 21.7685C99.1748 21.4708 99.6616 21.3186 100.157 21.3375C100.371 21.3368 100.584 21.36 100.793 21.4068V23.1442C100.523 23.0617 100.241 23.0237 99.9588 23.032C99.689 23.021 99.4199 23.0686 99.1702 23.1714C98.9205 23.2743 98.696 23.4299 98.5121 23.6277C98.3282 23.8255 98.1893 24.0608 98.1049 24.3173C98.0206 24.5738 97.9927 24.8456 98.0232 25.1139V30.4814H96.1658L96.1658 21.4322Z" fill="white"/>
<path d="M109.357 27.8249C109.107 29.4676 107.508 30.595 105.461 30.595C102.828 30.595 101.194 28.8312 101.194 26.0016C101.194 23.1631 102.837 21.3223 105.383 21.3223C107.886 21.3223 109.461 23.0421 109.461 25.7859V26.4223H103.07V26.5345C103.04 26.8675 103.082 27.203 103.192 27.5187C103.302 27.8344 103.478 28.123 103.708 28.3655C103.938 28.6079 104.218 28.7986 104.527 28.9248C104.837 29.051 105.17 29.11 105.504 29.0977C105.943 29.1388 106.383 29.0371 106.76 28.8078C107.136 28.5785 107.429 28.2337 107.594 27.8249L109.357 27.8249ZM103.078 25.1241H107.602C107.619 24.8246 107.574 24.525 107.469 24.2439C107.364 23.9628 107.203 23.7064 106.994 23.4908C106.786 23.2751 106.535 23.1049 106.258 22.9907C105.981 22.8765 105.683 22.8209 105.383 22.8274C105.08 22.8256 104.78 22.8837 104.501 22.9984C104.221 23.1131 103.966 23.282 103.752 23.4956C103.538 23.7091 103.368 23.9629 103.252 24.2424C103.137 24.522 103.078 24.8216 103.078 25.1241Z" fill="white"/>
<path d="M37.8351 8.72747C38.2245 8.69953 38.6153 8.75836 38.9792 8.89972C39.3431 9.04108 39.6712 9.26145 39.9396 9.54493C40.2081 9.82842 40.4103 10.1679 40.5316 10.539C40.6529 10.9101 40.6904 11.3035 40.6413 11.6908C40.6413 13.5961 39.6116 14.6913 37.8351 14.6913H35.6809V8.72747H37.8351ZM36.6072 13.8479H37.7316C38.0099 13.8645 38.2884 13.8189 38.5468 13.7144C38.8052 13.6098 39.037 13.4489 39.2254 13.2435C39.4138 13.038 39.554 12.7931 39.6359 12.5266C39.7177 12.2601 39.7391 11.9788 39.6984 11.703C39.7361 11.4283 39.7126 11.1487 39.6295 10.8841C39.5464 10.6196 39.4059 10.3767 39.2179 10.1729C39.0299 9.96905 38.7992 9.80932 38.5422 9.70514C38.2853 9.60096 38.0085 9.5549 37.7316 9.57026H36.6072V13.8479Z" fill="white"/>
<path d="M41.6877 12.4387C41.6594 12.143 41.6932 11.8445 41.787 11.5626C41.8808 11.2807 42.0325 11.0215 42.2323 10.8016C42.4321 10.5817 42.6757 10.406 42.9475 10.2858C43.2192 10.1656 43.513 10.1035 43.8101 10.1035C44.1072 10.1035 44.4011 10.1656 44.6728 10.2858C44.9445 10.406 45.1881 10.5817 45.3879 10.8016C45.5878 11.0215 45.7395 11.2807 45.8333 11.5626C45.9271 11.8445 45.9609 12.143 45.9326 12.4387C45.9614 12.7348 45.928 13.0336 45.8345 13.316C45.7409 13.5984 45.5893 13.8581 45.3894 14.0784C45.1895 14.2987 44.9458 14.4747 44.6738 14.5952C44.4018 14.7157 44.1076 14.7779 43.8101 14.7779C43.5127 14.7779 43.2185 14.7157 42.9465 14.5952C42.6745 14.4747 42.4307 14.2987 42.2308 14.0784C42.0309 13.8581 41.8793 13.5984 41.7858 13.316C41.6923 13.0336 41.6588 12.7348 41.6877 12.4387ZM45.019 12.4387C45.019 11.4631 44.5807 10.8926 43.8116 10.8926C43.0395 10.8926 42.6052 11.4631 42.6052 12.4387C42.6052 13.4221 43.0395 13.9883 43.8116 13.9883C44.5807 13.9882 45.019 13.4182 45.019 12.4387Z" fill="white"/>
<path d="M51.5753 14.6921H50.6538L49.7236 11.3773H49.6534L48.7271 14.6921H47.8144L46.5739 10.1914H47.4748L48.281 13.6257H48.3474L49.2727 10.1914H50.1248L51.0501 13.6257H51.1204L51.9227 10.1914H52.811L51.5753 14.6921Z" fill="white"/>
<path d="M53.8544 10.1909H54.7094V10.9059H54.7758C54.8884 10.6491 55.0783 10.4338 55.319 10.2901C55.5598 10.1464 55.8394 10.0813 56.1189 10.104C56.3379 10.0876 56.5577 10.1206 56.7622 10.2007C56.9667 10.2807 57.1506 10.4057 57.3002 10.5665C57.4498 10.7273 57.5613 10.9196 57.6265 11.1294C57.6917 11.3391 57.7088 11.5608 57.6767 11.778V14.6915H56.7885V12.0011C56.7885 11.2778 56.4742 10.9181 55.8173 10.9181C55.6686 10.9112 55.5202 10.9365 55.3822 10.9923C55.2442 11.0481 55.1199 11.1331 55.0178 11.2414C54.9157 11.3497 54.8383 11.4788 54.7908 11.6199C54.7433 11.761 54.7268 11.9106 54.7426 12.0586V14.6916H53.8544L53.8544 10.1909Z" fill="white"/>
<path d="M59.092 8.43359H59.9803V14.6912H59.092V8.43359Z" fill="white"/>
<path d="M61.215 12.4388C61.1867 12.143 61.2206 11.8446 61.3144 11.5626C61.4082 11.2807 61.5599 11.0215 61.7598 10.8016C61.9596 10.5817 62.2032 10.406 62.475 10.2858C62.7467 10.1656 63.0406 10.1035 63.3377 10.1035C63.6348 10.1035 63.9287 10.1656 64.2004 10.2858C64.4722 10.406 64.7158 10.5817 64.9156 10.8016C65.1155 11.0215 65.2672 11.2807 65.361 11.5626C65.4548 11.8446 65.4887 12.143 65.4604 12.4388C65.4892 12.7349 65.4557 13.0337 65.3622 13.3161C65.2686 13.5985 65.117 13.8582 64.9171 14.0785C64.7171 14.2988 64.4734 14.4748 64.2014 14.5953C63.9294 14.7158 63.6352 14.778 63.3377 14.778C63.0402 14.778 62.746 14.7158 62.474 14.5953C62.202 14.4748 61.9582 14.2988 61.7583 14.0785C61.5584 13.8582 61.4068 13.5985 61.3132 13.3161C61.2196 13.0337 61.1862 12.7349 61.215 12.4388ZM64.5463 12.4388C64.5463 11.4632 64.108 10.8927 63.3389 10.8927C62.5668 10.8927 62.1325 11.4632 62.1325 12.4388C62.1325 13.4222 62.5669 13.9883 63.3389 13.9883C64.1081 13.9883 64.5463 13.4183 64.5463 12.4388Z" fill="white"/>
<path d="M66.3955 13.4183C66.3955 12.6081 66.9987 12.1411 68.0695 12.0747L69.2886 12.0044V11.6159C69.2886 11.1406 68.9743 10.8722 68.3672 10.8722C67.8713 10.8722 67.5278 11.0542 67.4292 11.3724H66.5692C66.66 10.5994 67.3872 10.1035 68.4082 10.1035C69.5365 10.1035 70.1729 10.6652 70.1729 11.6159V14.6911H69.3179V14.0586H69.2476C69.105 14.2854 68.9046 14.4704 68.6671 14.5946C68.4296 14.7187 68.1634 14.7776 67.8957 14.7652C67.7068 14.7849 67.5158 14.7647 67.3352 14.706C67.1545 14.6474 66.9881 14.5515 66.8468 14.4246C66.7054 14.2977 66.5922 14.1426 66.5145 13.9692C66.4368 13.7959 66.3963 13.6082 66.3955 13.4183ZM69.2886 13.0337V12.6574L68.1895 12.7277C67.5697 12.7692 67.2886 12.98 67.2886 13.3768C67.2886 13.7818 67.64 14.0176 68.1232 14.0176C68.2648 14.0319 68.4078 14.0176 68.5437 13.9755C68.6796 13.9335 68.8057 13.8645 68.9145 13.7727C69.0232 13.6809 69.1124 13.5682 69.1766 13.4412C69.2409 13.3142 69.279 13.1757 69.2886 13.0337Z" fill="white"/>
<path d="M71.3403 12.4389C71.3403 11.0168 72.0714 10.1159 73.2085 10.1159C73.4898 10.1029 73.769 10.1703 74.0134 10.3101C74.2578 10.4499 74.4573 10.6564 74.5887 10.9055H74.6551V8.43359H75.5433V14.6912H74.6922V13.9801H74.6219C74.4804 14.2275 74.2739 14.4314 74.0247 14.5698C73.7756 14.7083 73.4933 14.7759 73.2085 14.7654C72.0636 14.7654 71.3403 13.8645 71.3403 12.4389ZM72.2579 12.4389C72.2579 13.3935 72.7078 13.968 73.4604 13.968C74.209 13.968 74.6717 13.3852 74.6717 12.4428C74.6717 11.5048 74.2042 10.9138 73.4604 10.9138C72.7127 10.9138 72.2579 11.4921 72.2579 12.4389Z" fill="white"/>
<path d="M79.2182 12.4387C79.1899 12.143 79.2237 11.8445 79.3175 11.5626C79.4113 11.2807 79.563 11.0215 79.7628 10.8016C79.9627 10.5817 80.2062 10.406 80.478 10.2858C80.7497 10.1656 81.0435 10.1035 81.3406 10.1035C81.6378 10.1035 81.9316 10.1656 82.2033 10.2858C82.475 10.406 82.7186 10.5817 82.9185 10.8016C83.1183 11.0215 83.27 11.2807 83.3638 11.5626C83.4576 11.8445 83.4914 12.143 83.4631 12.4387C83.4919 12.7348 83.4585 13.0336 83.365 13.316C83.2714 13.5984 83.1198 13.8581 82.9199 14.0784C82.72 14.2987 82.4763 14.4747 82.2043 14.5952C81.9323 14.7157 81.6381 14.7779 81.3406 14.7779C81.0432 14.7779 80.749 14.7157 80.477 14.5952C80.205 14.4747 79.9612 14.2987 79.7613 14.0784C79.5614 13.8581 79.4099 13.5984 79.3163 13.316C79.2228 13.0336 79.1893 12.7348 79.2182 12.4387ZM82.5495 12.4387C82.5495 11.4631 82.1112 10.8926 81.3421 10.8926C80.57 10.8926 80.1357 11.4631 80.1357 12.4387C80.1357 13.4221 80.5701 13.9883 81.3421 13.9883C82.1113 13.9882 82.5495 13.4182 82.5495 12.4387Z" fill="white"/>
<path d="M84.6549 10.1909H85.5099V10.9059H85.5763C85.6889 10.6491 85.8788 10.4338 86.1196 10.2901C86.3603 10.1464 86.6399 10.0813 86.9194 10.104C87.1384 10.0876 87.3583 10.1206 87.5628 10.2007C87.7673 10.2807 87.9511 10.4057 88.1007 10.5665C88.2504 10.7273 88.3619 10.9196 88.427 11.1294C88.4922 11.3391 88.5094 11.5608 88.4772 11.778V14.6915H87.589V12.0011C87.589 11.2778 87.2747 10.9181 86.6178 10.9181C86.4691 10.9112 86.3207 10.9365 86.1827 10.9923C86.0447 11.0481 85.9204 11.1331 85.8183 11.2414C85.7163 11.3497 85.6388 11.4788 85.5913 11.6199C85.5438 11.761 85.5274 11.9106 85.5431 12.0586V14.6916H84.6549V10.1909Z" fill="white"/>
<path d="M93.4963 9.07031V10.2113H94.4714V10.9595H93.4963V13.2738C93.4963 13.7452 93.6905 13.9517 94.1327 13.9517C94.2459 13.9513 94.359 13.9445 94.4714 13.9312V14.671C94.3119 14.6996 94.1502 14.7147 93.9882 14.7164C93.0004 14.7164 92.6071 14.3689 92.6071 13.5012V10.9595H91.8926V10.2113H92.6071V9.07031H93.4963Z" fill="white"/>
<path d="M95.6846 8.43359H96.565V10.9138H96.6353C96.7533 10.6546 96.9485 10.4381 97.194 10.2939C97.4396 10.1496 97.7237 10.0845 98.0076 10.1076C98.2254 10.0957 98.4432 10.1321 98.6454 10.2141C98.8476 10.2961 99.0292 10.4217 99.1772 10.582C99.3252 10.7422 99.4361 10.9332 99.5019 11.1412C99.5676 11.3492 99.5866 11.5692 99.5576 11.7854V14.6912H98.6685V12.0046C98.6685 11.2857 98.3336 10.9216 97.7061 10.9216C97.5534 10.9091 97.3998 10.9301 97.2561 10.9831C97.1124 11.0361 96.982 11.1199 96.8741 11.2286C96.7662 11.3373 96.6833 11.4682 96.6312 11.6123C96.5792 11.7564 96.5593 11.9101 96.5728 12.0626V14.6912H95.6846L95.6846 8.43359Z" fill="white"/>
<path d="M104.737 13.4759C104.616 13.8873 104.355 14.2431 103.998 14.4811C103.641 14.7191 103.213 14.8242 102.786 14.778C102.49 14.7858 102.195 14.729 101.923 14.6116C101.651 14.4941 101.407 14.3188 101.209 14.0977C101.011 13.8767 100.864 13.6153 100.777 13.3316C100.691 13.0479 100.667 12.7488 100.707 12.455C100.668 12.1602 100.692 11.8604 100.779 11.5759C100.865 11.2914 101.012 11.0287 101.208 10.8058C101.405 10.5828 101.648 10.4047 101.919 10.2836C102.191 10.1624 102.485 10.1011 102.783 10.1036C104.035 10.1036 104.79 10.9592 104.79 12.3725V12.6824H101.612V12.7322C101.598 12.8973 101.619 13.0636 101.673 13.2202C101.727 13.3769 101.814 13.5206 101.926 13.642C102.039 13.7633 102.176 13.8598 102.329 13.9252C102.481 13.9905 102.645 14.0234 102.811 14.0215C103.023 14.047 103.239 14.0088 103.429 13.9116C103.62 13.8145 103.777 13.6628 103.882 13.4759L104.737 13.4759ZM101.612 12.0255H103.885C103.897 11.8744 103.876 11.7227 103.825 11.5801C103.774 11.4374 103.694 11.307 103.59 11.1972C103.485 11.0874 103.359 11.0006 103.219 10.9425C103.08 10.8843 102.929 10.8561 102.778 10.8596C102.624 10.8576 102.472 10.8865 102.329 10.9444C102.187 11.0023 102.058 11.0881 101.949 11.1968C101.84 11.3054 101.755 11.4347 101.697 11.5771C101.639 11.7194 101.61 11.8719 101.612 12.0255Z" fill="white"/>
</svg>
