<svg width="100%" height="100%" viewBox="0 0 770 671" fill="none" xmlns="http://www.w3.org/2000/svg">
<path d="M74.5697 396.353C62.9397 396.353 51.4997 394.753 40.7697 391.563C20.1797 385.433 5.64967 374.213 1.90967 361.563C-0.650326 352.903 -1.21033 331.153 48.7897 316.363C57.0297 313.923 83.9297 302.943 83.9297 264.003C83.9297 254.213 86.2097 248.313 90.8997 245.993C97.0697 242.933 104.04 248.013 104.82 248.603C106.14 249.603 106.39 251.493 105.39 252.803C104.39 254.123 102.51 254.373 101.19 253.373C99.9797 252.463 95.9797 250.153 93.5597 251.363C91.2597 252.513 89.9297 257.123 89.9297 263.993C89.9297 274.893 87.0897 311.283 50.4897 322.103C18.9397 331.433 3.32967 345.193 7.65967 359.843C10.7697 370.373 24.1197 380.323 42.4797 385.793C63.4697 392.043 87.3797 391.843 109.8 385.213L610.6 237.163C636.04 229.643 661.54 228.243 684.34 233.103C706.05 237.733 723.55 247.863 733.63 261.613C747.3 280.253 746.26 303.223 730.72 326.273L719.85 342.393C718.92 343.763 717.06 344.133 715.69 343.203C714.32 342.273 713.95 340.413 714.88 339.043L725.75 322.923C739.77 302.123 740.85 281.613 728.8 265.163C719.59 252.603 703.36 243.303 683.09 238.973C661.26 234.313 636.78 235.683 612.3 242.913L111.51 390.993C99.4097 394.573 86.8897 396.363 74.5697 396.363V396.353Z" fill="#C2C8CF" stroke="black" stroke-linecap="round" stroke-linejoin="round"/>
<path d="M113.65 356.913C111.9 357.433 111.46 358.973 112.67 360.343L187.12 444.443C188.33 445.813 190.75 446.503 192.5 445.983L443.05 371.913C451.21 369.503 453.27 362.313 447.63 355.943L381.25 280.933C380.04 279.563 377.62 278.873 375.87 279.393L113.65 356.923V356.913Z" fill="black"/>
<path d="M390.41 3.93301H390.4C388.09 1.33301 384.37 0.283008 380.18 1.51301L136.96 73.423C132.62 74.703 128.77 78.153 126.48 82.323L197.89 162.993L192.53 427.383L277.64 334.043L380.04 303.773C387.01 301.713 392.72 294.073 392.72 286.803L392.77 127.783L447.2 68.093L390.41 3.93301Z" fill="white"/>
<path d="M188.59 147.193L128.84 79.7031" stroke="#E9EAEB" stroke-linecap="round" stroke-linejoin="round"/>
<path d="M126.48 82.3235C125.09 84.8535 124.28 87.6435 124.28 90.3935L124.24 189.153C124.24 191.883 122.7 195.733 120.83 197.713L105.58 213.843C103.71 215.823 102.17 219.673 102.17 222.403L102.11 341.273C102.11 344.173 103.03 346.583 104.56 348.313L183.4 437.403L192.55 427.373L197.91 162.983L126.5 82.3135L126.48 82.3235Z" fill="#E9EAEB"/>
<path d="M102.1 302.073L144.28 349.743V354.483L102.1 306.813" fill="#C2C8CF"/>
<path d="M102.1 289.393L144.28 337.053V341.793L102.1 294.133" fill="#C2C8CF"/>
<path d="M102.1 276.703L144.28 324.373V329.113L102.1 281.443" fill="#C2C8CF"/>
<path d="M102.1 264.013L144.28 311.683V316.423L102.1 268.763" fill="#C2C8CF"/>
<path d="M102.1 251.333L144.28 298.993V303.743L102.1 256.073" fill="#C2C8CF"/>
<path d="M102.1 238.643L144.28 286.313V291.053L102.1 243.383" fill="#C2C8CF"/>
<path d="M447.2 68.093L390.41 3.93301H390.4C388.09 1.33301 384.37 0.283008 380.18 1.51301L136.96 73.423C129.99 75.483 124.28 83.123 124.28 90.393L124.24 189.153C124.24 191.883 122.7 195.733 120.83 197.713L105.58 213.843C103.71 215.823 102.17 219.673 102.17 222.403L102.11 341.273C102.11 344.173 103.03 346.583 104.56 348.313L183.4 437.403L277.66 334.033L380.06 303.763C387.03 301.703 392.74 294.063 392.74 286.793L392.79 127.773L447.22 68.083L447.2 68.093Z" stroke="black" stroke-linecap="round" stroke-linejoin="round"/>
<path d="M436.97 65.6732C443.94 63.6132 449.64 67.8732 449.64 75.1432L449.52 350.953C449.52 358.223 443.81 365.863 436.84 367.923L193.62 439.823C186.65 441.883 180.95 437.623 180.95 430.353L181.07 154.543C181.07 147.273 186.78 139.633 193.75 137.573L436.97 65.6732Z" fill="white" stroke="black" stroke-linecap="round" stroke-linejoin="round"/>
<path d="M449.64 305.073L180.94 384.503L165.11 366.623C164.26 365.663 163.57 363.843 163.57 362.563V202.633C163.57 201.353 162.88 199.533 162.03 198.573L124.24 155.973" stroke="#C2C8CF" stroke-linecap="round" stroke-linejoin="round"/>
<path d="M434.14 72.0729C440.04 70.3329 444.86 73.9329 444.86 80.0829L444.75 269.013C444.75 275.163 439.92 281.623 434.02 283.363L196.43 353.603C190.53 355.343 185.71 351.743 185.71 345.593L185.82 156.663C185.82 150.513 190.65 144.053 196.55 142.313L434.14 72.0729Z" fill="#C2C8CF"/>
<path d="M434.14 72.0729L196.55 142.313C190.65 144.053 185.82 150.513 185.82 156.663L185.71 345.593C185.71 348.913 187.12 351.483 189.34 352.873L207.92 315.723L403.55 97.9129L441.99 73.3429C440.03 71.7229 437.24 71.1529 434.15 72.0629L434.14 72.0729Z" fill="#777E87"/>
<path d="M406.05 98.9032L443.47 74.9932" stroke="#777E87" stroke-linecap="round" stroke-linejoin="round"/>
<path d="M191.85 353.873L210.43 316.723" stroke="#777E87" stroke-linecap="round" stroke-linejoin="round"/>
<path d="M210.47 150.663C206.73 151.773 203.67 155.863 203.67 159.763L203.69 315.863C203.69 318.853 206.38 321.153 209.33 320.673C221.08 318.773 252.53 312.633 316.06 293.853C373.61 276.843 398.84 266.463 408.44 261.993C411.62 260.513 413.8 257.473 414.17 253.983C415.3 243.593 417.49 218.563 417.49 180.913C417.49 140.943 415.17 109.353 414.08 96.6633C413.81 93.5333 410.74 91.4433 407.73 92.3333L210.46 150.653L210.47 150.663Z" fill="black" stroke="black" stroke-linecap="round" stroke-linejoin="round"/>
<path d="M434.14 72.0729C440.04 70.3329 444.86 73.9329 444.86 80.0829L444.75 269.013C444.75 275.163 439.92 281.623 434.02 283.363L196.43 353.603C190.53 355.343 185.71 351.743 185.71 345.593L185.82 156.663C185.82 150.513 190.65 144.053 196.55 142.313L434.14 72.0729Z" stroke="black" stroke-linecap="round" stroke-linejoin="round"/>
<path d="M335.01 349.623C335.01 348.283 336.06 346.883 337.34 346.503L424.16 320.833C425.44 320.453 426.49 321.243 426.49 322.573C426.49 323.903 425.44 325.313 424.16 325.693L337.34 351.363C336.06 351.743 335.01 350.953 335.01 349.623Z" fill="white" stroke="black" stroke-linecap="round" stroke-linejoin="round"/>
<path d="M424.17 320.833L337.35 346.503C336.26 346.823 335.34 347.893 335.09 349.023C335.27 349.023 335.45 348.993 335.64 348.933L422.46 323.263C423.55 322.943 424.47 321.873 424.72 320.743C424.54 320.743 424.36 320.773 424.17 320.833Z" fill="black" stroke="black" stroke-linecap="round" stroke-linejoin="round"/>
<path d="M211.73 387.423L209.78 385.213C209.35 384.733 208.67 384.543 207.9 384.763L199.24 387.323C197.96 387.703 196.91 389.103 196.91 390.443C196.91 390.973 197.08 391.413 197.37 391.733L199.32 393.943L211.75 387.403L211.73 387.423Z" fill="#2FFD76" stroke="black" stroke-linecap="round" stroke-linejoin="round"/>
<path d="M198.85 392.663C198.85 391.323 199.9 389.923 201.18 389.543L209.84 386.983C211.12 386.603 212.17 387.393 212.17 388.723C212.17 390.053 211.12 391.463 209.84 391.843L201.18 394.403C199.9 394.783 198.85 393.993 198.85 392.663Z" fill="#2FFD76" stroke="black" stroke-linecap="round" stroke-linejoin="round"/>
<path d="M432.26 650.513C428.9 650.513 425.51 650.313 422.12 649.893C399.02 647.013 383.92 634.853 380.69 616.533L367.26 540.253C364.31 523.483 352.02 508.923 333.55 500.303C311.07 489.813 285.34 490.663 264.73 502.553L225.19 525.383C223.99 526.073 222.46 525.663 221.77 524.463C221.08 523.263 221.49 521.743 222.69 521.043L262.23 498.213C284.25 485.503 311.7 484.583 335.66 495.753C355.63 505.073 368.94 520.963 372.18 539.373L385.61 615.653C389.61 638.393 412.91 643.693 422.74 644.923C445.3 647.733 468.88 640.063 474.23 628.163C477.93 619.933 471.44 611.823 465.34 606.463L452.63 595.303C451.59 594.393 451.49 592.813 452.4 591.773C453.31 590.733 454.89 590.633 455.93 591.543L468.64 602.703C481.98 614.423 481.52 624.123 478.79 630.203C473.37 642.273 453.64 650.503 432.26 650.503V650.513Z" fill="white"/>
<path d="M432.01 649.493C431.18 649.493 430.51 648.823 430.51 647.993C430.51 647.163 431.18 646.493 432.01 646.493C452.77 646.493 471.45 638.443 475.48 627.763C478.02 621.023 474.74 613.393 466 605.723L453.29 594.563C452.67 594.013 452.61 593.073 453.15 592.443C453.7 591.823 454.64 591.763 455.27 592.303L467.98 603.463C480.31 614.293 480.39 623.233 478.28 628.823C473.17 642.393 451.13 649.493 432.01 649.493Z" fill="#2FFD76"/>
<path d="M396.42 457.843L469.75 337.223C472.85 332.643 481.8 330.373 489.69 332.153L493.21 332.943L503.51 317.733C506.61 313.153 515.56 310.883 523.45 312.663L745.09 362.663C752.99 364.443 756.88 369.613 753.78 374.193L666.73 502.733C665.93 503.913 664.73 504.943 663.26 505.793L643.22 517.363C639.02 519.783 632.6 520.693 626.75 519.373L405.11 469.373C397.22 467.593 393.32 462.423 396.42 457.843Z" fill="black" stroke="black" stroke-linecap="round" stroke-linejoin="round"/>
<path d="M395.35 429.893L432.84 418.193L483.47 343.433C486.57 338.853 495.52 336.583 503.41 338.363L642.33 355.583L734.81 334.173V382.523H734.8C734.8 383.603 734.47 384.703 733.75 385.773L646.7 514.313C643.6 518.893 634.66 521.163 626.76 519.383L405.12 469.383C399.07 468.013 395.38 464.653 395.38 461.093H395.37V429.893H395.35Z" fill="#E9EAEB"/>
<path d="M635.1 471.473V519.913" stroke="white" stroke-linecap="round" stroke-linejoin="round"/>
<path d="M734.8 334.163V382.513H734.79C734.79 383.593 734.46 384.693 733.74 385.763L646.69 514.303C645.28 516.393 642.64 517.993 639.45 518.953V466.423L729.44 335.393L734.81 334.153L734.8 334.163Z" fill="white"/>
<path d="M395.35 429.893L432.84 418.193L483.47 343.433C486.57 338.853 495.52 336.583 503.41 338.363L642.33 355.583L734.81 334.173V382.523H734.8C734.8 383.603 734.47 384.703 733.75 385.773L646.7 514.313C643.6 518.893 634.66 521.163 626.76 519.383L405.12 469.383C399.07 468.013 395.38 464.653 395.38 461.093H395.37V429.893H395.35Z" stroke="black" stroke-linecap="round" stroke-linejoin="round"/>
<path d="M414.67 385.423C415.27 382.953 416.92 379.223 418.34 377.123L483.47 280.953C486.57 276.373 495.52 274.103 503.41 275.883L725.05 325.883C732.95 327.663 736.84 332.833 733.74 337.413L668.61 433.583C667.19 435.683 665.54 439.423 664.94 441.883L660.72 459.343C660.12 461.813 658.47 465.543 657.05 467.643L646.68 482.953C643.58 487.533 634.64 489.803 626.74 488.023L405.1 438.023C397.21 436.243 393.31 431.073 396.41 426.493L406.78 411.183C408.2 409.083 409.85 405.343 410.45 402.883L414.67 385.423Z" fill="white"/>
<path d="M422.77 382.233C420.3 381.673 417.82 383.243 417.26 385.713L413.27 403.433C412.71 405.903 414.28 408.393 416.75 408.943L650.8 461.753C654.2 462.523 657.61 460.363 658.38 456.963L661.62 442.613C662.39 439.213 660.23 435.803 656.83 435.033L422.78 382.223L422.77 382.233Z" fill="#E9EAEB"/>
<path d="M414.67 385.423C415.27 382.953 416.92 379.223 418.34 377.123L483.47 280.953C486.57 276.373 495.52 274.103 503.41 275.883L725.05 325.883C732.95 327.663 736.84 332.833 733.74 337.413L668.61 433.583C667.19 435.683 665.54 439.423 664.94 441.883L660.72 459.343C660.12 461.813 658.47 465.543 657.05 467.643L646.68 482.953C643.58 487.533 634.64 489.803 626.74 488.023L405.1 438.023C397.21 436.243 393.31 431.073 396.41 426.493L406.78 411.183C408.2 409.083 409.85 405.343 410.45 402.883L414.67 385.423Z" stroke="black" stroke-linecap="round" stroke-linejoin="round"/>
<path d="M440.75 390.873C441.39 388.143 443.21 384.013 444.78 381.683L481.07 328.093C483.78 324.093 491.59 322.113 498.48 323.663L672.44 362.913C679.34 364.473 682.74 368.983 680.03 372.983L643.74 426.573C642.17 428.893 640.38 433.033 639.78 435.773L638.9 439.723C637.75 444.893 632.59 448.173 627.42 447.003L446.99 406.293C441.82 405.123 438.59 399.953 439.81 394.803L440.74 390.863L440.75 390.873Z" stroke="#C2C8CF" stroke-linecap="round" stroke-linejoin="round"/>
<path d="M649.54 396.773C651.42 397.203 653.85 396.233 654.94 394.633L662.3 383.773C663.38 382.173 662.73 380.513 660.84 380.093L486.91 340.853C485.03 340.423 482.6 341.393 481.51 342.993L474.15 353.853C473.07 355.453 473.72 357.113 475.61 357.533L649.54 396.773Z" fill="black" stroke="black" stroke-linecap="round" stroke-linejoin="round"/>
<path d="M475.62 438.173C474.85 439.313 475.82 440.593 477.78 441.043L568.82 461.583C570.78 462.023 573.01 461.463 573.78 460.323C574.55 459.183 573.58 457.903 571.62 457.453L480.58 436.913C478.62 436.473 476.39 437.033 475.62 438.173Z" fill="black" stroke="black" stroke-linecap="round" stroke-linejoin="round"/>
<path d="M540.02 451.913L571.62 459.043C572.66 459.273 573.42 459.753 573.79 460.313C573.79 460.313 573.79 460.313 573.79 460.323C573.02 461.463 570.8 462.023 568.83 461.583L537.23 454.453C536.19 454.223 535.43 453.743 535.06 453.183C535.06 453.183 535.06 453.183 535.06 453.173C535.83 452.033 538.06 451.473 540.02 451.913Z" fill="#2FFD76" stroke="black" stroke-linecap="round" stroke-linejoin="round"/>
<path d="M519.9 445.843L547.37 450.303V453.493C547.37 453.763 547.29 454.033 547.11 454.303C546.34 455.443 544.12 456.003 542.15 455.563L522.33 451.093C520.83 450.753 519.91 449.923 519.91 449.033V445.843H519.9Z" fill="white" stroke="black" stroke-linecap="round" stroke-linejoin="round"/>
<path d="M520.17 445.033C519.4 446.173 520.37 447.453 522.33 447.903L542.15 452.373C544.11 452.813 546.34 452.253 547.11 451.113C547.88 449.973 546.91 448.693 544.95 448.243L525.13 443.773C523.17 443.333 520.94 443.893 520.17 445.033Z" fill="white" stroke="black" stroke-linecap="round" stroke-linejoin="round"/>
<path d="M660.24 268.133L670.95 252.323L476.2 208.383L465.49 224.193L660.24 268.133Z" fill="black" stroke="black" stroke-linecap="round" stroke-linejoin="round"/>
<path d="M482.38 228.003L493.09 212.193L476.2 208.383L465.49 224.193L482.38 228.003Z" fill="#C2C8CF" stroke="black" stroke-linecap="round" stroke-linejoin="round"/>
<path d="M495.72 131.653C495.72 127.053 499.39 124.123 503.88 125.133L640.55 155.963C645.04 156.973 648.71 161.563 648.71 166.163V249.023C648.71 253.623 645.04 256.553 640.55 255.543L503.88 224.713C499.39 223.703 495.72 219.113 495.72 214.513V131.653Z" fill="#2D3033"/>
<path d="M640.54 255.553C645.03 256.563 648.7 253.633 648.7 249.033V166.173C648.7 161.623 645.11 157.093 640.69 156.013L576.51 241.113L640.53 255.553H640.54Z" fill="#777E87"/>
<path d="M495.72 131.653C495.72 127.053 499.39 124.123 503.88 125.133L640.55 155.963C645.04 156.973 648.71 161.563 648.71 166.163V249.023C648.71 253.623 645.04 256.553 640.55 255.543L503.88 224.713C499.39 223.703 495.72 219.113 495.72 214.513V131.653Z" stroke="black" stroke-linecap="round" stroke-linejoin="round"/>
<path d="M506.17 139.353L542.11 147.463V155.973L506.17 147.863V139.353Z" fill="#777E87"/>
<path d="M495.72 165.923L648.7 200.433V217.023L495.72 182.513V165.923Z" fill="black"/>
<path d="M487.75 199.353C487.75 194.753 491.42 191.823 495.91 192.833L632.58 223.663C637.07 224.673 640.74 229.263 640.74 233.863V316.723C640.74 321.323 637.07 324.253 632.58 323.243L495.91 292.413C491.42 291.403 487.75 286.813 487.75 282.213V199.353Z" fill="#2FFD76" stroke="black" stroke-linecap="round" stroke-linejoin="round"/>
<path d="M591.6 214.423L527.42 299.533L556.61 306.113L620.79 221.013L591.6 214.423Z" fill="#C2C8CF"/>
<path d="M610.31 256.853C605.6 251.323 605.37 243.793 609.8 240.023C610.35 239.553 610.95 239.163 611.58 238.853C606.89 234.443 600.36 233.533 596.31 236.983C591.89 240.753 592.12 248.283 596.83 253.813C600.95 258.653 607.13 260.343 611.58 258.163C611.14 257.753 610.72 257.323 610.32 256.853H610.31Z" fill="#0E4622"/>
<path d="M626.32 243.203C622.2 238.363 616.02 236.673 611.57 238.853C612.01 239.263 612.43 239.693 612.83 240.163C617.54 245.693 617.77 253.223 613.35 256.993C612.8 257.463 612.2 257.853 611.57 258.163C616.26 262.573 622.79 263.483 626.84 260.033C631.26 256.263 631.03 248.733 626.33 243.203H626.32Z" fill="#2D3033"/>
<path d="M612.84 240.163C612.44 239.693 612.01 239.263 611.58 238.853C610.95 239.163 610.35 239.553 609.8 240.023C605.38 243.793 605.61 251.323 610.31 256.853C610.71 257.323 611.14 257.753 611.57 258.163C612.2 257.853 612.8 257.463 613.35 256.993C617.77 253.223 617.54 245.693 612.83 240.163H612.84Z" fill="black"/>
<path d="M487.75 199.353C487.75 194.753 491.42 191.823 495.91 192.833L632.58 223.663C637.07 224.673 640.74 229.263 640.74 233.863V316.723C640.74 321.323 637.07 324.253 632.58 323.243L495.91 292.413C491.42 291.403 487.75 286.813 487.75 282.213V199.353Z" stroke="black" stroke-linecap="round" stroke-linejoin="round"/>
<path d="M660.24 381.873L670.95 366.063V252.323L660.24 268.133V381.873Z" fill="#777E87" stroke="black" stroke-linecap="round" stroke-linejoin="round"/>
<path d="M660.24 268.132L465.49 224.192V337.932L477.19 349.102V354.792L648.55 393.452V387.772L660.24 381.872V268.132Z" fill="#C2C8CF" stroke="black" stroke-linecap="round" stroke-linejoin="round"/>
<path d="M511.5 253.443C511.5 248.293 515.61 245.003 520.64 246.143L605.1 265.203C610.12 266.333 614.24 271.483 614.24 276.633V357.493C614.24 362.643 610.13 365.933 605.1 364.793L520.64 345.733C515.62 344.603 511.5 339.453 511.5 334.303V253.443Z" fill="#2FFD76"/>
<path d="M528.13 264.763L524.14 263.863V259.873L528.13 260.773V264.763Z" fill="black"/>
<path d="M532.11 265.653L528.13 264.763V260.773L532.11 261.673V265.653Z" fill="black"/>
<path d="M536.1 266.553L532.11 265.653V261.673L536.1 262.563V266.553Z" fill="black"/>
<path d="M540.08 267.453L536.1 266.553V262.563L540.08 263.463V267.453Z" fill="black"/>
<path d="M528.13 268.743L524.14 267.843V263.863L528.13 264.763V268.743Z" fill="black"/>
<path d="M540.08 271.433L536.1 270.533V266.553L540.08 267.453V271.433Z" fill="black"/>
<path d="M528.13 272.733L524.14 271.833V267.843L528.13 268.743V272.733Z" fill="black"/>
<path d="M540.08 275.423L536.1 274.523V270.533L540.08 271.433V275.423Z" fill="black"/>
<path d="M528.13 276.713L524.14 275.813V271.833L528.13 272.733V276.713Z" fill="black"/>
<path d="M532.11 277.613L528.13 276.713V272.733L532.11 273.623V277.613Z" fill="black"/>
<path d="M536.1 278.503L532.11 277.613V273.623L536.1 274.523V278.503Z" fill="black"/>
<path d="M540.08 279.403L536.1 278.503V274.523L540.08 275.423V279.403Z" fill="black"/>
<path d="M548.05 269.243L544.07 268.343V264.363L548.05 265.263V269.243Z" fill="black"/>
<path d="M560.01 271.933L556.02 271.033V267.053L560.01 267.953V271.933Z" fill="black"/>
<path d="M548.05 273.233L544.07 272.333V268.343L548.05 269.243V273.233Z" fill="black"/>
<path d="M560.01 275.923L556.02 275.023V271.033L560.01 271.933V275.923Z" fill="black"/>
<path d="M552.04 274.123L548.05 273.233V269.243L552.04 270.143V274.123Z" fill="black"/>
<path d="M552.04 278.113L548.05 277.213V273.233L552.04 274.123V278.113Z" fill="black"/>
<path d="M556.02 275.023L552.04 274.123V270.143L556.02 271.033V275.023Z" fill="black"/>
<path d="M560.01 279.903L556.02 279.003V275.023L560.01 275.923V279.903Z" fill="black"/>
<path d="M548.05 281.203L544.07 280.303V276.313L548.05 277.213V281.203Z" fill="black"/>
<path d="M556.02 282.993L552.04 282.093V278.113L556.02 279.003V282.993Z" fill="black"/>
<path d="M560.01 283.893L556.02 282.993V279.003L560.01 279.903V283.893Z" fill="black"/>
<path d="M567.98 273.733L563.99 272.833V268.843L567.98 269.743V273.733Z" fill="black"/>
<path d="M575.95 275.523L571.96 274.623V270.643L575.95 271.543V275.523Z" fill="black"/>
<path d="M579.93 276.423L575.95 275.523V271.543L579.93 272.433V276.423Z" fill="black"/>
<path d="M567.98 277.713L563.99 276.813V272.833L567.98 273.733V277.713Z" fill="black"/>
<path d="M579.93 280.403L575.95 279.513V275.523L579.93 276.423V280.403Z" fill="black"/>
<path d="M567.98 281.703L563.99 280.803V276.813L567.98 277.713V281.703Z" fill="black"/>
<path d="M571.96 278.613L567.98 277.713V273.733L571.96 274.623V278.613Z" fill="black"/>
<path d="M571.96 282.593L567.98 281.703V277.713L571.96 278.613V282.593Z" fill="black"/>
<path d="M575.95 283.493L571.96 282.593V278.613L575.95 279.513V283.493Z" fill="black"/>
<path d="M579.93 284.393L575.95 283.493V279.513L579.93 280.403V284.393Z" fill="black"/>
<path d="M567.98 285.683L563.99 284.783V280.803L567.98 281.703V285.683Z" fill="black"/>
<path d="M575.95 287.483L571.96 286.583V282.593L575.95 283.493V287.483Z" fill="black"/>
<path d="M587.9 278.213L583.92 277.313V273.333L587.9 274.233V278.213Z" fill="black"/>
<path d="M591.89 279.113L587.9 278.213V274.233L591.89 275.123V279.113Z" fill="black"/>
<path d="M595.87 280.013L591.89 279.113V275.123L595.87 276.023V280.013Z" fill="black"/>
<path d="M599.86 280.903L595.87 280.013V276.023L599.86 276.923V280.903Z" fill="black"/>
<path d="M587.9 282.203L583.92 281.303V277.313L587.9 278.213V282.203Z" fill="black"/>
<path d="M599.86 284.893L595.87 283.993V280.013L599.86 280.903V284.893Z" fill="black"/>
<path d="M587.9 286.183L583.92 285.283V281.303L587.9 282.203V286.183Z" fill="black"/>
<path d="M599.86 288.873L595.87 287.983V283.993L599.86 284.893V288.873Z" fill="black"/>
<path d="M587.9 290.173L583.92 289.273V285.283L587.9 286.183V290.173Z" fill="black"/>
<path d="M591.89 291.063L587.9 290.173V286.183L591.89 287.083V291.063Z" fill="black"/>
<path d="M595.87 291.963L591.89 291.063V287.083L595.87 287.983V291.963Z" fill="black"/>
<path d="M599.86 292.863L595.87 291.963V287.983L599.86 288.873V292.863Z" fill="black"/>
<path d="M528.13 284.683L524.14 283.783V279.803L528.13 280.703V284.683Z" fill="black"/>
<path d="M532.11 285.583L528.13 284.683V280.703L532.11 281.593V285.583Z" fill="black"/>
<path d="M528.13 288.673L524.14 287.773V283.783L528.13 284.683V288.673Z" fill="black"/>
<path d="M540.08 291.363L536.1 290.463V286.473L540.08 287.373V291.363Z" fill="black"/>
<path d="M532.11 289.563L528.13 288.673V284.683L532.11 285.583V289.563Z" fill="black"/>
<path d="M532.11 293.553L528.13 292.653V288.673L532.11 289.563V293.553Z" fill="black"/>
<path d="M536.1 290.463L532.11 289.563V285.583L536.1 286.473V290.463Z" fill="black"/>
<path d="M536.1 294.443L532.11 293.553V289.563L536.1 290.463V294.443Z" fill="black"/>
<path d="M540.08 295.343L536.1 294.443V290.463L540.08 291.363V295.343Z" fill="black"/>
<path d="M528.13 296.643L524.14 295.743V291.753L528.13 292.653V296.643Z" fill="black"/>
<path d="M536.1 298.433L532.11 297.533V293.553L536.1 294.443V298.433Z" fill="black"/>
<path d="M548.05 289.173L544.07 288.273V284.283L548.05 285.183V289.173Z" fill="black"/>
<path d="M552.04 290.063L548.05 289.173V285.183L552.04 286.083V290.063Z" fill="black"/>
<path d="M556.02 290.963L552.04 290.063V286.083L556.02 286.973V290.963Z" fill="black"/>
<path d="M560.01 291.863L556.02 290.963V286.973L560.01 287.873V291.863Z" fill="black"/>
<path d="M548.05 293.153L544.07 292.253V288.273L548.05 289.173V293.153Z" fill="black"/>
<path d="M560.01 295.843L556.02 294.943V290.963L560.01 291.863V295.843Z" fill="black"/>
<path d="M548.05 297.143L544.07 296.243V292.253L548.05 293.153V297.143Z" fill="black"/>
<path d="M552.04 294.053L548.05 293.153V289.173L552.04 290.063V294.053Z" fill="black"/>
<path d="M552.04 298.033L548.05 297.143V293.153L552.04 294.053V298.033Z" fill="black"/>
<path d="M556.02 298.933L552.04 298.033V294.053L556.02 294.943V298.933Z" fill="black"/>
<path d="M560.01 299.833L556.02 298.933V294.943L560.01 295.843V299.833Z" fill="black"/>
<path d="M556.02 302.913L552.04 302.023V298.033L556.02 298.933V302.913Z" fill="black"/>
<path d="M567.98 293.653L563.99 292.753V288.773L567.98 289.673V293.653Z" fill="black"/>
<path d="M579.93 300.333L575.95 299.433V295.453L579.93 296.343V300.333Z" fill="black"/>
<path d="M567.98 301.623L563.99 300.723V296.743L567.98 297.643V301.623Z" fill="black"/>
<path d="M571.96 298.533L567.98 297.643V293.653L571.96 294.553V298.533Z" fill="black"/>
<path d="M575.95 299.433L571.96 298.533V294.553L575.95 295.453V299.433Z" fill="black"/>
<path d="M575.95 303.413L571.96 302.523V298.533L575.95 299.433V303.413Z" fill="black"/>
<path d="M567.98 305.613L563.99 304.713V300.723L567.98 301.623V305.613Z" fill="black"/>
<path d="M571.96 306.503L567.98 305.613V301.623L571.96 302.523V306.503Z" fill="black"/>
<path d="M575.95 307.403L571.96 306.503V302.523L575.95 303.413V307.403Z" fill="black"/>
<path d="M587.9 298.143L583.92 297.243V293.253L587.9 294.153V298.143Z" fill="black"/>
<path d="M591.89 299.033L587.9 298.143V294.153L591.89 295.053V299.033Z" fill="black"/>
<path d="M595.87 299.933L591.89 299.033V295.053L595.87 295.953V299.933Z" fill="black"/>
<path d="M587.9 302.123L583.92 301.223V297.243L587.9 298.143V302.123Z" fill="black"/>
<path d="M599.86 304.813L595.87 303.923V299.933L599.86 300.833V304.813Z" fill="black"/>
<path d="M591.89 303.023L587.9 302.123V298.143L591.89 299.033V303.023Z" fill="black"/>
<path d="M591.89 307.003L587.9 306.113V302.123L591.89 303.023V307.003Z" fill="black"/>
<path d="M595.87 307.903L591.89 307.003V303.023L595.87 303.923V307.903Z" fill="black"/>
<path d="M587.9 310.093L583.92 309.193V305.213L587.9 306.113V310.093Z" fill="black"/>
<path d="M595.87 311.893L591.89 310.993V307.003L595.87 307.903V311.893Z" fill="black"/>
<path d="M599.86 312.783L595.87 311.893V307.903L599.86 308.803V312.783Z" fill="black"/>
<path d="M528.13 304.613L524.14 303.713V299.723L528.13 300.623V304.613Z" fill="black"/>
<path d="M536.1 306.403L532.11 305.503V301.523L536.1 302.413V306.403Z" fill="black"/>
<path d="M540.08 307.303L536.1 306.403V302.413L540.08 303.313V307.303Z" fill="black"/>
<path d="M528.13 308.593L524.14 307.693V303.713L528.13 304.613V308.593Z" fill="black"/>
<path d="M540.08 311.283L536.1 310.383V306.403L540.08 307.303V311.283Z" fill="black"/>
<path d="M532.11 309.493L528.13 308.593V304.613L532.11 305.503V309.493Z" fill="black"/>
<path d="M532.11 313.473L528.13 312.583V308.593L532.11 309.493V313.473Z" fill="black"/>
<path d="M536.1 310.383L532.11 309.493V305.503L536.1 306.403V310.383Z" fill="black"/>
<path d="M536.1 314.373L532.11 313.473V309.493L536.1 310.383V314.373Z" fill="black"/>
<path d="M540.08 315.273L536.1 314.373V310.383L540.08 311.283V315.273Z" fill="black"/>
<path d="M528.13 316.563L524.14 315.663V311.683L528.13 312.583V316.563Z" fill="black"/>
<path d="M532.11 317.463L528.13 316.563V312.583L532.11 313.473V317.463Z" fill="black"/>
<path d="M536.1 318.353L532.11 317.463V313.473L536.1 314.373V318.353Z" fill="black"/>
<path d="M548.05 309.093L544.07 308.193V304.213L548.05 305.113V309.093Z" fill="black"/>
<path d="M556.02 310.883L552.04 309.993V306.003L556.02 306.903V310.883Z" fill="black"/>
<path d="M560.01 311.783L556.02 310.883V306.903L560.01 307.803V311.783Z" fill="black"/>
<path d="M548.05 313.083L544.07 312.183V308.193L548.05 309.093V313.083Z" fill="black"/>
<path d="M548.05 317.063L544.07 316.163V312.183L548.05 313.083V317.063Z" fill="black"/>
<path d="M552.04 313.973L548.05 313.083V309.093L552.04 309.993V313.973Z" fill="black"/>
<path d="M552.04 317.963L548.05 317.063V313.083L552.04 313.973V317.963Z" fill="black"/>
<path d="M556.02 314.873L552.04 313.973V309.993L556.02 310.883V314.873Z" fill="black"/>
<path d="M556.02 318.853L552.04 317.963V313.973L556.02 314.873V318.853Z" fill="black"/>
<path d="M548.05 321.053L544.07 320.153V316.163L548.05 317.063V321.053Z" fill="black"/>
<path d="M552.04 321.943L548.05 321.053V317.063L552.04 317.963V321.943Z" fill="black"/>
<path d="M556.02 322.843L552.04 321.943V317.963L556.02 318.853V322.843Z" fill="black"/>
<path d="M567.98 313.583L563.99 312.683V308.693L567.98 309.593V313.583Z" fill="black"/>
<path d="M575.95 315.373L571.96 314.473V310.493L575.95 311.383V315.373Z" fill="black"/>
<path d="M579.93 316.273L575.95 315.373V311.383L579.93 312.283V316.273Z" fill="black"/>
<path d="M567.98 317.563L563.99 316.663V312.683L567.98 313.583V317.563Z" fill="black"/>
<path d="M579.93 320.253L575.95 319.353V315.373L579.93 316.273V320.253Z" fill="black"/>
<path d="M567.98 321.553L563.99 320.653V316.663L567.98 317.563V321.553Z" fill="black"/>
<path d="M571.96 318.463L567.98 317.563V313.583L571.96 314.473V318.463Z" fill="black"/>
<path d="M575.95 319.353L571.96 318.463V314.473L575.95 315.373V319.353Z" fill="black"/>
<path d="M575.95 323.343L571.96 322.443V318.463L575.95 319.353V323.343Z" fill="black"/>
<path d="M579.93 324.243L575.95 323.344V319.354L579.93 320.254V324.243Z" fill="black"/>
<path d="M567.98 325.533L563.99 324.633V320.653L567.98 321.553V325.533Z" fill="black"/>
<path d="M571.96 326.433L567.98 325.533V321.553L571.96 322.443V326.433Z" fill="black"/>
<path d="M575.95 327.323L571.96 326.433V322.443L575.95 323.343V327.323Z" fill="black"/>
<path d="M579.93 328.223L575.95 327.323V323.343L579.93 324.243V328.223Z" fill="black"/>
<path d="M587.9 318.063L583.92 317.163V313.183L587.9 314.083V318.063Z" fill="black"/>
<path d="M595.87 319.863L591.89 318.963V314.973L595.87 315.873V319.863Z" fill="black"/>
<path d="M599.86 324.743L595.87 323.843V319.863L599.86 320.753V324.743Z" fill="black"/>
<path d="M587.9 326.033L583.92 325.133V321.153L587.9 322.053V326.033Z" fill="black"/>
<path d="M591.89 326.933L587.9 326.033V322.053L591.89 322.943V326.933Z" fill="black"/>
<path d="M595.87 323.843L591.89 322.943V318.963L595.87 319.863V323.843Z" fill="black"/>
<path d="M599.86 328.723L595.87 327.833V323.843L599.86 324.743V328.723Z" fill="black"/>
<path d="M587.9 330.023L583.92 329.123V325.133L587.9 326.033V330.023Z" fill="black"/>
<path d="M591.89 330.913L587.9 330.023V326.033L591.89 326.933V330.913Z" fill="black"/>
<path d="M595.87 331.813L591.89 330.913V326.933L595.87 327.833V331.813Z" fill="black"/>
<path d="M599.86 332.713L595.87 331.813V327.833L599.86 328.723V332.713Z" fill="black"/>
<path d="M536.1 302.413L532.11 301.523V297.533L536.1 298.433V302.413Z" fill="black"/>
<path d="M540.08 303.313L536.1 302.413V298.433L540.08 299.333V303.313Z" fill="black"/>
<path d="M544.07 296.243L540.08 295.343V291.363L544.07 292.253V296.243Z" fill="black"/>
<path d="M544.07 300.223L540.08 299.333V295.343L544.07 296.243V300.223Z" fill="black"/>
<path d="M544.07 308.193L540.08 307.303V303.313L544.07 304.213V308.193Z" fill="black"/>
<path d="M544.07 316.163L540.08 315.273V311.283L544.07 312.183V316.163Z" fill="black"/>
<path d="M544.07 320.153L540.08 319.253V315.273L544.07 316.163V320.153Z" fill="black"/>
<path d="M544.07 304.213L540.08 303.313V299.333L544.07 300.223V304.213Z" fill="black"/>
<path d="M548.05 305.113L544.07 304.213V300.223L548.05 301.123V305.113Z" fill="black"/>
<path d="M556.02 306.903L552.04 306.003V302.023L556.02 302.913V306.903Z" fill="black"/>
<path d="M560.01 307.803L556.02 306.903V302.913L560.01 303.813V307.803Z" fill="black"/>
<path d="M567.98 309.593L563.99 308.693V304.713L567.98 305.613V309.593Z" fill="black"/>
<path d="M579.93 312.283L575.95 311.383V307.403L579.93 308.303V312.283Z" fill="black"/>
<path d="M583.92 297.243L579.93 296.343V292.363L583.92 293.253V297.243Z" fill="black"/>
<path d="M583.92 301.223L579.93 300.333V296.343L583.92 297.243V301.223Z" fill="black"/>
<path d="M583.92 305.213L579.93 304.313V300.333L583.92 301.223V305.213Z" fill="black"/>
<path d="M583.92 309.193L579.93 308.303V304.313L583.92 305.213V309.193Z" fill="black"/>
<path d="M583.92 321.153L579.93 320.253V316.273L583.92 317.163V321.153Z" fill="black"/>
<path d="M583.92 325.133L579.93 324.243V320.253L583.92 321.153V325.133Z" fill="black"/>
<path d="M583.92 329.123L579.93 328.223V324.243L583.92 325.133V329.123Z" fill="black"/>
<path d="M583.92 313.183L579.93 312.283V308.303L583.92 309.193V313.183Z" fill="black"/>
<path d="M587.9 314.083L583.92 313.183V309.193L587.9 310.093V314.083Z" fill="black"/>
<path d="M591.89 314.973L587.9 314.083V310.093L591.89 310.993V314.973Z" fill="black"/>
<path d="M595.87 315.873L591.89 314.973V310.993L595.87 311.893V315.873Z" fill="black"/>
<path d="M528.13 324.533L524.14 323.633V319.653L528.13 320.553V324.533Z" fill="black"/>
<path d="M532.11 325.433L528.13 324.533V320.553L532.11 321.443V325.433Z" fill="black"/>
<path d="M536.1 326.323L532.11 325.433V321.443L536.1 322.343V326.323Z" fill="black"/>
<path d="M540.08 327.223L536.1 326.323V322.343L540.08 323.243V327.223Z" fill="black"/>
<path d="M528.13 328.523L524.14 327.623V323.633L528.13 324.533V328.523Z" fill="black"/>
<path d="M540.08 331.213L536.1 330.313V326.323L540.08 327.223V331.213Z" fill="black"/>
<path d="M528.13 332.503L524.14 331.603V327.623L528.13 328.523V332.503Z" fill="black"/>
<path d="M540.08 335.193L536.1 334.293V330.313L540.08 331.213V335.193Z" fill="black"/>
<path d="M528.13 336.484L524.14 335.594V331.604L528.13 332.504V336.484Z" fill="black"/>
<path d="M532.11 337.383L528.13 336.483V332.503L532.11 333.403V337.383Z" fill="black"/>
<path d="M536.1 338.283L532.11 337.383V333.403L536.1 334.293V338.283Z" fill="black"/>
<path d="M540.08 339.183L536.1 338.283V334.293L540.08 335.193V339.183Z" fill="black"/>
<path d="M548.05 329.023L544.07 328.123V324.133L548.05 325.033V329.023Z" fill="black"/>
<path d="M552.04 329.913L548.05 329.023V325.033L552.04 325.933V329.913Z" fill="black"/>
<path d="M560.01 331.713L556.02 330.813V326.823L560.01 327.723V331.713Z" fill="black"/>
<path d="M548.05 336.993L544.07 336.094V332.104L548.05 333.004V336.993Z" fill="black"/>
<path d="M552.04 333.903L548.05 333.003V329.023L552.04 329.913V333.903Z" fill="black"/>
<path d="M552.04 337.883L548.05 336.993V333.003L552.04 333.903V337.883Z" fill="black"/>
<path d="M556.02 334.793L552.04 333.903V329.913L556.02 330.813V334.793Z" fill="black"/>
<path d="M560.01 339.683L556.02 338.783V334.793L560.01 335.693V339.683Z" fill="black"/>
<path d="M548.05 340.973L544.07 340.073V336.093L548.05 336.993V340.973Z" fill="black"/>
<path d="M552.04 341.873L548.05 340.973V336.993L552.04 337.883V341.873Z" fill="black"/>
<path d="M571.96 334.403L567.98 333.503V329.523L571.96 330.413V334.403Z" fill="black"/>
<path d="M575.95 335.293L571.96 334.403V330.413L575.95 331.313V335.293Z" fill="black"/>
<path d="M567.98 337.493L563.99 336.594V332.604L567.98 333.504V337.493Z" fill="black"/>
<path d="M567.98 341.473L563.99 340.573V336.593L567.98 337.493V341.473Z" fill="black"/>
<path d="M571.96 342.373L567.98 341.473V337.493L571.96 338.383V342.373Z" fill="black"/>
<path d="M575.95 343.263L571.96 342.373V338.383L575.95 339.283V343.263Z" fill="black"/>
<path d="M579.93 344.163L575.95 343.263V339.283L579.93 340.183V344.163Z" fill="black"/>
<path d="M567.98 345.463L563.99 344.563V340.573L567.98 341.473V345.463Z" fill="black"/>
<path d="M563.99 272.833L560.01 271.933V267.953L563.99 268.843V272.833Z" fill="black"/>
<path d="M563.99 280.803L560.01 279.903V275.923L563.99 276.813V280.803Z" fill="black"/>
<path d="M563.99 284.783L560.01 283.893V279.903L563.99 280.803V284.783Z" fill="black"/>
<path d="M552.04 286.083L548.05 285.183V281.203L552.04 282.093V286.083Z" fill="black"/>
<path d="M556.02 286.973L552.04 286.083V282.093L556.02 282.993V286.973Z" fill="black"/>
<path d="M567.98 289.673L563.99 288.773V284.783L567.98 285.683V289.673Z" fill="black"/>
<path d="M579.93 292.363L575.95 291.463V287.483L579.93 288.373V292.363Z" fill="black"/>
<path d="M563.99 292.753L560.01 291.863V287.873L563.99 288.773V292.753Z" fill="black"/>
<path d="M563.99 296.743L560.01 295.843V291.863L563.99 292.753V296.743Z" fill="black"/>
<path d="M563.99 300.723L560.01 299.833V295.843L563.99 296.743V300.723Z" fill="black"/>
<path d="M563.99 304.713L560.01 303.813V299.833L563.99 300.723V304.713Z" fill="black"/>
<path d="M563.99 312.683L560.01 311.783V307.803L563.99 308.693V312.683Z" fill="black"/>
<path d="M563.99 320.653L560.01 319.753V315.773L563.99 316.663V320.653Z" fill="black"/>
<path d="M563.99 324.633L560.01 323.743V319.753L563.99 320.653V324.633Z" fill="black"/>
<path d="M563.99 332.603L560.01 331.713V327.723L563.99 328.623V332.603Z" fill="black"/>
<path d="M552.04 325.933L548.05 325.033V321.053L552.04 321.943V325.933Z" fill="black"/>
<path d="M556.02 326.823L552.04 325.933V321.943L556.02 322.843V326.823Z" fill="black"/>
<path d="M560.01 327.723L556.02 326.823V322.843L560.01 323.743V327.723Z" fill="black"/>
<path d="M567.98 329.523L563.99 328.623V324.633L567.98 325.533V329.523Z" fill="black"/>
<path d="M575.95 331.313L571.96 330.413V326.433L575.95 327.323V331.313Z" fill="black"/>
<path d="M579.93 332.213L575.95 331.313V327.323L579.93 328.223V332.213Z" fill="black"/>
<path d="M563.99 328.623L560.01 327.723V323.743L563.99 324.633V328.623Z" fill="black"/>
<path d="M563.99 336.593L560.01 335.693V331.713L563.99 332.603V336.593Z" fill="black"/>
<path d="M563.99 340.573L560.01 339.683V335.693L563.99 336.593V340.573Z" fill="black"/>
<path d="M571.96 346.353L567.98 345.463V341.473L571.96 342.373V346.353Z" fill="black"/>
<path d="M579.93 348.153L575.95 347.253V343.263L579.93 344.163V348.153Z" fill="black"/>
<path d="M587.9 337.993L583.92 337.094V333.104L587.9 334.004V337.993Z" fill="black"/>
<path d="M591.89 338.883L587.9 337.993V334.003L591.89 334.903V338.883Z" fill="black"/>
<path d="M595.87 339.783L591.89 338.883V334.903L595.87 335.803V339.783Z" fill="black"/>
<path d="M599.86 340.683L595.87 339.783V335.803L599.86 336.693V340.683Z" fill="black"/>
<path d="M587.9 341.973L583.92 341.073V337.093L587.9 337.993V341.973Z" fill="black"/>
<path d="M599.86 344.663L595.87 343.773V339.783L599.86 340.683V344.663Z" fill="black"/>
<path d="M587.9 345.963L583.92 345.063V341.073L587.9 341.973V345.963Z" fill="black"/>
<path d="M599.86 348.653L595.87 347.753V343.773L599.86 344.663V348.653Z" fill="black"/>
<path d="M587.9 349.943L583.92 349.043V345.063L587.9 345.963V349.943Z" fill="black"/>
<path d="M591.89 350.843L587.9 349.943V345.963L591.89 346.853V350.843Z" fill="black"/>
<path d="M595.87 351.743L591.89 350.844V346.854L595.87 347.754V351.743Z" fill="black"/>
<path d="M599.86 352.633L595.87 351.743V347.753L599.86 348.653V352.633Z" fill="black"/>
<path d="M660.24 268.133L670.95 252.323L654.06 248.503L643.35 264.323L660.24 268.133Z" fill="#C2C8CF" stroke="black" stroke-linecap="round" stroke-linejoin="round"/>
<path d="M468.5 457.173C464.92 456.363 461.99 458.703 461.99 462.373V471.083C461.99 474.753 464.92 478.413 468.5 479.223L560.79 500.043C564.37 500.853 567.3 498.513 567.3 494.843V486.133C567.3 482.463 564.37 478.803 560.79 477.993L468.5 457.173Z" fill="black"/>
<path d="M513.46 476.123C513.46 474.493 512.16 472.863 510.57 472.503L485.16 466.773C484.11 466.533 483.2 466.913 482.69 467.663H482.68L474.76 479.353H474.77C474.51 479.743 474.35 480.223 474.35 480.783V485.723C474.35 487.353 475.65 488.983 477.24 489.343L502.65 495.073C503.7 495.313 504.61 494.933 505.12 494.183H505.13L513.05 482.493H513.04C513.3 482.103 513.46 481.623 513.46 481.063V476.123Z" fill="#2D3033"/>
<path d="M513.46 476.123C513.46 475.383 513.18 474.653 512.74 474.033L504.78 485.663L499.73 494.413L502.65 495.073C503.7 495.313 504.61 494.933 505.12 494.183H505.13L513.05 482.493H513.04C513.3 482.103 513.46 481.623 513.46 481.063V476.123Z" fill="black"/>
<path d="M505.13 494.193L513.05 482.503H513.04C513.3 482.113 513.46 481.633 513.46 481.073V476.133C513.46 474.503 512.16 472.873 510.57 472.513L485.16 466.783C484.11 466.543 483.2 466.923 482.69 467.673H482.68L474.76 479.363" stroke="black" stroke-linecap="round" stroke-linejoin="round"/>
<path d="M477.24 478.473C475.65 478.113 474.35 479.153 474.35 480.783V485.723C474.35 487.353 475.65 488.983 477.24 489.343L502.65 495.073C504.24 495.433 505.54 494.393 505.54 492.763V487.823C505.54 486.193 504.24 484.563 502.65 484.203L477.24 478.473Z" fill="#2D3033" stroke="black" stroke-linecap="round" stroke-linejoin="round"/>
<path d="M548.22 483.963C548.22 482.333 546.92 480.703 545.33 480.343L519.92 474.613C518.87 474.373 517.96 474.753 517.45 475.503H517.44L509.52 487.193H509.53C509.27 487.583 509.11 488.063 509.11 488.623V493.563C509.11 495.193 510.41 496.823 512 497.183L537.41 502.913C538.46 503.153 539.37 502.773 539.88 502.023H539.89L547.81 490.333H547.8C548.06 489.943 548.22 489.463 548.22 488.903V483.963Z" fill="#2D3033"/>
<path d="M548.22 483.963C548.22 483.223 547.94 482.493 547.5 481.873L539.54 493.503L534.49 502.253L537.41 502.913C538.46 503.153 539.37 502.773 539.88 502.023H539.89L547.81 490.333H547.8C548.06 489.943 548.22 489.463 548.22 488.903V483.963Z" fill="black"/>
<path d="M539.88 502.032L547.8 490.342H547.79C548.05 489.952 548.21 489.472 548.21 488.912V483.972C548.21 482.342 546.91 480.712 545.32 480.352L519.91 474.622C518.86 474.382 517.95 474.762 517.44 475.512H517.43L509.51 487.202" stroke="black" stroke-linecap="round" stroke-linejoin="round"/>
<path d="M512 486.312C510.41 485.952 509.11 486.992 509.11 488.622V493.562C509.11 495.192 510.41 496.822 512 497.182L537.41 502.912C539 503.272 540.3 502.232 540.3 500.602V495.662C540.3 494.032 539 492.402 537.41 492.042L512 486.312Z" fill="#2D3033" stroke="black" stroke-linecap="round" stroke-linejoin="round"/>
<path d="M294.26 556.543L299.62 553.453C302.88 551.573 302.88 548.493 299.62 546.613L289.75 540.913L294.26 556.543Z" fill="black" stroke="black" stroke-linecap="round" stroke-linejoin="round"/>
<path d="M281.49 541.034L165.01 473.784C161.13 471.544 154.79 471.544 150.92 473.784L114.3 494.924H98.6196V506.364C98.6196 507.834 99.5896 509.314 101.53 510.434L230.78 585.054C234.66 587.294 241 587.294 244.87 585.054L294.27 556.534C296.21 555.414 297.18 553.944 297.18 552.464V541.024H281.5L281.49 541.034Z" fill="white"/>
<path d="M239.11 575.293H237.63V586.593H239.11V575.293Z" fill="#E9EAEB"/>
<path d="M98.6096 494.923V506.363C98.6096 507.833 99.5796 509.313 101.52 510.433L230.77 585.053C232.16 585.853 233.87 586.363 235.67 586.593V571.753L106.33 494.913H98.6196L98.6096 494.923Z" fill="#E9EAEB"/>
<path d="M281.49 541.034L165.01 473.784C161.13 471.544 154.79 471.544 150.92 473.784L114.3 494.924H98.6196V506.364C98.6196 507.834 99.5896 509.314 101.53 510.434L230.78 585.054C234.66 587.294 241 587.294 244.87 585.054L294.27 556.534C296.21 555.414 297.18 553.944 297.18 552.464V541.024H281.5L281.49 541.034Z" stroke="black" stroke-linecap="round" stroke-linejoin="round"/>
<path d="M230.77 573.613C234.65 575.853 240.99 575.853 244.86 573.613L294.26 545.093C298.14 542.853 298.14 539.193 294.26 536.953L165.01 462.333C161.13 460.093 154.79 460.093 150.92 462.333L101.52 490.853C97.6396 493.093 97.6396 496.753 101.52 498.993L230.77 573.613Z" fill="white" stroke="black" stroke-linecap="round" stroke-linejoin="round"/>
<path d="M146.26 521.984C148.84 523.474 153.06 523.474 155.64 521.984L197.87 497.604C200.45 496.114 200.45 493.684 197.87 492.194L155.64 467.814C153.06 466.324 148.84 466.324 146.26 467.814L104.03 492.194C101.45 493.684 101.45 496.114 104.03 497.604L146.26 521.984Z" fill="#777E87"/>
<path d="M232.94 572.034C235.52 573.524 239.74 573.524 242.32 572.034L284.55 547.654C287.13 546.164 287.13 543.734 284.55 542.244L242.32 517.864C239.74 516.374 235.52 516.374 232.94 517.864L190.71 542.244C188.13 543.734 188.13 546.164 190.71 547.654L232.94 572.034Z" fill="#777E87"/>
<path d="M169.26 489.913C169.95 489.513 170.3 488.993 170.3 488.463V485.133H166.01L163.87 483.893C162.49 483.093 160.23 483.093 158.85 483.893L150.95 488.453L143.05 483.893C141.67 483.093 139.41 483.093 138.03 483.893L135.89 485.133H131.6V488.463C131.6 488.993 131.95 489.513 132.64 489.913L140.54 494.473L135.89 497.163H131.6V500.493C131.6 501.023 131.95 501.543 132.64 501.943L138.03 505.053C139.41 505.853 141.67 505.853 143.05 505.053L150.95 500.493L158.85 505.053C160.23 505.853 162.49 505.853 163.87 505.053L169.26 501.943C169.95 501.543 170.3 501.023 170.3 500.493V497.163H166.01L161.36 494.473L169.26 489.913Z" fill="#777E87" stroke="black" stroke-linecap="round" stroke-linejoin="round"/>
<path d="M149.57 501.283L150.94 500.493L158.84 505.053C159.51 505.443 160.39 505.633 161.28 505.643V500.763L150.94 497.163L149.57 501.283Z" fill="black"/>
<path d="M140.28 500.223L134.25 497.163H131.6V500.493C131.6 501.023 131.95 501.543 132.64 501.943L138.03 505.053C138.66 505.413 139.46 505.603 140.29 505.633V500.213L140.28 500.223Z" fill="black"/>
<path d="M169.26 498.613C170.64 497.813 170.64 496.513 169.26 495.713L161.36 491.153L169.26 486.593C170.64 485.793 170.64 484.493 169.26 483.693L163.87 480.583C162.49 479.783 160.23 479.783 158.85 480.583L150.95 485.143L143.05 480.583C141.67 479.783 139.41 479.783 138.03 480.583L132.64 483.693C131.26 484.493 131.26 485.793 132.64 486.593L140.54 491.153L132.64 495.713C131.26 496.513 131.26 497.813 132.64 498.613L138.03 501.723C139.41 502.523 141.67 502.523 143.05 501.723L150.95 497.163L158.85 501.723C160.23 502.523 162.49 502.523 163.87 501.723L169.26 498.613Z" fill="black" stroke="black" stroke-linecap="round" stroke-linejoin="round"/>
<path d="M150.86 492.733C152.367 492.733 153.59 492.026 153.59 491.153C153.59 490.281 152.367 489.573 150.86 489.573C149.352 489.573 148.13 490.281 148.13 491.153C148.13 492.026 149.352 492.733 150.86 492.733Z" fill="#2FFD76"/>
<path d="M158.14 484.683L161.68 486.723L162.64 484.123L158.14 484.683Z" fill="white"/>
<path d="M143.24 497.483L139.71 495.443L138.74 498.033L143.24 497.483Z" fill="white"/>
<path d="M158.14 497.483L161.68 495.443L162.64 498.033L158.14 497.483Z" fill="white"/>
<path d="M143.24 484.683L139.71 486.723L138.74 484.123L143.24 484.683Z" fill="white"/>
<path d="M228.54 536.813H248.19C255.48 536.813 261.39 540.224 261.39 544.434C261.39 548.644 255.48 552.054 248.19 552.054H228.54C221.25 552.054 215.34 548.644 215.34 544.434C215.34 540.224 221.25 536.813 228.54 536.813Z" fill="white"/>
<path d="M256.2 542.603C256.2 540.053 252.62 537.983 248.2 537.983C243.78 537.983 240.2 540.053 240.2 542.603V545.603C240.2 548.153 243.78 550.223 248.2 550.223C252.62 550.223 256.2 548.153 256.2 545.603V542.603Z" fill="#777E87"/>
<path d="M240.19 542.604V545.604C240.19 548.154 243.77 550.224 248.19 550.224V542.604H240.19Z" fill="black"/>
<path d="M248.19 547.223C252.608 547.223 256.19 545.155 256.19 542.603C256.19 540.052 252.608 537.983 248.19 537.983C243.771 537.983 240.19 540.052 240.19 542.603C240.19 545.155 243.771 547.223 248.19 547.223Z" fill="#2FFD76"/>
<path d="M256.2 542.603C256.2 540.053 252.62 537.983 248.2 537.983C243.78 537.983 240.2 540.053 240.2 542.603V545.603C240.2 548.153 243.78 550.223 248.2 550.223C252.62 550.223 256.2 548.153 256.2 545.603V542.603Z" stroke="black" stroke-linecap="round" stroke-linejoin="round"/>
<path d="M236.54 542.603C236.54 540.053 232.96 537.983 228.54 537.983C224.12 537.983 220.54 540.053 220.54 542.603V545.603C220.54 548.153 224.12 550.223 228.54 550.223C232.96 550.223 236.54 548.153 236.54 545.603V542.603Z" fill="#777E87"/>
<path d="M220.53 542.604V545.604C220.53 548.154 224.11 550.224 228.53 550.224V542.604H220.53Z" fill="black"/>
<path d="M228.54 547.223C232.958 547.223 236.54 545.155 236.54 542.603C236.54 540.052 232.958 537.983 228.54 537.983C224.121 537.983 220.54 540.052 220.54 542.603C220.54 545.155 224.121 547.223 228.54 547.223Z" fill="black"/>
<path d="M236.54 542.603C236.54 540.053 232.96 537.983 228.54 537.983C224.12 537.983 220.54 540.053 220.54 542.603V545.603C220.54 548.153 224.12 550.223 228.54 550.223C232.96 550.223 236.54 548.153 236.54 545.603V542.603Z" stroke="black" stroke-linecap="round" stroke-linejoin="round"/>
<path d="M194.73 516.743L184.18 510.653C182.82 509.863 180.59 509.863 179.23 510.653C178.55 511.043 178.21 511.563 178.21 512.083V514.813C178.21 515.333 178.55 515.853 179.23 516.243L189.68 522.273V519.543L194.73 516.743Z" fill="white" stroke="black" stroke-linecap="round" stroke-linejoin="round"/>
<path d="M205.84 528.743C206.52 528.353 206.86 527.833 206.86 527.313V524.583C206.86 524.063 206.52 523.543 205.84 523.153L194.74 516.743L189.69 519.543V522.273L200.89 528.743C202.25 529.533 204.48 529.533 205.84 528.743Z" fill="#2FFD76" stroke="black" stroke-linecap="round" stroke-linejoin="round"/>
<path d="M200.88 526.013C202.24 526.803 204.47 526.803 205.83 526.013C207.19 525.223 207.19 523.943 205.83 523.153L184.18 510.653C182.82 509.863 180.59 509.863 179.23 510.653C177.87 511.443 177.87 512.723 179.23 513.513L200.88 526.013Z" stroke="black" stroke-linecap="round" stroke-linejoin="round"/>
<path d="M456.18 612.143C432.38 612.143 412.17 604.183 402.54 594.123C396.89 588.223 394.81 581.523 396.69 575.263C398.94 567.753 407.88 557.373 437.71 550.563L474.51 542.163C480.56 540.783 486.36 539.893 491.85 539.423L522.73 494.503C523.51 493.363 525.07 493.073 526.21 493.863C527.35 494.643 527.64 496.203 526.85 497.343L498.16 539.083C525.38 538.363 543.94 548.573 547.02 561.463C549.12 570.253 543.65 581.563 522 586.963L513.18 589.163C494.45 593.833 485.87 588.133 481.97 582.523C476.13 574.113 477.43 560.423 485.12 549.223L488.14 544.833C484.15 545.323 479.98 546.053 475.62 547.053L438.82 555.453C409.89 562.053 403.01 571.613 401.48 576.713C399.77 582.433 403.08 587.463 406.16 590.673C421.8 607.003 456.82 610.253 481.63 603.963L615.89 569.943C628.51 566.753 643.55 573.593 649.43 585.203C650.05 586.433 649.56 587.943 648.33 588.563C647.1 589.183 645.59 588.693 644.97 587.463C640.17 577.983 627.41 572.183 617.12 574.793L482.86 608.813C473.72 611.123 464.73 612.153 456.19 612.153L456.18 612.143ZM494.62 544.213L489.23 552.053C482.79 561.423 481.46 573.043 486.07 579.673C490.37 585.863 499.32 587.473 511.96 584.313L520.78 582.113C535.93 578.333 544.12 570.863 542.15 562.623C539.74 552.523 522.45 542.433 494.62 544.213Z" fill="white"/>
<path d="M769.01 614.793L744.83 609.193L738.48 599.813C736.48 596.863 730.71 595.393 725.62 596.543L636.02 616.763L551.48 608.573V620.013C551.48 620.713 551.69 621.423 552.16 622.113L582 666.183C584 669.133 589.77 670.603 594.86 669.453L762.71 631.583C766.61 630.703 769 628.533 768.99 626.233V614.793H769.01Z" fill="white"/>
<path d="M589.48 658.293V669.783" stroke="#E9EAEB" stroke-linecap="round" stroke-linejoin="round"/>
<path d="M551.48 608.562V620.003C551.48 620.703 551.69 621.413 552.16 622.103L582 666.173C582.91 667.523 584.61 668.553 586.67 669.173V655.033L554.93 609.363L551.47 608.562H551.48Z" fill="#E9EAEB"/>
<path d="M769.01 614.793L744.83 609.193L738.48 599.813C736.48 596.863 730.71 595.393 725.62 596.543L636.02 616.763L551.48 608.573V620.013C551.48 620.713 551.69 621.423 552.16 622.113L582 666.183C584 669.133 589.77 670.603 594.86 669.453L762.71 631.583C766.61 630.703 769 628.533 768.99 626.233V614.793H769.01Z" stroke="black" stroke-linecap="round" stroke-linejoin="round"/>
<path d="M768.32 612.692C770.32 615.642 767.8 618.982 762.71 620.132L594.86 658.002C589.77 659.152 584 657.683 582 654.733L552.16 610.663C550.16 607.713 552.67 604.373 557.77 603.223L725.62 565.353C730.71 564.203 736.48 565.673 738.48 568.623L768.32 612.692Z" fill="white" stroke="black" stroke-linecap="round" stroke-linejoin="round"/>
<path d="M764.2 613.103C765.43 614.923 763.88 616.973 760.75 617.673L707.08 629.783C703.95 630.493 700.4 629.583 699.17 627.773L674.26 590.993C673.03 589.173 674.58 587.123 677.71 586.423L731.38 574.313C734.51 573.603 738.06 574.513 739.29 576.323L764.2 613.103Z" fill="#777E87"/>
<path d="M650.25 638.813C651.48 640.633 649.93 642.683 646.8 643.383L593.13 655.493C590 656.203 586.45 655.293 585.22 653.483L560.31 616.703C559.08 614.883 560.63 612.833 563.76 612.133L617.43 600.023C620.56 599.313 624.11 600.223 625.34 602.033L650.25 638.813Z" fill="#777E87"/>
<path d="M627.26 624.062H625.44L622.87 620.262C622.13 619.162 619.98 618.623 618.09 619.043L608.77 621.143L604.65 615.062C603.91 613.962 601.76 613.423 599.87 613.843L597.78 614.312H590.57V617.393C590.57 617.653 590.64 617.913 590.82 618.173L594.94 624.252L589.47 625.483V625.252H583.28V628.333C583.28 628.593 583.35 628.853 583.53 629.113L587.66 635.213C588.4 636.313 590.55 636.853 592.44 636.433L601.76 634.333L605.88 640.413C606.62 641.513 608.77 642.052 610.66 641.632L617.62 640.062C619.07 639.732 619.95 638.932 619.95 638.072V634.993H618.13L615.57 631.213L624.89 629.113C626.34 628.783 627.22 627.983 627.22 627.123V624.043L627.26 624.062Z" fill="#777E87" stroke="black" stroke-linecap="round" stroke-linejoin="round"/>
<path d="M607.75 627.752L601.77 631.272L599.92 634.772L601.77 634.352L605.89 640.432C606.25 640.962 606.93 641.352 607.75 641.582V627.752Z" fill="black"/>
<path d="M583.29 625.273V628.353C583.29 628.613 583.36 628.873 583.54 629.133L587.67 635.233C588.09 635.853 588.96 636.283 589.97 636.483V632.233L584.83 625.263H583.28L583.29 625.273Z" fill="black"/>
<path d="M592.35 614.322H590.58V617.402C590.58 617.662 590.65 617.922 590.83 618.182L594.95 624.262V616.702L592.35 614.322Z" fill="black"/>
<path d="M627.01 623.282L622.88 617.182C622.14 616.082 619.99 615.542 618.1 615.962L608.78 618.062L604.66 611.982C603.92 610.882 601.77 610.342 599.88 610.762L592.92 612.332C591.03 612.762 590.09 614.002 590.83 615.102L594.95 621.182L585.63 623.282C583.74 623.712 582.8 624.952 583.54 626.052L587.67 632.152C588.41 633.252 590.56 633.792 592.45 633.372L601.77 631.272L605.89 637.352C606.63 638.452 608.78 638.992 610.67 638.572L617.63 637.002C619.52 636.572 620.46 635.332 619.71 634.232L615.59 628.152L624.91 626.052C626.8 625.622 627.74 624.382 626.99 623.282H627.01Z" fill="black" stroke="black" stroke-linecap="round" stroke-linejoin="round"/>
<path d="M605.28 626.253C606.787 626.253 608.01 625.545 608.01 624.673C608.01 623.8 606.787 623.093 605.28 623.093C603.772 623.093 602.55 623.8 602.55 624.673C602.55 625.545 603.772 626.253 605.28 626.253Z" fill="#2FFD76"/>
<path d="M608.01 632.892L612.73 631.832L612.01 634.672L608.01 632.892Z" fill="white"/>
<path d="M602.53 616.483L597.82 617.543L598.53 614.713L602.53 616.483Z" fill="white"/>
<path d="M592.73 625.393L595.19 629.043L590.21 627.973L592.73 625.393Z" fill="white"/>
<path d="M617.87 623.802L615.4 620.152L620.38 621.222L617.87 623.802Z" fill="white"/>
<path d="M737.22 595.382C737.22 591.502 731.78 588.362 725.06 588.362C719.75 588.362 715.24 590.332 713.59 593.072H713.58L706.45 604.902H706.46C706.02 605.632 705.78 606.402 705.78 607.212C705.78 611.092 711.22 614.232 717.94 614.232C723.25 614.232 727.76 612.262 729.41 609.522H729.42L736.55 597.692H736.54C736.98 596.962 737.22 596.192 737.22 595.382Z" fill="white"/>
<path d="M733.06 592.383C733.06 589.833 729.48 587.763 725.06 587.763C720.64 587.763 717.06 589.833 717.06 592.383V595.383C717.06 597.933 720.64 600.003 725.06 600.003C729.48 600.003 733.06 597.933 733.06 595.383V592.383Z" fill="#777E87"/>
<path d="M717.06 592.383V595.383C717.06 597.933 720.64 600.003 725.06 600.003V592.383H717.06Z" fill="black"/>
<path d="M725.06 597.003C729.478 597.003 733.06 594.934 733.06 592.383C733.06 589.831 729.478 587.763 725.06 587.763C720.641 587.763 717.06 589.831 717.06 592.383C717.06 594.934 720.641 597.003 725.06 597.003Z" fill="#2FFD76"/>
<path d="M733.06 592.383C733.06 589.833 729.48 587.763 725.06 587.763C720.64 587.763 717.06 589.833 717.06 592.383V595.383C717.06 597.933 720.64 600.003 725.06 600.003C729.48 600.003 733.06 597.933 733.06 595.383V592.383Z" stroke="black" stroke-linecap="round" stroke-linejoin="round"/>
<path d="M725.93 604.623C725.93 602.073 722.35 600.003 717.93 600.003C713.51 600.003 709.93 602.073 709.93 604.623V607.623C709.93 610.173 713.51 612.243 717.93 612.243C722.35 612.243 725.93 610.173 725.93 607.623V604.623Z" fill="#777E87"/>
<path d="M709.92 604.623V607.623C709.92 610.173 713.5 612.243 717.92 612.243V604.623H709.92Z" fill="black"/>
<path d="M717.93 609.243C722.348 609.243 725.93 607.175 725.93 604.623C725.93 602.071 722.348 600.003 717.93 600.003C713.511 600.003 709.93 602.071 709.93 604.623C709.93 607.175 713.511 609.243 717.93 609.243Z" fill="black"/>
<path d="M725.93 604.623C725.93 602.073 722.35 600.003 717.93 600.003C713.51 600.003 709.93 602.073 709.93 604.623V607.623C709.93 610.173 713.51 612.243 717.93 612.243C722.35 612.243 725.93 610.173 725.93 607.623V604.623Z" stroke="black" stroke-linecap="round" stroke-linejoin="round"/>
<path d="M679.89 609.443C679.89 609.173 679.81 608.903 679.63 608.633C678.86 607.493 676.64 606.933 674.67 607.373L660.1 610.663L662.9 614.793V616.983L677.46 613.693C678.96 613.353 679.88 612.523 679.88 611.633V609.443H679.89Z" fill="#2FFD76" stroke="black" stroke-linecap="round" stroke-linejoin="round"/>
<path d="M662.91 614.782L660.11 610.652L644.62 614.152C643.12 614.492 642.2 615.322 642.2 616.212V618.402C642.2 618.672 642.28 618.942 642.46 619.212C643.23 620.352 645.45 620.912 647.42 620.472L662.91 616.972V614.782Z" fill="white" stroke="black" stroke-linecap="round" stroke-linejoin="round"/>
<path d="M679.63 608.633C680.4 609.773 679.43 611.053 677.47 611.503L647.42 618.283C645.46 618.723 643.24 618.163 642.46 617.023C641.69 615.883 642.66 614.603 644.62 614.153L674.67 607.373C676.63 606.933 678.85 607.493 679.63 608.633Z" stroke="black" stroke-linecap="round" stroke-linejoin="round"/>
<path d="M421.42 648.773C421.35 648.773 421.28 648.773 421.21 648.763C415.86 648.023 410.85 646.723 406.33 644.913C405.56 644.603 405.19 643.733 405.49 642.963C405.8 642.193 406.67 641.813 407.44 642.123C411.74 643.843 416.51 645.073 421.62 645.783C422.44 645.893 423.01 646.653 422.9 647.473C422.8 648.223 422.15 648.763 421.42 648.763V648.773Z" fill="#2FFD76"/>
<path d="M454.28 595.923C453.69 595.923 453.11 595.713 452.63 595.303C437.69 582.173 439 558.463 456.07 533.403L488.13 486.343C488.91 485.203 490.46 484.903 491.6 485.683C492.74 486.463 493.04 488.013 492.26 489.153L460.2 536.213C444.67 559.013 443.03 580.213 455.92 591.543C456.96 592.453 457.06 594.033 456.15 595.073C455.66 595.633 454.96 595.923 454.27 595.923H454.28Z" fill="white"/>
<path d="M457.9 598.103C457.55 598.103 457.2 597.983 456.91 597.733L453.29 594.553C438.75 581.783 440.14 558.573 456.9 533.973L488.96 486.913C489.43 486.233 490.36 486.053 491.04 486.523C491.72 486.993 491.9 487.923 491.44 488.603L459.38 535.663C443.54 558.913 441.96 580.613 455.27 592.303L458.89 595.483C459.51 596.033 459.57 596.973 459.03 597.603C458.73 597.943 458.32 598.113 457.9 598.113V598.103Z" fill="#2FFD76"/>
<path d="M218.82 302.803L225.95 300.703V293.293L218.82 295.403V302.803Z" fill="#2FFD76"/>
<path d="M218.82 306.954L225.95 304.854V302.554L218.82 304.664V306.954Z" fill="#2FFD76"/>
<path d="M227.42 304.414L234.54 302.314V300.014L227.42 302.124V304.414Z" fill="#2FFD76"/>
<path d="M236.01 279.203L243.14 277.093V269.693L236.01 271.793V279.203Z" fill="#2FFD76"/>
<path d="M236.01 288.463L243.14 286.353V278.953L236.01 281.053V288.463Z" fill="#2FFD76"/>
<path d="M236.01 297.723L243.14 295.613V288.213L236.01 290.323V297.723Z" fill="#2FFD76"/>
<path d="M236.01 301.874L243.14 299.764V297.474L236.01 299.584V301.874Z" fill="#2FFD76"/>
<path d="M244.61 267.404L251.73 265.294V257.894L244.61 259.994V267.404Z" fill="#2FFD76"/>
<path d="M244.61 276.663L251.73 274.553V267.153L244.61 269.253V276.663Z" fill="#2FFD76"/>
<path d="M244.61 285.923L251.73 283.813V276.413L244.61 278.513V285.923Z" fill="#2FFD76"/>
<path d="M244.61 295.183L251.73 293.073V285.673L244.61 287.773V295.183Z" fill="#2FFD76"/>
<path d="M244.61 299.334L251.73 297.224V294.934L244.61 297.044V299.334Z" fill="#2FFD76"/>
<path d="M253.2 274.123L260.33 272.013V264.613L253.2 266.713V274.123Z" fill="#2FFD76"/>
<path d="M253.2 283.383L260.33 281.273V273.873L253.2 275.973V283.383Z" fill="#2FFD76"/>
<path d="M253.2 292.644L260.33 290.534V283.134L253.2 285.234V292.644Z" fill="#2FFD76"/>
<path d="M253.2 296.794L260.33 294.684V292.394L253.2 294.494V296.794Z" fill="#2FFD76"/>
<path d="M261.8 280.843L268.92 278.733V271.333L261.8 273.433V280.843Z" fill="#2FFD76"/>
<path d="M261.8 290.104L268.92 287.994V280.594L261.8 282.694V290.104Z" fill="#2FFD76"/>
<path d="M261.8 294.254L268.92 292.143V289.854L261.8 291.953V294.254Z" fill="#2FFD76"/>
<path d="M270.39 259.774L277.51 257.674V250.264L270.39 252.374V259.774Z" fill="#2FFD76"/>
<path d="M270.39 269.043L277.51 266.933V259.533L270.39 261.633V269.043Z" fill="#2FFD76"/>
<path d="M270.39 278.303L277.51 276.193V268.793L270.39 270.893V278.303Z" fill="#2FFD76"/>
<path d="M270.39 287.564L277.51 285.454V278.054L270.39 280.154V287.564Z" fill="#2FFD76"/>
<path d="M270.39 291.713L277.51 289.603V287.313L270.39 289.413V291.713Z" fill="#2FFD76"/>
<path d="M278.99 257.234L286.11 255.134V247.724L278.99 249.834V257.234Z" fill="#2FFD76"/>
<path d="M278.99 266.493L286.11 264.393V256.983L278.99 259.093V266.493Z" fill="#2FFD76"/>
<path d="M278.99 247.973L286.11 245.873V238.463L278.99 240.573V247.973Z" fill="#2FFD76"/>
<path d="M278.99 238.713L286.11 236.613V229.203L278.99 231.313V238.713Z" fill="#2FFD76"/>
<path d="M278.99 275.753L286.11 273.653V266.253L278.99 268.353V275.753Z" fill="#2FFD76"/>
<path d="M278.99 285.024L286.11 282.914V275.514L278.99 277.614V285.024Z" fill="#2FFD76"/>
<path d="M278.99 289.173L286.11 287.063V284.773L278.99 286.873V289.173Z" fill="#2FFD76"/>
<path d="M287.58 254.694L294.7 252.594V245.184L287.58 247.294V254.694Z" fill="#2FFD76"/>
<path d="M287.58 263.953L294.7 261.853V254.443L287.58 256.553V263.953Z" fill="#2FFD76"/>
<path d="M287.58 245.433L294.7 243.333V235.923L287.58 238.033V245.433Z" fill="#2FFD76"/>
<path d="M287.58 273.213L294.7 271.113V263.703L287.58 265.813V273.213Z" fill="#2FFD76"/>
<path d="M287.58 282.473L294.7 280.373V272.963L287.58 275.073V282.473Z" fill="#2FFD76"/>
<path d="M287.58 286.633L294.7 284.523V282.233L287.58 284.333V286.633Z" fill="#2FFD76"/>
<path d="M296.18 270.673L303.3 268.573V261.163L296.18 263.273V270.673Z" fill="#2FFD76"/>
<path d="M296.18 279.933L303.3 277.833V270.423L296.18 272.533V279.933Z" fill="#2FFD76"/>
<path d="M296.18 284.084L303.3 281.984V279.684L296.18 281.794V284.084Z" fill="#2FFD76"/>
<path d="M304.77 249.613L311.89 247.514V240.104L304.77 242.214V249.613Z" fill="#2FFD76"/>
<path d="M304.77 258.873L311.89 256.773V249.363L304.77 251.473V258.873Z" fill="#2FFD76"/>
<path d="M304.77 268.133L311.89 266.033V258.623L304.77 260.733V268.133Z" fill="#2FFD76"/>
<path d="M304.77 277.394L311.89 275.294V267.884L304.77 269.994V277.394Z" fill="#2FFD76"/>
<path d="M304.77 281.544L311.89 279.444V277.144L304.77 279.254V281.544Z" fill="#2FFD76"/>
<path d="M313.37 247.073L320.49 244.963V237.563L313.37 239.673V247.073Z" fill="#2FFD76"/>
<path d="M313.37 256.333L320.49 254.233V246.823L313.37 248.933V256.333Z" fill="#2FFD76"/>
<path d="M313.37 237.814L320.49 235.704V228.304L313.37 230.414V237.814Z" fill="#2FFD76"/>
<path d="M313.37 265.593L320.49 263.493V256.083L313.37 258.193V265.593Z" fill="#2FFD76"/>
<path d="M313.37 274.854L320.49 272.754V265.344L313.37 267.454V274.854Z" fill="#2FFD76"/>
<path d="M313.37 279.004L320.49 276.904V274.604L313.37 276.714V279.004Z" fill="#2FFD76"/>
<path d="M321.96 263.053L329.08 260.953V253.543L321.96 255.653V263.053Z" fill="#2FFD76"/>
<path d="M321.96 272.314L329.08 270.214V262.804L321.96 264.914V272.314Z" fill="#2FFD76"/>
<path d="M321.96 276.463L329.08 274.363V272.063L321.96 274.173V276.463Z" fill="#2FFD76"/>
<path d="M330.56 251.253L337.68 249.143V241.743L330.56 243.853V251.253Z" fill="#2FFD76"/>
<path d="M339.15 209.463L346.27 207.353V199.953L339.15 202.053V209.463Z" fill="#2FFD76"/>
<path d="M339.15 200.203L346.27 198.093V190.693L339.15 192.793V200.203Z" fill="#2FFD76"/>
<path d="M339.15 190.944L346.27 188.834V181.434L339.15 183.534V190.944Z" fill="#2FFD76"/>
<path d="M330.56 260.513L337.68 258.403V251.003L330.56 253.113V260.513Z" fill="#2FFD76"/>
<path d="M330.56 269.774L337.68 267.664V260.264L330.56 262.374V269.774Z" fill="#2FFD76"/>
<path d="M330.56 273.923L337.68 271.823V269.523L330.56 271.633V273.923Z" fill="#2FFD76"/>
<path d="M339.15 271.383L346.27 269.273V266.983L339.15 269.093V271.383Z" fill="#2FFD76"/>
<path d="M347.74 268.843L354.87 266.733V264.443L347.74 266.553V268.843Z" fill="#2FFD76"/>
<path d="M356.34 266.303L363.46 264.193V261.903L356.34 264.003V266.303Z" fill="#2FFD76"/>
<path d="M364.93 263.763L372.06 261.653V259.363L364.93 261.463V263.763Z" fill="#2FFD76"/>
<path d="M225.13 181.003V183.643L222.64 184.383V181.793C221.43 181.943 220.48 181.653 219.79 180.903C219.1 180.163 218.72 179.023 218.65 177.483L221.43 176.663C221.53 177.573 221.76 178.163 222.14 178.433C222.52 178.703 223.09 178.733 223.84 178.503C225.23 178.093 225.92 177.153 225.92 175.693C225.92 175.033 225.78 174.573 225.51 174.313C225.24 174.053 224.79 173.943 224.18 173.993L223 174.093C221.65 174.213 220.64 173.973 219.99 173.363C219.34 172.763 219.01 171.753 219.01 170.353C219.01 168.953 219.33 167.733 219.98 166.643C220.62 165.553 221.51 164.713 222.64 164.113V161.893L225.13 161.153V163.403C226.18 163.353 227.01 163.673 227.62 164.373C228.23 165.063 228.58 166.093 228.66 167.453L225.81 168.293C225.75 167.503 225.55 166.973 225.23 166.713C224.91 166.443 224.42 166.403 223.78 166.593C223.18 166.773 222.73 167.083 222.4 167.553C222.08 168.013 221.92 168.583 221.92 169.253C221.92 169.853 222.07 170.273 222.38 170.523C222.69 170.773 223.19 170.863 223.88 170.813L225.26 170.713C226.47 170.623 227.37 170.883 227.98 171.513C228.58 172.143 228.89 173.153 228.89 174.563C228.89 176.063 228.56 177.353 227.9 178.453C227.24 179.543 226.32 180.403 225.15 181.013L225.13 181.003Z" fill="#2FFD76"/>
<path d="M239.19 166.523C239.8 165.383 240.11 164.383 240.11 163.523V163.133C240.11 162.463 239.95 161.973 239.64 161.673C239.33 161.373 238.9 161.303 238.37 161.463C237.84 161.623 237.42 161.953 237.11 162.453C236.8 162.953 236.65 163.573 236.65 164.303V164.753L233.58 165.663V164.993C233.58 163.983 233.78 163.023 234.17 162.123C234.56 161.223 235.13 160.433 235.87 159.763C236.61 159.093 237.48 158.613 238.48 158.313C239.45 158.023 240.3 158.013 241.03 158.263C241.76 158.513 242.33 158.973 242.72 159.643C243.12 160.313 243.31 161.123 243.31 162.083V162.563C243.31 163.403 243.18 164.223 242.92 165.013C242.66 165.803 242.28 166.643 241.79 167.543L237.63 175.043L243.31 173.363V176.593L233.65 179.453V176.533L239.18 166.553L239.19 166.523Z" fill="#2FFD76"/>
<path d="M248.04 170.714V170.294L250.94 169.434V169.604C250.94 170.204 251.1 170.624 251.42 170.864C251.74 171.104 252.19 171.144 252.75 170.974C253.36 170.794 253.82 170.434 254.12 169.884C254.42 169.334 254.57 168.624 254.57 167.744V166.284C254.57 165.364 254.42 164.734 254.12 164.374C253.82 164.024 253.36 163.934 252.73 164.124C251.92 164.364 251.35 164.974 251.01 165.954L248.28 166.764V155.714L257.29 153.054V156.204L251.01 158.064V162.444C251.65 161.654 252.44 161.124 253.38 160.844C254.78 160.434 255.84 160.594 256.56 161.354C257.28 162.104 257.64 163.384 257.64 165.184V167.014C257.64 168.794 257.21 170.304 256.35 171.554C255.49 172.804 254.29 173.654 252.76 174.104C251.31 174.534 250.16 174.454 249.32 173.854C248.47 173.264 248.05 172.214 248.05 170.714H248.04Z" fill="#2FFD76"/>
<path d="M262.47 164.543V157.683C262.47 155.563 262.89 153.833 263.74 152.483C264.59 151.133 265.82 150.223 267.45 149.743C269.14 149.243 270.39 149.413 271.21 150.263C272.03 151.113 272.43 152.603 272.43 154.733V161.593C272.43 163.803 272.02 165.593 271.21 166.953C270.4 168.313 269.14 169.253 267.45 169.753C265.76 170.253 264.51 170.063 263.69 169.193C262.88 168.313 262.47 166.763 262.47 164.533V164.543ZM269.26 162.223V156.213C269.26 154.823 269.14 153.893 268.89 153.403C268.64 152.913 268.16 152.773 267.45 152.983C266.74 153.193 266.27 153.613 266.02 154.253C265.78 154.883 265.66 155.893 265.66 157.283V163.293C265.66 164.683 265.78 165.623 266.03 166.123C266.28 166.623 266.75 166.763 267.44 166.563C268.15 166.353 268.63 165.923 268.88 165.283C269.13 164.643 269.25 163.623 269.25 162.233L269.26 162.223Z" fill="#2FFD76"/>
<path d="M277.26 160.163V153.303C277.26 151.183 277.68 149.453 278.53 148.103C279.38 146.753 280.61 145.843 282.24 145.363C283.93 144.863 285.18 145.033 286 145.883C286.82 146.733 287.22 148.223 287.22 150.353V157.213C287.22 159.423 286.81 161.213 286 162.573C285.19 163.933 283.93 164.873 282.24 165.373C280.55 165.873 279.3 165.683 278.48 164.813C277.67 163.933 277.26 162.383 277.26 160.153V160.163ZM284.05 157.843V151.833C284.05 150.443 283.93 149.513 283.68 149.023C283.43 148.533 282.95 148.393 282.24 148.603C281.53 148.813 281.06 149.233 280.81 149.873C280.57 150.503 280.45 151.513 280.45 152.903V158.913C280.45 160.303 280.57 161.243 280.82 161.743C281.07 162.243 281.54 162.383 282.23 162.183C282.94 161.973 283.42 161.543 283.67 160.903C283.92 160.263 284.04 159.243 284.04 157.853L284.05 157.843Z" fill="#2FFD76"/>
</svg>
