<svg width="172" height="150" viewBox="0 0 172 150" fill="none" xmlns="http://www.w3.org/2000/svg">
<path d="M17.2622 88.3906C14.6914 88.3906 12.1627 88.0369 9.79088 87.3318C5.23957 85.9768 2.02779 83.4967 1.20108 80.7005C0.635204 78.7862 0.511419 73.9785 11.5637 70.7093C13.3851 70.1699 19.3312 67.7428 19.3312 59.1354C19.3312 56.9713 19.8351 55.6672 20.8718 55.1543C22.2357 54.4779 23.7764 55.6009 23.9488 55.7313C24.2406 55.9523 24.2958 56.3701 24.0748 56.6597C23.8537 56.9514 23.4382 57.0067 23.1464 56.7857C22.8789 56.5845 21.9948 56.0739 21.4598 56.3413C20.9514 56.5955 20.6574 57.6146 20.6574 59.1331C20.6574 61.5425 20.0297 69.5864 11.9394 71.9781C4.96547 74.0404 1.51496 77.082 2.47209 80.3203C3.15953 82.6479 6.11048 84.8473 10.1689 86.0564C14.8086 87.4379 20.0938 87.3937 25.0496 85.9282L135.749 53.2025C141.372 51.5403 147.009 51.2308 152.049 52.3051C156.847 53.3285 160.716 55.5677 162.944 58.6071C165.966 62.7273 165.736 67.8047 162.301 72.8998L159.898 76.463C159.692 76.7659 159.281 76.8477 158.978 76.6421C158.676 76.4365 158.594 76.0254 158.799 75.7226L161.202 72.1593C164.301 67.5616 164.54 63.028 161.876 59.3918C159.84 56.6154 156.253 54.5597 151.772 53.6026C146.947 52.5725 141.536 52.8754 136.125 54.4735L25.4276 87.2058C22.7529 87.9972 19.9855 88.3928 17.2622 88.3928V88.3906Z" fill="#C2C8CF" stroke="black" stroke-linecap="round" stroke-linejoin="round"/>
<path d="M25.9006 79.6727C25.5138 79.7877 25.4165 80.1281 25.684 80.4309L42.1408 99.0208C42.4082 99.3236 42.9432 99.4761 43.33 99.3612L98.7128 82.9884C100.516 82.4557 100.972 80.8664 99.7251 79.4583L85.0522 62.8777C84.7847 62.5749 84.2498 62.4224 83.863 62.5373L25.9006 79.6749V79.6727Z" fill="black"/>
<path d="M87.0769 1.64833H87.0747C86.5641 1.07361 85.7418 0.841513 84.8156 1.1134L31.0531 17.0087C30.0938 17.2917 29.2428 18.0543 28.7366 18.976L44.5214 36.8077L43.3366 95.2497L62.1497 74.6174L84.7847 67.9264C86.3254 67.471 87.5875 65.7822 87.5875 64.1752L87.5986 29.0247L99.63 15.8306L87.0769 1.64833Z" fill="white"/>
<path d="M42.4657 33.3148L29.2583 18.3965" stroke="#E9EAEB" stroke-linecap="round" stroke-linejoin="round"/>
<path d="M28.7366 18.9758C28.4293 19.5351 28.2503 20.1518 28.2503 20.7597L28.2414 42.59C28.2414 43.1935 27.901 44.0445 27.4877 44.4822L24.1168 48.0476C23.7034 48.4853 23.363 49.3363 23.363 49.9398L23.3497 76.2154C23.3497 76.8564 23.5531 77.3891 23.8913 77.7715L41.3185 97.4644L43.341 95.2473L44.5258 36.8053L28.741 18.9736L28.7366 18.9758Z" fill="#E9EAEB"/>
<path d="M23.3475 67.5508L32.6712 78.088V79.1357L23.3475 68.5985" fill="#C2C8CF"/>
<path d="M23.3475 64.748L32.6712 75.283V76.3308L23.3475 65.7958" fill="#C2C8CF"/>
<path d="M23.3475 61.9424L32.6712 72.4796V73.5273L23.3475 62.9901" fill="#C2C8CF"/>
<path d="M23.3475 59.1377L32.6712 69.6749V70.7226L23.3475 60.1877" fill="#C2C8CF"/>
<path d="M23.3475 56.335L32.6712 66.87V67.9199L23.3475 57.3827" fill="#C2C8CF"/>
<path d="M23.3475 53.5293L32.6712 64.0665V65.1143L23.3475 54.5771" fill="#C2C8CF"/>
<path d="M99.6302 15.8306L87.077 1.64833H87.0748C86.5642 1.07361 85.7419 0.841513 84.8158 1.1134L31.0533 17.0087C29.5126 17.4641 28.2504 19.1529 28.2504 20.7599L28.2416 42.5902C28.2416 43.1937 27.9012 44.0447 27.4878 44.4824L24.1169 48.0478C23.7035 48.4855 23.3631 49.3365 23.3631 49.94L23.3499 76.2155C23.3499 76.8566 23.5532 77.3893 23.8914 77.7717L41.3186 97.4646L62.1543 74.6152L84.7892 67.9242C86.3299 67.4688 87.5921 65.78 87.5921 64.173L87.6031 29.0225L99.6346 15.8283L99.6302 15.8306Z" stroke="black" stroke-linecap="round" stroke-linejoin="round"/>
<path d="M97.3687 15.2954C98.9094 14.84 100.169 15.7817 100.169 17.3887L100.143 78.355C100.143 79.962 98.8807 81.6508 97.34 82.1061L43.5775 97.9993C42.0368 98.4546 40.7769 97.513 40.7769 95.906L40.8034 34.9396C40.8034 33.3326 42.0656 31.6438 43.6062 31.1885L97.3687 15.2954Z" fill="white" stroke="black" stroke-linecap="round" stroke-linejoin="round"/>
<path d="M100.169 68.2136L40.7747 85.7712L37.2756 81.8189C37.0877 81.6067 36.9351 81.2044 36.9351 80.9215V45.5698C36.9351 45.2869 36.7826 44.8846 36.5947 44.6724L28.2415 35.2559" stroke="#C2C8CF" stroke-linecap="round" stroke-linejoin="round"/>
<path d="M96.7432 16.7101C98.0474 16.3255 99.1128 17.1213 99.1128 18.4807L99.0885 60.2427C99.0885 61.6021 98.0209 63.03 96.7167 63.4147L44.1987 78.9408C42.8945 79.3255 41.8291 78.5297 41.8291 77.1703L41.8534 35.4083C41.8534 34.0489 42.9211 32.6209 44.2252 32.2363L96.7432 16.7101Z" fill="#C2C8CF"/>
<path d="M96.7432 16.7102L44.2252 32.2364C42.9211 32.621 41.8534 34.049 41.8534 35.4084L41.8291 77.1704C41.8291 77.9043 42.1408 78.4723 42.6315 78.7796L46.7385 70.5678L89.9815 22.422L98.4784 16.991C98.0452 16.6329 97.4285 16.5069 96.7455 16.708L96.7432 16.7102Z" fill="#777E87"/>
<path d="M90.5341 22.6406L98.8055 17.3555" stroke="#777E87" stroke-linecap="round" stroke-linejoin="round"/>
<path d="M43.1863 79.0009L47.2933 70.7891" stroke="#777E87" stroke-linecap="round" stroke-linejoin="round"/>
<path d="M47.3022 34.0827C46.4755 34.3281 45.7991 35.2321 45.7991 36.0942L45.8035 70.5993C45.8035 71.2602 46.3981 71.7686 47.0502 71.6625C49.6475 71.2425 56.5993 69.8853 70.6423 65.7341C83.3634 61.9741 88.9404 59.6797 91.0624 58.6916C91.7653 58.3645 92.2472 57.6925 92.329 56.921C92.5788 54.6244 93.0629 49.0916 93.0629 40.7693C93.0629 31.9341 92.55 24.9513 92.3091 22.1463C92.2494 21.4544 91.5708 20.9924 90.9055 21.1892L47.3 34.0805L47.3022 34.0827Z" fill="black" stroke="black" stroke-linecap="round" stroke-linejoin="round"/>
<path d="M96.7432 16.7101C98.0474 16.3255 99.1128 17.1213 99.1128 18.4807L99.0885 60.2427C99.0885 61.6021 98.0209 63.03 96.7167 63.4147L44.1987 78.9408C42.8945 79.3255 41.8291 78.5297 41.8291 77.1703L41.8534 35.4083C41.8534 34.0489 42.9211 32.6209 44.2252 32.2363L96.7432 16.7101Z" stroke="black" stroke-linecap="round" stroke-linejoin="round"/>
<path d="M74.8311 78.0617C74.8311 77.7655 75.0631 77.4561 75.3461 77.3721L94.5372 71.6979C94.8201 71.6139 95.0522 71.7885 95.0522 72.0825C95.0522 72.3765 94.8201 72.6881 94.5372 72.7721L75.3461 78.4464C75.0631 78.5303 74.8311 78.3557 74.8311 78.0617Z" fill="white" stroke="black" stroke-linecap="round" stroke-linejoin="round"/>
<path d="M94.5394 71.6976L75.3483 77.3718C75.1074 77.4426 74.904 77.6791 74.8488 77.9289C74.8885 77.9289 74.9283 77.9222 74.9703 77.909L94.1614 72.2348C94.4024 72.164 94.6057 71.9275 94.661 71.6777C94.6212 71.6777 94.5814 71.6844 94.5394 71.6976Z" fill="black" stroke="black" stroke-linecap="round" stroke-linejoin="round"/>
<path d="M47.5807 86.4167L47.1497 85.9282C47.0546 85.8221 46.9043 85.7801 46.7341 85.8287L44.8198 86.3946C44.5369 86.4786 44.3048 86.788 44.3048 87.0842C44.3048 87.2014 44.3424 87.2987 44.4065 87.3694L44.8375 87.8579L47.5851 86.4123L47.5807 86.4167Z" fill="#2FFD76" stroke="black" stroke-linecap="round" stroke-linejoin="round"/>
<path d="M44.7336 87.5755C44.7336 87.2793 44.9657 86.9698 45.2487 86.8858L47.1629 86.3199C47.4459 86.2359 47.678 86.4106 47.678 86.7045C47.678 86.9985 47.4459 87.3102 47.1629 87.3942L45.2487 87.9601C44.9657 88.0441 44.7336 87.8695 44.7336 87.5755Z" fill="#2FFD76" stroke="black" stroke-linecap="round" stroke-linejoin="round"/>
<path d="M96.3277 144.572C95.585 144.572 94.8356 144.528 94.0863 144.435C88.9801 143.798 85.6424 141.11 84.9284 137.061L81.9598 120.199C81.3077 116.493 78.591 113.274 74.5084 111.369C69.5393 109.05 63.8518 109.238 59.2961 111.866L50.5559 116.913C50.2907 117.065 49.9525 116.974 49.8 116.709C49.6475 116.444 49.7381 116.108 50.0033 115.953L58.7434 110.907C63.6108 108.097 69.6785 107.894 74.9748 110.363C79.389 112.423 82.3311 115.936 83.0473 120.005L86.0159 136.866C86.9001 141.893 92.0505 143.064 94.2233 143.336C99.2101 143.957 104.422 142.262 105.605 139.632C106.423 137.812 104.988 136.02 103.64 134.835L100.83 132.368C100.6 132.167 100.578 131.818 100.78 131.588C100.981 131.358 101.33 131.336 101.56 131.537L104.369 134.004C107.318 136.594 107.216 138.738 106.613 140.082C105.415 142.75 101.054 144.57 96.3277 144.57V144.572Z" fill="white"/>
<path d="M96.2725 144.346C96.089 144.346 95.9409 144.198 95.9409 144.014C95.9409 143.831 96.089 143.683 96.2725 143.683C100.861 143.683 104.99 141.903 105.881 139.543C106.443 138.053 105.718 136.366 103.786 134.671L100.976 132.204C100.839 132.082 100.826 131.875 100.945 131.735C101.067 131.598 101.275 131.585 101.414 131.704L104.223 134.171C106.949 136.565 106.967 138.541 106.5 139.777C105.371 142.777 100.499 144.346 96.2725 144.346Z" fill="#2FFD76"/>
<path d="M88.4054 101.982L104.615 75.3198C105.3 74.3074 107.278 73.8056 109.022 74.1991L109.8 74.3737L112.077 71.0116C112.762 69.9992 114.741 69.4975 116.485 69.8909L165.477 80.9432C167.223 81.3366 168.083 82.4794 167.398 83.4918L148.156 111.905C147.979 112.166 147.714 112.393 147.389 112.581L142.959 115.139C142.031 115.674 140.612 115.875 139.319 115.583L90.3263 104.531C88.5823 104.137 87.7202 102.995 88.4054 101.982Z" fill="black" stroke="black" stroke-linecap="round" stroke-linejoin="round"/>
<path d="M88.1689 95.8039L96.4559 93.2177L107.647 76.6924C108.333 75.68 110.311 75.1782 112.055 75.5717L142.763 79.3781L163.205 74.6455V85.333H163.203C163.203 85.5717 163.13 85.8149 162.97 86.0514L143.729 114.464C143.043 115.477 141.067 115.979 139.321 115.585L90.3285 104.533C88.9912 104.23 88.1756 103.487 88.1756 102.701H88.1734V95.8039H88.1689Z" fill="#E9EAEB"/>
<path d="M141.164 104.995V115.703" stroke="white" stroke-linecap="round" stroke-linejoin="round"/>
<path d="M163.203 74.6438V85.3313H163.2C163.2 85.5701 163.127 85.8132 162.968 86.0497L143.726 114.463C143.415 114.925 142.831 115.278 142.126 115.491V103.879L162.018 74.9157L163.205 74.6416L163.203 74.6438Z" fill="white"/>
<path d="M88.1689 95.8039L96.4559 93.2177L107.647 76.6924C108.333 75.68 110.311 75.1782 112.055 75.5717L142.763 79.3781L163.205 74.6455V85.333H163.203C163.203 85.5717 163.13 85.8149 162.97 86.0514L143.729 114.464C143.043 115.477 141.067 115.979 139.321 115.585L90.3285 104.533C88.9912 104.23 88.1756 103.487 88.1756 102.701H88.1734V95.8039H88.1689Z" stroke="black" stroke-linecap="round" stroke-linejoin="round"/>
<path d="M92.4395 85.9743C92.5721 85.4283 92.9369 84.6038 93.2507 84.1396L107.647 62.8817C108.333 61.8694 110.311 61.3676 112.055 61.7611L161.047 72.8133C162.794 73.2067 163.653 74.3495 162.968 75.3619L148.572 96.6198C148.258 97.084 147.893 97.9107 147.76 98.4545L146.828 102.314C146.695 102.86 146.33 103.684 146.016 104.149L143.724 107.533C143.039 108.545 141.063 109.047 139.316 108.653L90.3241 97.6012C88.5801 97.2078 87.718 96.065 88.4032 95.0526L90.6955 91.6684C91.0094 91.2042 91.3741 90.3775 91.5067 89.8337L92.4395 85.9743Z" fill="white"/>
<path d="M94.23 85.2692C93.684 85.1454 93.1358 85.4925 93.012 86.0384L92.13 89.9553C92.0063 90.5013 92.3533 91.0517 92.8993 91.1733L144.635 102.847C145.386 103.017 146.14 102.539 146.31 101.788L147.026 98.6159C147.197 97.8643 146.719 97.1106 145.968 96.9404L94.2322 85.267L94.23 85.2692Z" fill="#E9EAEB"/>
<path d="M92.4395 85.9743C92.5721 85.4283 92.9369 84.6038 93.2507 84.1396L107.647 62.8817C108.333 61.8694 110.311 61.3676 112.055 61.7611L161.047 72.8133C162.794 73.2067 163.653 74.3495 162.968 75.3619L148.572 96.6198C148.258 97.084 147.893 97.9107 147.76 98.4545L146.828 102.314C146.695 102.86 146.33 103.684 146.016 104.149L143.724 107.533C143.039 108.545 141.063 109.047 139.316 108.653L90.3241 97.6012C88.5801 97.2078 87.718 96.065 88.4032 95.0526L90.6955 91.6684C91.0094 91.2042 91.3741 90.3775 91.5067 89.8337L92.4395 85.9743Z" stroke="black" stroke-linecap="round" stroke-linejoin="round"/>
<path d="M98.2043 87.1791C98.3458 86.5757 98.7481 85.6627 99.0951 85.1477L107.117 73.3019C107.716 72.4177 109.442 71.9801 110.965 72.3227L149.418 80.9987C150.943 81.3435 151.695 82.3404 151.096 83.2246L143.074 95.0704C142.727 95.5832 142.331 96.4984 142.199 97.104L142.004 97.9771C141.75 99.1199 140.61 99.845 139.467 99.5863L99.5836 90.5876C98.4408 90.329 97.7269 89.1862 97.9965 88.0478L98.2021 87.1769L98.2043 87.1791Z" stroke="#C2C8CF" stroke-linecap="round" stroke-linejoin="round"/>
<path d="M144.356 88.484C144.772 88.579 145.309 88.3646 145.55 88.0109L147.177 85.6104C147.416 85.2567 147.272 84.8898 146.854 84.7969L108.408 76.1231C107.992 76.0281 107.455 76.2425 107.214 76.5962L105.587 78.9967C105.349 79.3504 105.492 79.7173 105.91 79.8102L144.356 88.484Z" fill="black" stroke="black" stroke-linecap="round" stroke-linejoin="round"/>
<path d="M105.912 97.6349C105.742 97.8869 105.956 98.1698 106.39 98.2693L126.514 102.81C126.947 102.907 127.44 102.783 127.61 102.531C127.78 102.279 127.566 101.996 127.132 101.897L107.009 97.3564C106.575 97.2591 106.082 97.3829 105.912 97.6349Z" fill="black" stroke="black" stroke-linecap="round" stroke-linejoin="round"/>
<path d="M120.147 100.672L127.132 102.248C127.362 102.299 127.53 102.405 127.612 102.529C127.612 102.529 127.612 102.529 127.612 102.531C127.442 102.783 126.951 102.907 126.516 102.809L119.531 101.233C119.301 101.182 119.133 101.076 119.051 100.953C119.051 100.953 119.051 100.953 119.051 100.95C119.221 100.698 119.714 100.575 120.147 100.672Z" fill="#2FFD76" stroke="black" stroke-linecap="round" stroke-linejoin="round"/>
<path d="M115.7 99.3301L121.772 100.316V101.021C121.772 101.081 121.754 101.14 121.715 101.2C121.544 101.452 121.054 101.576 120.618 101.479L116.237 100.491C115.906 100.415 115.702 100.232 115.702 100.035V99.3301H115.7Z" fill="white" stroke="black" stroke-linecap="round" stroke-linejoin="round"/>
<path d="M115.76 99.1505C115.589 99.4025 115.804 99.6855 116.237 99.7849L120.618 100.773C121.051 100.87 121.544 100.746 121.715 100.494C121.885 100.243 121.67 99.9596 121.237 99.8601L116.856 98.872C116.423 98.7748 115.93 98.8986 115.76 99.1505Z" fill="white" stroke="black" stroke-linecap="round" stroke-linejoin="round"/>
<path d="M146.721 60.0482L149.089 56.5535L106.04 46.8408L103.673 50.3355L146.721 60.0482Z" fill="black" stroke="black" stroke-linecap="round" stroke-linejoin="round"/>
<path d="M107.406 51.1777L109.774 47.683L106.04 46.8408L103.673 50.3355L107.406 51.1777Z" fill="#C2C8CF" stroke="black" stroke-linecap="round" stroke-linejoin="round"/>
<path d="M110.355 29.8808C110.355 28.864 111.166 28.2163 112.159 28.4396L142.369 35.2544C143.362 35.4776 144.173 36.4922 144.173 37.509V55.8248C144.173 56.8416 143.362 57.4893 142.369 57.266L112.159 50.4512C111.166 50.2279 110.355 49.2133 110.355 48.1965V29.8808Z" fill="#2D3033"/>
<path d="M142.367 57.2684C143.359 57.4917 144.171 56.844 144.171 55.8272V37.5114C144.171 36.5057 143.377 35.5044 142.4 35.2656L128.213 54.0765L142.365 57.2684H142.367Z" fill="#777E87"/>
<path d="M110.355 29.8808C110.355 28.864 111.166 28.2163 112.159 28.4396L142.369 35.2544C143.362 35.4776 144.173 36.4922 144.173 37.509V55.8248C144.173 56.8416 143.362 57.4893 142.369 57.266L112.159 50.4512C111.166 50.2279 110.355 49.2133 110.355 48.1965V29.8808Z" stroke="black" stroke-linecap="round" stroke-linejoin="round"/>
<path d="M112.665 31.583L120.609 33.3757V35.2568L112.665 33.4641V31.583Z" fill="#777E87"/>
<path d="M110.355 37.4561L144.171 45.0843V48.7514L110.355 41.1232V37.4561Z" fill="black"/>
<path d="M108.593 44.8456C108.593 43.8288 109.405 43.1811 110.397 43.4044L140.607 50.2192C141.6 50.4425 142.411 51.457 142.411 52.4739V70.7896C142.411 71.8064 141.6 72.4541 140.607 72.2308L110.397 65.416C109.405 65.1928 108.593 64.1782 108.593 63.1614V44.8456Z" fill="#2FFD76" stroke="black" stroke-linecap="round" stroke-linejoin="round"/>
<path d="M131.549 48.1768L117.362 66.9899L123.815 68.4443L138.001 49.6334L131.549 48.1768Z" fill="#C2C8CF"/>
<path d="M135.685 57.5555C134.644 56.3331 134.593 54.6687 135.572 53.8353C135.693 53.7314 135.826 53.6452 135.965 53.5767C134.929 52.6019 133.485 52.4007 132.59 53.1633C131.613 53.9967 131.664 55.6611 132.705 56.8835C133.616 57.9534 134.982 58.3269 135.965 57.8451C135.868 57.7544 135.775 57.6594 135.687 57.5555H135.685Z" fill="#0E4622"/>
<path d="M139.224 54.5389C138.313 53.4691 136.947 53.0955 135.963 53.5774C136.06 53.668 136.153 53.7631 136.242 53.867C137.283 55.0894 137.334 56.7538 136.357 57.5872C136.235 57.691 136.102 57.7773 135.963 57.8458C137 58.8206 138.443 59.0217 139.338 58.2591C140.315 57.4258 140.265 55.7613 139.226 54.5389H139.224Z" fill="#2D3033"/>
<path d="M136.244 53.8667C136.155 53.7628 136.06 53.6678 135.965 53.5771C135.826 53.6457 135.693 53.7319 135.572 53.8358C134.595 54.6691 134.646 56.3336 135.685 57.556C135.773 57.6598 135.868 57.7549 135.963 57.8455C136.102 57.777 136.235 57.6908 136.357 57.5869C137.334 56.7536 137.283 55.0891 136.242 53.8667H136.244Z" fill="black"/>
<path d="M108.593 44.8456C108.593 43.8288 109.405 43.1811 110.397 43.4044L140.607 50.2192C141.6 50.4425 142.411 51.457 142.411 52.4739V70.7896C142.411 71.8064 141.6 72.4541 140.607 72.2308L110.397 65.416C109.405 65.1928 108.593 64.1782 108.593 63.1614V44.8456Z" stroke="black" stroke-linecap="round" stroke-linejoin="round"/>
<path d="M146.721 85.19L149.089 81.6953V56.5537L146.721 60.0484V85.19Z" fill="#777E87" stroke="black" stroke-linecap="round" stroke-linejoin="round"/>
<path d="M146.721 60.0486L103.673 50.3359V75.4776L106.259 77.9466V79.2044L144.137 87.75V86.4944L146.721 85.1903V60.0486Z" fill="#C2C8CF" stroke="black" stroke-linecap="round" stroke-linejoin="round"/>
<path d="M113.843 56.8012C113.843 55.6629 114.752 54.9356 115.864 55.1876L134.533 59.4007C135.643 59.6505 136.553 60.7889 136.553 61.9273V79.8009C136.553 80.9393 135.645 81.6666 134.533 81.4146L115.864 77.2015C114.754 76.9517 113.843 75.8133 113.843 74.6749V56.8012Z" fill="#2FFD76"/>
<path d="M117.519 59.3036L116.637 59.1046V58.2227L117.519 58.4216V59.3036Z" fill="black"/>
<path d="M118.399 59.5006L117.519 59.3038V58.4219L118.399 58.6208V59.5006Z" fill="black"/>
<path d="M119.281 59.6988L118.399 59.4999V58.6201L119.281 58.8169V59.6988Z" fill="black"/>
<path d="M120.161 59.8983L119.281 59.6993V58.8174L120.161 59.0163V59.8983Z" fill="black"/>
<path d="M117.519 60.1832L116.637 59.9843V59.1045L117.519 59.3034V60.1832Z" fill="black"/>
<path d="M120.161 60.7779L119.281 60.579V59.6992L120.161 59.8982V60.7779Z" fill="black"/>
<path d="M117.519 61.0653L116.637 60.8663V59.9844L117.519 60.1833V61.0653Z" fill="black"/>
<path d="M120.161 61.66L119.281 61.4611V60.5791L120.161 60.778V61.66Z" fill="black"/>
<path d="M117.519 61.9449L116.637 61.746V60.8662L117.519 61.0652V61.9449Z" fill="black"/>
<path d="M118.399 62.1441L117.519 61.9452V61.0654L118.399 61.2622V62.1441Z" fill="black"/>
<path d="M119.281 62.3404L118.399 62.1437V61.2617L119.281 61.4607V62.3404Z" fill="black"/>
<path d="M120.161 62.5396L119.281 62.3407V61.4609L120.161 61.6599V62.5396Z" fill="black"/>
<path d="M121.922 60.2935L121.043 60.0946V59.2148L121.922 59.4138V60.2935Z" fill="black"/>
<path d="M124.566 60.8883L123.684 60.6893V59.8096L124.566 60.0085V60.8883Z" fill="black"/>
<path d="M121.922 61.1756L121.043 60.9767V60.0947L121.922 60.2937V61.1756Z" fill="black"/>
<path d="M124.566 61.7704L123.684 61.5714V60.6895L124.566 60.8884V61.7704Z" fill="black"/>
<path d="M122.804 61.3726L121.922 61.1759V60.2939L122.804 60.4929V61.3726Z" fill="black"/>
<path d="M122.804 62.2545L121.922 62.0555V61.1758L122.804 61.3725V62.2545Z" fill="black"/>
<path d="M123.684 61.5709L122.804 61.3719V60.4922L123.684 60.6889V61.5709Z" fill="black"/>
<path d="M124.566 62.65L123.684 62.451V61.5713L124.566 61.7702V62.65Z" fill="black"/>
<path d="M121.922 62.9374L121.043 62.7384V61.8564L121.922 62.0554V62.9374Z" fill="black"/>
<path d="M123.684 63.3336L122.804 63.1346V62.2549L123.684 62.4516V63.3336Z" fill="black"/>
<path d="M124.566 63.5321L123.684 63.3331V62.4512L124.566 62.6501V63.5321Z" fill="black"/>
<path d="M126.328 61.286L125.446 61.087V60.2051L126.328 60.404V61.286Z" fill="black"/>
<path d="M128.09 61.6822L127.208 61.4833V60.6035L128.09 60.8025V61.6822Z" fill="black"/>
<path d="M128.969 61.8805L128.09 61.6815V60.8018L128.969 60.9985V61.8805Z" fill="black"/>
<path d="M126.328 62.1656L125.446 61.9667V61.0869L126.328 61.2859V62.1656Z" fill="black"/>
<path d="M128.969 62.7603L128.09 62.5636V61.6816L128.969 61.8806V62.7603Z" fill="black"/>
<path d="M126.328 63.0477L125.446 62.8488V61.9668L126.328 62.1657V63.0477Z" fill="black"/>
<path d="M127.208 62.3648L126.328 62.1659V61.2861L127.208 61.4829V62.3648Z" fill="black"/>
<path d="M127.208 63.2447L126.328 63.048V62.166L127.208 62.365V63.2447Z" fill="black"/>
<path d="M128.09 63.4439L127.208 63.245V62.3652L128.09 62.5642V63.4439Z" fill="black"/>
<path d="M128.969 63.6422L128.09 63.4432V62.5635L128.969 62.7602V63.6422Z" fill="black"/>
<path d="M126.328 63.9273L125.446 63.7284V62.8486L126.328 63.0476V63.9273Z" fill="black"/>
<path d="M128.09 64.326L127.208 64.1271V63.2451L128.09 63.4441V64.326Z" fill="black"/>
<path d="M130.731 62.276L129.851 62.077V61.1973L130.731 61.3962V62.276Z" fill="black"/>
<path d="M131.613 62.4752L130.731 62.2762V61.3965L131.613 61.5932V62.4752Z" fill="black"/>
<path d="M132.493 62.6747L131.613 62.4757V61.5938L132.493 61.7927V62.6747Z" fill="black"/>
<path d="M133.375 62.8707L132.493 62.674V61.792L133.375 61.9909V62.8707Z" fill="black"/>
<path d="M130.731 63.1581L129.851 62.9591V62.0771L130.731 62.2761V63.1581Z" fill="black"/>
<path d="M133.375 63.7525L132.493 63.5536V62.6738L133.375 62.8706V63.7525Z" fill="black"/>
<path d="M130.731 64.0377L129.851 63.8387V62.959L130.731 63.1579V64.0377Z" fill="black"/>
<path d="M133.375 64.6324L132.493 64.4357V63.5537L133.375 63.7526V64.6324Z" fill="black"/>
<path d="M130.731 64.9198L129.851 64.7208V63.8389L130.731 64.0378V64.9198Z" fill="black"/>
<path d="M131.613 65.1168L130.731 64.9201V64.0381L131.613 64.237V65.1168Z" fill="black"/>
<path d="M132.493 65.316L131.613 65.1171V64.2373L132.493 64.4363V65.316Z" fill="black"/>
<path d="M133.375 65.5152L132.493 65.3163V64.4365L133.375 64.6332V65.5152Z" fill="black"/>
<path d="M117.519 63.7066L116.637 63.5077V62.6279L117.519 62.8269V63.7066Z" fill="black"/>
<path d="M118.399 63.9058L117.519 63.7069V62.8271L118.399 63.0239V63.9058Z" fill="black"/>
<path d="M117.519 64.5887L116.637 64.3898V63.5078L117.519 63.7068V64.5887Z" fill="black"/>
<path d="M120.161 65.1834L119.281 64.9845V64.1025L120.161 64.3015V65.1834Z" fill="black"/>
<path d="M118.399 64.7857L117.519 64.589V63.707L118.399 63.906V64.7857Z" fill="black"/>
<path d="M118.399 65.6676L117.519 65.4686V64.5889L118.399 64.7856V65.6676Z" fill="black"/>
<path d="M119.281 64.984L118.399 64.785V63.9053L119.281 64.102V64.984Z" fill="black"/>
<path d="M119.281 65.8639L118.399 65.6671V64.7852L119.281 64.9841V65.8639Z" fill="black"/>
<path d="M120.161 66.0631L119.281 65.8641V64.9844L120.161 65.1833V66.0631Z" fill="black"/>
<path d="M117.519 66.3504L116.637 66.1515V65.2695L117.519 65.4685V66.3504Z" fill="black"/>
<path d="M119.281 66.7457L118.399 66.5468V65.667L119.281 65.8637V66.7457Z" fill="black"/>
<path d="M121.922 64.6991L121.043 64.5001V63.6182L121.922 63.8171V64.6991Z" fill="black"/>
<path d="M122.804 64.8961L121.922 64.6993V63.8174L122.804 64.0163V64.8961Z" fill="black"/>
<path d="M123.684 65.0953L122.804 64.8964V64.0166L123.684 64.2133V65.0953Z" fill="black"/>
<path d="M124.566 65.2938L123.684 65.0949V64.2129L124.566 64.4118V65.2938Z" fill="black"/>
<path d="M121.922 65.5787L121.043 65.3798V64.5L121.922 64.6989V65.5787Z" fill="black"/>
<path d="M124.566 66.1734L123.684 65.9745V65.0947L124.566 65.2937V66.1734Z" fill="black"/>
<path d="M121.922 66.4608L121.043 66.2618V65.3799L121.922 65.5788V66.4608Z" fill="black"/>
<path d="M122.804 65.7779L121.922 65.579V64.6992L122.804 64.896V65.7779Z" fill="black"/>
<path d="M122.804 66.6578L121.922 66.4611V65.5791L122.804 65.778V66.6578Z" fill="black"/>
<path d="M123.684 66.856L122.804 66.6571V65.7773L123.684 65.9741V66.856Z" fill="black"/>
<path d="M124.566 67.0555L123.684 66.8566V65.9746L124.566 66.1735V67.0555Z" fill="black"/>
<path d="M123.684 67.7359L122.804 67.5392V66.6572L123.684 66.8562V67.7359Z" fill="black"/>
<path d="M126.328 65.6891L125.446 65.4901V64.6104L126.328 64.8093V65.6891Z" fill="black"/>
<path d="M128.969 67.1656L128.09 66.9667V66.0869L128.969 66.2836V67.1656Z" fill="black"/>
<path d="M126.328 67.4508L125.446 67.2518V66.3721L126.328 66.571V67.4508Z" fill="black"/>
<path d="M127.208 66.7682L126.328 66.5714V65.6895L127.208 65.8884V66.7682Z" fill="black"/>
<path d="M128.09 66.9674L127.208 66.7684V65.8887L128.09 66.0876V66.9674Z" fill="black"/>
<path d="M128.09 67.8473L127.208 67.6505V66.7686L128.09 66.9675V67.8473Z" fill="black"/>
<path d="M126.328 68.3329L125.446 68.1339V67.252L126.328 67.4509V68.3329Z" fill="black"/>
<path d="M127.208 68.5299L126.328 68.3331V67.4512L127.208 67.6501V68.5299Z" fill="black"/>
<path d="M128.09 68.7291L127.208 68.5302V67.6504L128.09 67.8471V68.7291Z" fill="black"/>
<path d="M130.731 66.6815L129.851 66.4826V65.6006L130.731 65.7995V66.6815Z" fill="black"/>
<path d="M131.613 66.8785L130.731 66.6818V65.7998L131.613 65.9987V66.8785Z" fill="black"/>
<path d="M132.493 67.0777L131.613 66.8788V65.999L132.493 66.198V67.0777Z" fill="black"/>
<path d="M130.731 67.5611L129.851 67.3622V66.4824L130.731 66.6814V67.5611Z" fill="black"/>
<path d="M133.375 68.1558L132.493 67.9591V67.0771L133.375 67.2761V68.1558Z" fill="black"/>
<path d="M131.613 67.7603L130.731 67.5614V66.6816L131.613 66.8784V67.7603Z" fill="black"/>
<path d="M131.613 68.6402L130.731 68.4435V67.5615L131.613 67.7605V68.6402Z" fill="black"/>
<path d="M132.493 68.8394L131.613 68.6405V67.7607L132.493 67.9597V68.8394Z" fill="black"/>
<path d="M130.731 69.3228L129.851 69.1239V68.2441L130.731 68.4431V69.3228Z" fill="black"/>
<path d="M132.493 69.7215L131.613 69.5226V68.6406L132.493 68.8396V69.7215Z" fill="black"/>
<path d="M133.375 69.9176L132.493 69.7208V68.8389L133.375 69.0378V69.9176Z" fill="black"/>
<path d="M117.519 68.1122L116.637 67.9132V67.0312L117.519 67.2302V68.1122Z" fill="black"/>
<path d="M119.281 68.5074L118.399 68.3085V67.4287L119.281 67.6254V68.5074Z" fill="black"/>
<path d="M120.161 68.7069L119.281 68.5079V67.626L120.161 67.8249V68.7069Z" fill="black"/>
<path d="M117.519 68.9918L116.637 68.7928V67.9131L117.519 68.112V68.9918Z" fill="black"/>
<path d="M120.161 69.5865L119.281 69.3876V68.5078L120.161 68.7068V69.5865Z" fill="black"/>
<path d="M118.399 69.191L117.519 68.9921V68.1123L118.399 68.309V69.191Z" fill="black"/>
<path d="M118.399 70.0709L117.519 69.8742V68.9922L118.399 69.1911V70.0709Z" fill="black"/>
<path d="M119.281 69.3873L118.399 69.1906V68.3086L119.281 68.5075V69.3873Z" fill="black"/>
<path d="M119.281 70.2691L118.399 70.0702V69.1904L119.281 69.3872V70.2691Z" fill="black"/>
<path d="M120.161 70.4686L119.281 70.2697V69.3877L120.161 69.5866V70.4686Z" fill="black"/>
<path d="M117.519 70.7535L116.637 70.5546V69.6748L117.519 69.8737V70.7535Z" fill="black"/>
<path d="M118.399 70.9527L117.519 70.7538V69.874L118.399 70.0708V70.9527Z" fill="black"/>
<path d="M119.281 71.149L118.399 70.9523V70.0703L119.281 70.2693V71.149Z" fill="black"/>
<path d="M121.922 69.1021L121.043 68.9032V68.0234L121.922 68.2224V69.1021Z" fill="black"/>
<path d="M123.684 69.4976L122.804 69.3009V68.4189L123.684 68.6179V69.4976Z" fill="black"/>
<path d="M124.566 69.6969L123.684 69.4979V68.6182L124.566 68.8171V69.6969Z" fill="black"/>
<path d="M121.922 69.9842L121.043 69.7853V68.9033L121.922 69.1023V69.9842Z" fill="black"/>
<path d="M121.922 70.8639L121.043 70.6649V69.7852L121.922 69.9841V70.8639Z" fill="black"/>
<path d="M122.804 70.1812L121.922 69.9845V69.1025L122.804 69.3015V70.1812Z" fill="black"/>
<path d="M122.804 71.0631L121.922 70.8641V69.9844L122.804 70.1811V71.0631Z" fill="black"/>
<path d="M123.684 70.3805L122.804 70.1815V69.3018L123.684 69.4985V70.3805Z" fill="black"/>
<path d="M123.684 71.2594L122.804 71.0626V70.1807L123.684 70.3796V71.2594Z" fill="black"/>
<path d="M121.922 71.7459L121.043 71.547V70.665L121.922 70.864V71.7459Z" fill="black"/>
<path d="M122.804 71.943L121.922 71.7462V70.8643L122.804 71.0632V71.943Z" fill="black"/>
<path d="M123.684 72.1422L122.804 71.9432V71.0635L123.684 71.2602V72.1422Z" fill="black"/>
<path d="M126.328 70.0946L125.446 69.8956V69.0137L126.328 69.2126V70.0946Z" fill="black"/>
<path d="M128.09 70.4908L127.208 70.2919V69.4121L128.09 69.6088V70.4908Z" fill="black"/>
<path d="M128.969 70.6893L128.09 70.4904V69.6084L128.969 69.8073V70.6893Z" fill="black"/>
<path d="M126.328 70.9742L125.446 70.7753V69.8955L126.328 70.0944V70.9742Z" fill="black"/>
<path d="M128.969 71.5689L128.09 71.37V70.4902L128.969 70.6892V71.5689Z" fill="black"/>
<path d="M126.328 71.8563L125.446 71.6574V70.7754L126.328 70.9743V71.8563Z" fill="black"/>
<path d="M127.208 71.1734L126.328 70.9745V70.0947L127.208 70.2915V71.1734Z" fill="black"/>
<path d="M128.09 71.3707L127.208 71.174V70.292L128.09 70.4909V71.3707Z" fill="black"/>
<path d="M128.09 72.2525L127.208 72.0536V71.1738L128.09 71.3706V72.2525Z" fill="black"/>
<path d="M128.969 72.451L128.09 72.2521V71.3701L128.969 71.5691V72.451Z" fill="black"/>
<path d="M126.328 72.7359L125.446 72.537V71.6572L126.328 71.8562V72.7359Z" fill="black"/>
<path d="M127.208 72.9351L126.328 72.7362V71.8564L127.208 72.0532V72.9351Z" fill="black"/>
<path d="M128.09 73.1324L127.208 72.9357V72.0537L128.09 72.2526V73.1324Z" fill="black"/>
<path d="M128.969 73.3307L128.09 73.1317V72.252L128.969 72.4509V73.3307Z" fill="black"/>
<path d="M130.731 71.0846L129.851 70.8856V70.0059L130.731 70.2048V71.0846Z" fill="black"/>
<path d="M132.493 71.4832L131.613 71.2843V70.4023L132.493 70.6013V71.4832Z" fill="black"/>
<path d="M133.375 72.5621L132.493 72.3632V71.4834L133.375 71.6801V72.5621Z" fill="black"/>
<path d="M130.731 72.8463L129.851 72.6473V71.7676L130.731 71.9665V72.8463Z" fill="black"/>
<path d="M131.613 73.0455L130.731 72.8466V71.9668L131.613 72.1635V73.0455Z" fill="black"/>
<path d="M132.493 72.3629L131.613 72.1639V71.2842L132.493 71.4831V72.3629Z" fill="black"/>
<path d="M133.375 73.441L132.493 73.2443V72.3623L133.375 72.5612V73.441Z" fill="black"/>
<path d="M130.731 73.7284L129.851 73.5294V72.6475L130.731 72.8464V73.7284Z" fill="black"/>
<path d="M131.613 73.9254L130.731 73.7286V72.8467L131.613 73.0456V73.9254Z" fill="black"/>
<path d="M132.493 74.1246L131.613 73.9257V73.0459L132.493 73.2448V74.1246Z" fill="black"/>
<path d="M133.375 74.3238L132.493 74.1249V73.2451L133.375 73.4419V74.3238Z" fill="black"/>
<path d="M119.281 67.6256L118.399 67.4288V66.5469L119.281 66.7458V67.6256Z" fill="black"/>
<path d="M120.161 67.8248L119.281 67.6259V66.7461L120.161 66.945V67.8248Z" fill="black"/>
<path d="M121.043 66.2623L120.161 66.0634V65.1836L121.043 65.3803V66.2623Z" fill="black"/>
<path d="M121.043 67.1412L120.161 66.9445V66.0625L121.043 66.2614V67.1412Z" fill="black"/>
<path d="M121.043 68.9039L120.161 68.7072V67.8252L121.043 68.0241V68.9039Z" fill="black"/>
<path d="M121.043 70.6646L120.161 70.4679V69.5859L121.043 69.7849V70.6646Z" fill="black"/>
<path d="M121.043 71.5474L120.161 71.3485V70.4688L121.043 70.6655V71.5474Z" fill="black"/>
<path d="M121.043 68.024L120.161 67.8251V66.9453L121.043 67.142V68.024Z" fill="black"/>
<path d="M121.922 68.2225L121.043 68.0236V67.1416L121.922 67.3405V68.2225Z" fill="black"/>
<path d="M123.684 68.6187L122.804 68.4198V67.54L123.684 67.7368V68.6187Z" fill="black"/>
<path d="M124.566 68.8172L123.684 68.6183V67.7363L124.566 67.9353V68.8172Z" fill="black"/>
<path d="M126.328 69.2125L125.446 69.0135V68.1338L126.328 68.3327V69.2125Z" fill="black"/>
<path d="M128.969 69.8072L128.09 69.6083V68.7285L128.969 68.9275V69.8072Z" fill="black"/>
<path d="M129.851 66.483L128.969 66.2841V65.4043L129.851 65.601V66.483Z" fill="black"/>
<path d="M129.851 67.3629L128.969 67.1661V66.2842L129.851 66.4831V67.3629Z" fill="black"/>
<path d="M129.851 68.2447L128.969 68.0458V67.166L129.851 67.3627V68.2447Z" fill="black"/>
<path d="M129.851 69.1246L128.969 68.9279V68.0459L129.851 68.2448V69.1246Z" fill="black"/>
<path d="M129.851 71.7682L128.969 71.5692V70.6895L129.851 70.8862V71.7682Z" fill="black"/>
<path d="M129.851 72.648L128.969 72.4513V71.5693L129.851 71.7683V72.648Z" fill="black"/>
<path d="M129.851 73.5299L128.969 73.3309V72.4512L129.851 72.6479V73.5299Z" fill="black"/>
<path d="M129.851 70.0064L128.969 69.8075V68.9277L129.851 69.1245V70.0064Z" fill="black"/>
<path d="M130.731 70.2049L129.851 70.006V69.124L130.731 69.323V70.2049Z" fill="black"/>
<path d="M131.613 70.4019L130.731 70.2052V69.3232L131.613 69.5222V70.4019Z" fill="black"/>
<path d="M132.493 70.6012L131.613 70.4022V69.5225L132.493 69.7214V70.6012Z" fill="black"/>
<path d="M117.519 72.5152L116.637 72.3163V71.4365L117.519 71.6355V72.5152Z" fill="black"/>
<path d="M118.399 72.7144L117.519 72.5155V71.6357L118.399 71.8325V72.7144Z" fill="black"/>
<path d="M119.281 72.9107L118.399 72.714V71.832L119.281 72.031V72.9107Z" fill="black"/>
<path d="M120.161 73.1099L119.281 72.911V72.0312L120.161 72.2302V73.1099Z" fill="black"/>
<path d="M117.519 73.3973L116.637 73.1984V72.3164L117.519 72.5153V73.3973Z" fill="black"/>
<path d="M120.161 73.992L119.281 73.7931V72.9111L120.161 73.1101V73.992Z" fill="black"/>
<path d="M117.519 74.2769L116.637 74.078V73.1982L117.519 73.3972V74.2769Z" fill="black"/>
<path d="M120.161 74.8717L119.281 74.6727V73.793L120.161 73.9919V74.8717Z" fill="black"/>
<path d="M117.519 75.1568L116.637 74.9601V74.0781L117.519 74.2771V75.1568Z" fill="black"/>
<path d="M118.399 75.356L117.519 75.1571V74.2773L118.399 74.4763V75.356Z" fill="black"/>
<path d="M119.281 75.5543L118.399 75.3553V74.4756L119.281 74.6723V75.5543Z" fill="black"/>
<path d="M120.161 75.7538L119.281 75.5548V74.6729L120.161 74.8718V75.7538Z" fill="black"/>
<path d="M121.922 73.5077L121.043 73.3087V72.4268L121.922 72.6257V73.5077Z" fill="black"/>
<path d="M122.804 73.7047L121.922 73.5079V72.626L122.804 72.8249V73.7047Z" fill="black"/>
<path d="M124.566 74.1024L123.684 73.9035V73.0215L124.566 73.2204V74.1024Z" fill="black"/>
<path d="M121.922 75.2694L121.043 75.0704V74.1885L121.922 74.3874V75.2694Z" fill="black"/>
<path d="M122.804 74.5865L121.922 74.3876V73.5078L122.804 73.7045V74.5865Z" fill="black"/>
<path d="M122.804 75.4664L121.922 75.2697V74.3877L122.804 74.5866V75.4664Z" fill="black"/>
<path d="M123.684 74.7828L122.804 74.5861V73.7041L123.684 73.903V74.7828Z" fill="black"/>
<path d="M124.566 75.8641L123.684 75.6652V74.7832L124.566 74.9821V75.8641Z" fill="black"/>
<path d="M121.922 76.149L121.043 75.9501V75.0703L121.922 75.2693V76.149Z" fill="black"/>
<path d="M122.804 76.3482L121.922 76.1493V75.2695L122.804 75.4663V76.3482Z" fill="black"/>
<path d="M127.208 74.6969L126.328 74.4979V73.6182L127.208 73.8149V74.6969Z" fill="black"/>
<path d="M128.09 74.8941L127.208 74.6974V73.8154L128.09 74.0144V74.8941Z" fill="black"/>
<path d="M126.328 75.3797L125.446 75.1808V74.2988L126.328 74.4978V75.3797Z" fill="black"/>
<path d="M126.328 76.2594L125.446 76.0604V75.1807L126.328 75.3796V76.2594Z" fill="black"/>
<path d="M127.208 76.4586L126.328 76.2596V75.3799L127.208 75.5766V76.4586Z" fill="black"/>
<path d="M128.09 76.6558L127.208 76.4591V75.5771L128.09 75.7761V76.6558Z" fill="black"/>
<path d="M128.969 76.8541L128.09 76.6552V75.7754L128.969 75.9743V76.8541Z" fill="black"/>
<path d="M126.328 77.1415L125.446 76.9425V76.0605L126.328 76.2595V77.1415Z" fill="black"/>
<path d="M125.446 61.0875L124.566 60.8885V60.0088L125.446 60.2055V61.0875Z" fill="black"/>
<path d="M125.446 62.8492L124.566 62.6503V61.7705L125.446 61.9672V62.8492Z" fill="black"/>
<path d="M125.446 63.7291L124.566 63.5324V62.6504L125.446 62.8493V63.7291Z" fill="black"/>
<path d="M122.804 64.0162L121.922 63.8173V62.9375L122.804 63.1342V64.0162Z" fill="black"/>
<path d="M123.684 64.2125L122.804 64.0158V63.1338L123.684 63.3327V64.2125Z" fill="black"/>
<path d="M126.328 64.8094L125.446 64.6105V63.7285L126.328 63.9275V64.8094Z" fill="black"/>
<path d="M128.969 65.4039L128.09 65.2049V64.3252L128.969 64.5219V65.4039Z" fill="black"/>
<path d="M125.446 65.4908L124.566 65.2941V64.4121L125.446 64.611V65.4908Z" fill="black"/>
<path d="M125.446 66.3726L124.566 66.1737V65.2939L125.446 65.4907V66.3726Z" fill="black"/>
<path d="M125.446 67.2525L124.566 67.0558V66.1738L125.446 66.3728V67.2525Z" fill="black"/>
<path d="M125.446 68.1344L124.566 67.9354V67.0557L125.446 67.2524V68.1344Z" fill="black"/>
<path d="M125.446 69.8961L124.566 69.6971V68.8174L125.446 69.0141V69.8961Z" fill="black"/>
<path d="M125.446 71.6578L124.566 71.4589V70.5791L125.446 70.7758V71.6578Z" fill="black"/>
<path d="M125.446 72.5377L124.566 72.341V71.459L125.446 71.6579V72.5377Z" fill="black"/>
<path d="M125.446 74.2994L124.566 74.1027V73.2207L125.446 73.4196V74.2994Z" fill="black"/>
<path d="M122.804 72.8248L121.922 72.6259V71.7461L122.804 71.9428V72.8248Z" fill="black"/>
<path d="M123.684 73.0221L122.804 72.8253V71.9434L123.684 72.1423V73.0221Z" fill="black"/>
<path d="M124.566 73.2203L123.684 73.0214V72.1416L124.566 72.3405V73.2203Z" fill="black"/>
<path d="M126.328 73.618L125.446 73.4191V72.5371L126.328 72.736V73.618Z" fill="black"/>
<path d="M128.09 74.0142L127.208 73.8153V72.9355L128.09 73.1323V74.0142Z" fill="black"/>
<path d="M128.969 74.2127L128.09 74.0138V73.1318L128.969 73.3308V74.2127Z" fill="black"/>
<path d="M125.446 73.4195L124.566 73.2206V72.3408L125.446 72.5376V73.4195Z" fill="black"/>
<path d="M125.446 75.1812L124.566 74.9823V74.1025L125.446 74.2993V75.1812Z" fill="black"/>
<path d="M125.446 76.0611L124.566 75.8644V74.9824L125.446 75.1814V76.0611Z" fill="black"/>
<path d="M127.208 77.3385L126.328 77.1417V76.2598L127.208 76.4587V77.3385Z" fill="black"/>
<path d="M128.969 77.7362L128.09 77.5372V76.6553L128.969 76.8542V77.7362Z" fill="black"/>
<path d="M130.731 75.4901L129.851 75.2911V74.4092L130.731 74.6081V75.4901Z" fill="black"/>
<path d="M131.613 75.6871L130.731 75.4904V74.6084L131.613 74.8073V75.6871Z" fill="black"/>
<path d="M132.493 75.8863L131.613 75.6874V74.8076L132.493 75.0066V75.8863Z" fill="black"/>
<path d="M133.375 76.0855L132.493 75.8866V75.0068L133.375 75.2036V76.0855Z" fill="black"/>
<path d="M130.731 76.3697L129.851 76.1708V75.291L130.731 75.49V76.3697Z" fill="black"/>
<path d="M133.375 76.9644L132.493 76.7677V75.8857L133.375 76.0847V76.9644Z" fill="black"/>
<path d="M130.731 77.2518L129.851 77.0529V76.1709L130.731 76.3698V77.2518Z" fill="black"/>
<path d="M133.375 77.8473L132.493 77.6483V76.7686L133.375 76.9653V77.8473Z" fill="black"/>
<path d="M130.731 78.1324L129.851 77.9335V77.0537L130.731 77.2526V78.1324Z" fill="black"/>
<path d="M131.613 78.3307L130.731 78.1317V77.252L131.613 77.4487V78.3307Z" fill="black"/>
<path d="M132.493 78.5301L131.613 78.3312V77.4492L132.493 77.6482V78.5301Z" fill="black"/>
<path d="M133.375 78.7262L132.493 78.5294V77.6475L133.375 77.8464V78.7262Z" fill="black"/>
<path d="M146.721 60.0481L149.089 56.5534L145.355 55.709L142.988 59.2059L146.721 60.0481Z" fill="#C2C8CF" stroke="black" stroke-linecap="round" stroke-linejoin="round"/>
<path d="M104.338 101.834C103.547 101.655 102.899 102.172 102.899 102.984V104.909C102.899 105.72 103.547 106.529 104.338 106.708L124.739 111.31C125.53 111.49 126.178 110.972 126.178 110.161V108.236C126.178 107.424 125.53 106.615 124.739 106.436L104.338 101.834Z" fill="black"/>
<path d="M114.277 106.023C114.277 105.663 113.989 105.302 113.638 105.223L108.021 103.956C107.789 103.903 107.588 103.987 107.475 104.153H107.473L105.722 106.737H105.724C105.667 106.823 105.631 106.929 105.631 107.053V108.145C105.631 108.505 105.919 108.866 106.27 108.945L111.887 110.212C112.119 110.265 112.32 110.181 112.433 110.015H112.435L114.186 107.431H114.184C114.241 107.345 114.277 107.239 114.277 107.115V106.023Z" fill="#2D3033"/>
<path d="M114.277 106.024C114.277 105.86 114.215 105.699 114.117 105.562L112.358 108.132L111.242 110.066L111.887 110.212C112.119 110.265 112.32 110.181 112.433 110.016H112.435L114.186 107.432H114.184C114.241 107.345 114.277 107.239 114.277 107.115V106.024Z" fill="black"/>
<path d="M112.435 110.017L114.186 107.433H114.184C114.241 107.347 114.276 107.241 114.276 107.117V106.025C114.276 105.665 113.989 105.304 113.638 105.225L108.021 103.958C107.789 103.905 107.588 103.989 107.475 104.155H107.473L105.722 106.739" stroke="black" stroke-linecap="round" stroke-linejoin="round"/>
<path d="M106.27 106.542C105.919 106.463 105.631 106.692 105.631 107.053V108.145C105.631 108.505 105.919 108.865 106.27 108.945L111.887 110.211C112.239 110.291 112.526 110.061 112.526 109.701V108.609C112.526 108.249 112.239 107.888 111.887 107.809L106.27 106.542Z" fill="#2D3033" stroke="black" stroke-linecap="round" stroke-linejoin="round"/>
<path d="M121.96 107.756C121.96 107.396 121.673 107.036 121.321 106.956L115.705 105.69C115.472 105.637 115.271 105.721 115.159 105.886H115.156L113.406 108.47H113.408C113.35 108.557 113.315 108.663 113.315 108.786V109.878C113.315 110.239 113.602 110.599 113.954 110.679L119.571 111.945C119.803 111.998 120.004 111.914 120.117 111.748H120.119L121.869 109.164H121.867C121.925 109.078 121.96 108.972 121.96 108.848V107.756Z" fill="#2D3033"/>
<path d="M121.96 107.757C121.96 107.593 121.898 107.432 121.801 107.295L120.041 109.866L118.925 111.8L119.571 111.946C119.803 111.999 120.004 111.915 120.117 111.749H120.119L121.869 109.165H121.867C121.925 109.079 121.96 108.973 121.96 108.849V107.757Z" fill="black"/>
<path d="M120.117 111.751L121.867 109.167H121.865C121.922 109.081 121.958 108.975 121.958 108.851V107.759C121.958 107.399 121.671 107.039 121.319 106.959L115.702 105.693C115.47 105.64 115.269 105.724 115.156 105.889H115.154L113.403 108.473" stroke="black" stroke-linecap="round" stroke-linejoin="round"/>
<path d="M113.954 108.276C113.602 108.197 113.315 108.427 113.315 108.787V109.879C113.315 110.239 113.602 110.6 113.954 110.679L119.571 111.946C119.922 112.025 120.209 111.796 120.209 111.435V110.343C120.209 109.983 119.922 109.623 119.571 109.543L113.954 108.276Z" fill="#2D3033" stroke="black" stroke-linecap="round" stroke-linejoin="round"/>
<path d="M65.8236 123.801L67.0084 123.118C67.729 122.702 67.729 122.021 67.0084 121.606L64.8267 120.346L65.8236 123.801Z" fill="black" stroke="black" stroke-linecap="round" stroke-linejoin="round"/>
<path d="M63.0008 120.372L37.2535 105.507C36.3959 105.012 34.9945 105.012 34.139 105.507L26.0443 110.18H22.5784V112.709C22.5784 113.034 22.7928 113.361 23.2216 113.608L51.7916 130.103C52.6493 130.598 54.0507 130.598 54.9062 130.103L65.8258 123.799C66.2546 123.551 66.469 123.226 66.469 122.899V120.37H63.003L63.0008 120.372Z" fill="white"/>
<path d="M53.6329 127.945H53.3058V130.443H53.6329V127.945Z" fill="#E9EAEB"/>
<path d="M22.5762 110.18V112.709C22.5762 113.034 22.7906 113.361 23.2194 113.608L51.7894 130.103C52.0967 130.28 52.4747 130.392 52.8726 130.443V127.163L24.2826 110.178H22.5784L22.5762 110.18Z" fill="#E9EAEB"/>
<path d="M63.0008 120.372L37.2535 105.507C36.3959 105.012 34.9945 105.012 34.139 105.507L26.0443 110.18H22.5784V112.709C22.5784 113.034 22.7928 113.361 23.2216 113.608L51.7916 130.103C52.6493 130.598 54.0507 130.598 54.9062 130.103L65.8258 123.799C66.2546 123.551 66.469 123.226 66.469 122.899V120.37H63.003L63.0008 120.372Z" stroke="black" stroke-linecap="round" stroke-linejoin="round"/>
<path d="M51.7894 127.574C52.6471 128.069 54.0485 128.069 54.904 127.574L65.8236 121.27C66.6812 120.774 66.6812 119.965 65.8236 119.47L37.2535 102.976C36.3959 102.481 34.9945 102.481 34.139 102.976L23.2194 109.28C22.3618 109.775 22.3618 110.584 23.2194 111.079L51.7894 127.574Z" fill="white" stroke="black" stroke-linecap="round" stroke-linejoin="round"/>
<path d="M33.109 116.161C33.6793 116.491 34.6121 116.491 35.1824 116.161L44.5171 110.772C45.0874 110.443 45.0874 109.906 44.5171 109.577L35.1824 104.187C34.6121 103.858 33.6793 103.858 33.109 104.187L23.7743 109.577C23.204 109.906 23.204 110.443 23.7743 110.772L33.109 116.161Z" fill="#777E87"/>
<path d="M52.2692 127.225C52.8395 127.554 53.7723 127.554 54.3426 127.225L63.6773 121.836C64.2476 121.506 64.2476 120.969 63.6773 120.64L54.3426 115.251C53.7723 114.922 52.8395 114.922 52.2692 115.251L42.9344 120.64C42.3641 120.969 42.3641 121.506 42.9344 121.836L52.2692 127.225Z" fill="#777E87"/>
<path d="M38.193 109.072C38.3455 108.983 38.4228 108.868 38.4228 108.751V108.015H37.4746L37.0015 107.741C36.6965 107.564 36.1969 107.564 35.8919 107.741L34.1456 108.749L32.3994 107.741C32.0943 107.564 31.5948 107.564 31.2897 107.741L30.8167 108.015H29.8684V108.751C29.8684 108.868 29.9458 108.983 30.0983 109.072L31.8445 110.08L30.8167 110.674H29.8684V111.41C29.8684 111.528 29.9458 111.642 30.0983 111.731L31.2897 112.418C31.5948 112.595 32.0943 112.595 32.3994 112.418L34.1456 111.41L35.8919 112.418C36.1969 112.595 36.6965 112.595 37.0015 112.418L38.193 111.731C38.3455 111.642 38.4228 111.528 38.4228 111.41V110.674H37.4746L36.4467 110.08L38.193 109.072Z" fill="#777E87" stroke="black" stroke-linecap="round" stroke-linejoin="round"/>
<path d="M33.8406 111.586L34.1434 111.411L35.8897 112.419C36.0378 112.505 36.2323 112.547 36.429 112.549V111.471L34.1434 110.675L33.8406 111.586Z" fill="black"/>
<path d="M31.7871 111.351L30.4542 110.675H29.8684V111.411C29.8684 111.528 29.9458 111.643 30.0983 111.731L31.2897 112.419C31.429 112.498 31.6058 112.54 31.7893 112.547V111.349L31.7871 111.351Z" fill="black"/>
<path d="M38.1929 110.995C38.498 110.818 38.498 110.531 38.1929 110.354L36.4467 109.346L38.1929 108.338C38.498 108.161 38.498 107.874 38.1929 107.697L37.0015 107.01C36.6965 106.833 36.1969 106.833 35.8919 107.01L34.1456 108.018L32.3994 107.01C32.0943 106.833 31.5948 106.833 31.2897 107.01L30.0983 107.697C29.7932 107.874 29.7932 108.161 30.0983 108.338L31.8445 109.346L30.0983 110.354C29.7932 110.531 29.7932 110.818 30.0983 110.995L31.2897 111.682C31.5948 111.859 32.0943 111.859 32.3994 111.682L34.1456 110.675L35.8919 111.682C36.1969 111.859 36.6965 111.859 37.0015 111.682L38.1929 110.995Z" fill="black" stroke="black" stroke-linecap="round" stroke-linejoin="round"/>
<path d="M34.1258 109.696C34.4591 109.696 34.7292 109.539 34.7292 109.346C34.7292 109.153 34.4591 108.997 34.1258 108.997C33.7925 108.997 33.5223 109.153 33.5223 109.346C33.5223 109.539 33.7925 109.696 34.1258 109.696Z" fill="#2FFD76"/>
<path d="M35.735 107.916L36.5175 108.367L36.7297 107.792L35.735 107.916Z" fill="white"/>
<path d="M32.4414 110.745L31.6611 110.294L31.4467 110.866L32.4414 110.745Z" fill="white"/>
<path d="M35.735 110.745L36.5175 110.294L36.7297 110.866L35.735 110.745Z" fill="white"/>
<path d="M32.4414 107.916L31.6611 108.367L31.4467 107.792L32.4414 107.916Z" fill="white"/>
<path d="M51.2966 119.439H55.6401C57.2515 119.439 58.5579 120.193 58.5579 121.124C58.5579 122.054 57.2515 122.808 55.6401 122.808H51.2966C49.6852 122.808 48.3788 122.054 48.3788 121.124C48.3788 120.193 49.6852 119.439 51.2966 119.439Z" fill="white"/>
<path d="M57.4107 120.72C57.4107 120.157 56.6194 119.699 55.6424 119.699C54.6654 119.699 53.874 120.157 53.874 120.72V121.384C53.874 121.947 54.6654 122.405 55.6424 122.405C56.6194 122.405 57.4107 121.947 57.4107 121.384V120.72Z" fill="#777E87"/>
<path d="M53.8717 120.721V121.384C53.8717 121.948 54.663 122.405 55.6401 122.405V120.721H53.8717Z" fill="black"/>
<path d="M55.6401 121.742C56.6167 121.742 57.4084 121.284 57.4084 120.72C57.4084 120.156 56.6167 119.699 55.6401 119.699C54.6634 119.699 53.8717 120.156 53.8717 120.72C53.8717 121.284 54.6634 121.742 55.6401 121.742Z" fill="#2FFD76"/>
<path d="M57.4107 120.72C57.4107 120.157 56.6194 119.699 55.6424 119.699C54.6654 119.699 53.874 120.157 53.874 120.72V121.384C53.874 121.947 54.6654 122.405 55.6424 122.405C56.6194 122.405 57.4107 121.947 57.4107 121.384V120.72Z" stroke="black" stroke-linecap="round" stroke-linejoin="round"/>
<path d="M53.065 120.72C53.065 120.157 52.2737 119.699 51.2967 119.699C50.3197 119.699 49.5283 120.157 49.5283 120.72V121.384C49.5283 121.947 50.3197 122.405 51.2967 122.405C52.2737 122.405 53.065 121.947 53.065 121.384V120.72Z" fill="#777E87"/>
<path d="M49.526 120.721V121.384C49.526 121.948 50.3173 122.405 51.2944 122.405V120.721H49.526Z" fill="black"/>
<path d="M51.2967 121.742C52.2733 121.742 53.065 121.284 53.065 120.72C53.065 120.156 52.2733 119.699 51.2967 119.699C50.32 119.699 49.5283 120.156 49.5283 120.72C49.5283 121.284 50.32 121.742 51.2967 121.742Z" fill="black"/>
<path d="M53.065 120.72C53.065 120.157 52.2737 119.699 51.2967 119.699C50.3197 119.699 49.5283 120.157 49.5283 120.72V121.384C49.5283 121.947 50.3197 122.405 51.2967 122.405C52.2737 122.405 53.065 121.947 53.065 121.384V120.72Z" stroke="black" stroke-linecap="round" stroke-linejoin="round"/>
<path d="M43.823 115.003L41.491 113.656C41.1904 113.482 40.6975 113.482 40.3968 113.656C40.2465 113.743 40.1714 113.858 40.1714 113.972V114.576C40.1714 114.691 40.2465 114.806 40.3968 114.892L42.7068 116.225V115.621L43.823 115.003Z" fill="white" stroke="black" stroke-linecap="round" stroke-linejoin="round"/>
<path d="M46.2789 117.654C46.4292 117.568 46.5043 117.453 46.5043 117.338V116.735C46.5043 116.62 46.4292 116.505 46.2789 116.419L43.8253 115.002L42.709 115.621V116.224L45.1847 117.654C45.4853 117.829 45.9782 117.829 46.2789 117.654Z" fill="#2FFD76" stroke="black" stroke-linecap="round" stroke-linejoin="round"/>
<path d="M45.1825 117.052C45.4831 117.226 45.976 117.226 46.2766 117.052C46.5773 116.877 46.5773 116.594 46.2766 116.419L41.491 113.656C41.1904 113.482 40.6975 113.482 40.3969 113.656C40.0962 113.831 40.0962 114.114 40.3969 114.289L45.1825 117.052Z" stroke="black" stroke-linecap="round" stroke-linejoin="round"/>
<path d="M101.615 136.09C96.3541 136.09 91.8868 134.331 89.7582 132.107C88.5093 130.803 88.0495 129.322 88.4651 127.938C88.9624 126.278 90.9386 123.984 97.5323 122.478L105.667 120.622C107.004 120.317 108.286 120.12 109.5 120.016L116.326 110.087C116.498 109.835 116.843 109.771 117.095 109.945C117.347 110.118 117.411 110.462 117.236 110.714L110.894 119.941C116.911 119.782 121.014 122.038 121.695 124.888C122.159 126.831 120.95 129.331 116.164 130.524L114.215 131.011C110.074 132.043 108.178 130.783 107.316 129.543C106.025 127.684 106.312 124.658 108.012 122.182L108.68 121.212C107.798 121.32 106.876 121.481 105.912 121.702L97.7777 123.559C91.3828 125.018 89.8621 127.131 89.5239 128.259C89.1459 129.523 89.8775 130.635 90.5584 131.344C94.0155 134.954 101.756 135.673 107.241 134.282L136.918 126.762C139.708 126.057 143.032 127.569 144.332 130.135C144.469 130.407 144.361 130.741 144.089 130.878C143.817 131.015 143.483 130.907 143.346 130.635C142.285 128.539 139.464 127.257 137.19 127.834L107.512 135.354C105.492 135.865 103.505 136.093 101.617 136.093L101.615 136.09ZM110.112 121.075L108.921 122.808C107.497 124.879 107.203 127.447 108.222 128.913C109.173 130.281 111.151 130.637 113.945 129.939L115.894 129.452C119.243 128.617 121.054 126.966 120.618 125.144C120.086 122.912 116.264 120.681 110.112 121.075Z" fill="white"/>
<path d="M170.764 136.675L165.42 135.437L164.016 133.364C163.574 132.712 162.298 132.387 161.173 132.641L141.368 137.111L122.681 135.3V137.829C122.681 137.984 122.727 138.141 122.831 138.293L129.427 148.035C129.869 148.687 131.144 149.012 132.269 148.758L169.372 140.387C170.234 140.192 170.762 139.712 170.76 139.204V136.675H170.764Z" fill="white"/>
<path d="M131.08 146.291V148.831" stroke="#E9EAEB" stroke-linecap="round" stroke-linejoin="round"/>
<path d="M122.681 135.299V137.828C122.681 137.982 122.727 138.139 122.831 138.292L129.427 148.033C129.628 148.332 130.004 148.559 130.459 148.696V145.571L123.443 135.476L122.678 135.299H122.681Z" fill="#E9EAEB"/>
<path d="M170.764 136.675L165.42 135.437L164.016 133.364C163.574 132.712 162.298 132.387 161.173 132.641L141.368 137.111L122.681 135.3V137.829C122.681 137.984 122.727 138.141 122.831 138.293L129.427 148.035C129.869 148.687 131.144 149.012 132.269 148.758L169.372 140.387C170.234 140.192 170.762 139.712 170.76 139.204V136.675H170.764Z" stroke="black" stroke-linecap="round" stroke-linejoin="round"/>
<path d="M170.612 136.211C171.054 136.863 170.497 137.601 169.372 137.856L132.269 146.226C131.144 146.481 129.869 146.156 129.427 145.504L122.831 135.762C122.389 135.11 122.944 134.372 124.071 134.118L161.173 125.747C162.298 125.493 163.574 125.817 164.016 126.47L170.612 136.211Z" fill="white" stroke="black" stroke-linecap="round" stroke-linejoin="round"/>
<path d="M169.701 136.302C169.973 136.704 169.631 137.157 168.939 137.312L157.075 139.989C156.383 140.146 155.599 139.944 155.327 139.544L149.82 131.414C149.549 131.012 149.891 130.559 150.583 130.404L162.447 127.727C163.138 127.57 163.923 127.771 164.195 128.172L169.701 136.302Z" fill="#777E87"/>
<path d="M144.513 141.985C144.785 142.387 144.442 142.841 143.751 142.995L131.887 145.672C131.195 145.829 130.41 145.628 130.139 145.228L124.632 137.098C124.36 136.696 124.703 136.242 125.395 136.088L137.258 133.411C137.95 133.254 138.735 133.455 139.007 133.855L144.513 141.985Z" fill="#777E87"/>
<path d="M139.431 138.724H139.029L138.461 137.884C138.297 137.641 137.822 137.522 137.404 137.614L135.344 138.079L134.433 136.735C134.27 136.492 133.795 136.372 133.377 136.465L132.915 136.569H131.321V137.25C131.321 137.307 131.337 137.365 131.376 137.422L132.287 138.766L131.078 139.038V138.987H129.71V139.668C129.71 139.725 129.725 139.783 129.765 139.84L130.678 141.189C130.841 141.432 131.317 141.551 131.734 141.458L133.795 140.994L134.705 142.338C134.869 142.581 135.344 142.701 135.762 142.608L137.3 142.261C137.621 142.188 137.815 142.011 137.815 141.821V141.14H137.413L136.847 140.305L138.907 139.84C139.228 139.767 139.422 139.591 139.422 139.401V138.72L139.431 138.724Z" fill="#777E87" stroke="black" stroke-linecap="round" stroke-linejoin="round"/>
<path d="M135.119 139.539L133.797 140.317L133.388 141.091L133.797 140.998L134.708 142.342C134.787 142.459 134.937 142.545 135.119 142.596V139.539Z" fill="black"/>
<path d="M129.712 138.99V139.671C129.712 139.729 129.727 139.786 129.767 139.844L130.68 141.192C130.773 141.329 130.965 141.424 131.189 141.468V140.529L130.052 138.988H129.71L129.712 138.99Z" fill="black"/>
<path d="M131.715 136.57H131.323V137.251C131.323 137.309 131.339 137.366 131.379 137.424L132.289 138.767V137.096L131.715 136.57Z" fill="black"/>
<path d="M139.376 138.551L138.463 137.203C138.3 136.959 137.824 136.84 137.407 136.933L135.346 137.397L134.436 136.053C134.272 135.81 133.797 135.691 133.379 135.783L131.841 136.13C131.423 136.226 131.215 136.5 131.379 136.743L132.289 138.087L130.229 138.551C129.812 138.646 129.604 138.92 129.767 139.163L130.68 140.512C130.844 140.755 131.319 140.874 131.737 140.781L133.797 140.317L134.708 141.661C134.871 141.904 135.346 142.024 135.764 141.931L137.303 141.584C137.721 141.489 137.928 141.214 137.763 140.971L136.852 139.627L138.912 139.163C139.33 139.068 139.538 138.794 139.372 138.551H139.376Z" fill="black" stroke="black" stroke-linecap="round" stroke-linejoin="round"/>
<path d="M134.573 139.208C134.906 139.208 135.176 139.052 135.176 138.859C135.176 138.666 134.906 138.51 134.573 138.51C134.239 138.51 133.969 138.666 133.969 138.859C133.969 139.052 134.239 139.208 134.573 139.208Z" fill="#2FFD76"/>
<path d="M135.176 140.676L136.219 140.441L136.06 141.069L135.176 140.676Z" fill="white"/>
<path d="M133.965 137.048L132.924 137.282L133.081 136.656L133.965 137.048Z" fill="white"/>
<path d="M131.799 139.018L132.342 139.824L131.242 139.588L131.799 139.018Z" fill="white"/>
<path d="M137.356 138.666L136.81 137.859L137.91 138.096L137.356 138.666Z" fill="white"/>
<path d="M163.737 132.386C163.737 131.528 162.535 130.834 161.049 130.834C159.876 130.834 158.879 131.269 158.514 131.875H158.512L156.936 134.49H156.938C156.841 134.651 156.788 134.822 156.788 135.001C156.788 135.858 157.99 136.552 159.476 136.552C160.649 136.552 161.646 136.117 162.011 135.511H162.013L163.589 132.896H163.587C163.684 132.735 163.737 132.565 163.737 132.386Z" fill="white"/>
<path d="M162.818 131.722C162.818 131.159 162.027 130.701 161.049 130.701C160.072 130.701 159.281 131.159 159.281 131.722V132.386C159.281 132.949 160.072 133.407 161.049 133.407C162.027 133.407 162.818 132.949 162.818 132.386V131.722Z" fill="#777E87"/>
<path d="M159.281 131.723V132.386C159.281 132.949 160.072 133.407 161.049 133.407V131.723H159.281Z" fill="black"/>
<path d="M161.049 132.744C162.026 132.744 162.818 132.286 162.818 131.722C162.818 131.158 162.026 130.701 161.049 130.701C160.073 130.701 159.281 131.158 159.281 131.722C159.281 132.286 160.073 132.744 161.049 132.744Z" fill="#2FFD76"/>
<path d="M162.818 131.722C162.818 131.159 162.027 130.701 161.049 130.701C160.072 130.701 159.281 131.159 159.281 131.722V132.386C159.281 132.949 160.072 133.407 161.049 133.407C162.027 133.407 162.818 132.949 162.818 132.386V131.722Z" stroke="black" stroke-linecap="round" stroke-linejoin="round"/>
<path d="M161.242 134.427C161.242 133.864 160.45 133.406 159.473 133.406C158.496 133.406 157.705 133.864 157.705 134.427V135.091C157.705 135.654 158.496 136.112 159.473 136.112C160.45 136.112 161.242 135.654 161.242 135.091V134.427Z" fill="#777E87"/>
<path d="M157.703 134.428V135.091C157.703 135.655 158.494 136.112 159.471 136.112V134.428H157.703Z" fill="black"/>
<path d="M159.473 135.449C160.45 135.449 161.242 134.991 161.242 134.427C161.242 133.863 160.45 133.406 159.473 133.406C158.497 133.406 157.705 133.863 157.705 134.427C157.705 134.991 158.497 135.449 159.473 135.449Z" fill="black"/>
<path d="M161.242 134.427C161.242 133.864 160.45 133.406 159.473 133.406C158.496 133.406 157.705 133.864 157.705 134.427V135.091C157.705 135.654 158.496 136.112 159.473 136.112C160.45 136.112 161.242 135.654 161.242 135.091V134.427Z" stroke="black" stroke-linecap="round" stroke-linejoin="round"/>
<path d="M151.065 135.493C151.065 135.433 151.047 135.373 151.007 135.314C150.837 135.062 150.346 134.938 149.911 135.035L146.69 135.762L147.309 136.675V137.159L150.528 136.432C150.859 136.357 151.063 136.173 151.063 135.977V135.493H151.065Z" fill="#2FFD76" stroke="black" stroke-linecap="round" stroke-linejoin="round"/>
<path d="M147.311 136.673L146.693 135.76L143.269 136.533C142.937 136.609 142.734 136.792 142.734 136.989V137.473C142.734 137.533 142.751 137.592 142.791 137.652C142.961 137.904 143.452 138.028 143.887 137.93L147.311 137.157V136.673Z" fill="white" stroke="black" stroke-linecap="round" stroke-linejoin="round"/>
<path d="M151.007 135.314C151.178 135.566 150.963 135.849 150.53 135.948L143.888 137.447C143.454 137.544 142.964 137.42 142.791 137.168C142.621 136.916 142.835 136.633 143.269 136.534L149.911 135.035C150.344 134.938 150.835 135.062 151.007 135.314Z" stroke="black" stroke-linecap="round" stroke-linejoin="round"/>
<path d="M93.9316 144.187C93.9161 144.187 93.9006 144.187 93.8851 144.185C92.7026 144.021 91.5951 143.734 90.596 143.334C90.4258 143.265 90.344 143.073 90.4103 142.903C90.4788 142.733 90.6712 142.649 90.8414 142.717C91.7919 143.097 92.8462 143.369 93.9758 143.526C94.157 143.551 94.283 143.719 94.2587 143.9C94.2366 144.066 94.0929 144.185 93.9316 144.185V144.187Z" fill="#2FFD76"/>
<path d="M101.195 132.504C101.065 132.504 100.936 132.458 100.83 132.367C97.528 129.465 97.8175 124.224 101.591 118.684L108.677 108.282C108.85 108.03 109.192 107.964 109.444 108.136C109.696 108.309 109.763 108.651 109.59 108.903L102.504 119.305C99.0709 124.345 98.7083 129.031 101.558 131.536C101.787 131.737 101.81 132.086 101.608 132.316C101.5 132.44 101.345 132.504 101.193 132.504H101.195Z" fill="white"/>
<path d="M101.995 132.987C101.918 132.987 101.841 132.96 101.776 132.905L100.976 132.202C97.7622 129.379 98.0695 124.249 101.774 118.811L108.861 108.409C108.965 108.259 109.17 108.219 109.321 108.323C109.471 108.427 109.511 108.632 109.409 108.782L102.322 119.185C98.821 124.324 98.4718 129.121 101.414 131.705L102.214 132.408C102.351 132.529 102.364 132.737 102.245 132.876C102.179 132.951 102.088 132.989 101.995 132.989V132.987Z" fill="#2FFD76"/>
<path d="M49.1478 67.7115L50.7239 67.2473V65.6094L49.1478 66.0758V67.7115Z" fill="#2FFD76"/>
<path d="M49.1478 68.6288L50.7239 68.1647V67.6562L49.1478 68.1227V68.6288Z" fill="#2FFD76"/>
<path d="M51.0488 68.0683L52.6227 67.6041V67.0957L51.0488 67.5621V68.0683Z" fill="#2FFD76"/>
<path d="M52.9476 62.4957L54.5237 62.0293V60.3936L52.9476 60.8577V62.4957Z" fill="#2FFD76"/>
<path d="M52.9476 64.5426L54.5237 64.0762V62.4404L52.9476 62.9046V64.5426Z" fill="#2FFD76"/>
<path d="M52.9476 66.5894L54.5237 66.123V64.4873L52.9476 64.9537V66.5894Z" fill="#2FFD76"/>
<path d="M52.9476 67.5068L54.5237 67.0404V66.5342L52.9476 67.0006V67.5068Z" fill="#2FFD76"/>
<path d="M54.8485 59.8873L56.4223 59.4209V57.7852L54.8485 58.2494V59.8873Z" fill="#2FFD76"/>
<path d="M54.8485 61.9342L56.4223 61.4678V59.832L54.8485 60.2962V61.9342Z" fill="#2FFD76"/>
<path d="M54.8485 63.981L56.4223 63.5146V61.8789L54.8485 62.3431V63.981Z" fill="#2FFD76"/>
<path d="M54.8485 66.0279L56.4223 65.5615V63.9258L54.8485 64.39V66.0279Z" fill="#2FFD76"/>
<path d="M54.8485 66.9453L56.4223 66.4789V65.9727L54.8485 66.4391V66.9453Z" fill="#2FFD76"/>
<path d="M56.7473 61.3726L58.3234 60.9062V59.2705L56.7473 59.7347V61.3726Z" fill="#2FFD76"/>
<path d="M56.7473 63.4195L58.3234 62.9531V61.3174L56.7473 61.7816V63.4195Z" fill="#2FFD76"/>
<path d="M56.7473 65.4664L58.3234 65V63.3643L56.7473 63.8285V65.4664Z" fill="#2FFD76"/>
<path d="M56.7473 66.3837L58.3234 65.9173V65.4111L56.7473 65.8753V66.3837Z" fill="#2FFD76"/>
<path d="M58.6483 62.858L60.2222 62.3916V60.7559L58.6483 61.2201V62.858Z" fill="#2FFD76"/>
<path d="M58.6483 64.9049L60.2222 64.4385V62.8027L58.6483 63.2669V64.9049Z" fill="#2FFD76"/>
<path d="M58.6483 65.8222L60.2222 65.3558V64.8496L58.6483 65.3138V65.8222Z" fill="#2FFD76"/>
<path d="M60.5471 58.2008L62.121 57.7366V56.0986L60.5471 56.565V58.2008Z" fill="#2FFD76"/>
<path d="M60.5471 60.2496L62.121 59.7832V58.1475L60.5471 58.6117V60.2496Z" fill="#2FFD76"/>
<path d="M60.5471 62.2965L62.121 61.8301V60.1943L60.5471 60.6585V62.2965Z" fill="#2FFD76"/>
<path d="M60.5471 64.3433L62.121 63.8769V62.2412L60.5471 62.7054V64.3433Z" fill="#2FFD76"/>
<path d="M60.5471 65.2607L62.121 64.7943V64.2881L60.5471 64.7523V65.2607Z" fill="#2FFD76"/>
<path d="M62.4481 57.6392L64.022 57.1751V55.5371L62.4481 56.0035V57.6392Z" fill="#2FFD76"/>
<path d="M62.4481 59.6861L64.022 59.2219V57.584L62.4481 58.0504V59.6861Z" fill="#2FFD76"/>
<path d="M62.4481 55.5924L64.022 55.1282V53.4902L62.4481 53.9566V55.5924Z" fill="#2FFD76"/>
<path d="M62.4481 53.5455L64.022 53.0813V51.4434L62.4481 51.9098V53.5455Z" fill="#2FFD76"/>
<path d="M62.4481 61.7327L64.022 61.2685V59.6328L62.4481 60.097V61.7327Z" fill="#2FFD76"/>
<path d="M62.4481 63.7818L64.022 63.3154V61.6797L62.4481 62.1439V63.7818Z" fill="#2FFD76"/>
<path d="M62.4481 64.6992L64.022 64.2328V63.7266L62.4481 64.1908V64.6992Z" fill="#2FFD76"/>
<path d="M64.3468 57.0777L65.9206 56.6135V54.9756L64.3468 55.442V57.0777Z" fill="#2FFD76"/>
<path d="M64.3468 59.1246L65.9206 58.6604V57.0225L64.3468 57.4889V59.1246Z" fill="#2FFD76"/>
<path d="M64.3468 55.0308L65.9206 54.5667V52.9287L64.3468 53.3951V55.0308Z" fill="#2FFD76"/>
<path d="M64.3468 61.1715L65.9206 60.7073V59.0693L64.3468 59.5357V61.1715Z" fill="#2FFD76"/>
<path d="M64.3468 63.2183L65.9206 62.7542V61.1162L64.3468 61.5826V63.2183Z" fill="#2FFD76"/>
<path d="M64.3468 64.1376L65.9206 63.6712V63.165L64.3468 63.6292V64.1376Z" fill="#2FFD76"/>
<path d="M66.2478 60.6099L67.8216 60.1458V58.5078L66.2478 58.9742V60.6099Z" fill="#2FFD76"/>
<path d="M66.2478 62.6568L67.8216 62.1926V60.5547L66.2478 61.0211V62.6568Z" fill="#2FFD76"/>
<path d="M66.2478 63.5742L67.8216 63.11V62.6016L66.2478 63.068V63.5742Z" fill="#2FFD76"/>
<path d="M68.1466 55.9547L69.7204 55.4905V53.8525L68.1466 54.3189V55.9547Z" fill="#2FFD76"/>
<path d="M68.1466 58.0016L69.7204 57.5374V55.8994L68.1466 56.3658V58.0016Z" fill="#2FFD76"/>
<path d="M68.1466 60.0484L69.7204 59.5842V57.9463L68.1466 58.4127V60.0484Z" fill="#2FFD76"/>
<path d="M68.1466 62.0953L69.7204 61.6311V59.9932L68.1466 60.4596V62.0953Z" fill="#2FFD76"/>
<path d="M68.1466 63.0126L69.7204 62.5484V62.04L68.1466 62.5064V63.0126Z" fill="#2FFD76"/>
<path d="M70.0476 55.3932L71.6214 54.9267V53.291L70.0476 53.7574V55.3932Z" fill="#2FFD76"/>
<path d="M70.0476 57.44L71.6214 56.9758V55.3379L70.0476 55.8043V57.44Z" fill="#2FFD76"/>
<path d="M70.0476 53.3463L71.6214 52.8799V51.2441L70.0476 51.7105V53.3463Z" fill="#2FFD76"/>
<path d="M70.0476 59.4869L71.6214 59.0227V57.3848L70.0476 57.8512V59.4869Z" fill="#2FFD76"/>
<path d="M70.0476 61.5338L71.6214 61.0696V59.4316L70.0476 59.898V61.5338Z" fill="#2FFD76"/>
<path d="M70.0476 62.4511L71.6214 61.9869V61.4785L70.0476 61.9449V62.4511Z" fill="#2FFD76"/>
<path d="M71.9464 58.9254L73.5202 58.4612V56.8232L71.9464 57.2896V58.9254Z" fill="#2FFD76"/>
<path d="M71.9464 60.9723L73.5202 60.5081V58.8701L71.9464 59.3365V60.9723Z" fill="#2FFD76"/>
<path d="M71.9464 61.8896L73.5202 61.4254V60.917L71.9464 61.3834V61.8896Z" fill="#2FFD76"/>
<path d="M73.8474 56.317L75.4212 55.8506V54.2148L73.8474 54.6813V56.317Z" fill="#2FFD76"/>
<path d="M75.7461 47.0797L77.3199 46.6133V44.9775L75.7461 45.4417V47.0797Z" fill="#2FFD76"/>
<path d="M75.7461 45.0328L77.3199 44.5664V42.9307L75.7461 43.3949V45.0328Z" fill="#2FFD76"/>
<path d="M75.7461 42.9859L77.3199 42.5195V40.8838L75.7461 41.348V42.9859Z" fill="#2FFD76"/>
<path d="M73.8474 58.3639L75.4212 57.8974V56.2617L73.8474 56.7281V58.3639Z" fill="#2FFD76"/>
<path d="M73.8474 60.4107L75.4212 59.9443V58.3086L73.8474 58.775V60.4107Z" fill="#2FFD76"/>
<path d="M73.8474 61.3281L75.4212 60.8639V60.3555L73.8474 60.8219V61.3281Z" fill="#2FFD76"/>
<path d="M75.7461 60.7665L77.3199 60.3001V59.7939L75.7461 60.2603V60.7665Z" fill="#2FFD76"/>
<path d="M77.6449 60.205L79.2209 59.7386V59.2324L77.6449 59.6988V60.205Z" fill="#2FFD76"/>
<path d="M79.5459 59.6435L81.1197 59.1771V58.6709L79.5459 59.1351V59.6435Z" fill="#2FFD76"/>
<path d="M81.4447 59.082L83.0208 58.6156V58.1094L81.4447 58.5736V59.082Z" fill="#2FFD76"/>
<path d="M50.5426 40.7881V41.3717L49.9922 41.5353V40.9628C49.7247 40.9959 49.5147 40.9318 49.3622 40.766C49.2097 40.6025 49.1257 40.3505 49.1102 40.0101L49.7247 39.8288C49.7468 40.0299 49.7977 40.1604 49.8817 40.22C49.9657 40.2797 50.0917 40.2864 50.2575 40.2355C50.5647 40.1449 50.7172 39.9371 50.7172 39.6144C50.7172 39.4685 50.6863 39.3668 50.6266 39.3093C50.5669 39.2519 50.4674 39.2276 50.3326 39.2386L50.0718 39.2607C49.7734 39.2872 49.5501 39.2342 49.4064 39.0993C49.2627 38.9667 49.1898 38.7435 49.1898 38.434C49.1898 38.1245 49.2605 37.8549 49.4042 37.6139C49.5457 37.373 49.7424 37.1873 49.9922 37.0547V36.564L50.5426 36.4004V36.8977C50.7747 36.8867 50.9582 36.9574 51.093 37.1122C51.2278 37.2647 51.3052 37.4924 51.3229 37.793L50.6929 37.9786C50.6796 37.804 50.6354 37.6869 50.5647 37.6294C50.494 37.5697 50.3857 37.5609 50.2442 37.6029C50.1116 37.6427 50.0121 37.7112 49.9391 37.8151C49.8684 37.9168 49.833 38.0428 49.833 38.1909C49.833 38.3235 49.8662 38.4163 49.9347 38.4716C50.0033 38.5268 50.1138 38.5467 50.2663 38.5357L50.5713 38.5136C50.8388 38.4937 51.0377 38.5512 51.1726 38.6904C51.3052 38.8297 51.3737 39.0529 51.3737 39.3646C51.3737 39.6962 51.3008 39.9813 51.1549 40.2245C51.009 40.4654 50.8056 40.6555 50.547 40.7903L50.5426 40.7881Z" fill="#2FFD76"/>
<path d="M53.6505 37.5879C53.7853 37.3359 53.8538 37.1148 53.8538 36.9247V36.8385C53.8538 36.6904 53.8185 36.5821 53.7499 36.5158C53.6814 36.4495 53.5864 36.434 53.4692 36.4694C53.3521 36.5047 53.2592 36.5777 53.1907 36.6882C53.1222 36.7987 53.089 36.9358 53.089 37.0971V37.1966L52.4104 37.3978V37.2497C52.4104 37.0264 52.4546 36.8142 52.5408 36.6153C52.627 36.4163 52.753 36.2417 52.9166 36.0936C53.0802 35.9455 53.2725 35.8394 53.4935 35.7731C53.7079 35.709 53.8958 35.7068 54.0572 35.762C54.2185 35.8173 54.3445 35.919 54.4308 36.0671C54.5192 36.2152 54.5612 36.3942 54.5612 36.6064V36.7125C54.5612 36.8982 54.5324 37.0795 54.475 37.2541C54.4175 37.4287 54.3335 37.6144 54.2252 37.8133L53.3056 39.4712L54.5612 39.0998V39.8138L52.4259 40.446V39.8005L53.6483 37.5945L53.6505 37.5879Z" fill="#2FFD76"/>
<path d="M55.6067 38.514V38.4212L56.2477 38.2311V38.2686C56.2477 38.4013 56.2831 38.4941 56.3538 38.5472C56.4245 38.6002 56.524 38.6091 56.6478 38.5715C56.7826 38.5317 56.8843 38.4521 56.9506 38.3305C57.017 38.209 57.0501 38.052 57.0501 37.8575V37.5348C57.0501 37.3314 57.017 37.1922 56.9506 37.1126C56.8843 37.0352 56.7826 37.0153 56.6434 37.0573C56.4643 37.1104 56.3383 37.2452 56.2632 37.4618L55.6597 37.6409V35.1983L57.6514 34.6104V35.3066L56.2632 35.7178V36.686C56.4047 36.5113 56.5793 36.3942 56.7871 36.3323C57.0965 36.2417 57.3308 36.277 57.49 36.445C57.6491 36.6108 57.7287 36.8937 57.7287 37.2916V37.6961C57.7287 38.0896 57.6337 38.4234 57.4436 38.6997C57.2535 38.976 56.9882 39.1639 56.65 39.2633C56.3295 39.3584 56.0753 39.3407 55.8896 39.2081C55.7017 39.0777 55.6089 38.8456 55.6089 38.514H55.6067Z" fill="#2FFD76"/>
<path d="M58.7964 37.1496V35.6332C58.7964 35.1646 58.8892 34.7822 59.0771 34.4838C59.265 34.1854 59.5369 33.9843 59.8972 33.8782C60.2708 33.7676 60.5471 33.8052 60.7283 33.9931C60.9096 34.181 60.998 34.5103 60.998 34.9812V36.4975C60.998 36.986 60.9074 37.3817 60.7283 37.6823C60.5493 37.983 60.2708 38.1907 59.8972 38.3013C59.5236 38.4118 59.2473 38.3698 59.0661 38.1775C58.887 37.983 58.7964 37.6403 58.7964 37.1474V37.1496ZM60.2973 36.6368V35.3083C60.2973 35.0011 60.2708 34.7955 60.2155 34.6872C60.1602 34.5789 60.0541 34.5479 59.8972 34.5943C59.7402 34.6408 59.6364 34.7336 59.5811 34.8751C59.528 35.0143 59.5015 35.2376 59.5015 35.5448V36.8733C59.5015 37.1806 59.528 37.3883 59.5833 37.4989C59.6386 37.6094 59.7425 37.6403 59.895 37.5961C60.0519 37.5497 60.158 37.4547 60.2133 37.3132C60.2685 37.1717 60.2951 36.9463 60.2951 36.639L60.2973 36.6368Z" fill="#2FFD76"/>
<path d="M62.0657 36.1818V34.6655C62.0657 34.1969 62.1585 33.8144 62.3464 33.516C62.5343 33.2176 62.8062 33.0165 63.1665 32.9104C63.54 32.7999 63.8163 32.8374 63.9976 33.0253C64.1789 33.2132 64.2673 33.5426 64.2673 34.0134V35.5298C64.2673 36.0183 64.1766 36.4139 63.9976 36.7146C63.8186 37.0152 63.54 37.223 63.1665 37.3335C62.7929 37.444 62.5166 37.402 62.3353 37.2097C62.1563 37.0152 62.0657 36.6726 62.0657 36.1796V36.1818ZM63.5666 35.669V34.3405C63.5666 34.0333 63.54 33.8277 63.4848 33.7194C63.4295 33.6111 63.3234 33.5801 63.1665 33.6266C63.0095 33.673 62.9056 33.7658 62.8504 33.9073C62.7973 34.0465 62.7708 34.2698 62.7708 34.5771V35.9055C62.7708 36.2128 62.7973 36.4206 62.8526 36.5311C62.9079 36.6416 63.0117 36.6726 63.1643 36.6283C63.3212 36.5819 63.4273 36.4869 63.4826 36.3454C63.5378 36.2039 63.5644 35.9785 63.5644 35.6712L63.5666 35.669Z" fill="#2FFD76"/>
</svg>
