<svg width="535" height="521" viewBox="0 0 535 521" fill="none" xmlns="http://www.w3.org/2000/svg">
<path d="M278.706 274.769L215.412 201.564C210.638 196.048 199.236 193.849 189.951 196.659L66.7207 233.963C64.9225 234.509 63.3392 235.201 61.9866 235.999L6.54565 268.773L19.8808 285.05L51.3169 289.164L94.107 338.655C98.8809 344.17 110.275 346.37 119.568 343.559L214.489 314.826L219.828 320.602L275.269 287.828C280.918 284.488 282.565 279.234 278.714 274.777L278.706 274.769Z" fill="#118338"/>
<path d="M11.2719 266.728L134.502 229.425C143.795 226.614 155.197 228.806 159.963 234.329L223.257 307.535C224.681 309.181 225.358 310.94 225.35 312.675L225.429 88.4478C225.429 86.7125 224.761 84.961 223.337 83.3073L160.043 10.1017C155.269 4.58645 143.875 2.38686 134.582 5.19745L11.3514 42.5008C4.83504 44.4723 1.08753 48.3827 1.07957 52.4479L1 276.675C1.00796 272.61 4.75547 268.7 11.2719 266.728Z" fill="#118338" stroke="black" stroke-linecap="round" stroke-linejoin="round"/>
<path d="M223.265 307.543C228.039 313.058 224.371 319.82 215.086 322.631L91.8553 359.934C82.5622 362.745 71.1605 360.553 66.3945 355.03L3.10053 281.824C-1.67337 276.309 1.98662 269.555 11.2798 266.737L134.51 229.433C143.803 226.623 155.205 228.814 159.971 234.338L223.265 307.543Z" fill="#2FFD76" stroke="black" stroke-linecap="round" stroke-linejoin="round"/>
<path d="M206.286 313.475C206.703 313.475 207.042 313.128 207.042 312.701C207.042 312.273 206.703 311.927 206.286 311.927C205.868 311.927 205.53 312.273 205.53 312.701C205.53 313.128 205.868 313.475 206.286 313.475Z" fill="#777E87"/>
<path d="M185.838 319.665C186.255 319.665 186.594 319.319 186.594 318.891C186.594 318.464 186.255 318.117 185.838 318.117C185.42 318.117 185.082 318.464 185.082 318.891C185.082 319.319 185.42 319.665 185.838 319.665Z" fill="#777E87"/>
<path d="M165.397 325.849C165.815 325.849 166.153 325.502 166.153 325.075C166.153 324.647 165.815 324.301 165.397 324.301C164.98 324.301 164.641 324.647 164.641 325.075C164.641 325.502 164.98 325.849 165.397 325.849Z" fill="#777E87"/>
<path d="M144.957 332.04C145.375 332.04 145.713 331.694 145.713 331.266C145.713 330.839 145.375 330.492 144.957 330.492C144.54 330.492 144.201 330.839 144.201 331.266C144.201 331.694 144.54 332.04 144.957 332.04Z" fill="#777E87"/>
<path d="M124.509 338.231C124.926 338.231 125.265 337.885 125.265 337.458C125.265 337.03 124.926 336.684 124.509 336.684C124.091 336.684 123.753 337.03 123.753 337.458C123.753 337.885 124.091 338.231 124.509 338.231Z" fill="#777E87"/>
<path d="M104.069 344.415C104.486 344.415 104.824 344.069 104.824 343.641C104.824 343.214 104.486 342.867 104.069 342.867C103.651 342.867 103.313 343.214 103.313 343.641C103.313 344.069 103.651 344.415 104.069 344.415Z" fill="#777E87"/>
<path d="M83.6204 350.606C84.0378 350.606 84.3762 350.26 84.3762 349.833C84.3762 349.405 84.0378 349.059 83.6204 349.059C83.2029 349.059 82.8645 349.405 82.8645 349.833C82.8645 350.26 83.2029 350.606 83.6204 350.606Z" fill="#777E87"/>
<path d="M195.783 301.327C196.201 301.327 196.539 300.981 196.539 300.553C196.539 300.126 196.201 299.779 195.783 299.779C195.366 299.779 195.027 300.126 195.027 300.553C195.027 300.981 195.366 301.327 195.783 301.327Z" fill="#777E87"/>
<path d="M175.343 307.519C175.76 307.519 176.099 307.172 176.099 306.745C176.099 306.317 175.76 305.971 175.343 305.971C174.925 305.971 174.587 306.317 174.587 306.745C174.587 307.172 174.925 307.519 175.343 307.519Z" fill="#777E87"/>
<path d="M154.895 313.71C155.312 313.71 155.651 313.363 155.651 312.936C155.651 312.509 155.312 312.162 154.895 312.162C154.477 312.162 154.139 312.509 154.139 312.936C154.139 313.363 154.477 313.71 154.895 313.71Z" fill="#777E87"/>
<path d="M134.454 319.894C134.872 319.894 135.21 319.547 135.21 319.12C135.21 318.692 134.872 318.346 134.454 318.346C134.037 318.346 133.699 318.692 133.699 319.12C133.699 319.547 134.037 319.894 134.454 319.894Z" fill="#777E87"/>
<path d="M114.006 326.085C114.424 326.085 114.762 325.738 114.762 325.311C114.762 324.884 114.424 324.537 114.006 324.537C113.589 324.537 113.25 324.884 113.25 325.311C113.25 325.738 113.589 326.085 114.006 326.085Z" fill="#777E87"/>
<path d="M93.566 332.268C93.9834 332.268 94.3219 331.921 94.3219 331.494C94.3219 331.066 93.9834 330.72 93.566 330.72C93.1485 330.72 92.8101 331.066 92.8101 331.494C92.8101 331.921 93.1485 332.268 93.566 332.268Z" fill="#777E87"/>
<path d="M73.1258 338.46C73.5432 338.46 73.8816 338.113 73.8816 337.686C73.8816 337.259 73.5432 336.912 73.1258 336.912C72.7083 336.912 72.3699 337.259 72.3699 337.686C72.3699 338.113 72.7083 338.46 73.1258 338.46Z" fill="#777E87"/>
<path d="M185.281 289.188C185.698 289.188 186.037 288.842 186.037 288.415C186.037 287.987 185.698 287.641 185.281 287.641C184.863 287.641 184.525 287.987 184.525 288.415C184.525 288.842 184.863 289.188 185.281 289.188Z" fill="#777E87"/>
<path d="M164.84 295.372C165.258 295.372 165.596 295.026 165.596 294.598C165.596 294.171 165.258 293.824 164.84 293.824C164.423 293.824 164.085 294.171 164.085 294.598C164.085 295.026 164.423 295.372 164.84 295.372Z" fill="#777E87"/>
<path d="M144.392 301.563C144.81 301.563 145.148 301.217 145.148 300.79C145.148 300.362 144.81 300.016 144.392 300.016C143.975 300.016 143.636 300.362 143.636 300.79C143.636 301.217 143.975 301.563 144.392 301.563Z" fill="#777E87"/>
<path d="M123.952 307.747C124.369 307.747 124.708 307.401 124.708 306.973C124.708 306.546 124.369 306.199 123.952 306.199C123.534 306.199 123.196 306.546 123.196 306.973C123.196 307.401 123.534 307.747 123.952 307.747Z" fill="#777E87"/>
<path d="M103.512 313.938C103.929 313.938 104.267 313.591 104.267 313.164C104.267 312.736 103.929 312.39 103.512 312.39C103.094 312.39 102.756 312.736 102.756 313.164C102.756 313.591 103.094 313.938 103.512 313.938Z" fill="#777E87"/>
<path d="M83.0634 320.13C83.4809 320.13 83.8193 319.783 83.8193 319.356C83.8193 318.929 83.4809 318.582 83.0634 318.582C82.646 318.582 82.3076 318.929 82.3076 319.356C82.3076 319.783 82.646 320.13 83.0634 320.13Z" fill="#777E87"/>
<path d="M62.6231 326.313C63.0406 326.313 63.379 325.967 63.379 325.54C63.379 325.112 63.0406 324.766 62.6231 324.766C62.2057 324.766 61.8672 325.112 61.8672 325.54C61.8672 325.967 62.2057 326.313 62.6231 326.313Z" fill="#777E87"/>
<path d="M174.778 277.042C175.196 277.042 175.534 276.696 175.534 276.268C175.534 275.841 175.196 275.494 174.778 275.494C174.361 275.494 174.022 275.841 174.022 276.268C174.022 276.696 174.361 277.042 174.778 277.042Z" fill="#777E87"/>
<path d="M154.338 283.225C154.755 283.225 155.094 282.878 155.094 282.451C155.094 282.023 154.755 281.677 154.338 281.677C153.92 281.677 153.582 282.023 153.582 282.451C153.582 282.878 153.92 283.225 154.338 283.225Z" fill="#777E87"/>
<path d="M133.898 289.417C134.315 289.417 134.653 289.071 134.653 288.643C134.653 288.216 134.315 287.869 133.898 287.869C133.48 287.869 133.142 288.216 133.142 288.643C133.142 289.071 133.48 289.417 133.898 289.417Z" fill="#777E87"/>
<path d="M113.449 295.608C113.867 295.608 114.205 295.262 114.205 294.834C114.205 294.407 113.867 294.061 113.449 294.061C113.032 294.061 112.693 294.407 112.693 294.834C112.693 295.262 113.032 295.608 113.449 295.608Z" fill="#777E87"/>
<path d="M93.0091 301.791C93.4265 301.791 93.7649 301.445 93.7649 301.017C93.7649 300.59 93.4265 300.243 93.0091 300.243C92.5916 300.243 92.2532 300.59 92.2532 301.017C92.2532 301.445 92.5916 301.791 93.0091 301.791Z" fill="#777E87"/>
<path d="M72.5688 307.983C72.9862 307.983 73.3247 307.637 73.3247 307.209C73.3247 306.782 72.9862 306.436 72.5688 306.436C72.1513 306.436 71.8129 306.782 71.8129 307.209C71.8129 307.637 72.1513 307.983 72.5688 307.983Z" fill="#777E87"/>
<path d="M52.1206 314.166C52.5381 314.166 52.8765 313.82 52.8765 313.392C52.8765 312.965 52.5381 312.618 52.1206 312.618C51.7032 312.618 51.3647 312.965 51.3647 313.392C51.3647 313.82 51.7032 314.166 52.1206 314.166Z" fill="#777E87"/>
<path d="M164.283 264.896C164.701 264.896 165.039 264.549 165.039 264.122C165.039 263.694 164.701 263.348 164.283 263.348C163.866 263.348 163.528 263.694 163.528 264.122C163.528 264.549 163.866 264.896 164.283 264.896Z" fill="#777E87"/>
<path d="M143.835 271.087C144.253 271.087 144.591 270.74 144.591 270.313C144.591 269.886 144.253 269.539 143.835 269.539C143.418 269.539 143.079 269.886 143.079 270.313C143.079 270.74 143.418 271.087 143.835 271.087Z" fill="#777E87"/>
<path d="M123.395 277.271C123.812 277.271 124.151 276.924 124.151 276.497C124.151 276.069 123.812 275.723 123.395 275.723C122.977 275.723 122.639 276.069 122.639 276.497C122.639 276.924 122.977 277.271 123.395 277.271Z" fill="#777E87"/>
<path d="M102.955 283.461C103.372 283.461 103.711 283.114 103.711 282.687C103.711 282.26 103.372 281.913 102.955 281.913C102.537 281.913 102.199 282.26 102.199 282.687C102.199 283.114 102.537 283.461 102.955 283.461Z" fill="#777E87"/>
<path d="M82.5064 289.646C82.9239 289.646 83.2623 289.299 83.2623 288.872C83.2623 288.444 82.9239 288.098 82.5064 288.098C82.089 288.098 81.7505 288.444 81.7505 288.872C81.7505 289.299 82.089 289.646 82.5064 289.646Z" fill="#777E87"/>
<path d="M62.0662 295.836C62.4837 295.836 62.8221 295.489 62.8221 295.062C62.8221 294.635 62.4837 294.288 62.0662 294.288C61.6488 294.288 61.3104 294.635 61.3104 295.062C61.3104 295.489 61.6488 295.836 62.0662 295.836Z" fill="#777E87"/>
<path d="M41.618 302.027C42.0354 302.027 42.3739 301.681 42.3739 301.253C42.3739 300.826 42.0354 300.479 41.618 300.479C41.2005 300.479 40.8621 300.826 40.8621 301.253C40.8621 301.681 41.2005 302.027 41.618 302.027Z" fill="#777E87"/>
<path d="M153.781 252.749C154.198 252.749 154.537 252.403 154.537 251.975C154.537 251.548 154.198 251.201 153.781 251.201C153.363 251.201 153.025 251.548 153.025 251.975C153.025 252.403 153.363 252.749 153.781 252.749Z" fill="#777E87"/>
<path d="M133.341 258.94C133.758 258.94 134.096 258.594 134.096 258.167C134.096 257.739 133.758 257.393 133.341 257.393C132.923 257.393 132.585 257.739 132.585 258.167C132.585 258.594 132.923 258.94 133.341 258.94Z" fill="#777E87"/>
<path d="M112.892 265.123C113.31 265.123 113.648 264.777 113.648 264.349C113.648 263.922 113.31 263.575 112.892 263.575C112.475 263.575 112.136 263.922 112.136 264.349C112.136 264.777 112.475 265.123 112.892 265.123Z" fill="#777E87"/>
<path d="M92.452 271.315C92.8695 271.315 93.2079 270.969 93.2079 270.542C93.2079 270.114 92.8695 269.768 92.452 269.768C92.0346 269.768 91.6962 270.114 91.6962 270.542C91.6962 270.969 92.0346 271.315 92.452 271.315Z" fill="#777E87"/>
<path d="M72.0039 277.507C72.4214 277.507 72.7598 277.16 72.7598 276.733C72.7598 276.305 72.4214 275.959 72.0039 275.959C71.5865 275.959 71.248 276.305 71.248 276.733C71.248 277.16 71.5865 277.507 72.0039 277.507Z" fill="#777E87"/>
<path d="M51.5636 283.689C51.9811 283.689 52.3195 283.343 52.3195 282.916C52.3195 282.488 51.9811 282.142 51.5636 282.142C51.1462 282.142 50.8077 282.488 50.8077 282.916C50.8077 283.343 51.1462 283.689 51.5636 283.689Z" fill="#777E87"/>
<path d="M31.1234 289.882C31.5408 289.882 31.8792 289.535 31.8792 289.108C31.8792 288.68 31.5408 288.334 31.1234 288.334C30.7059 288.334 30.3675 288.68 30.3675 289.108C30.3675 289.535 30.7059 289.882 31.1234 289.882Z" fill="#777E87"/>
<path d="M143.278 240.61C143.696 240.61 144.034 240.264 144.034 239.836C144.034 239.409 143.696 239.062 143.278 239.062C142.861 239.062 142.522 239.409 142.522 239.836C142.522 240.264 142.861 240.61 143.278 240.61Z" fill="#777E87"/>
<path d="M122.838 246.794C123.255 246.794 123.594 246.447 123.594 246.02C123.594 245.593 123.255 245.246 122.838 245.246C122.421 245.246 122.082 245.593 122.082 246.02C122.082 246.447 122.421 246.794 122.838 246.794Z" fill="#777E87"/>
<path d="M102.39 252.985C102.807 252.985 103.146 252.639 103.146 252.211C103.146 251.784 102.807 251.438 102.39 251.438C101.972 251.438 101.634 251.784 101.634 252.211C101.634 252.639 101.972 252.985 102.39 252.985Z" fill="#777E87"/>
<path d="M81.9495 259.169C82.367 259.169 82.7054 258.822 82.7054 258.395C82.7054 257.968 82.367 257.621 81.9495 257.621C81.5321 257.621 81.1937 257.968 81.1937 258.395C81.1937 258.822 81.5321 259.169 81.9495 259.169Z" fill="#777E87"/>
<path d="M61.5093 265.359C61.9267 265.359 62.2651 265.013 62.2651 264.585C62.2651 264.158 61.9267 263.812 61.5093 263.812C61.0918 263.812 60.7534 264.158 60.7534 264.585C60.7534 265.013 61.0918 265.359 61.5093 265.359Z" fill="#777E87"/>
<path d="M41.061 271.543C41.4785 271.543 41.8169 271.196 41.8169 270.769C41.8169 270.342 41.4785 269.995 41.061 269.995C40.6436 269.995 40.3052 270.342 40.3052 270.769C40.3052 271.196 40.6436 271.543 41.061 271.543Z" fill="#777E87"/>
<path d="M20.6207 277.734C21.0382 277.734 21.3766 277.388 21.3766 276.96C21.3766 276.533 21.0382 276.187 20.6207 276.187C20.2033 276.187 19.8649 276.533 19.8649 276.96C19.8649 277.388 20.2033 277.734 20.6207 277.734Z" fill="#777E87"/>
<path d="M193.412 301.775C190.285 297.987 183.705 295.372 176.099 295.372C168.492 295.372 161.904 297.987 158.785 301.775H156.844V306.753C156.844 313.042 165.461 318.134 176.099 318.134C186.737 318.134 195.354 313.034 195.354 306.753V301.775H193.412Z" fill="white"/>
<path d="M178.565 312.48V317.963" stroke="#118338" stroke-linecap="round" stroke-linejoin="round"/>
<path d="M176.091 312.48V317.963" stroke="#118338" stroke-linecap="round" stroke-linejoin="round"/>
<path d="M180.69 295.706V317.808C189.108 316.594 195.354 312.105 195.354 306.753V301.775H193.412C190.938 298.777 186.291 296.513 180.69 295.706Z" fill="#118338"/>
<path d="M193.412 301.775C190.285 297.987 183.705 295.372 176.099 295.372C168.492 295.372 161.904 297.987 158.785 301.775H156.844V306.753C156.844 313.042 165.461 318.134 176.099 318.134C186.737 318.134 195.354 313.034 195.354 306.753V301.775H193.412Z" stroke="black" stroke-linecap="round" stroke-linejoin="round"/>
<path d="M176.091 313.156C186.725 313.156 195.346 308.061 195.346 301.775C195.346 295.49 186.725 290.395 176.091 290.395C165.457 290.395 156.836 295.49 156.836 301.775C156.836 308.061 165.457 313.156 176.091 313.156Z" fill="#2FFD76" stroke="black" stroke-linecap="round" stroke-linejoin="round"/>
<path d="M146.795 282.695C143.668 278.907 137.088 276.292 129.482 276.292C121.875 276.292 115.287 278.907 112.168 282.695H110.227V287.673C110.227 293.962 118.844 299.054 129.482 299.054C140.12 299.054 148.736 293.954 148.736 287.673V282.695H146.795Z" fill="white"/>
<path d="M131.956 293.4V298.883" stroke="#118338" stroke-linecap="round" stroke-linejoin="round"/>
<path d="M129.482 293.4V298.883" stroke="#118338" stroke-linecap="round" stroke-linejoin="round"/>
<path d="M134.073 276.626V298.728C142.491 297.514 148.736 293.025 148.736 287.673V282.695H146.795C144.321 279.697 139.674 277.432 134.073 276.626Z" fill="#118338"/>
<path d="M146.795 282.695C143.668 278.907 137.088 276.292 129.482 276.292C121.875 276.292 115.287 278.907 112.168 282.695H110.227V287.673C110.227 293.962 118.844 299.054 129.482 299.054C140.12 299.054 148.736 293.954 148.736 287.673V282.695H146.795Z" stroke="black" stroke-linecap="round" stroke-linejoin="round"/>
<path d="M129.482 294.076C140.116 294.076 148.736 288.981 148.736 282.695C148.736 276.41 140.116 271.314 129.482 271.314C118.848 271.314 110.227 276.41 110.227 282.695C110.227 288.981 118.848 294.076 129.482 294.076Z" fill="white" stroke="black" stroke-linecap="round" stroke-linejoin="round"/>
<path d="M146.803 277.719C143.676 273.931 137.096 271.315 129.49 271.315C121.883 271.315 115.295 273.931 112.176 277.719H110.235V282.696C110.235 288.985 118.852 294.077 129.49 294.077C140.128 294.077 148.744 288.977 148.744 282.696V277.719H146.803Z" fill="white"/>
<path d="M131.956 288.424V293.907" stroke="#118338" stroke-linecap="round" stroke-linejoin="round"/>
<path d="M129.482 288.424V293.907" stroke="#118338" stroke-linecap="round" stroke-linejoin="round"/>
<path d="M134.073 271.649V293.751C142.491 292.537 148.736 288.049 148.736 282.696V277.719H146.795C144.321 274.721 139.674 272.456 134.073 271.649Z" fill="#118338"/>
<path d="M146.803 277.719C143.676 273.931 137.096 271.315 129.49 271.315C121.883 271.315 115.295 273.931 112.176 277.719H110.235V282.696C110.235 288.985 118.852 294.077 129.49 294.077C140.128 294.077 148.744 288.977 148.744 282.696V277.719H146.803Z" stroke="black" stroke-linecap="round" stroke-linejoin="round"/>
<path d="M129.482 289.1C140.116 289.1 148.736 284.004 148.736 277.719C148.736 271.433 140.116 266.338 129.482 266.338C118.848 266.338 110.227 271.433 110.227 277.719C110.227 284.004 118.848 289.1 129.482 289.1Z" fill="white" stroke="black" stroke-linecap="round" stroke-linejoin="round"/>
<path d="M146.795 272.741C143.668 268.953 137.088 266.338 129.482 266.338C121.875 266.338 115.287 268.953 112.168 272.741H110.227V277.719C110.227 284.008 118.844 289.1 129.482 289.1C140.12 289.1 148.736 284 148.736 277.719V272.741H146.795Z" fill="white"/>
<path d="M131.956 283.438V288.928" stroke="#118338" stroke-linecap="round" stroke-linejoin="round"/>
<path d="M129.482 283.438V288.928" stroke="#118338" stroke-linecap="round" stroke-linejoin="round"/>
<path d="M134.073 266.663V288.765C142.491 287.551 148.736 283.062 148.736 277.71V272.732H146.795C144.321 269.734 139.674 267.47 134.073 266.663Z" fill="#118338"/>
<path d="M146.795 272.741C143.668 268.953 137.088 266.338 129.482 266.338C121.875 266.338 115.287 268.953 112.168 272.741H110.227V277.719C110.227 284.008 118.844 289.1 129.482 289.1C140.12 289.1 148.736 284 148.736 277.719V272.741H146.795Z" stroke="black" stroke-linecap="round" stroke-linejoin="round"/>
<path d="M129.482 284.122C140.116 284.122 148.736 279.027 148.736 272.741C148.736 266.456 140.116 261.36 129.482 261.36C118.848 261.36 110.227 266.456 110.227 272.741C110.227 279.027 118.848 284.122 129.482 284.122Z" fill="#2FFD76" stroke="black" stroke-linecap="round" stroke-linejoin="round"/>
<path d="M78.0668 287.902C74.9399 284.114 68.3598 281.499 60.7534 281.499C53.147 281.499 46.559 284.114 43.44 287.902H41.4987V292.88C41.4987 299.169 50.1156 304.261 60.7534 304.261C71.3912 304.261 80.0082 299.161 80.0082 292.88V287.902H78.0668Z" fill="white"/>
<path d="M63.2278 298.607V304.098" stroke="#777E87" stroke-linecap="round" stroke-linejoin="round"/>
<path d="M60.7534 298.607V304.098" stroke="#777E87" stroke-linecap="round" stroke-linejoin="round"/>
<path d="M65.3442 281.832V303.934C73.7622 302.72 80.0081 298.231 80.0081 292.879V287.901H78.0667C75.5922 284.903 70.9456 282.639 65.3442 281.832Z" fill="#118338"/>
<path d="M78.0668 287.902C74.9399 284.114 68.3598 281.499 60.7534 281.499C53.147 281.499 46.559 284.114 43.44 287.902H41.4987V292.88C41.4987 299.169 50.1156 304.261 60.7534 304.261C71.3912 304.261 80.0082 299.161 80.0082 292.88V287.902H78.0668Z" stroke="black" stroke-linecap="round" stroke-linejoin="round"/>
<path d="M60.7534 299.283C71.3875 299.283 80.0082 294.188 80.0082 287.902C80.0082 281.617 71.3875 276.521 60.7534 276.521C50.1193 276.521 41.4987 281.617 41.4987 287.902C41.4987 294.188 50.1193 299.283 60.7534 299.283Z" fill="#2FFD76" stroke="black" stroke-linecap="round" stroke-linejoin="round"/>
<path d="M94.298 316.341C91.1711 312.553 84.591 309.938 76.9846 309.938C69.3782 309.938 62.7902 312.553 59.6712 316.341H57.7299V321.318C57.7299 327.608 66.3468 332.699 76.9846 332.699C87.6224 332.699 96.2394 327.599 96.2394 321.318V316.341H94.298Z" fill="white"/>
<path d="M79.4511 327.046V332.529" stroke="#118338" stroke-linecap="round" stroke-linejoin="round"/>
<path d="M76.9766 327.046V332.529" stroke="#118338" stroke-linecap="round" stroke-linejoin="round"/>
<path d="M81.5676 310.271V332.373C89.9855 331.159 96.2314 326.671 96.2314 321.318V316.341H94.29C91.8155 313.343 87.1689 311.078 81.5676 310.271Z" fill="#118338"/>
<path d="M94.298 316.341C91.1711 312.553 84.591 309.938 76.9846 309.938C69.3782 309.938 62.7902 312.553 59.6712 316.341H57.7299V321.318C57.7299 327.608 66.3468 332.699 76.9846 332.699C87.6224 332.699 96.2394 327.599 96.2394 321.318V316.341H94.298Z" stroke="black" stroke-linecap="round" stroke-linejoin="round"/>
<path d="M76.9767 327.722C87.6108 327.722 96.2314 322.626 96.2314 316.341C96.2314 310.055 87.6108 304.96 76.9767 304.96C66.3426 304.96 57.7219 310.055 57.7219 316.341C57.7219 322.626 66.3426 327.722 76.9767 327.722Z" fill="white" stroke="black" stroke-linecap="round" stroke-linejoin="round"/>
<path d="M94.298 311.364C91.1711 307.576 84.591 304.961 76.9846 304.961C69.3782 304.961 62.7902 307.576 59.6712 311.364H57.7299V316.342C57.7299 322.631 66.3468 327.723 76.9846 327.723C87.6224 327.723 96.2394 322.623 96.2394 316.342V311.364H94.298Z" fill="white"/>
<path d="M79.4511 322.069V327.552" stroke="#118338" stroke-linecap="round" stroke-linejoin="round"/>
<path d="M76.9766 322.069V327.552" stroke="#118338" stroke-linecap="round" stroke-linejoin="round"/>
<path d="M81.5675 305.296V327.398C89.9855 326.184 96.2313 321.695 96.2313 316.343V311.365H94.2899C91.8155 308.367 87.1689 306.102 81.5675 305.296Z" fill="#118338"/>
<path d="M94.298 311.364C91.1711 307.576 84.591 304.961 76.9846 304.961C69.3782 304.961 62.7902 307.576 59.6712 311.364H57.7299V316.342C57.7299 322.631 66.3468 327.723 76.9846 327.723C87.6224 327.723 96.2394 322.623 96.2394 316.342V311.364H94.298Z" stroke="black" stroke-linecap="round" stroke-linejoin="round"/>
<path d="M76.9767 322.745C87.6108 322.745 96.2314 317.65 96.2314 311.364C96.2314 305.079 87.6108 299.983 76.9767 299.983C66.3426 299.983 57.7219 305.079 57.7219 311.364C57.7219 317.65 66.3426 322.745 76.9767 322.745Z" fill="white" stroke="black" stroke-linecap="round" stroke-linejoin="round"/>
<path d="M94.298 306.387C91.1711 302.598 84.591 299.983 76.9846 299.983C69.3782 299.983 62.7902 302.598 59.6712 306.387H57.7299V311.364C57.7299 317.653 66.3468 322.745 76.9846 322.745C87.6224 322.745 96.2394 317.645 96.2394 311.364V306.387H94.298Z" fill="white"/>
<path d="M79.4511 317.083V322.574" stroke="#118338" stroke-linecap="round" stroke-linejoin="round"/>
<path d="M76.9766 317.083V322.574" stroke="#118338" stroke-linecap="round" stroke-linejoin="round"/>
<path d="M81.5676 300.31V322.411C89.9855 321.198 96.2314 316.709 96.2314 311.356V306.379H94.29C91.8155 303.381 87.1689 301.116 81.5676 300.31Z" fill="#118338"/>
<path d="M94.298 306.387C91.1711 302.598 84.591 299.983 76.9846 299.983C69.3782 299.983 62.7902 302.598 59.6712 306.387H57.7299V311.364C57.7299 317.653 66.3468 322.745 76.9846 322.745C87.6224 322.745 96.2394 317.645 96.2394 311.364V306.387H94.298Z" stroke="black" stroke-linecap="round" stroke-linejoin="round"/>
<path d="M76.9767 317.768C87.6108 317.768 96.2314 312.672 96.2314 306.387C96.2314 300.101 87.6108 295.006 76.9767 295.006C66.3426 295.006 57.7219 300.101 57.7219 306.387C57.7219 312.672 66.3426 317.768 76.9767 317.768Z" fill="white" stroke="black" stroke-linecap="round" stroke-linejoin="round"/>
<path d="M94.298 301.402C91.1711 297.614 84.591 294.999 76.9846 294.999C69.3782 294.999 62.7902 297.614 59.6712 301.402H57.7299V306.38C57.7299 312.669 66.3468 317.761 76.9846 317.761C87.6224 317.761 96.2394 312.661 96.2394 306.38V301.402H94.298Z" fill="white"/>
<path d="M79.4511 312.106V317.597" stroke="#118338" stroke-linecap="round" stroke-linejoin="round"/>
<path d="M76.9766 312.106V317.597" stroke="#118338" stroke-linecap="round" stroke-linejoin="round"/>
<path d="M81.5675 295.332V317.434C89.9855 316.22 96.2313 311.731 96.2313 306.379V301.401H94.2899C91.8155 298.403 87.1689 296.139 81.5675 295.332Z" fill="#118338"/>
<path d="M94.298 301.402C91.1711 297.614 84.591 294.999 76.9846 294.999C69.3782 294.999 62.7902 297.614 59.6712 301.402H57.7299V306.38C57.7299 312.669 66.3468 317.761 76.9846 317.761C87.6224 317.761 96.2394 312.661 96.2394 306.38V301.402H94.298Z" stroke="black" stroke-linecap="round" stroke-linejoin="round"/>
<path d="M76.9767 312.782C87.6108 312.782 96.2314 307.687 96.2314 301.401C96.2314 295.116 87.6108 290.021 76.9767 290.021C66.3426 290.021 57.7219 295.116 57.7219 301.401C57.7219 307.687 66.3426 312.782 76.9767 312.782Z" fill="white" stroke="black" stroke-linecap="round" stroke-linejoin="round"/>
<path d="M94.298 296.424C91.1711 292.636 84.591 290.021 76.9846 290.021C69.3782 290.021 62.7902 292.636 59.6712 296.424H57.7299V301.401C57.7299 307.691 66.3468 312.782 76.9846 312.782C87.6224 312.782 96.2394 307.682 96.2394 301.401V296.424H94.298Z" fill="white"/>
<path d="M79.4511 307.129V312.612" stroke="#118338" stroke-linecap="round" stroke-linejoin="round"/>
<path d="M76.9766 307.129V312.612" stroke="#118338" stroke-linecap="round" stroke-linejoin="round"/>
<path d="M81.5676 290.354V312.456C89.9855 311.242 96.2314 306.754 96.2314 301.401V296.424H94.29C91.8155 293.426 87.1689 291.161 81.5676 290.354Z" fill="#118338"/>
<path d="M94.298 296.424C91.1711 292.636 84.591 290.021 76.9846 290.021C69.3782 290.021 62.7902 292.636 59.6712 296.424H57.7299V301.401C57.7299 307.691 66.3468 312.782 76.9846 312.782C87.6224 312.782 96.2394 307.682 96.2394 301.401V296.424H94.298Z" stroke="black" stroke-linecap="round" stroke-linejoin="round"/>
<path d="M76.9767 307.805C87.6108 307.805 96.2314 302.709 96.2314 296.424C96.2314 290.138 87.6108 285.043 76.9767 285.043C66.3426 285.043 57.7219 290.138 57.7219 296.424C57.7219 302.709 66.3426 307.805 76.9767 307.805Z" fill="white" stroke="black" stroke-linecap="round" stroke-linejoin="round"/>
<path d="M94.298 291.446C91.1711 287.658 84.591 285.043 76.9846 285.043C69.3782 285.043 62.7902 287.658 59.6712 291.446H57.7299V296.424C57.7299 302.713 66.3468 307.805 76.9846 307.805C87.6224 307.805 96.2394 302.705 96.2394 296.424V291.446H94.298Z" fill="white"/>
<path d="M79.4511 302.151V307.634" stroke="#118338" stroke-linecap="round" stroke-linejoin="round"/>
<path d="M76.9766 302.151V307.634" stroke="#118338" stroke-linecap="round" stroke-linejoin="round"/>
<path d="M81.5676 285.377V307.479C89.9855 306.265 96.2314 301.776 96.2314 296.424V291.446H94.29C91.8155 288.448 87.1689 286.183 81.5676 285.377Z" fill="#118338"/>
<path d="M94.298 291.446C91.1711 287.658 84.591 285.043 76.9846 285.043C69.3782 285.043 62.7902 287.658 59.6712 291.446H57.7299V296.424C57.7299 302.713 66.3468 307.805 76.9846 307.805C87.6224 307.805 96.2394 302.705 96.2394 296.424V291.446H94.298Z" stroke="black" stroke-linecap="round" stroke-linejoin="round"/>
<path d="M76.9767 302.827C87.6108 302.827 96.2314 297.732 96.2314 291.446C96.2314 285.161 87.6108 280.065 76.9767 280.065C66.3426 280.065 57.7219 285.161 57.7219 291.446C57.7219 297.732 66.3426 302.827 76.9767 302.827Z" fill="#2FFD76" stroke="black" stroke-linecap="round" stroke-linejoin="round"/>
<path d="M79.0692 279.633V350.248C79.0692 351.625 80.9549 352.741 83.2862 352.741C85.6174 352.741 87.5031 351.625 87.5031 350.248V279.633H79.0692Z" fill="#E9EAEB"/>
<path d="M83.9227 352.708C85.9516 352.528 87.5031 351.502 87.5031 350.256V279.641H83.9227V352.716V352.708Z" fill="#2D3033"/>
<path d="M79.0692 279.633V350.248C79.0692 351.625 80.9549 352.741 83.2862 352.741C85.6174 352.741 87.5031 351.625 87.5031 350.248V279.633H79.0692Z" stroke="black" stroke-linecap="round" stroke-linejoin="round"/>
<path d="M202.3 242.33V312.945C202.3 314.322 204.185 315.438 206.517 315.438C208.848 315.438 210.734 314.322 210.734 312.945V242.33H202.3Z" fill="#E9EAEB"/>
<path d="M207.153 315.405C209.182 315.226 210.734 314.199 210.734 312.953V242.338H207.153V315.413V315.405Z" fill="#2D3033"/>
<path d="M202.3 242.33V312.945C202.3 314.322 204.185 315.438 206.517 315.438C208.848 315.438 210.734 314.322 210.734 312.945V242.33H202.3Z" stroke="black" stroke-linecap="round" stroke-linejoin="round"/>
<path d="M139.006 169.125V239.74C139.006 241.117 140.891 242.233 143.223 242.233C145.554 242.233 147.44 241.117 147.44 239.74V169.125H139.006Z" fill="white"/>
<path d="M143.859 242.2C145.888 242.021 147.44 240.994 147.44 239.748V169.133H143.859V242.208V242.2Z" fill="#2D3033"/>
<path d="M139.006 169.125V239.74C139.006 241.117 140.891 242.233 143.223 242.233C145.554 242.233 147.44 241.117 147.44 239.74V169.125H139.006Z" stroke="black" stroke-linecap="round" stroke-linejoin="round"/>
<path d="M15.7752 206.42V277.035C15.7752 278.412 17.6609 279.528 19.9922 279.528C22.3234 279.528 24.2091 278.412 24.2091 277.035V206.42H15.7752Z" fill="#E9EAEB"/>
<path d="M20.6287 279.495C22.6576 279.316 24.2091 278.289 24.2091 277.043V206.428H20.6287V279.503V279.495Z" fill="#2D3033"/>
<path d="M15.7752 206.42V277.035C15.7752 278.412 17.6609 279.528 19.9922 279.528C22.3234 279.528 24.2091 278.412 24.2091 277.035V206.42H15.7752Z" stroke="black" stroke-linecap="round" stroke-linejoin="round"/>
<path d="M223.345 238.338C228.118 243.853 224.45 250.615 215.165 253.426L91.9349 290.729C82.6417 293.54 71.24 291.348 66.4741 285.825L3.18006 212.619C-1.59385 207.104 2.06615 200.35 11.3593 197.532L134.59 160.228C143.883 157.418 155.285 159.609 160.051 165.133L223.345 238.338Z" fill="black" stroke="black" stroke-linecap="round" stroke-linejoin="round"/>
<path d="M225.437 243.453C225.437 247.527 221.69 251.445 215.165 253.425L91.9349 290.728C82.6417 293.539 71.24 291.347 66.4741 285.824L3.18009 212.618C1.75587 210.973 1.08752 209.221 1.08752 207.494" stroke="white" stroke-linecap="round" stroke-linejoin="round"/>
<path d="M31.1234 209.426L51.5636 212.407L62.0662 224.554L41.618 230.737L31.1234 209.426Z" stroke="#2FFD76" stroke-linecap="round" stroke-linejoin="round"/>
<path d="M41.618 230.737L62.0662 224.554L72.5688 236.692L52.1206 242.884L41.618 230.737Z" stroke="#2FFD76" stroke-linecap="round" stroke-linejoin="round"/>
<path d="M52.1205 242.884L72.5688 236.692L83.0634 248.839L62.6231 255.03L52.1205 242.884Z" stroke="#2FFD76" stroke-linecap="round" stroke-linejoin="round"/>
<path d="M62.6232 255.031L83.0634 248.84L93.566 260.986L73.1258 267.178L62.6232 255.031Z" stroke="#2FFD76" stroke-linecap="round" stroke-linejoin="round"/>
<path d="M73.1257 267.178L93.566 260.986L104.069 273.133L83.6204 279.316L73.1257 267.178Z" stroke="#2FFD76" stroke-linecap="round" stroke-linejoin="round"/>
<path d="M51.5637 212.407L72.0039 165.124L82.5065 218.362L62.0662 224.554L51.5637 212.407Z" stroke="#2FFD76" stroke-linecap="round" stroke-linejoin="round"/>
<path d="M62.0662 224.555L82.5064 218.363L93.009 230.51L72.5687 236.693L62.0662 224.555Z" stroke="#2FFD76" stroke-linecap="round" stroke-linejoin="round"/>
<path d="M72.5688 236.693L93.0091 230.51L103.512 242.656L83.0634 248.84L72.5688 236.693Z" stroke="#2FFD76" stroke-linecap="round" stroke-linejoin="round"/>
<path d="M83.0634 248.84L103.512 242.656L114.006 245.247L93.566 260.986L83.0634 248.84Z" stroke="#2FFD76" stroke-linecap="round" stroke-linejoin="round"/>
<path d="M93.566 260.986L114.006 245.247L124.509 266.942L104.069 273.133L93.566 260.986Z" stroke="#2FFD76" stroke-linecap="round" stroke-linejoin="round"/>
<path d="M72.0039 165.124L92.4521 178.484L102.955 212.171L82.5065 218.362L72.0039 165.124Z" stroke="#2FFD76" stroke-linecap="round" stroke-linejoin="round"/>
<path d="M82.5065 218.362L102.955 212.171L113.449 224.317L93.0091 230.509L82.5065 218.362Z" stroke="#2FFD76" stroke-linecap="round" stroke-linejoin="round"/>
<path d="M93.009 230.509L113.449 224.317L123.952 236.464L103.512 242.655L93.009 230.509Z" stroke="#2FFD76" stroke-linecap="round" stroke-linejoin="round"/>
<path d="M103.512 242.656L123.952 236.465L134.455 248.611L114.006 245.247L103.512 242.656Z" stroke="#2FFD76" stroke-linecap="round" stroke-linejoin="round"/>
<path d="M114.006 245.247L134.455 248.612L144.957 260.758L124.509 266.942L114.006 245.247Z" stroke="#2FFD76" stroke-linecap="round" stroke-linejoin="round"/>
<path d="M92.4521 178.485L112.892 133.947L123.395 205.988L102.955 212.171L92.4521 178.485Z" stroke="#2FFD76" stroke-linecap="round" stroke-linejoin="round"/>
<path d="M102.955 212.171L123.395 205.987L133.897 209.425L113.449 224.317L102.955 212.171Z" stroke="#2FFD76" stroke-linecap="round" stroke-linejoin="round"/>
<path d="M113.449 224.318L133.898 209.426L144.392 230.273L123.952 236.464L113.449 224.318Z" stroke="#2FFD76" stroke-linecap="round" stroke-linejoin="round"/>
<path d="M123.952 236.465L144.392 230.273L154.895 242.42L134.455 248.611L123.952 236.465Z" stroke="#2FFD76" stroke-linecap="round" stroke-linejoin="round"/>
<path d="M134.454 248.611L154.895 242.42L165.397 254.567L144.957 260.758L134.454 248.611Z" stroke="#2FFD76" stroke-linecap="round" stroke-linejoin="round"/>
<path d="M112.892 133.947L133.341 187.65L143.835 199.796L123.395 205.988L112.892 133.947Z" stroke="#2FFD76" stroke-linecap="round" stroke-linejoin="round"/>
<path d="M20.6208 206.453L41.0611 200.262L51.5636 212.408L31.1234 209.427L20.6208 206.453Z" stroke="#2FFD76" stroke-linecap="round" stroke-linejoin="round"/>
<path d="M41.061 200.26L61.5093 194.069L72.0039 165.124L51.5636 212.407L41.061 200.26Z" stroke="#2FFD76" stroke-linecap="round" stroke-linejoin="round"/>
<path d="M61.5093 194.069L81.9495 187.886L92.4521 178.484L72.0039 165.124L61.5093 194.069Z" stroke="#2FFD76" stroke-linecap="round" stroke-linejoin="round"/>
<path d="M81.9495 187.886L102.39 181.695L112.892 133.947L92.4521 178.485L81.9495 187.886Z" stroke="#2FFD76" stroke-linecap="round" stroke-linejoin="round"/>
<path d="M102.39 181.695L122.838 175.511L133.341 187.65L112.892 133.947L102.39 181.695Z" stroke="#2FFD76" stroke-linecap="round" stroke-linejoin="round"/>
<path d="M123.395 205.988L143.835 199.797L154.338 211.943L133.898 209.426L123.395 205.988Z" stroke="#2FFD76" stroke-linecap="round" stroke-linejoin="round"/>
<path d="M133.898 209.426L154.338 211.943L164.84 224.09L144.392 230.273L133.898 209.426Z" stroke="#2FFD76" stroke-linecap="round" stroke-linejoin="round"/>
<path d="M144.392 230.273L164.84 224.09L175.343 236.236L154.895 242.42L144.392 230.273Z" stroke="#2FFD76" stroke-linecap="round" stroke-linejoin="round"/>
<path d="M154.895 242.42L175.343 236.236L185.838 248.375L165.397 254.566L154.895 242.42Z" stroke="#2FFD76" stroke-linecap="round" stroke-linejoin="round"/>
<path d="M133.341 187.65L153.781 181.467L164.283 178.485L143.835 199.797L133.341 187.65Z" stroke="#2FFD76" stroke-linecap="round" stroke-linejoin="round"/>
<path d="M122.838 175.512L143.278 169.32L153.781 181.467L133.341 187.65L122.838 175.512Z" stroke="#2FFD76" stroke-linecap="round" stroke-linejoin="round"/>
<path d="M143.835 199.797L164.283 178.485L174.778 205.752L154.338 211.944L143.835 199.797Z" stroke="#2FFD76" stroke-linecap="round" stroke-linejoin="round"/>
<path d="M154.338 211.943L174.778 205.752L185.281 217.899L164.84 224.09L154.338 211.943Z" stroke="#2FFD76" stroke-linecap="round" stroke-linejoin="round"/>
<path d="M164.84 224.09L185.281 217.898L195.783 230.045L175.343 236.236L164.84 224.09Z" stroke="#2FFD76" stroke-linecap="round" stroke-linejoin="round"/>
<path d="M175.343 236.236L195.783 230.045L206.286 242.192L185.838 248.375L175.343 236.236Z" stroke="#2FFD76" stroke-linecap="round" stroke-linejoin="round"/>
<path d="M79.0692 122.729V279.632C79.0692 281.009 80.9549 282.125 83.2862 282.125C85.6174 282.125 87.5031 281.009 87.5031 279.632V122.729H79.0692Z" fill="#E9EAEB"/>
<path d="M83.9227 282.085C85.9516 281.905 87.5031 280.879 87.5031 279.632V122.729H83.9227V282.085Z" fill="#2D3033"/>
<path d="M79.0692 122.729V279.632C79.0692 281.009 80.9549 282.125 83.2862 282.125C85.6174 282.125 87.5031 281.009 87.5031 279.632V122.729H79.0692Z" stroke="black" stroke-linecap="round" stroke-linejoin="round"/>
<path d="M15.7752 49.5234V206.427C15.7752 207.804 17.6609 208.92 19.9922 208.92C22.3234 208.92 24.2091 207.804 24.2091 206.427V49.5234H15.7752Z" fill="#E9EAEB"/>
<path d="M20.6287 208.88C22.6576 208.7 24.2091 207.674 24.2091 206.427V49.5234H20.6287V208.88Z" fill="#2D3033"/>
<path d="M15.7752 49.5234V206.427C15.7752 207.804 17.6609 208.92 19.9922 208.92C22.3234 208.92 24.2091 207.804 24.2091 206.427V49.5234H15.7752Z" stroke="black" stroke-linecap="round" stroke-linejoin="round"/>
<path d="M139.006 12.2197V169.124C139.006 170.5 140.891 171.617 143.223 171.617C145.554 171.617 147.44 170.5 147.44 169.124V12.2197H139.006Z" fill="#E9EAEB"/>
<path d="M143.859 171.576C145.888 171.397 147.439 170.37 147.439 169.124V12.2197H143.859V171.576Z" fill="#2D3033"/>
<path d="M139.006 12.2197V169.124C139.006 170.5 140.891 171.617 143.223 171.617C145.554 171.617 147.44 170.5 147.44 169.124V12.2197H139.006Z" stroke="black" stroke-linecap="round" stroke-linejoin="round"/>
<path d="M202.3 85.4258V242.33C202.3 243.706 204.185 244.823 206.517 244.823C208.848 244.823 210.733 243.706 210.733 242.33V85.4258H202.3Z" fill="#E9EAEB"/>
<path d="M207.153 244.79C209.182 244.611 210.733 243.584 210.733 242.338V85.4258H207.153V244.782V244.79Z" fill="#2D3033"/>
<path d="M202.3 85.4258V242.33C202.3 243.706 204.185 244.823 206.517 244.823C208.848 244.823 210.733 243.706 210.733 242.33V85.4258H202.3Z" stroke="black" stroke-linecap="round" stroke-linejoin="round"/>
<path d="M225.437 85.4579H217.21L217.083 85.4334L160.043 19.4621C155.269 13.9468 143.867 11.7472 134.582 14.5578L15.4331 50.6229L8.87694 49.4905H1.07159V61.8245C1.07159 63.5516 1.73995 65.3031 3.15621 66.9487L66.4502 140.154C71.2241 145.67 82.6178 147.869 91.911 145.059L215.141 107.755C221.666 105.784 225.413 101.857 225.413 97.7918V85.4579H225.437Z" fill="white"/>
<path d="M77.2312 132.326V145.678" stroke="#C2C8CF" stroke-linecap="round" stroke-linejoin="round"/>
<path d="M91.9349 145.059L215.165 107.755C221.69 105.784 225.437 101.857 225.437 97.7918V85.4579H217.21L217.083 85.4334L160.043 19.4621C155.269 13.9468 143.867 11.7472 134.582 14.5578L133.078 15.014L79.0692 122.476V145.987C83.2623 146.566 87.7975 146.305 91.9269 145.059H91.9349Z" fill="#C2C8CF"/>
<path d="M225.437 85.4579H217.21L217.083 85.4334L160.043 19.4621C155.269 13.9468 143.867 11.7472 134.582 14.5578L15.4331 50.6229L8.87694 49.4905H1.07159V61.8245C1.07159 63.5516 1.73995 65.3031 3.15621 66.9487L66.4502 140.154C71.2241 145.67 82.6178 147.869 91.911 145.059L215.141 107.755C221.666 105.784 225.413 101.857 225.413 97.7918V85.4579H225.437Z" stroke="black" stroke-linecap="round" stroke-linejoin="round"/>
<path d="M223.345 80.3342C228.118 85.8494 224.45 92.6111 215.165 95.4217L91.9349 132.725C82.6417 135.536 71.24 133.344 66.4741 127.821L3.18006 54.6153C-1.59385 49.1 2.06615 42.3465 11.3593 39.5277L134.59 2.22434C143.883 -0.586243 155.285 1.6052 160.051 7.12861L223.345 80.3342Z" fill="white" stroke="black" stroke-linecap="round" stroke-linejoin="round"/>
<path d="M206.286 86.1182C206.703 86.1182 207.042 85.7717 207.042 85.3443C207.042 84.9168 206.703 84.5703 206.286 84.5703C205.868 84.5703 205.53 84.9168 205.53 85.3443C205.53 85.7717 205.868 86.1182 206.286 86.1182Z" fill="#777E87"/>
<path d="M185.838 92.3086C186.255 92.3086 186.593 91.9621 186.593 91.5347C186.593 91.1072 186.255 90.7607 185.838 90.7607C185.42 90.7607 185.082 91.1072 185.082 91.5347C185.082 91.9621 185.42 92.3086 185.838 92.3086Z" fill="#777E87"/>
<path d="M165.397 98.4922C165.815 98.4922 166.153 98.1457 166.153 97.7183C166.153 97.2908 165.815 96.9443 165.397 96.9443C164.98 96.9443 164.641 97.2908 164.641 97.7183C164.641 98.1457 164.98 98.4922 165.397 98.4922Z" fill="#777E87"/>
<path d="M144.957 104.684C145.374 104.684 145.713 104.337 145.713 103.91C145.713 103.482 145.374 103.136 144.957 103.136C144.54 103.136 144.201 103.482 144.201 103.91C144.201 104.337 144.54 104.684 144.957 104.684Z" fill="#777E87"/>
<path d="M124.509 110.875C124.926 110.875 125.265 110.529 125.265 110.101C125.265 109.674 124.926 109.327 124.509 109.327C124.091 109.327 123.753 109.674 123.753 110.101C123.753 110.529 124.091 110.875 124.509 110.875Z" fill="#777E87"/>
<path d="M104.068 117.059C104.486 117.059 104.824 116.712 104.824 116.285C104.824 115.857 104.486 115.511 104.068 115.511C103.651 115.511 103.313 115.857 103.313 116.285C103.313 116.712 103.651 117.059 104.068 117.059Z" fill="#777E87"/>
<path d="M83.6202 123.25C84.0377 123.25 84.3761 122.904 84.3761 122.476C84.3761 122.049 84.0377 121.702 83.6202 121.702C83.2028 121.702 82.8644 122.049 82.8644 122.476C82.8644 122.904 83.2028 123.25 83.6202 123.25Z" fill="#777E87"/>
<path d="M195.783 73.9707C196.201 73.9707 196.539 73.6242 196.539 73.1968C196.539 72.7694 196.201 72.4229 195.783 72.4229C195.366 72.4229 195.027 72.7694 195.027 73.1968C195.027 73.6242 195.366 73.9707 195.783 73.9707Z" fill="#777E87"/>
<path d="M175.343 80.1621C175.76 80.1621 176.099 79.8156 176.099 79.3882C176.099 78.9608 175.76 78.6143 175.343 78.6143C174.925 78.6143 174.587 78.9608 174.587 79.3882C174.587 79.8156 174.925 80.1621 175.343 80.1621Z" fill="#777E87"/>
<path d="M154.895 86.3545C155.312 86.3545 155.651 86.008 155.651 85.5806C155.651 85.1531 155.312 84.8066 154.895 84.8066C154.477 84.8066 154.139 85.1531 154.139 85.5806C154.139 86.008 154.477 86.3545 154.895 86.3545Z" fill="#777E87"/>
<path d="M134.454 92.5371C134.872 92.5371 135.21 92.1906 135.21 91.7632C135.21 91.3358 134.872 90.9893 134.454 90.9893C134.037 90.9893 133.699 91.3358 133.699 91.7632C133.699 92.1906 134.037 92.5371 134.454 92.5371Z" fill="#777E87"/>
<path d="M114.006 98.7285C114.424 98.7285 114.762 98.382 114.762 97.9546C114.762 97.5272 114.424 97.1807 114.006 97.1807C113.589 97.1807 113.25 97.5272 113.25 97.9546C113.25 98.382 113.589 98.7285 114.006 98.7285Z" fill="#777E87"/>
<path d="M93.5659 104.911C93.9834 104.911 94.3218 104.565 94.3218 104.137C94.3218 103.71 93.9834 103.363 93.5659 103.363C93.1485 103.363 92.8101 103.71 92.8101 104.137C92.8101 104.565 93.1485 104.911 93.5659 104.911Z" fill="#777E87"/>
<path d="M73.1256 111.104C73.5431 111.104 73.8815 110.757 73.8815 110.33C73.8815 109.902 73.5431 109.556 73.1256 109.556C72.7082 109.556 72.3698 109.902 72.3698 110.33C72.3698 110.757 72.7082 111.104 73.1256 111.104Z" fill="#777E87"/>
<path d="M185.281 61.832C185.698 61.832 186.036 61.4855 186.036 61.0581C186.036 60.6307 185.698 60.2842 185.281 60.2842C184.863 60.2842 184.525 60.6307 184.525 61.0581C184.525 61.4855 184.863 61.832 185.281 61.832Z" fill="#777E87"/>
<path d="M164.84 68.0166C165.258 68.0166 165.596 67.6701 165.596 67.2427C165.596 66.8152 165.258 66.4688 164.84 66.4688C164.423 66.4688 164.084 66.8152 164.084 67.2427C164.084 67.6701 164.423 68.0166 164.84 68.0166Z" fill="#777E87"/>
<path d="M144.392 74.207C144.81 74.207 145.148 73.8605 145.148 73.4331C145.148 73.0057 144.81 72.6592 144.392 72.6592C143.975 72.6592 143.636 73.0057 143.636 73.4331C143.636 73.8605 143.975 74.207 144.392 74.207Z" fill="#777E87"/>
<path d="M123.952 80.3906C124.369 80.3906 124.708 80.0441 124.708 79.6167C124.708 79.1893 124.369 78.8428 123.952 78.8428C123.534 78.8428 123.196 79.1893 123.196 79.6167C123.196 80.0441 123.534 80.3906 123.952 80.3906Z" fill="#777E87"/>
<path d="M103.512 86.582C103.929 86.582 104.267 86.2355 104.267 85.8081C104.267 85.3807 103.929 85.0342 103.512 85.0342C103.094 85.0342 102.756 85.3807 102.756 85.8081C102.756 86.2355 103.094 86.582 103.512 86.582Z" fill="#777E87"/>
<path d="M83.0633 92.7656C83.4808 92.7656 83.8192 92.4191 83.8192 91.9917C83.8192 91.5643 83.4808 91.2178 83.0633 91.2178C82.6459 91.2178 82.3074 91.5643 82.3074 91.9917C82.3074 92.4191 82.6459 92.7656 83.0633 92.7656Z" fill="#777E87"/>
<path d="M62.6231 98.957C63.0405 98.957 63.3789 98.6105 63.3789 98.1831C63.3789 97.7557 63.0405 97.4092 62.6231 97.4092C62.2056 97.4092 61.8672 97.7557 61.8672 98.1831C61.8672 98.6105 62.2056 98.957 62.6231 98.957Z" fill="#777E87"/>
<path d="M174.778 49.6865C175.195 49.6865 175.534 49.34 175.534 48.9126C175.534 48.4852 175.195 48.1387 174.778 48.1387C174.361 48.1387 174.022 48.4852 174.022 48.9126C174.022 49.34 174.361 49.6865 174.778 49.6865Z" fill="#777E87"/>
<path d="M154.338 55.8691C154.755 55.8691 155.094 55.5227 155.094 55.0952C155.094 54.6678 154.755 54.3213 154.338 54.3213C153.92 54.3213 153.582 54.6678 153.582 55.0952C153.582 55.5227 153.92 55.8691 154.338 55.8691Z" fill="#777E87"/>
<path d="M133.897 62.0605C134.315 62.0605 134.653 61.7141 134.653 61.2866C134.653 60.8592 134.315 60.5127 133.897 60.5127C133.48 60.5127 133.142 60.8592 133.142 61.2866C133.142 61.7141 133.48 62.0605 133.897 62.0605Z" fill="#777E87"/>
<path d="M113.449 68.252C113.867 68.252 114.205 67.9055 114.205 67.478C114.205 67.0506 113.867 66.7041 113.449 66.7041C113.032 66.7041 112.693 67.0506 112.693 67.478C112.693 67.9055 113.032 68.252 113.449 68.252Z" fill="#777E87"/>
<path d="M93.0089 74.4356C93.4264 74.4356 93.7648 74.0891 93.7648 73.6616C93.7648 73.2342 93.4264 72.8877 93.0089 72.8877C92.5915 72.8877 92.2531 73.2342 92.2531 73.6616C92.2531 74.0891 92.5915 74.4356 93.0089 74.4356Z" fill="#777E87"/>
<path d="M72.5687 80.627C72.9861 80.627 73.3245 80.2805 73.3245 79.853C73.3245 79.4256 72.9861 79.0791 72.5687 79.0791C72.1512 79.0791 71.8128 79.4256 71.8128 79.853C71.8128 80.2805 72.1512 80.627 72.5687 80.627Z" fill="#777E87"/>
<path d="M52.1204 86.8096C52.5379 86.8096 52.8763 86.4631 52.8763 86.0356C52.8763 85.6082 52.5379 85.2617 52.1204 85.2617C51.703 85.2617 51.3646 85.6082 51.3646 86.0356C51.3646 86.4631 51.703 86.8096 52.1204 86.8096Z" fill="#777E87"/>
<path d="M164.283 37.54C164.701 37.54 165.039 37.1935 165.039 36.7661C165.039 36.3387 164.701 35.9922 164.283 35.9922C163.866 35.9922 163.527 36.3387 163.527 36.7661C163.527 37.1935 163.866 37.54 164.283 37.54Z" fill="#777E87"/>
<path d="M143.835 43.7305C144.253 43.7305 144.591 43.384 144.591 42.9565C144.591 42.5291 144.253 42.1826 143.835 42.1826C143.418 42.1826 143.079 42.5291 143.079 42.9565C143.079 43.384 143.418 43.7305 143.835 43.7305Z" fill="#777E87"/>
<path d="M123.395 49.9141C123.812 49.9141 124.151 49.5676 124.151 49.1401C124.151 48.7127 123.812 48.3662 123.395 48.3662C122.977 48.3662 122.639 48.7127 122.639 49.1401C122.639 49.5676 122.977 49.9141 123.395 49.9141Z" fill="#777E87"/>
<path d="M102.955 56.1055C103.372 56.1055 103.71 55.759 103.71 55.3316C103.71 54.9041 103.372 54.5576 102.955 54.5576C102.537 54.5576 102.199 54.9041 102.199 55.3316C102.199 55.759 102.537 56.1055 102.955 56.1055Z" fill="#777E87"/>
<path d="M82.5064 62.2891C82.9238 62.2891 83.2622 61.9426 83.2622 61.5151C83.2622 61.0877 82.9238 60.7412 82.5064 60.7412C82.0889 60.7412 81.7505 61.0877 81.7505 61.5151C81.7505 61.9426 82.0889 62.2891 82.5064 62.2891Z" fill="#777E87"/>
<path d="M62.0661 68.4805C62.4836 68.4805 62.822 68.134 62.822 67.7065C62.822 67.2791 62.4836 66.9326 62.0661 66.9326C61.6487 66.9326 61.3102 67.2791 61.3102 67.7065C61.3102 68.134 61.6487 68.4805 62.0661 68.4805Z" fill="#777E87"/>
<path d="M41.6179 74.6631C42.0354 74.6631 42.3738 74.3166 42.3738 73.8892C42.3738 73.4617 42.0354 73.1152 41.6179 73.1152C41.2005 73.1152 40.8621 73.4617 40.8621 73.8892C40.8621 74.3166 41.2005 74.6631 41.6179 74.6631Z" fill="#777E87"/>
<path d="M153.781 25.3926C154.198 25.3926 154.537 25.0461 154.537 24.6187C154.537 24.1912 154.198 23.8447 153.781 23.8447C153.363 23.8447 153.025 24.1912 153.025 24.6187C153.025 25.0461 153.363 25.3926 153.781 25.3926Z" fill="#777E87"/>
<path d="M133.34 31.584C133.758 31.584 134.096 31.2375 134.096 30.8101C134.096 30.3826 133.758 30.0361 133.34 30.0361C132.923 30.0361 132.585 30.3826 132.585 30.8101C132.585 31.2375 132.923 31.584 133.34 31.584Z" fill="#777E87"/>
<path d="M112.892 37.7676C113.31 37.7676 113.648 37.4211 113.648 36.9937C113.648 36.5662 113.31 36.2197 112.892 36.2197C112.475 36.2197 112.136 36.5662 112.136 36.9937C112.136 37.4211 112.475 37.7676 112.892 37.7676Z" fill="#777E87"/>
<path d="M92.452 43.959C92.8694 43.959 93.2079 43.6125 93.2079 43.1851C93.2079 42.7576 92.8694 42.4111 92.452 42.4111C92.0345 42.4111 91.6961 42.7576 91.6961 43.1851C91.6961 43.6125 92.0345 43.959 92.452 43.959Z" fill="#777E87"/>
<path d="M72.0038 50.1504C72.4212 50.1504 72.7597 49.8039 72.7597 49.3765C72.7597 48.949 72.4212 48.6025 72.0038 48.6025C71.5863 48.6025 71.2479 48.949 71.2479 49.3765C71.2479 49.8039 71.5863 50.1504 72.0038 50.1504Z" fill="#777E87"/>
<path d="M51.5635 56.333C51.981 56.333 52.3194 55.9865 52.3194 55.5591C52.3194 55.1317 51.981 54.7852 51.5635 54.7852C51.1461 54.7852 50.8077 55.1317 50.8077 55.5591C50.8077 55.9865 51.1461 56.333 51.5635 56.333Z" fill="#777E87"/>
<path d="M31.1233 62.5254C31.5408 62.5254 31.8792 62.1789 31.8792 61.7515C31.8792 61.324 31.5408 60.9775 31.1233 60.9775C30.7058 60.9775 30.3674 61.324 30.3674 61.7515C30.3674 62.1789 30.7058 62.5254 31.1233 62.5254Z" fill="#777E87"/>
<path d="M143.278 13.2461C143.696 13.2461 144.034 12.8996 144.034 12.4722C144.034 12.0447 143.696 11.6982 143.278 11.6982C142.861 11.6982 142.522 12.0447 142.522 12.4722C142.522 12.8996 142.861 13.2461 143.278 13.2461Z" fill="#777E87"/>
<path d="M122.838 19.4375C123.255 19.4375 123.594 19.091 123.594 18.6636C123.594 18.2361 123.255 17.8896 122.838 17.8896C122.42 17.8896 122.082 18.2361 122.082 18.6636C122.082 19.091 122.42 19.4375 122.838 19.4375Z" fill="#777E87"/>
<path d="M102.39 25.6289C102.807 25.6289 103.146 25.2824 103.146 24.855C103.146 24.4276 102.807 24.0811 102.39 24.0811C101.972 24.0811 101.634 24.4276 101.634 24.855C101.634 25.2824 101.972 25.6289 102.39 25.6289Z" fill="#777E87"/>
<path d="M81.9494 31.8125C82.3669 31.8125 82.7053 31.466 82.7053 31.0386C82.7053 30.6112 82.3669 30.2646 81.9494 30.2646C81.5319 30.2646 81.1935 30.6112 81.1935 31.0386C81.1935 31.466 81.5319 31.8125 81.9494 31.8125Z" fill="#777E87"/>
<path d="M61.5092 38.0029C61.9266 38.0029 62.265 37.6564 62.265 37.229C62.265 36.8016 61.9266 36.4551 61.5092 36.4551C61.0917 36.4551 60.7533 36.8016 60.7533 37.229C60.7533 37.6564 61.0917 38.0029 61.5092 38.0029Z" fill="#777E87"/>
<path d="M41.0609 44.1875C41.4784 44.1875 41.8168 43.841 41.8168 43.4136C41.8168 42.9861 41.4784 42.6396 41.0609 42.6396C40.6435 42.6396 40.3051 42.9861 40.3051 43.4136C40.3051 43.841 40.6435 44.1875 41.0609 44.1875Z" fill="#777E87"/>
<path d="M20.6207 50.3789C21.0381 50.3789 21.3765 50.0324 21.3765 49.605C21.3765 49.1776 21.0381 48.8311 20.6207 48.8311C20.2032 48.8311 19.8648 49.1776 19.8648 49.605C19.8648 50.0324 20.2032 50.3789 20.6207 50.3789Z" fill="#777E87"/>
<path d="M143.222 14.7133C145.551 14.7133 147.439 13.5972 147.439 12.2204C147.439 10.8436 145.551 9.72754 143.222 9.72754C140.894 9.72754 139.006 10.8436 139.006 12.2204C139.006 13.5972 140.894 14.7133 143.222 14.7133Z" fill="white" stroke="black" stroke-linecap="round" stroke-linejoin="round"/>
<path d="M143.223 11.4873C141.416 11.4873 139.889 12.1635 139.292 13.1003C139.897 14.0453 141.424 14.7134 143.223 14.7134C145.021 14.7134 146.556 14.0453 147.161 13.1003C146.556 12.1553 145.029 11.4873 143.223 11.4873Z" fill="black"/>
<path d="M206.517 87.9183C208.846 87.9183 210.734 86.8023 210.734 85.4255C210.734 84.0487 208.846 82.9326 206.517 82.9326C204.188 82.9326 202.3 84.0487 202.3 85.4255C202.3 86.8023 204.188 87.9183 206.517 87.9183Z" fill="white" stroke="black" stroke-linecap="round" stroke-linejoin="round"/>
<path d="M206.517 84.6924C204.71 84.6924 203.183 85.3685 202.586 86.3054C203.191 87.2504 204.718 87.9184 206.517 87.9184C208.315 87.9184 209.85 87.2504 210.455 86.3054C209.85 85.3604 208.323 84.6924 206.517 84.6924Z" fill="black"/>
<path d="M83.2941 125.223C85.623 125.223 87.511 124.107 87.511 122.73C87.511 121.353 85.623 120.237 83.2941 120.237C80.9651 120.237 79.0771 121.353 79.0771 122.73C79.0771 124.107 80.9651 125.223 83.2941 125.223Z" fill="white" stroke="black" stroke-linecap="round" stroke-linejoin="round"/>
<path d="M83.2941 121.997C81.488 121.997 79.9603 122.673 79.3636 123.61C79.9683 124.555 81.4959 125.223 83.2941 125.223C85.0923 125.223 86.6279 124.555 87.2326 123.61C86.6279 122.665 85.1002 121.997 83.2941 121.997Z" fill="black"/>
<path d="M19.9921 52.016C22.3211 52.016 24.209 50.8999 24.209 49.5231C24.209 48.1464 22.3211 47.0303 19.9921 47.0303C17.6631 47.0303 15.7751 48.1464 15.7751 49.5231C15.7751 50.8999 17.6631 52.016 19.9921 52.016Z" fill="white" stroke="black" stroke-linecap="round" stroke-linejoin="round"/>
<path d="M19.9921 48.79C18.186 48.79 16.6583 49.4662 16.0616 50.4031C16.6663 51.3481 18.1939 52.0161 19.9921 52.0161C21.7903 52.0161 23.3259 51.3481 23.9306 50.4031C23.3259 49.4581 21.7982 48.79 19.9921 48.79Z" fill="black"/>
<path d="M177.507 128.195L166.153 146.501L177.507 153.93L188.018 141.784L177.507 128.195Z" stroke="#2FFD76" stroke-linecap="round" stroke-linejoin="round"/>
<path d="M180.308 160.798L166.153 146.501L177.507 153.931L180.308 160.798Z" stroke="#2FFD76" stroke-linecap="round" stroke-linejoin="round"/>
<path d="M177.507 128.195V153.93" stroke="#2FFD76" stroke-linecap="round" stroke-linejoin="round"/>
<path d="M188.018 141.784L180.308 160.798" stroke="#2FFD76" stroke-linecap="round" stroke-linejoin="round"/>
<path d="M31.4416 126.893L31.2507 137.76L37.6397 136.905L40.9337 129.687L31.4416 126.893Z" stroke="#2FFD76" stroke-linecap="round" stroke-linejoin="round"/>
<path d="M31.4416 126.893L37.6397 136.905" stroke="#2FFD76" stroke-linecap="round" stroke-linejoin="round"/>
<path d="M513.701 314.843C521.117 319.226 521.149 326.329 513.789 330.704L491.94 343.706L366.832 269.751L388.681 256.749C396.041 252.366 408.015 252.366 415.431 256.749L513.709 314.843H513.701Z" fill="black"/>
<path d="M496.316 275.274C503.732 279.657 503.764 286.761 496.404 291.136L398.762 349.229C391.402 353.612 379.427 353.612 372.012 349.229L273.733 291.136C266.326 286.753 266.286 279.649 273.646 275.274L371.288 217.181C378.648 212.798 390.622 212.798 398.038 217.181L496.316 275.274Z" fill="white" stroke="black" stroke-linecap="round" stroke-linejoin="round"/>
<path d="M474.388 271.795C479.051 274.549 479.067 279.013 474.444 281.767L397.727 327.421C393.097 330.174 385.57 330.174 380.915 327.421L319.133 290.899C314.478 288.146 314.454 283.681 319.077 280.928L395.794 235.274C400.425 232.521 407.951 232.521 412.606 235.274L474.388 271.795Z" fill="black"/>
<path d="M496.404 291.135L398.762 349.229C391.402 353.612 379.427 353.612 372.012 349.229L273.733 291.135C270.002 288.927 268.14 286.035 268.148 283.151L268.068 332.984C268.06 335.876 269.922 338.768 273.654 340.968L371.932 399.062C379.348 403.444 391.314 403.444 398.682 399.062L496.324 340.968C499.984 338.793 501.814 335.941 501.822 333.09L501.902 283.257C501.894 286.109 500.064 288.96 496.404 291.135Z" fill="white"/>
<path d="M382.172 352.3V402.198" stroke="#C2C8CF" stroke-linecap="round" stroke-linejoin="round"/>
<path d="M384.949 402.337C389.914 402.394 394.911 401.311 398.682 399.062L496.324 340.968C499.984 338.793 501.814 335.942 501.822 333.091L501.902 283.258C501.894 286.109 500.064 288.96 496.404 291.136L398.762 349.229C394.966 351.486 389.938 352.577 384.949 352.504V402.337Z" fill="#C2C8CF"/>
<path d="M496.404 291.135L398.762 349.229C391.402 353.612 379.427 353.612 372.012 349.229L273.733 291.135C270.002 288.927 268.14 286.035 268.148 283.151L268.068 332.984C268.06 335.876 269.922 338.768 273.654 340.968L371.932 399.062C379.348 403.444 391.314 403.444 398.682 399.062L496.324 340.968C499.984 338.793 501.814 335.941 501.822 333.09L501.902 283.257C501.894 286.109 500.064 288.96 496.404 291.135Z" stroke="black" stroke-linecap="round" stroke-linejoin="round"/>
<path d="M464.801 102.763C467.124 94.7957 463.273 84.8813 456.239 80.7265L392.102 42.8121C390.296 41.7449 388.45 41.1665 386.668 41.0117L379.69 40.417V42.918C377.613 44.4088 375.974 46.7225 375.099 49.7286L313.372 261.419C311.049 269.386 314.9 279.3 321.934 283.455L384.623 320.514L384.527 322.592L391.505 323.178C396.677 323.602 401.347 320.368 403.074 314.453L464.801 102.763Z" fill="#777E87"/>
<path d="M464.777 92.6618L443.628 90.8125L312.792 268.026C313.341 274.242 316.778 280.401 321.942 283.456L384.631 320.515L384.535 322.592L391.513 323.179C396.685 323.602 401.355 320.368 403.082 314.454L464.809 102.764C465.747 99.5457 465.66 96.01 464.785 92.6618H464.777Z" fill="black"/>
<path d="M449.262 80.1396C456.295 84.2944 460.146 94.2088 457.823 102.176L396.096 313.866C393.773 321.834 386.119 324.946 379.093 320.791L314.956 282.876C307.922 278.722 304.071 268.807 306.395 260.84L368.121 49.1498C370.444 41.1824 378.099 38.0704 385.124 42.2252L449.262 80.1396Z" fill="black"/>
<path d="M385.124 42.2256L449.262 80.14C456.295 84.2947 460.146 94.2092 457.823 102.177L396.096 313.867C394.998 317.638 392.699 320.327 389.834 321.663" stroke="#C2C8CF" stroke-linecap="round" stroke-linejoin="round"/>
<path d="M447.877 83.3985C453.463 86.706 456.526 94.5838 454.68 100.914L393.105 312.074C391.314 318.209 385.427 320.604 380.008 317.402L316.42 279.813C310.763 276.465 307.66 268.49 309.529 262.078L370.635 52.5146C372.656 45.5818 379.316 42.869 385.442 46.4861L447.869 83.3903L447.877 83.3985Z" fill="#2FFD76" stroke="black" stroke-linecap="round" stroke-linejoin="round"/>
<path d="M338.825 280.302L337.568 279.544L339 274.615L340.265 275.373L338.825 280.302Z" fill="black"/>
<path d="M336.78 279.071L335.515 278.313L337.52 271.438L338.785 272.187L336.78 279.071Z" fill="black"/>
<path d="M334.736 277.849L333.471 277.091L334.258 274.395L335.515 275.152L334.736 277.849Z" fill="black"/>
<path d="M353.02 288.822L347.657 285.613L348.874 281.433L352.391 280.366L354.237 284.643L353.02 288.822Z" fill="black"/>
<path d="M368.121 294.281C367.644 295.918 366.06 296.521 364.58 295.633C363.101 294.745 362.289 292.7 362.766 291.071L363.045 290.11C363.522 288.472 365.106 287.869 366.586 288.757C368.065 289.645 368.877 291.69 368.4 293.319L368.121 294.281Z" fill="black"/>
<path d="M325.244 269.629L319.889 266.42L321.313 261.523L326.668 264.733L325.244 269.629Z" fill="black"/>
<path d="M319.38 268.301L321.671 267.16L319.889 266.419L319.38 268.301Z" fill="black"/>
<path d="M379.587 298.419L380.048 296.83L377.375 298.158L379.324 299.323L382.737 301.368L383 300.463L379.587 298.419Z" fill="black"/>
<path d="M376.77 300.244L376.507 301.148L379.921 303.193L379.451 304.782L382.125 303.446L380.183 302.281L376.77 300.244Z" fill="black"/>
<path d="M355.836 144.653L358.653 146.315L359.799 142.389L360.753 142.951L359.608 146.877L362.424 148.539L362.058 149.794L359.242 148.132L358.096 152.059L357.141 151.497L358.287 147.57L355.47 145.908L355.836 144.653Z" fill="black"/>
<path d="M366.076 147.464L363.904 146.177L364.222 145.077C365.456 145.753 366.673 145.769 367.437 143.896L368.376 144.449L364.429 157.973L363.212 157.256L366.068 147.464H366.076Z" fill="black"/>
<path d="M371.431 154.771C373.03 154.519 374.033 154.307 374.51 152.678C374.988 151.032 374.478 149.411 373.158 148.637C372.465 148.221 371.845 148.229 371.328 148.547C370.771 148.881 370.381 149.525 369.975 150.902L368.702 150.144C369.203 148.417 369.864 147.513 370.707 147.048C371.59 146.584 372.64 146.714 373.651 147.317C375.664 148.506 376.468 151.007 375.767 153.403C375.011 155.993 373.452 156.083 371.511 156.344C370.206 156.515 368.503 156.8 367.795 158.128L373.221 161.337L372.76 162.91L365.869 158.836C367.031 155.317 369.283 155.105 371.423 154.779L371.431 154.771Z" fill="black"/>
<path d="M374.948 159.675C375.513 157.728 376.754 157.223 378.011 157.386L378.027 157.329C377.239 156.311 376.905 154.942 377.311 153.549C377.932 151.406 379.769 150.885 381.599 151.96C383.429 153.044 384.464 155.243 383.835 157.402C383.429 158.795 382.546 159.423 381.48 159.365L381.464 159.423C382.451 160.539 382.992 162.282 382.459 164.107C381.568 167.17 379.364 167.137 377.542 166.054C375.72 164.97 374.065 162.706 374.948 159.667V159.675ZM381.241 163.398C381.759 161.63 381.138 159.976 379.539 159.031C377.971 158.103 376.706 158.649 376.197 160.416C375.688 162.16 376.348 163.748 377.94 164.693C379.491 165.614 380.74 165.125 381.241 163.398ZM382.634 156.767C383.032 155.39 382.475 154.095 381.202 153.345C379.929 152.587 378.886 152.946 378.489 154.315C378.091 155.691 378.648 156.987 379.921 157.736C381.194 158.494 382.236 158.135 382.634 156.767Z" fill="black"/>
<path d="M382.872 166.601L384.281 167.432L383.716 169.379L382.308 168.548L382.872 166.601Z" fill="black"/>
<path d="M385.673 165.973L386.875 166.682C386.548 168.442 387.105 170.022 388.514 170.853C389.938 171.692 391.227 170.934 391.8 168.971C392.388 166.951 391.704 165.167 390.399 164.393C389.325 163.757 388.418 163.912 387.758 164.466L386.58 163.774L389.787 157.199L395.078 160.328L394.648 161.802L390.208 159.179L388.378 162.837L388.41 162.853C389.19 162.462 390.065 162.495 391.02 163.057C392.786 164.099 393.9 166.763 393.033 169.745C392.198 172.613 390.161 173.525 388.108 172.311C386.047 171.097 385.037 168.515 385.673 165.973Z" fill="black"/>
<path d="M412.932 122.682L406.153 145.948" stroke="#C2C8CF" stroke-linecap="round" stroke-linejoin="round"/>
<path d="M368.36 111.806C366.713 110.665 366.458 108.865 366.84 107.325L367.66 107.806C367.381 109.117 367.604 110.144 368.622 110.902L369.617 107.48C368.519 106.413 367.755 105.435 368.241 103.757C368.67 102.274 369.784 101.867 371.057 102.527L371.272 101.802L371.821 102.128L371.606 102.853C372.871 103.757 373.253 105.003 372.991 106.502L372.203 106.038C372.37 105.101 372.076 104.303 371.351 103.741L370.421 106.926C371.59 108.018 372.434 109.044 371.916 110.828C371.455 112.417 370.198 112.8 368.901 112.148L368.575 113.256L368.026 112.93L368.352 111.806H368.36ZM369.919 106.453L370.81 103.398C369.999 103.007 369.299 103.236 369.036 104.164C368.79 105.012 369.1 105.639 369.927 106.453H369.919ZM370.118 107.977L369.163 111.244C369.967 111.627 370.81 111.407 371.105 110.388C371.391 109.411 370.97 108.816 370.118 107.977Z" fill="black"/>
<path d="M379.189 108.784V108.759L375.377 106.503L375.664 105.509L380.334 108.27L380.072 109.183C378.234 109.998 376.03 112.124 374.844 115.643L373.969 115.122C375.035 112.051 377.2 109.533 379.181 108.776L379.189 108.784Z" fill="black"/>
<path d="M378.759 114.454L379.571 114.935C379.173 116.409 379.634 117.623 380.732 118.275C381.655 118.821 382.491 118.584 382.865 117.305C383.199 116.157 382.745 115.171 381.623 114.511L381.202 114.267L381.448 113.403L381.854 113.647C382.896 114.267 383.597 113.981 383.883 113.012C384.169 112.018 383.692 111.04 382.888 110.568C381.926 109.998 381.098 110.503 380.732 111.757L379.929 111.285C380.462 109.509 381.695 108.841 383.167 109.713C384.408 110.446 385.124 111.937 384.663 113.517C384.368 114.535 383.732 114.861 383.008 114.772V114.812C383.835 115.7 384.01 116.743 383.668 117.924C383.167 119.66 381.83 120.026 380.478 119.228C379.006 118.356 378.17 116.548 378.743 114.47L378.759 114.454Z" fill="black"/>
<path d="M384.925 116.287C385.785 113.354 387.328 112.156 388.911 113.093C390.495 114.03 390.98 116.392 390.121 119.358C389.277 122.242 387.814 123.545 386.143 122.559C384.496 121.582 384.09 119.17 384.925 116.295V116.287ZM389.27 118.853C389.938 116.555 389.795 114.731 388.633 114.046C387.455 113.346 386.461 114.445 385.777 116.792C385.108 119.089 385.252 120.898 386.437 121.598C387.63 122.299 388.593 121.199 389.27 118.853Z" fill="black"/>
<path d="M390.877 119.806C391.736 116.873 393.28 115.676 394.863 116.613C396.446 117.549 396.932 119.912 396.072 122.877C395.229 125.761 393.765 127.065 392.094 126.079C390.447 125.101 390.041 122.69 390.877 119.814V119.806ZM395.221 122.372C395.889 120.075 395.746 118.25 394.585 117.566C393.407 116.865 392.412 117.965 391.728 120.311C391.06 122.608 391.203 124.417 392.388 125.118C393.582 125.818 394.545 124.718 395.221 122.372Z" fill="black"/>
<path d="M396.828 123.326C397.688 120.393 399.231 119.195 400.814 120.132C402.398 121.069 402.883 123.431 402.016 126.397C401.172 129.281 399.708 130.584 398.038 129.598C396.391 128.621 395.985 126.209 396.82 123.334L396.828 123.326ZM401.172 125.892C401.841 123.594 401.698 121.77 400.536 121.085C399.358 120.385 398.356 121.484 397.68 123.831C397.011 126.128 397.154 127.937 398.34 128.637C399.533 129.338 400.496 128.238 401.172 125.892Z" fill="black"/>
<path d="M444.567 107.699L432.115 100.335L432.537 98.8926L444.989 106.249L444.567 107.699Z" fill="black"/>
<path d="M443.207 112.376L430.747 105.019L431.168 103.569L443.628 110.934L443.207 112.376Z" fill="black"/>
<path d="M376.157 61.3203L379.754 63.4466C380.621 63.9598 381.202 64.6441 381.472 65.3855C381.759 66.1757 381.767 66.9496 381.52 67.805C381.194 68.913 380.478 69.3366 379.626 69.2388L379.61 69.2877C380.398 70.1594 380.708 71.528 380.319 72.8722C380.024 73.8906 379.579 74.4527 378.95 74.7215C378.329 74.9985 377.526 74.9007 376.674 74.3956L372.983 72.2123L376.157 61.3203ZM375.147 71.3488L377.025 72.4567C377.812 72.9211 378.457 72.6034 378.711 71.7235C379.014 70.6889 378.608 69.8254 377.868 69.3855L376.038 68.302L375.147 71.3488ZM378.274 67.7154C378.982 68.1309 379.602 67.9598 379.849 67.1126C380.088 66.306 379.785 65.5728 379.061 65.1492L377.263 64.082L376.507 66.6726L378.274 67.7154Z" fill="black"/>
<path d="M383.827 77.6128L383.804 77.5965C383.334 78.0201 382.785 78.232 381.798 77.6454C380.621 76.9448 380.032 75.6169 380.486 74.0609C380.987 72.342 382.18 72.399 383.533 72.9204C384.543 73.3033 385.013 73.458 385.188 72.8633C385.355 72.3012 385.132 71.7391 384.488 71.3644C383.772 70.9407 383.318 71.0874 383.056 71.8043L381.695 70.9978C382.141 69.6536 383.247 68.8959 384.933 69.8898C386.668 70.9163 387.058 72.3745 386.525 74.2075L385.363 78.1831C385.188 78.7778 385.156 79.1688 385.252 79.3806L385.228 79.454L383.756 78.5823C383.708 78.3786 383.756 77.9794 383.827 77.6047V77.6128ZM384.392 75.731L384.734 74.5578C384.4 74.6149 383.955 74.4845 383.533 74.3868C382.666 74.1587 382.196 74.1668 381.981 74.9C381.767 75.6332 382.053 76.1057 382.594 76.4234C383.469 76.9448 384.17 76.4967 384.392 75.7391V75.731Z" fill="black"/>
<path d="M389.079 68.9619L390.606 69.8662L387.432 80.7582L385.904 79.854L389.079 68.9619Z" fill="black"/>
<path d="M392.038 82.4605L392.015 82.4442C391.545 82.8678 390.996 83.0796 390.01 82.4931C388.832 81.7925 388.243 80.4645 388.697 78.9085C389.198 77.1896 390.391 77.2466 391.744 77.768C392.755 78.1509 393.224 78.3057 393.399 77.711C393.566 77.1489 393.343 76.5868 392.699 76.212C391.975 75.7884 391.529 75.9269 391.267 76.6519L389.906 75.8454C390.352 74.5012 391.458 73.7436 393.144 74.7375C394.879 75.7639 395.269 77.2222 394.736 79.0552L393.574 83.0307C393.399 83.6254 393.367 84.0165 393.463 84.2283L393.439 84.3016L391.967 83.4299C391.919 83.2263 391.967 82.8271 392.038 82.4523V82.4605ZM392.603 80.5786L392.946 79.4055C392.611 79.4625 392.158 79.3322 391.744 79.2263C390.877 78.9982 390.407 79.0063 390.193 79.7395C389.978 80.4727 390.264 80.9452 390.805 81.2629C391.68 81.7843 392.381 81.3362 392.603 80.5786Z" fill="black"/>
<path d="M397.552 78.8276L397.584 78.8439C398.221 78.241 398.881 78.1107 399.669 78.575C400.862 79.2838 401.308 80.9701 400.807 82.6809L399.319 87.7889L397.791 86.8846L399.191 82.0862C399.438 81.2471 399.247 80.4406 398.611 80.0658C397.934 79.6667 397.226 80.1066 396.916 81.1738L395.627 85.6056L394.099 84.7013L396.375 76.8887L397.871 77.7767L397.56 78.8439L397.552 78.8276Z" fill="black"/>
<path d="M401.005 84.212C401.682 81.882 403.337 80.7496 405.087 81.7843C406.583 82.6722 407.164 84.3912 406.869 86.1997L405.374 85.3118C405.469 84.5623 405.23 83.8128 404.665 83.4788C403.742 82.9329 402.995 83.6173 402.549 85.1244C402.119 86.5989 402.271 87.8535 403.201 88.4075C403.822 88.7741 404.387 88.5867 404.745 87.7639L406.217 88.6356C405.628 90.2323 404.291 90.9981 402.748 90.0857C400.926 89.0103 400.313 86.5419 400.99 84.212H401.005Z" fill="black"/>
<path d="M406.837 87.6422C407.514 85.3285 409.193 84.2124 410.879 85.2145C412.733 86.3143 413.163 88.8153 412.351 91.6014L408.166 89.1248C407.928 90.3957 408.206 91.4303 409.073 91.9436C409.67 92.2939 410.124 92.1391 410.466 91.6421L411.969 92.5301C411.349 93.7929 410.1 94.4283 408.612 93.5485C406.702 92.4161 406.145 89.9639 406.83 87.634L406.837 87.6422ZM408.612 87.7073L411.174 89.2226C411.42 88.2043 411.134 87.2348 410.434 86.8194C409.622 86.3387 409.041 86.7623 408.604 87.7073H408.612Z" fill="black"/>
<path d="M448.148 143.546C448.362 142.796 449.166 142.234 449.922 142.299C450.678 142.364 451.123 143.024 450.909 143.774L443.923 167.717C443.708 168.466 442.904 169.036 442.141 168.979C441.377 168.922 440.931 168.262 441.154 167.513L448.148 143.537V143.546Z" fill="#2D3033"/>
<path d="M442.141 168.979C441.377 168.922 440.931 168.262 441.154 167.512L448.148 143.537C448.362 142.787 449.166 142.225 449.922 142.29" stroke="#C2C8CF" stroke-linecap="round" stroke-linejoin="round"/>
<path d="M296.895 320.945C296.895 318.851 298.374 318.02 300.189 319.096L335.714 340.098C337.528 341.165 339.008 343.755 339.008 345.841V364.594C339.008 366.688 337.528 367.519 335.714 366.444L300.189 345.442C298.374 344.375 296.895 341.784 296.895 339.698V320.945Z" fill="black"/>
<path d="M300.761 335.014V330.109L303.665 331.828V336.733L300.761 335.014Z" fill="#2FFD76"/>
<path d="M304.58 337.27V332.365L307.485 334.084V338.988L304.58 337.27Z" fill="#2FFD76"/>
<path d="M308.4 339.526V334.622L311.296 336.341V341.237L308.4 339.526Z" fill="#2FFD76"/>
<path d="M312.211 341.783V336.879L315.115 338.598V343.494L312.211 341.783Z" fill="#2FFD76"/>
<path d="M300.801 336.806L335.468 357.294" stroke="#2FFD76" stroke-linecap="round" stroke-linejoin="round"/>
<path d="M485.608 328.144C487.703 324.457 487.717 320.465 485.639 319.228C483.562 317.99 480.179 319.976 478.085 323.662C475.99 327.349 475.976 331.341 478.053 332.579C480.131 333.816 483.513 331.831 485.608 328.144Z" fill="black"/>
<path d="M496.332 328.52L484.382 321.4C482.989 320.569 480.722 321.897 479.321 324.373C477.921 326.85 477.913 329.522 479.305 330.345L491.256 337.465L496.34 328.52H496.332Z" fill="white" stroke="black" stroke-linecap="round" stroke-linejoin="round"/>
<path d="M496.327 334.529C497.73 332.059 497.738 329.384 496.344 328.554C494.95 327.723 492.682 329.052 491.279 331.522C489.876 333.991 489.869 336.666 491.262 337.497C492.656 338.327 494.924 336.998 496.327 334.529Z" fill="white" stroke="black" stroke-linecap="round" stroke-linejoin="round"/>
<path d="M410.967 483.975C404.355 483.975 398.475 482.655 393.996 480.463C387.877 477.466 384.336 472.944 384.018 467.73C384.018 467.706 384.018 467.681 384.018 467.657C380.501 464.626 377.406 460.749 374.757 456.024L347.569 407.6C338.499 391.437 322.618 375.861 305.249 380.61C294.094 383.657 286.885 394.647 286.885 408.594C286.885 409.718 285.994 410.631 284.896 410.631C283.798 410.631 282.907 409.718 282.907 408.594C282.907 392.741 291.277 380.211 304.222 376.667C311.797 374.598 319.976 375.869 327.877 380.35C336.629 385.319 344.419 393.8 351.023 405.555L378.21 453.979C380.127 457.392 382.292 460.317 384.695 462.745C386.031 458.647 389.58 453.629 397.695 448.301L427.007 429.066C438.743 421.368 450.956 419.527 459.685 424.162C464.554 426.745 467.593 431.144 467.8 435.934C468.031 441.156 465.047 446.06 459.398 449.751L432.991 466.997C424.159 472.765 410.131 477.775 397.258 474.541C394.417 473.824 391.744 472.757 389.238 471.331C390.503 473.433 392.707 475.299 395.722 476.773C406.105 481.857 425.026 481.718 442.013 469.384L518.897 413.563C526.36 408.146 530.458 401.091 530.434 393.71C530.402 386.126 526.09 378.875 518.284 373.295L515.189 371.079C507.209 365.376 505.578 358.688 504.01 352.228C502.451 345.8 500.979 339.739 492.784 334.72C491.837 334.142 491.534 332.896 492.099 331.926C492.664 330.957 493.882 330.647 494.828 331.226C504.44 337.107 506.19 344.293 507.877 351.242C509.333 357.238 510.71 362.908 517.473 367.739L520.568 369.955C529.471 376.317 534.388 384.741 534.42 393.694C534.452 402.435 529.758 410.671 521.204 416.887L444.321 472.708C433.197 480.781 421.223 483.967 410.983 483.967L410.967 483.975ZM388.068 465.726C391.131 468.04 394.513 469.669 398.197 470.598C409.853 473.531 422.703 468.887 430.842 463.576L457.25 446.329C461.65 443.462 463.981 439.836 463.814 436.138C463.671 432.822 461.435 429.702 457.839 427.796C450.391 423.845 439.658 425.604 429.14 432.512L399.828 451.747C392.818 456.35 388.713 461.246 388.06 465.726H388.068Z" fill="white"/>
<path d="M83.0077 466.061C78.2338 471.584 81.8938 478.338 91.1949 481.148L214.425 518.452C223.718 521.262 235.12 519.071 239.894 513.548L303.188 440.342C307.962 434.827 304.294 428.065 295.009 425.255L171.778 387.951C162.485 385.141 151.084 387.332 146.31 392.847L83.0156 466.053L83.0077 466.061Z" fill="white" stroke="black" stroke-linecap="round" stroke-linejoin="round"/>
<path d="M96.8441 467.738C94.5288 470.418 96.3031 473.693 100.814 475.062L217.855 510.491C222.358 511.852 227.888 510.793 230.211 508.112L237.786 499.347C240.101 496.666 238.327 493.391 233.815 492.031L116.775 456.601C112.264 455.233 106.734 456.3 104.419 458.98L96.8441 467.746V467.738Z" fill="white" stroke="black" stroke-linecap="round" stroke-linejoin="round"/>
<path d="M183.984 496.373L195.123 483.485" stroke="black" stroke-linecap="round" stroke-linejoin="round"/>
<path d="M139.722 482.972L150.861 470.092" stroke="black" stroke-linecap="round" stroke-linejoin="round"/>
<path d="M118.239 445.01L121.676 446.053C122.504 446.305 123.021 446.631 123.204 446.989C123.403 447.372 123.323 447.739 122.973 448.146C122.512 448.676 121.74 448.871 120.873 448.822L120.857 448.847C121.557 449.27 121.724 449.922 121.175 450.566C120.753 451.055 120.244 451.315 119.568 451.446C118.899 451.576 118.096 451.519 117.276 451.275L113.752 450.207L118.239 445.018V445.01ZM116.059 449.8L117.849 450.346C118.597 450.574 119.297 450.427 119.663 450.004C120.093 449.507 119.775 449.091 119.067 448.879L117.316 448.35L116.059 449.8ZM119.671 448.081C120.348 448.285 121 448.211 121.35 447.804C121.684 447.421 121.461 447.063 120.769 446.859L119.051 446.338L117.984 447.576L119.671 448.089V448.081Z" fill="black"/>
<path d="M124.326 452.879H124.302C123.777 453.075 123.196 453.173 122.249 452.879C121.119 452.537 120.674 451.902 121.31 451.161C122.018 450.338 123.236 450.378 124.557 450.631C125.543 450.818 126.005 450.892 126.251 450.615C126.482 450.346 126.323 450.077 125.71 449.89C125.026 449.686 124.549 449.751 124.199 450.093L122.902 449.702C123.506 449.059 124.724 448.708 126.331 449.197C127.986 449.694 128.217 450.403 127.461 451.275L125.822 453.173C125.575 453.458 125.495 453.645 125.567 453.743L125.535 453.776L124.127 453.352C124.103 453.254 124.199 453.067 124.31 452.888L124.326 452.879ZM125.113 451.983L125.599 451.421C125.257 451.446 124.803 451.38 124.389 451.332C123.53 451.218 123.053 451.218 122.75 451.568C122.448 451.918 122.687 452.146 123.204 452.301C124.039 452.554 124.803 452.35 125.121 451.983H125.113Z" fill="black"/>
<path d="M130.786 448.807L132.243 449.247L127.755 454.436L126.299 453.996L130.786 448.807Z" fill="black"/>
<path d="M132.378 455.316H132.354C131.829 455.511 131.248 455.609 130.301 455.316C129.171 454.974 128.726 454.338 129.362 453.597C130.07 452.774 131.288 452.815 132.609 453.068C133.595 453.255 134.057 453.336 134.303 453.051C134.534 452.782 134.375 452.514 133.762 452.326C133.078 452.123 132.601 452.188 132.25 452.53L130.954 452.139C131.566 451.495 132.776 451.145 134.391 451.634C136.046 452.131 136.276 452.839 135.521 453.711L133.882 455.609C133.635 455.894 133.555 456.082 133.627 456.18L133.595 456.212L132.187 455.788C132.163 455.691 132.258 455.503 132.37 455.324L132.378 455.316ZM133.166 454.42L133.651 453.858C133.309 453.882 132.855 453.817 132.441 453.768C131.582 453.654 131.105 453.654 130.802 454.004C130.5 454.355 130.739 454.583 131.256 454.738C132.091 454.99 132.855 454.778 133.173 454.42H133.166Z" fill="black"/>
<path d="M138.528 453.638H138.56C139.284 453.361 139.968 453.304 140.716 453.532C141.854 453.874 142.117 454.689 141.408 455.504L139.308 457.931L137.852 457.491L139.825 455.202C140.167 454.803 140.072 454.412 139.459 454.233C138.815 454.037 138.043 454.241 137.605 454.754L135.775 456.864L134.319 456.424L137.542 452.701L138.966 453.133L138.528 453.638Z" fill="black"/>
<path d="M141.552 456.268C142.514 455.161 144.328 454.623 145.999 455.136C147.424 455.568 147.821 456.391 147.32 457.254L145.896 456.822C146.079 456.464 145.92 456.106 145.379 455.943C144.496 455.674 143.652 456 143.032 456.717C142.419 457.417 142.435 458.02 143.326 458.289C143.915 458.468 144.519 458.387 144.981 457.996L146.389 458.419C145.609 459.185 144.153 459.535 142.681 459.095C140.939 458.566 140.597 457.385 141.56 456.277L141.552 456.268Z" fill="black"/>
<path d="M147.225 457.98C148.179 456.88 150.025 456.35 151.633 456.839C153.407 457.377 153.558 458.574 152.412 459.902L148.418 458.696C148.028 459.299 148.195 459.804 149.023 460.049C149.596 460.22 150.073 460.147 150.479 459.91L151.919 460.342C151.139 460.945 149.787 461.238 148.37 460.806C146.548 460.252 146.262 459.079 147.225 457.971V457.98ZM149.031 458.02L151.481 458.762C151.847 458.273 151.664 457.808 151.004 457.605C150.232 457.368 149.588 457.572 149.039 458.02H149.031Z" fill="black"/>
<path d="M110.879 466.85L112.033 467.2C111.707 467.697 111.938 468.007 112.773 468.251C113.37 468.43 114.022 468.447 114.34 468.088C114.675 467.705 114.189 467.461 113.425 467.054C112.526 466.581 111.739 466.109 112.439 465.286C113.107 464.512 114.388 464.39 115.677 464.781C116.982 465.18 117.451 465.864 116.855 466.687L115.725 466.345C116.003 465.929 115.725 465.595 115.12 465.416C114.492 465.221 113.919 465.278 113.672 465.563C113.394 465.881 113.72 466.101 114.468 466.483C115.51 467.021 116.314 467.51 115.59 468.349C114.897 469.147 113.569 469.302 112.264 468.911C110.688 468.439 110.203 467.689 110.879 466.85Z" fill="black"/>
<path d="M116.425 468.284C117.149 467.453 118.541 467.054 119.759 467.421C121.096 467.828 121.215 468.732 120.348 469.743L117.332 468.83C117.038 469.286 117.165 469.669 117.786 469.857C118.215 469.987 118.581 469.93 118.884 469.751L119.974 470.077C119.385 470.533 118.366 470.753 117.292 470.427C115.916 470.011 115.701 469.123 116.425 468.276V468.284ZM117.786 468.317L119.639 468.879C119.918 468.512 119.783 468.162 119.273 468.007C118.693 467.828 118.199 467.983 117.786 468.317Z" fill="black"/>
<path d="M123.212 469.05H123.236C123.777 468.838 124.302 468.797 124.867 468.968C125.726 469.229 125.925 469.84 125.392 470.459L123.801 472.3L122.695 471.966L124.191 470.239C124.453 469.938 124.374 469.644 123.912 469.506C123.427 469.359 122.838 469.506 122.512 469.897L121.127 471.494L120.021 471.16L122.456 468.341L123.538 468.667L123.204 469.05H123.212Z" fill="black"/>
<path d="M125.694 471.094C126.45 470.214 127.723 469.831 128.758 470.141C129.338 470.32 129.553 470.613 129.577 470.915H129.601L130.858 469.473L131.964 469.807L128.567 473.733L127.5 473.407L127.819 473.041H127.803C127.325 473.228 126.753 473.285 126.172 473.106C125.121 472.788 124.907 471.998 125.694 471.086V471.094ZM128.686 472.014C129.147 471.477 129.203 471.037 128.495 470.825C127.89 470.638 127.27 470.906 126.816 471.436C126.347 471.982 126.387 472.389 126.951 472.568C127.612 472.764 128.232 472.544 128.678 472.023L128.686 472.014Z" fill="black"/>
<path d="M154.759 476.708L157.425 477.515C158.547 477.857 158.913 478.517 158.348 479.176C157.95 479.641 157.329 479.893 156.462 479.804L156.446 479.82C156.892 480.089 156.987 480.382 156.645 480.879C156.247 481.457 155.85 481.873 156.001 481.995L155.969 482.036L154.839 481.694C154.728 481.604 155.094 481.164 155.412 480.724C155.73 480.284 155.587 479.934 154.855 479.706L153.908 479.421L152.548 480.993L151.37 480.635L154.767 476.708H154.759ZM154.433 478.802L155.682 479.176C156.327 479.372 156.836 479.242 157.107 478.932C157.385 478.614 157.29 478.288 156.661 478.101L155.38 477.71L154.433 478.802Z" fill="black"/>
<path d="M157.735 480.781C158.459 479.95 159.852 479.551 161.069 479.918C162.406 480.325 162.525 481.229 161.658 482.232L158.642 481.319C158.348 481.775 158.475 482.158 159.096 482.346C159.525 482.476 159.891 482.419 160.202 482.248L161.292 482.574C160.711 483.03 159.685 483.25 158.61 482.924C157.234 482.508 157.019 481.62 157.743 480.773L157.735 480.781ZM159.096 480.814L160.95 481.376C161.228 481.01 161.093 480.659 160.584 480.504C160.003 480.325 159.51 480.48 159.096 480.814Z" fill="black"/>
<path d="M162.35 482.183C163.074 481.344 164.45 480.936 165.716 481.327C166.798 481.653 167.092 482.28 166.71 482.932L165.628 482.606C165.771 482.337 165.644 482.06 165.238 481.938C164.57 481.735 163.933 481.979 163.464 482.525C163.002 483.054 163.01 483.511 163.687 483.714C164.132 483.853 164.586 483.788 164.936 483.486L166.002 483.804C165.413 484.382 164.307 484.651 163.193 484.309C161.881 483.91 161.618 483.014 162.342 482.175L162.35 482.183Z" fill="black"/>
<path d="M166.837 483.534C167.561 482.703 168.954 482.304 170.171 482.671C171.508 483.078 171.627 483.982 170.76 484.984L167.744 484.072C167.45 484.528 167.577 484.911 168.198 485.098C168.628 485.229 168.994 485.172 169.304 484.993L170.394 485.318C169.805 485.775 168.787 485.995 167.713 485.669C166.336 485.253 166.121 484.365 166.845 483.518L166.837 483.534ZM168.198 483.567L170.052 484.129C170.33 483.762 170.195 483.412 169.686 483.257C169.105 483.078 168.612 483.233 168.198 483.567Z" fill="black"/>
<path d="M172.876 483.591L173.982 483.925L171.548 486.744L170.442 486.41L172.876 483.591ZM173.839 482.483L174.945 482.817L174.364 483.485L173.258 483.151L173.839 482.483Z" fill="black"/>
<path d="M174.555 484.097L175.677 484.439L175.08 486.101C174.969 486.41 174.874 486.606 174.874 486.606H174.889C174.889 486.606 175.104 486.443 175.454 486.215L177.396 484.96L178.502 485.294L174.611 487.673L173.553 487.355L174.547 484.105L174.555 484.097Z" fill="black"/>
<path d="M177.547 486.777C178.271 485.946 179.663 485.546 180.881 485.913C182.217 486.32 182.337 487.225 181.469 488.227L178.454 487.314C178.16 487.77 178.287 488.153 178.907 488.341C179.337 488.471 179.703 488.414 180.005 488.243L181.095 488.569C180.515 489.025 179.488 489.245 178.414 488.919C177.038 488.504 176.823 487.616 177.547 486.768V486.777ZM178.907 486.809L180.761 487.371C181.04 487.005 180.905 486.654 180.395 486.5C179.814 486.32 179.321 486.475 178.907 486.809Z" fill="black"/>
<path d="M197.04 491.999C198.043 490.834 199.889 490.272 201.599 490.785C203.024 491.217 203.374 492.048 202.849 492.83L201.679 492.48C201.918 492.048 201.703 491.665 201.019 491.453C199.945 491.128 198.91 491.576 198.242 492.358C197.55 493.156 197.669 493.922 198.64 494.215C199.332 494.427 200.056 494.288 200.486 493.906L201.639 494.256C201.305 494.59 200.796 494.859 200.199 494.989C199.586 495.119 198.878 495.119 198.075 494.875C196.444 494.378 196.022 493.181 197.04 491.999Z" fill="black"/>
<path d="M202.324 494.281C203.048 493.442 204.496 493.059 205.785 493.45C207.074 493.841 207.4 494.753 206.676 495.592C205.952 496.431 204.504 496.814 203.215 496.423C201.926 496.032 201.599 495.12 202.324 494.281ZM205.554 495.258C206.031 494.712 205.968 494.224 205.299 494.02C204.615 493.816 203.923 494.077 203.445 494.623C202.968 495.169 203.024 495.649 203.708 495.861C204.384 496.065 205.084 495.812 205.554 495.266V495.258Z" fill="black"/>
<path d="M209.357 495.111H209.381C209.922 494.899 210.447 494.859 211.012 495.03C211.871 495.29 212.07 495.901 211.537 496.52L209.946 498.362L208.84 498.028L210.336 496.3C210.598 495.999 210.527 495.706 210.057 495.567C209.572 495.421 208.983 495.567 208.657 495.958L207.272 497.555L206.167 497.221L208.601 494.402L209.683 494.728L209.349 495.111H209.357Z" fill="black"/>
<path d="M212.842 495.689L213.964 496.032L213.367 497.694C213.256 498.003 213.16 498.199 213.16 498.199H213.176C213.176 498.199 213.391 498.036 213.741 497.808L215.682 496.553L216.788 496.887L212.898 499.266L211.839 498.948L212.834 495.689H212.842Z" fill="black"/>
<path d="M215.834 498.362C216.558 497.531 217.95 497.132 219.167 497.499C220.504 497.906 220.623 498.81 219.756 499.821L216.741 498.908C216.446 499.364 216.574 499.747 217.194 499.935C217.624 500.065 217.99 500.008 218.3 499.837L219.39 500.163C218.809 500.619 217.783 500.839 216.709 500.513C215.332 500.098 215.118 499.21 215.842 498.371L215.834 498.362ZM217.194 498.395L219.048 498.957C219.327 498.591 219.191 498.24 218.682 498.085C218.101 497.906 217.608 498.061 217.194 498.395Z" fill="black"/>
<path d="M222.541 499.192H222.565C223.09 498.956 223.52 498.875 224.005 499.021C224.124 499.062 224.196 499.086 224.244 499.119L223.679 499.771H223.655C222.979 499.494 222.231 499.6 221.721 500.186L220.536 501.563L219.43 501.229L221.865 498.41L222.931 498.728L222.541 499.176V499.192Z" fill="black"/>
<path d="M224.713 499.282L225.294 499.453L226.058 498.573L227.14 498.899L226.376 499.779L227.092 499.991L226.662 500.488L225.946 500.268L224.657 501.759C224.474 501.97 224.586 502.093 224.832 502.166C224.968 502.207 225.159 502.255 225.159 502.255L224.681 502.801C224.681 502.801 224.419 502.736 223.981 502.606C223.448 502.443 222.979 502.125 223.44 501.588L224.872 499.934L224.291 499.763L224.721 499.266L224.713 499.282Z" fill="black"/>
<path d="M244.485 481.939C250.967 481.939 256.221 478.831 256.221 474.998C256.221 471.164 250.967 468.057 244.485 468.057C238.003 468.057 232.749 471.164 232.749 474.998C232.749 478.831 238.003 481.939 244.485 481.939Z" stroke="black" stroke-linecap="round" stroke-linejoin="round"/>
<path d="M251.017 459.796V474.998C251.017 477.132 248.089 478.859 244.485 478.859C240.881 478.859 237.953 477.132 237.953 474.998V459.796H251.025H251.017Z" fill="white"/>
<path d="M243.88 461.637V478.859" stroke="#C2C8CF" stroke-linecap="round" stroke-linejoin="round"/>
<path d="M251.017 459.747V474.998C251.017 476.863 248.455 478.859 245.297 478.859V459.747H251.017Z" fill="#C2C8CF"/>
<path d="M251.017 459.796V474.998C251.017 477.132 248.089 478.859 244.485 478.859C240.881 478.859 237.953 477.132 237.953 474.998V459.796H251.025H251.017Z" stroke="black" stroke-linecap="round" stroke-linejoin="round"/>
<path d="M244.485 463.658C248.093 463.658 251.017 461.929 251.017 459.796C251.017 457.663 248.093 455.935 244.485 455.935C240.877 455.935 237.953 457.663 237.953 459.796C237.953 461.929 240.877 463.658 244.485 463.658Z" fill="white" stroke="black" stroke-linecap="round" stroke-linejoin="round"/>
<path d="M249.41 457.255L246.641 458.681" stroke="black" stroke-linecap="round" stroke-linejoin="round"/>
<path d="M214.322 472.822C220.803 472.822 226.058 469.715 226.058 465.881C226.058 462.048 220.803 458.94 214.322 458.94C207.84 458.94 202.586 462.048 202.586 465.881C202.586 469.715 207.84 472.822 214.322 472.822Z" stroke="black" stroke-linecap="round" stroke-linejoin="round"/>
<path d="M220.854 450.68V465.881C220.854 468.016 217.926 469.743 214.322 469.743C210.718 469.743 207.79 468.016 207.79 465.881V450.68H220.862H220.854Z" fill="white"/>
<path d="M213.725 452.521V469.751" stroke="#C2C8CF" stroke-linecap="round" stroke-linejoin="round"/>
<path d="M220.854 450.631V465.881C220.854 467.747 218.292 469.743 215.133 469.743V450.631H220.854Z" fill="#C2C8CF"/>
<path d="M220.854 450.68V465.881C220.854 468.016 217.926 469.743 214.322 469.743C210.718 469.743 207.79 468.016 207.79 465.881V450.68H220.862H220.854Z" stroke="black" stroke-linecap="round" stroke-linejoin="round"/>
<path d="M214.322 454.541C217.93 454.541 220.854 452.812 220.854 450.68C220.854 448.547 217.93 446.818 214.322 446.818C210.714 446.818 207.79 448.547 207.79 450.68C207.79 452.812 210.714 454.541 214.322 454.541Z" fill="white" stroke="black" stroke-linecap="round" stroke-linejoin="round"/>
<path d="M219.247 448.146L216.486 449.564" stroke="black" stroke-linecap="round" stroke-linejoin="round"/>
<path d="M284.896 441.931C291.105 441.931 296.139 438.955 296.139 435.283C296.139 431.612 291.105 428.636 284.896 428.636C278.687 428.636 273.654 431.612 273.654 435.283C273.654 438.955 278.687 441.931 284.896 441.931Z" fill="white" stroke="black" stroke-linecap="round" stroke-linejoin="round"/>
<path d="M277.282 415.463V435.161C277.282 437.646 280.695 439.667 284.896 439.667C289.097 439.667 292.51 437.654 292.51 435.161V415.463H277.282Z" fill="white"/>
<path d="M283.122 415.463H277.282V435.161C277.282 437.288 279.772 439.064 283.122 439.536V415.463Z" fill="#C2C8CF"/>
<path d="M277.282 415.463V435.161C277.282 437.646 280.695 439.667 284.896 439.667C289.097 439.667 292.51 437.654 292.51 435.161V415.463H277.282Z" stroke="black" stroke-linecap="round" stroke-linejoin="round"/>
<path d="M284.896 419.967C289.101 419.967 292.51 417.95 292.51 415.462C292.51 412.974 289.101 410.957 284.896 410.957C280.691 410.957 277.282 412.974 277.282 415.462C277.282 417.95 280.691 419.967 284.896 419.967Z" fill="white" stroke="black" stroke-linecap="round" stroke-linejoin="round"/>
<path d="M281.491 408.595V414.672C281.491 415.78 283.018 416.684 284.896 416.684C286.774 416.684 288.301 415.78 288.301 414.672V408.595H281.491Z" fill="white"/>
<path d="M281.491 408.595V414.672C281.491 415.78 283.018 416.684 284.896 416.684C286.774 416.684 288.301 415.78 288.301 414.672V408.595H281.491Z" stroke="black" stroke-linecap="round" stroke-linejoin="round"/>
<path d="M284.896 410.607C286.777 410.607 288.301 409.707 288.301 408.595C288.301 407.484 286.777 406.583 284.896 406.583C283.015 406.583 281.491 407.484 281.491 408.595C281.491 409.707 283.015 410.607 284.896 410.607Z" fill="black" stroke="black" stroke-linecap="round" stroke-linejoin="round"/>
<path d="M196.571 433.434C204.297 429.475 209.19 423.633 209.19 417.108C209.19 416.497 209.15 415.886 209.063 415.283M162.971 437.931C166.058 438.436 169.312 438.697 172.67 438.697C179.719 438.697 186.299 437.515 191.884 435.471M136.531 420.228C138.329 427.56 146.365 433.703 157.353 436.709" stroke="#C2C8CF" stroke-linecap="round" stroke-linejoin="round"/>
<path d="M177.006 429.45C191.836 429.45 203.859 422.341 203.859 413.572C203.859 404.803 191.836 397.694 177.006 397.694C162.175 397.694 150.153 404.803 150.153 413.572C150.153 422.341 162.175 429.45 177.006 429.45Z" fill="black" stroke="black" stroke-linecap="round" stroke-linejoin="round"/>
<path d="M146.461 392.594V412.105C146.461 420.659 158.197 427.6 172.67 427.6C187.142 427.6 198.878 420.667 198.878 412.105V392.594H146.461Z" fill="white"/>
<path d="M172.59 427.535H174.118V406.582H172.59V427.535Z" fill="#C2C8CF"/>
<path d="M168.683 407.901V427.461" stroke="#C2C8CF" stroke-linecap="round" stroke-linejoin="round"/>
<path d="M175.47 392.537H198.878V412.097C198.878 420.106 188.63 426.696 175.47 427.535V392.529V392.537Z" fill="#C2C8CF"/>
<path d="M146.461 392.594V412.105C146.461 420.659 158.197 427.6 172.67 427.6C187.142 427.6 198.878 420.667 198.878 412.105V392.594H146.461Z" stroke="black" stroke-linecap="round" stroke-linejoin="round"/>
<path d="M172.67 408.089C187.144 408.089 198.878 401.152 198.878 392.594C198.878 384.037 187.144 377.1 172.67 377.1C158.195 377.1 146.461 384.037 146.461 392.594C146.461 401.152 158.195 408.089 172.67 408.089Z" fill="white" stroke="black" stroke-linecap="round" stroke-linejoin="round"/>
<path d="M188.145 400.659C189.498 400.659 190.596 400.053 190.596 399.306C190.596 398.56 189.498 397.954 188.145 397.954C186.791 397.954 185.694 398.56 185.694 399.306C185.694 400.053 186.791 400.659 188.145 400.659Z" fill="black"/>
<path d="M208.299 413.107L214.497 412.398" stroke="black" stroke-linecap="round" stroke-linejoin="round"/>
<path d="M160.432 437.458L157.298 441.091" stroke="black" stroke-linecap="round" stroke-linejoin="round"/>
<path d="M194.431 434.452L197.462 437.458" stroke="black" stroke-linecap="round" stroke-linejoin="round"/>
</svg>
