<svg width="121" height="169" viewBox="0 0 121 169" fill="none" xmlns="http://www.w3.org/2000/svg">
<path d="M6.58085 153.119L4.39502 151.776C1.78854 150.173 -0.00414552 148.262 1.6195 145.437L9.56865 131.604L6.58085 153.119Z" fill="#0E0F0D" stroke="#0E0F0D" stroke-linecap="round" stroke-linejoin="round"/>
<path d="M120 73.6555C120 70.9605 117.571 68.4087 113.596 67.3656L64.3166 54.4099C59.1469 53.0489 53.3246 54.7546 51.3117 58.2151L4.25753 139.119C3.79363 139.921 3.57348 140.744 3.56955 141.555L3.53809 148.274C3.53416 150.974 5.96372 153.526 9.94223 154.573L59.2216 167.529C64.3913 168.89 70.2136 167.184 72.2264 163.724L119.281 82.8194C119.745 82.0226 119.965 81.1988 119.969 80.3885L120 73.6689C120 73.6689 120 73.6779 120 73.6823C120 73.6734 120 73.6644 120 73.66V73.6555ZM119.988 73.9733C119.988 73.9733 119.988 73.9599 119.988 73.951C119.988 73.9599 119.988 73.9644 119.988 73.9733Z" fill="#E9EAEB"/>
<path d="M4.25338 139.124C3.78948 139.925 3.56933 140.749 3.5654 141.559L3.53394 148.279C3.53001 150.979 5.95957 153.53 9.93808 154.578L59.2174 167.534C61.0534 168.017 62.9679 168.111 64.7685 167.878V157.743L6.26623 135.668L4.25338 139.129V139.124Z" fill="#C2C8CF"/>
<path d="M113.596 67.3695C118.765 68.7305 121.325 72.6387 119.312 76.0992L72.2576 157.003C70.2448 160.464 64.4224 162.17 59.2527 160.809L9.97339 147.853C4.80368 146.492 2.24439 142.584 4.25723 139.123L51.3114 58.219C53.3243 54.7585 59.1466 53.0528 64.3163 54.4138L113.596 67.3695Z" fill="white" stroke="#0E0F0D" stroke-linecap="round" stroke-linejoin="round"/>
<path d="M111.956 68.5344C116.265 69.667 118.4 72.9261 116.721 75.8091L70.2644 155.688C68.5857 158.571 63.7305 159.995 59.4217 158.862L11.77 146.336C7.46124 145.204 5.32653 141.944 7.00521 139.061L53.4618 59.1824C55.1405 56.2994 59.9957 54.8758 64.3045 56.0084L111.956 68.5344Z" fill="#0E0F0D"/>
<path d="M120 73.6555C120 70.9605 117.571 68.4087 113.596 67.3656L64.3166 54.4099C59.1469 53.0489 53.3246 54.7546 51.3117 58.2151L4.25753 139.119C3.79363 139.921 3.57348 140.744 3.56955 141.555L3.53809 148.274C3.53416 150.974 5.96372 153.526 9.94223 154.573L59.2216 167.529C64.3913 168.89 70.2136 167.184 72.2264 163.724L119.281 82.8194C119.745 82.0226 119.965 81.1988 119.969 80.3885L120 73.6689C120 73.6689 120 73.6779 120 73.6823C120 73.6734 120 73.6644 120 73.66V73.6555ZM119.988 73.9733C119.988 73.9733 119.988 73.9599 119.988 73.951C119.988 73.9599 119.988 73.9644 119.988 73.9733Z" stroke="#0E0F0D" stroke-linecap="round" stroke-linejoin="round"/>
<path d="M46.0633 161.669C46.4671 161.669 46.7945 161.296 46.7945 160.837C46.7945 160.377 46.4671 160.004 46.0633 160.004C45.6594 160.004 45.332 160.377 45.332 160.837C45.332 161.296 45.6594 161.669 46.0633 161.669Z" fill="#0E0F0D"/>
<path d="M48.5791 162.331C48.983 162.331 49.3104 161.959 49.3104 161.499C49.3104 161.039 48.983 160.666 48.5791 160.666C48.1753 160.666 47.8479 161.039 47.8479 161.499C47.8479 161.959 48.1753 162.331 48.5791 162.331Z" fill="#0E0F0D"/>
<path d="M51.0955 162.995C51.4993 162.995 51.8267 162.623 51.8267 162.163C51.8267 161.703 51.4993 161.33 51.0955 161.33C50.6916 161.33 50.3643 161.703 50.3643 162.163C50.3643 162.623 50.6916 162.995 51.0955 162.995Z" fill="#0E0F0D"/>
<path d="M53.6155 163.656C54.0193 163.656 54.3467 163.283 54.3467 162.823C54.3467 162.363 54.0193 161.99 53.6155 161.99C53.2117 161.99 52.8843 162.363 52.8843 162.823C52.8843 163.283 53.2117 163.656 53.6155 163.656Z" fill="#0E0F0D"/>
<path d="M11.3103 152.472C11.7142 152.472 12.0416 152.099 12.0416 151.639C12.0416 151.179 11.7142 150.807 11.3103 150.807C10.9065 150.807 10.5791 151.179 10.5791 151.639C10.5791 152.099 10.9065 152.472 11.3103 152.472Z" fill="#0E0F0D"/>
<path d="M13.8264 153.136C14.2303 153.136 14.5577 152.763 14.5577 152.303C14.5577 151.844 14.2303 151.471 13.8264 151.471C13.4226 151.471 13.0952 151.844 13.0952 152.303C13.0952 152.763 13.4226 153.136 13.8264 153.136Z" fill="#0E0F0D"/>
<path d="M16.3423 153.798C16.7462 153.798 17.0736 153.425 17.0736 152.965C17.0736 152.506 16.7462 152.133 16.3423 152.133C15.9385 152.133 15.6111 152.506 15.6111 152.965C15.6111 153.425 15.9385 153.798 16.3423 153.798Z" fill="#0E0F0D"/>
<path d="M18.8587 154.462C19.2625 154.462 19.5899 154.089 19.5899 153.63C19.5899 153.17 19.2625 152.797 18.8587 152.797C18.4548 152.797 18.1274 153.17 18.1274 153.63C18.1274 154.089 18.4548 154.462 18.8587 154.462Z" fill="#0E0F0D"/>
<g filter="url(#filter0_d_3205_12946)">
<path d="M67.12 14.7689C69.1596 19.4586 67.453 25.1623 63.299 27.5051C59.145 29.8478 54.1265 27.9369 52.0869 23.2472C50.0472 18.5575 51.7538 12.8537 55.9079 10.5109C60.0619 8.16818 65.0803 10.0792 67.12 14.7689Z" stroke="url(#paint0_linear_3205_12946)" shape-rendering="crispEdges"/>
</g>
<path d="M66.0082 15.4492C67.7421 19.4358 66.2916 24.2855 62.7592 26.2776C59.2269 28.2698 54.9603 26.6445 53.2264 22.6578C51.4925 18.6711 52.943 13.8215 56.4754 11.8293C60.0077 9.83718 64.2743 11.4625 66.0082 15.4492Z" fill="#2FFD76" stroke="url(#paint1_linear_3205_12946)"/>
<g filter="url(#filter1_d_3205_12946)">
<path d="M60.9133 20.0935L60.9138 20.0945L62.0732 22.4713L62.0733 22.4717C62.2241 22.7817 62.2481 23.1305 62.1218 23.3899C62.0571 23.5227 61.951 23.6334 61.8039 23.6878C61.6568 23.7423 61.4918 23.732 61.3254 23.6681L60.4006 23.3126C60.1894 23.2314 60.0142 23.0631 59.9161 22.8444C59.9159 22.8441 59.9158 22.8438 59.9157 22.8435L59.0923 21.035L57.4642 21.9031L60.9133 20.0935ZM60.9133 20.0935L59.9857 18.2101L59.1166 16.388C59.0182 16.1794 58.8473 16.0161 58.6406 15.9366L57.7914 15.6102C57.4311 15.4717 57.0984 15.6136 56.9086 15.861C56.7193 16.1077 56.6533 16.4817 56.833 16.8365L57.8346 18.8379L57.8349 18.8385M60.9133 20.0935L57.8349 18.8385M57.8349 18.8385C57.8374 18.8435 57.8396 18.8528 57.8361 18.8651C57.8326 18.8774 57.8255 18.8849 57.8188 18.8885C57.8188 18.8885 57.8187 18.8885 57.8187 18.8885L55.7655 19.9483L57.8349 18.8385ZM56.8333 21.9389C57.0453 22.0204 57.2717 22.0059 57.464 21.9032L55.7653 19.9484C55.4428 20.1145 55.3034 20.4561 55.3263 20.7802C55.3493 21.1048 55.5388 21.4414 55.8941 21.5779L56.8333 21.9389Z" fill="#0E0F0D" stroke="#009533" stroke-width="0.5"/>
<mask id="path-18-outside-1_3205_12946" maskUnits="userSpaceOnUse" x="59.1431" y="14.4363" width="5.1547" height="6.229" fill="black">
<rect fill="white" x="59.1431" y="14.4363" width="5.1547" height="6.229"/>
<path fill-rule="evenodd" clip-rule="evenodd" d="M61.3412 16.9623C61.0213 17.1686 60.7632 17.3351 60.606 17.803C60.5933 17.8408 60.6145 17.8838 60.6518 17.8981V17.8981C60.6871 17.9116 60.708 17.9506 60.7018 17.9882C60.5986 18.6147 60.8934 19.2395 61.4135 19.4395C61.983 19.6584 62.6087 19.2857 62.8147 18.6069C62.8163 18.6017 62.8134 18.5957 62.8083 18.5938V18.5938C62.8034 18.5919 62.8005 18.5862 62.8017 18.5811C62.9128 18.1026 62.7978 17.8025 62.6549 17.4293C62.5394 17.128 62.4057 16.779 62.358 16.2499C62.3518 16.1712 62.2677 16.1414 62.2208 16.1997C61.9008 16.6014 61.6007 16.795 61.3412 16.9623Z"/>
</mask>
<path fill-rule="evenodd" clip-rule="evenodd" d="M61.3412 16.9623C61.0213 17.1686 60.7632 17.3351 60.606 17.803C60.5933 17.8408 60.6145 17.8838 60.6518 17.8981V17.8981C60.6871 17.9116 60.708 17.9506 60.7018 17.9882C60.5986 18.6147 60.8934 19.2395 61.4135 19.4395C61.983 19.6584 62.6087 19.2857 62.8147 18.6069C62.8163 18.6017 62.8134 18.5957 62.8083 18.5938V18.5938C62.8034 18.5919 62.8005 18.5862 62.8017 18.5811C62.9128 18.1026 62.7978 17.8025 62.6549 17.4293C62.5394 17.128 62.4057 16.779 62.358 16.2499C62.3518 16.1712 62.2677 16.1414 62.2208 16.1997C61.9008 16.6014 61.6007 16.795 61.3412 16.9623Z" fill="#0E0F0D"/>
<path d="M61.3412 16.9623L61.0673 16.5216L61.0673 16.5216L61.3412 16.9623ZM62.6549 17.4293L63.106 17.2645L63.106 17.2645L62.6549 17.4293ZM62.358 16.2499L61.8718 16.2605L61.8724 16.2663L62.358 16.2499ZM62.2208 16.1997L61.8398 15.8556L61.8385 15.8573L62.2208 16.1997ZM62.8147 18.6069L63.2805 18.7894L62.8147 18.6069ZM60.7018 17.9882L60.2209 17.8707L60.7018 17.9882ZM62.8017 18.5811L63.2762 18.7311L62.8017 18.5811ZM61.0673 17.9995C61.1687 17.6977 61.3045 17.6033 61.6152 17.403L61.0673 16.5216C60.738 16.734 60.3577 16.9724 60.1447 17.6065L61.0673 17.9995ZM61.5556 18.9601C61.3263 18.8719 61.1102 18.5458 61.1827 18.1056L60.2209 17.8707C60.087 18.6835 60.4604 19.6071 61.2714 19.9188L61.5556 18.9601ZM62.3489 18.4244C62.2012 18.9111 61.8045 19.0558 61.5556 18.9601L61.2714 19.9188C62.1615 20.261 63.0162 19.6603 63.2805 18.7894L62.3489 18.4244ZM62.2037 17.5942C62.3415 17.9537 62.3998 18.1183 62.3273 18.431L63.2762 18.7311C63.4257 18.0868 63.2542 17.6513 63.106 17.2645L62.2037 17.5942ZM61.8724 16.2663C61.9271 16.8744 62.0843 17.2826 62.2037 17.5942L63.106 17.2645C62.9945 16.9734 62.8843 16.6836 62.8437 16.2335L61.8724 16.2663ZM62.6018 16.5437C62.5095 16.6585 62.3434 16.7182 62.172 16.6563C61.996 16.5927 61.885 16.4257 61.8719 16.2605L62.8442 16.2392C62.8248 15.9953 62.6686 15.7741 62.4373 15.6905C62.2106 15.6086 61.9789 15.6825 61.8398 15.8556L62.6018 16.5437ZM61.6152 17.403C61.8828 17.2304 62.2347 17.0045 62.6031 16.5421L61.8385 15.8573C61.5668 16.1983 61.3185 16.3596 61.0673 16.5216L61.6152 17.403ZM63.2805 18.7894C63.3623 18.52 63.2156 18.2163 62.9504 18.1144L62.6662 19.0732C62.4113 18.9752 62.2704 18.6834 62.3489 18.4244L63.2805 18.7894ZM60.5102 18.3777C60.2972 18.296 60.188 18.07 60.2209 17.8707L61.1827 18.1056C61.2279 17.8312 61.0769 17.5272 60.7935 17.4185L60.5102 18.3777ZM62.9504 18.1144C63.2004 18.2105 63.333 18.4861 63.2762 18.7311L62.3273 18.431C62.268 18.6864 62.4064 18.9733 62.6662 19.0732L62.9504 18.1144ZM60.1447 17.6065C60.0387 17.9219 60.218 18.2657 60.5102 18.3777L60.7935 17.4185C61.011 17.5019 61.1479 17.7597 61.0673 17.9995L60.1447 17.6065Z" fill="#009533" mask="url(#path-18-outside-1_3205_12946)"/>
</g>
<path d="M24.3192 116.066L32.3627 118.184L28.5611 124.72L20.5176 122.607L24.3192 116.066Z" stroke="#118338" stroke-linecap="round" stroke-linejoin="round"/>
<path d="M32.3629 118.188L40.4064 120.301L36.6048 126.841L28.5613 124.724L32.3629 118.188Z" stroke="#118338" stroke-linecap="round" stroke-linejoin="round"/>
<path d="M40.4063 120.301L48.4499 122.414L44.6483 128.954L36.6047 126.841L40.4063 120.301Z" stroke="#118338" stroke-linecap="round" stroke-linejoin="round"/>
<path d="M48.4498 122.412L56.4933 124.53L52.6917 131.066L44.6482 128.953L48.4498 122.412Z" stroke="#118338" stroke-linecap="round" stroke-linejoin="round"/>
<path d="M56.4935 124.529L64.537 126.642L60.7354 133.183L52.6919 131.065L56.4935 124.529Z" stroke="#118338" stroke-linecap="round" stroke-linejoin="round"/>
<path d="M64.537 126.643L72.5805 128.76L68.7789 135.296L60.7354 133.183L64.537 126.643Z" stroke="#118338" stroke-linecap="round" stroke-linejoin="round"/>
<path d="M72.5804 128.76L80.6278 130.873L76.8223 137.409L68.7788 135.296L72.5804 128.76Z" stroke="#118338" stroke-linecap="round" stroke-linejoin="round"/>
<path d="M28.1207 109.531L36.1642 111.644L32.3626 118.185L24.3191 116.067L28.1207 109.531Z" stroke="#118338" stroke-linecap="round" stroke-linejoin="round"/>
<path d="M36.1644 111.646L44.2079 113.76L40.4063 120.3L32.3628 118.187L36.1644 111.646Z" stroke="#118338" stroke-linecap="round" stroke-linejoin="round"/>
<path d="M44.2081 113.758L52.2516 115.875L48.45 122.411L40.4065 120.298L44.2081 113.758Z" stroke="#118338" stroke-linecap="round" stroke-linejoin="round"/>
<path d="M52.2513 115.875L60.2988 117.988L56.4932 124.529L48.4497 122.411L52.2513 115.875Z" stroke="#118338" stroke-linecap="round" stroke-linejoin="round"/>
<path d="M60.2989 117.988L68.3424 120.106L64.5369 126.642L56.4934 124.529L60.2989 117.988Z" stroke="#118338" stroke-linecap="round" stroke-linejoin="round"/>
<path d="M68.3424 120.105L76.3859 122.218L72.5804 128.759L64.5369 126.642L68.3424 120.105Z" stroke="#118338" stroke-linecap="round" stroke-linejoin="round"/>
<path d="M76.3859 122.217L84.4294 124.33L80.6278 130.87L72.5803 128.757L76.3859 122.217Z" stroke="#118338" stroke-linecap="round" stroke-linejoin="round"/>
<path d="M31.9264 102.99L39.9699 105.108L36.1644 111.644L28.1208 109.531L31.9264 102.99Z" stroke="#118338" stroke-linecap="round" stroke-linejoin="round"/>
<path d="M39.9701 105.109L48.0136 107.222L44.2081 113.758L36.1646 111.645L39.9701 105.109Z" stroke="#118338" stroke-linecap="round" stroke-linejoin="round"/>
<path d="M48.0135 107.225L56.057 109.338L52.2515 115.878L44.208 113.761L48.0135 107.225Z" stroke="#118338" stroke-linecap="round" stroke-linejoin="round"/>
<path d="M56.057 109.336L64.1005 111.453L60.2989 117.99L52.2515 115.877L56.057 109.336Z" stroke="#118338" stroke-linecap="round" stroke-linejoin="round"/>
<path d="M64.1007 111.453L72.1442 113.566L68.3426 120.107L60.2991 117.989L64.1007 111.453Z" stroke="#118338" stroke-linecap="round" stroke-linejoin="round"/>
<path d="M72.1439 113.566L80.1874 115.679L76.3858 122.22L68.3423 120.107L72.1439 113.566Z" stroke="#118338" stroke-linecap="round" stroke-linejoin="round"/>
<path d="M80.1876 115.678L88.2311 117.795L84.4295 124.331L76.386 122.218L80.1876 115.678Z" stroke="#118338" stroke-linecap="round" stroke-linejoin="round"/>
<path d="M35.7281 96.4551L43.7716 98.5681L39.97 105.109L31.9265 102.991L35.7281 96.4551Z" stroke="#118338" stroke-linecap="round" stroke-linejoin="round"/>
<path d="M43.7716 98.5684L51.8151 100.681L48.0135 107.222L39.97 105.109L43.7716 98.5684Z" stroke="#118338" stroke-linecap="round" stroke-linejoin="round"/>
<path d="M51.815 100.684L59.8586 102.801L56.0569 109.337L48.0134 107.224L51.815 100.684Z" stroke="#118338" stroke-linecap="round" stroke-linejoin="round"/>
<path d="M59.8588 102.799L67.9023 104.912L64.1007 111.452L56.0571 109.335L59.8588 102.799Z" stroke="#118338" stroke-linecap="round" stroke-linejoin="round"/>
<path d="M67.9022 104.912L75.9457 107.03L72.1441 113.566L64.1006 111.453L67.9022 104.912Z" stroke="#118338" stroke-linecap="round" stroke-linejoin="round"/>
<path d="M75.9456 107.029L83.9892 109.142L80.1875 115.678L72.144 113.565L75.9456 107.029Z" stroke="#118338" stroke-linecap="round" stroke-linejoin="round"/>
<path d="M83.9891 109.141L92.0366 111.254L88.231 117.794L80.1875 115.677L83.9891 109.141Z" stroke="#118338" stroke-linecap="round" stroke-linejoin="round"/>
<path d="M39.5296 89.9141L47.5732 92.0271L43.7715 98.5677L35.728 96.4546L39.5296 89.9141Z" stroke="#118338" stroke-linecap="round" stroke-linejoin="round"/>
<path d="M47.5731 92.0293L55.6166 94.1468L51.815 100.683L43.7715 98.5699L47.5731 92.0293Z" stroke="#118338" stroke-linecap="round" stroke-linejoin="round"/>
<path d="M55.6165 94.1484L63.6601 96.2615L59.8585 102.802L51.8149 100.685L55.6165 94.1484Z" stroke="#118338" stroke-linecap="round" stroke-linejoin="round"/>
<path d="M63.6602 96.2578L71.7077 98.3753L67.9021 104.911L59.8586 102.798L63.6602 96.2578Z" stroke="#118338" stroke-linecap="round" stroke-linejoin="round"/>
<path d="M71.7079 98.377L79.7514 100.49L75.9459 107.031L67.9023 104.913L71.7079 98.377Z" stroke="#118338" stroke-linecap="round" stroke-linejoin="round"/>
<path d="M79.7511 100.49L87.7946 102.603L83.9891 109.144L75.9456 107.031L79.7511 100.49Z" stroke="#118338" stroke-linecap="round" stroke-linejoin="round"/>
<path d="M87.7948 102.602L95.8383 104.719L92.0367 111.255L83.9893 109.142L87.7948 102.602Z" stroke="#118338" stroke-linecap="round" stroke-linejoin="round"/>
<path d="M43.3353 83.3789L51.3788 85.4919L47.5733 92.028L39.5298 89.915L43.3353 83.3789Z" stroke="#118338" stroke-linecap="round" stroke-linejoin="round"/>
<path d="M51.3788 85.4922L59.4223 87.6052L55.6167 94.1458L47.5732 92.0283L51.3788 85.4922Z" stroke="#118338" stroke-linecap="round" stroke-linejoin="round"/>
<path d="M59.4222 87.6035L67.4658 89.721L63.6602 96.2571L55.6167 94.1441L59.4222 87.6035Z" stroke="#118338" stroke-linecap="round" stroke-linejoin="round"/>
<path d="M67.4657 89.7227L75.5092 91.8357L71.7076 98.3763L63.6602 96.2587L67.4657 89.7227Z" stroke="#118338" stroke-linecap="round" stroke-linejoin="round"/>
<path d="M75.5091 91.8359L83.5526 93.949L79.751 100.49L71.7075 98.3765L75.5091 91.8359Z" stroke="#118338" stroke-linecap="round" stroke-linejoin="round"/>
<path d="M83.5528 93.9492L91.5963 96.0667L87.7948 102.603L79.7512 100.49L83.5528 93.9492Z" stroke="#118338" stroke-linecap="round" stroke-linejoin="round"/>
<path d="M91.5965 96.0645L99.6401 98.1775L95.8384 104.718L87.7949 102.601L91.5965 96.0645Z" stroke="#118338" stroke-linecap="round" stroke-linejoin="round"/>
<path d="M111.957 68.5369C116.265 69.6695 118.4 72.9286 116.722 75.8117L82.1139 135.317L18.8547 118.686L53.4623 59.1805C55.141 56.2974 59.9962 54.8738 64.305 56.0064L111.957 68.5324V68.5369Z" fill="url(#paint2_linear_3205_12946)"/>
<path d="M25.3452 114.585L27.4249 115.135L33.5146 108.787L34.0099 112.055L37.1353 110.806L39.6003 110.694L45.2339 105.134L46.7592 106.629L43.335 116.639L46.3897 115.516L47.7185 117.347L50.5097 116.675L54.9482 113.17L56.5404 114.553L59.7051 113.237L61.5253 114.231L65.5471 111.437L65.9835 114.813L72.4387 107.838L73.7322 109.736L76.9755 108.286L79.3972 108.241L85.1684 102.439L88.2978 101.186L84.8421 111.249L87.1498 111.41L87.8457 114.334L90.747 113.465" stroke="#2FFD76" stroke-linecap="round" stroke-linejoin="round"/>
<path d="M59.7326 143.625C61.3012 144.037 62.0756 145.223 61.4663 146.271L59.0682 150.394C58.4588 151.442 56.6936 151.961 55.125 151.549L22.0821 142.864C20.5135 142.452 19.7391 141.266 20.3484 140.218L22.7465 136.095C23.3559 135.048 25.1211 134.528 26.6897 134.94L59.7326 143.625Z" fill="#2FFD76"/>
<path d="M38.2402 140.941L39.4118 141.25C39.6948 141.326 39.8757 141.438 39.9543 141.573C40.0369 141.716 40.0251 141.864 39.9268 142.034C39.797 142.258 39.5494 142.356 39.2624 142.361V142.369C39.5061 142.517 39.5847 142.768 39.4314 143.037C39.3135 143.238 39.1562 143.359 38.9361 143.43C38.7238 143.502 38.4565 143.502 38.1773 143.43L36.9783 143.113L38.2402 140.941ZM37.7213 142.889L38.3307 143.05C38.5862 143.117 38.8103 143.041 38.9125 142.862C39.0344 142.656 38.9125 142.504 38.6687 142.437L38.0712 142.28L37.7174 142.889H37.7213ZM38.8378 142.11C39.0697 142.168 39.2781 142.119 39.3764 141.949C39.4707 141.788 39.3803 141.658 39.1484 141.595L38.5626 141.443L38.2638 141.958L38.8378 142.11Z" fill="#0E0F0D"/>
<path d="M40.5243 144.046L40.6304 143.862H40.6187C40.4064 143.97 40.2137 144.01 39.9503 143.943C39.5336 143.835 39.4275 143.549 39.624 143.209L40.2295 142.17L40.7248 142.3L40.1626 143.267C40.0565 143.45 40.0958 143.576 40.3081 143.629C40.544 143.692 40.7681 143.585 40.8899 143.379L41.4128 142.479L41.9121 142.609L41.0079 144.167L40.5282 144.041L40.5243 144.046Z" fill="#0E0F0D"/>
<path d="M41.2595 144.451L41.4364 144.496C41.633 144.55 41.7627 144.483 41.8374 144.357C41.8885 144.272 41.9082 144.16 41.9396 143.896L42.0772 142.656L42.6001 142.795L42.4704 143.57C42.4468 143.726 42.3917 143.941 42.3917 143.941H42.3996C42.3996 143.941 42.5647 143.758 42.7063 143.632L43.3785 143.001L43.8817 143.131L42.2974 144.554C41.9514 144.863 41.7431 144.948 41.3617 144.85L41.0708 144.774L41.2595 144.451Z" fill="#0E0F0D"/>
<path d="M23.7571 127.487C23.5134 127.903 23.6667 128.333 24.0952 128.449L27.4211 129.322C27.8497 129.434 28.3961 129.188 28.6359 128.772L29.0251 128.105C29.2689 127.688 29.1155 127.259 28.687 127.142L25.3611 126.269C24.9326 126.157 24.3861 126.403 24.1463 126.82L23.7571 127.487Z" fill="#118338"/>
<path d="M31.8003 129.604C31.5566 130.02 31.7099 130.45 32.1384 130.567L35.4643 131.44C35.8928 131.551 36.4393 131.305 36.6791 130.889L37.0683 130.222C37.3121 129.805 37.1588 129.376 36.7302 129.259L33.4043 128.386C32.9758 128.274 32.4294 128.521 32.1895 128.937L31.8003 129.604Z" fill="#118338"/>
<path d="M39.844 131.717C39.6003 132.134 39.7536 132.563 40.1821 132.68L43.5081 133.553C43.9366 133.665 44.483 133.419 44.7229 133.002L45.1121 132.335C45.3558 131.919 45.2025 131.489 44.774 131.373L41.448 130.5C41.0195 130.388 40.4731 130.634 40.2332 131.05L39.844 131.717Z" fill="#118338"/>
<path d="M47.8875 133.829C47.6438 134.245 47.7971 134.675 48.2256 134.791L51.5515 135.664C51.98 135.776 52.5265 135.53 52.7663 135.114L53.1555 134.446C53.3992 134.03 53.2459 133.6 52.8174 133.484L49.4915 132.611C49.063 132.499 48.5165 132.745 48.2767 133.162L47.8875 133.829Z" fill="#118338"/>
<path d="M55.931 135.946C55.6872 136.362 55.8405 136.792 56.269 136.908L59.5949 137.781C60.0235 137.893 60.5699 137.647 60.8097 137.231L61.1989 136.564C61.4427 136.147 61.2894 135.718 60.8609 135.601L57.5349 134.728C57.1064 134.616 56.56 134.862 56.3202 135.279L55.931 135.946Z" fill="#118338"/>
<path d="M63.9786 138.061C63.7348 138.477 63.8881 138.907 64.3167 139.024L67.6426 139.897C68.0711 140.008 68.6175 139.762 68.8573 139.346L69.2466 138.679C69.4903 138.263 69.337 137.833 68.9085 137.716L65.5826 136.843C65.154 136.731 64.6076 136.978 64.3678 137.394L63.9786 138.061Z" fill="#118338"/>
<path d="M65.3467 96.7316L67.5718 95.5676C70.5085 94.0276 72.1125 90.3254 72.0614 86.1172" stroke="#118338" stroke-linecap="round" stroke-linejoin="round"/>
<path d="M52.7821 89.2797C55.365 95.677 60.9907 99.0167 65.3467 96.7335C68.2952 95.189 69.8992 91.4689 69.8363 87.2428L52.6249 77.3223C51.1388 80.55 51.0799 85.0492 52.7861 89.2752L52.7821 89.2797Z" stroke="#118338" stroke-linecap="round" stroke-linejoin="round"/>
<path d="M70.7875 79.8539C68.2046 73.4566 62.5789 70.1169 58.2229 72.4001L55.9978 73.564L56.1865 74.0341L69.8361 87.245L72.0613 86.1214C72.0337 84.0889 71.6288 81.9401 70.7875 79.8584V79.8539Z" fill="#118338" stroke="#0E0F0D" stroke-linecap="round" stroke-linejoin="round"/>
<path d="M68.5626 81.0179C65.9798 74.6206 60.354 71.281 55.9981 73.5641C54.5199 74.3386 53.3877 75.6682 52.625 77.3246L69.8364 87.2451C69.805 85.2261 69.3961 83.0907 68.5626 81.0224V81.0179Z" fill="#2FFD76" stroke="#0E0F0D" stroke-linecap="round" stroke-linejoin="round"/>
<g filter="url(#filter2_d_3205_12946)">
<path d="M92.4674 49.9013C99.3648 52.0059 103.453 60.1261 101.59 68.0438C99.7267 75.9615 92.621 80.6662 85.7235 78.5616C78.826 76.457 74.738 68.3368 76.6011 60.4192C78.4641 52.5015 85.5699 47.7967 92.4674 49.9013Z" stroke="url(#paint3_linear_3205_12946)" shape-rendering="crispEdges"/>
</g>
<path d="M92.0307 52.0328C97.914 53.828 101.402 60.7546 99.8122 67.5093C98.2227 74.264 92.161 78.2769 86.2777 76.4818C80.3945 74.6866 76.9068 67.76 78.4962 61.0053C80.0857 54.2506 86.1474 50.2377 92.0307 52.0328Z" fill="#2FFD76" stroke="url(#paint4_linear_3205_12946)"/>
<g filter="url(#filter3_d_3205_12946)">
<path d="M91.4603 63.7516L91.4613 63.7518L95.0167 64.6343L95.017 64.6344C95.4502 64.7427 95.7925 65.0403 95.9125 65.4234C95.9737 65.6187 95.9758 65.8361 95.8961 66.0465C95.8167 66.256 95.6654 66.4345 95.4572 66.5714L94.1689 67.4184C93.9101 67.5886 93.6038 67.642 93.3181 67.559C93.3178 67.559 93.3175 67.5589 93.3173 67.5588L90.5494 66.7763C90.5494 66.7763 90.5494 66.7763 90.5493 66.7763C90.5463 66.7754 90.5442 66.7755 90.5426 66.7758C90.5409 66.7761 90.5391 66.7768 90.5374 66.7779C90.5357 66.779 90.5343 66.7804 90.5332 66.782C90.5322 66.7834 90.531 66.7855 90.5302 66.7889L90.53 66.7895L89.7282 69.9205C89.7282 69.9205 89.7282 69.9206 89.7282 69.9206C89.647 70.2388 89.4568 70.5124 89.1972 70.6831L87.8888 71.5432C87.0172 72.1163 86.0184 71.2539 86.302 70.1984L86.302 70.1985L86.5295 70.2596L86.3021 70.1983L91.4603 63.7516ZM91.4603 63.7516L88.6332 63.0636L91.4603 63.7516ZM87.3047 66.4558L87.5323 66.5162L87.3048 66.4551L87.3047 66.4556C87.3047 66.4557 87.3047 66.4557 87.3047 66.4558ZM84.1728 65.5257L84.2333 65.2691L84.1714 65.5254L84.172 65.5256C84.1723 65.5256 84.1725 65.5257 84.1728 65.5257ZM85.9263 62.3612L85.9257 62.3611L85.8591 62.6162L85.927 62.3614C85.9268 62.3614 85.9265 62.3613 85.9263 62.3612Z" fill="#0E0F0D" stroke="#009533" stroke-width="0.5"/>
<mask id="path-81-outside-2_3205_12946" maskUnits="userSpaceOnUse" x="86.1604" y="55.2207" width="8.17897" height="9.53954" fill="black">
<rect fill="white" x="86.1604" y="55.2207" width="8.17897" height="9.53954"/>
<path fill-rule="evenodd" clip-rule="evenodd" d="M88.791 59.9095C88.6764 60.5329 88.5839 61.036 88.8936 61.7099C88.9197 61.7667 88.9851 61.7841 89.0372 61.7498V61.7498C89.0861 61.7176 89.147 61.731 89.1798 61.7785C89.7058 62.5406 90.6284 62.784 91.3518 62.3084C92.145 61.7869 92.4006 60.5968 91.9263 59.6451C91.9225 59.6374 91.9136 59.635 91.9065 59.6397V59.6397C91.8997 59.6442 91.8911 59.642 91.887 59.6351C91.5183 59.0098 91.1013 58.8576 90.5828 58.6683C90.1638 58.5153 89.6785 58.3381 89.0989 57.8675C89.0135 57.7964 88.8989 57.876 88.9103 57.9957C88.9918 58.8172 88.8841 59.4031 88.791 59.9095Z"/>
</mask>
<path fill-rule="evenodd" clip-rule="evenodd" d="M88.791 59.9095C88.6764 60.5329 88.5839 61.036 88.8936 61.7099C88.9197 61.7667 88.9851 61.7841 89.0372 61.7498V61.7498C89.0861 61.7176 89.147 61.731 89.1798 61.7785C89.7058 62.5406 90.6284 62.784 91.3518 62.3084C92.145 61.7869 92.4006 60.5968 91.9263 59.6451C91.9225 59.6374 91.9136 59.635 91.9065 59.6397V59.6397C91.8997 59.6442 91.8911 59.642 91.887 59.6351C91.5183 59.0098 91.1013 58.8576 90.5828 58.6683C90.1638 58.5153 89.6785 58.3381 89.0989 57.8675C89.0135 57.7964 88.8989 57.876 88.9103 57.9957C88.9918 58.8172 88.8841 59.4031 88.791 59.9095Z" fill="#0E0F0D"/>
<path d="M88.791 59.9095L88.3256 59.8334L88.3256 59.8334L88.791 59.9095ZM90.5828 58.6683L90.7545 58.1701L90.7545 58.1701L90.5828 58.6683ZM89.0989 57.8675L88.7993 58.2918L88.8036 58.2953L89.0989 57.8675ZM88.9103 57.9957L88.4378 58.079L88.438 58.0813L88.9103 57.9957ZM91.9263 59.6451L91.5069 59.9166L91.9263 59.6451ZM89.1798 61.7785L88.7958 62.1102L89.1798 61.7785ZM91.887 59.6351L92.2896 59.3326L91.887 59.6351ZM89.3198 61.4527C89.0864 60.9446 89.1435 60.5997 89.2564 59.9857L88.3256 59.8334C88.2093 60.4661 88.0815 61.1273 88.4673 61.967L89.3198 61.4527ZM91.1257 61.8625C90.6498 62.1753 89.9768 62.0454 89.5637 61.4468L88.7958 62.1102C89.4347 63.0359 90.6071 63.3926 91.5779 62.7544L91.1257 61.8625ZM91.5069 59.9166C91.8831 60.6715 91.6458 61.5205 91.1257 61.8625L91.5779 62.7544C92.6441 62.0534 92.918 60.5221 92.3457 59.3735L91.5069 59.9166ZM90.4111 59.1664C90.919 59.3519 91.204 59.462 91.4844 59.9375L92.2896 59.3326C91.8325 58.5576 91.2835 58.3632 90.7545 58.1701L90.4111 59.1664ZM88.8036 58.2953C89.4419 58.8136 89.9831 59.0102 90.4111 59.1664L90.7545 58.1701C90.3445 58.0204 89.9152 57.8626 89.3942 57.4396L88.8036 58.2953ZM89.3828 57.9124C89.3964 58.0558 89.3307 58.2127 89.2025 58.3006C89.0708 58.3908 88.9089 58.3831 88.7993 58.2918L89.3985 57.4431C89.2035 57.2808 88.9416 57.2773 88.7341 57.4195C88.5301 57.5594 88.4128 57.8159 88.4378 58.079L89.3828 57.9124ZM89.2564 59.9857C89.3513 59.4692 89.4724 58.8159 89.3826 57.9102L88.438 58.0813C88.5111 58.8184 88.4168 59.337 88.3256 59.8334L89.2564 59.9857ZM92.3457 59.3735C92.2184 59.1182 91.9202 59.0361 91.6804 59.1937L92.1326 60.0856C91.907 60.234 91.6266 60.1567 91.5069 59.9166L92.3457 59.3735ZM89.2637 62.1955C89.0908 62.3094 88.8947 62.2534 88.7958 62.1102L89.5637 61.4468C89.3993 61.2086 89.0814 61.1258 88.8107 61.3042L89.2637 62.1955ZM91.6804 59.1937C91.9013 59.0485 92.1651 59.1215 92.2896 59.3326L91.4844 59.9375C91.6171 60.1626 91.8981 60.2398 92.1326 60.0856L91.6804 59.1937ZM88.4673 61.967C88.6173 62.2934 88.9841 62.3797 89.2637 62.1955L88.8107 61.3042C88.9862 61.1885 89.2221 61.2401 89.3198 61.4527L88.4673 61.967Z" fill="#009533" mask="url(#path-81-outside-2_3205_12946)"/>
</g>
<defs>
<filter id="filter0_d_3205_12946" x="35.759" y="0.978516" width="47.689" height="50.0586" filterUnits="userSpaceOnUse" color-interpolation-filters="sRGB">
<feFlood flood-opacity="0" result="BackgroundImageFix"/>
<feColorMatrix in="SourceAlpha" type="matrix" values="0 0 0 0 0 0 0 0 0 0 0 0 0 0 0 0 0 0 127 0" result="hardAlpha"/>
<feMorphology radius="1" operator="dilate" in="SourceAlpha" result="effect1_dropShadow_3205_12946"/>
<feOffset dy="7"/>
<feGaussianBlur stdDeviation="7"/>
<feComposite in2="hardAlpha" operator="out"/>
<feColorMatrix type="matrix" values="0 0 0 0 0.184314 0 0 0 0 0.992157 0 0 0 0 0.462745 0 0 0 0.3 0"/>
<feBlend mode="normal" in2="BackgroundImageFix" result="effect1_dropShadow_3205_12946"/>
<feBlend mode="normal" in="SourceGraphic" in2="effect1_dropShadow_3205_12946" result="shape"/>
</filter>
<filter id="filter1_d_3205_12946" x="46.0801" y="8.29883" width="26.2539" height="26.6797" filterUnits="userSpaceOnUse" color-interpolation-filters="sRGB">
<feFlood flood-opacity="0" result="BackgroundImageFix"/>
<feColorMatrix in="SourceAlpha" type="matrix" values="0 0 0 0 0 0 0 0 0 0 0 0 0 0 0 0 0 0 127 0" result="hardAlpha"/>
<feOffset dy="2"/>
<feGaussianBlur stdDeviation="4.5"/>
<feComposite in2="hardAlpha" operator="out"/>
<feColorMatrix type="matrix" values="0 0 0 0 0.184314 0 0 0 0 0.992157 0 0 0 0 0.462745 0 0 0 0.63 0"/>
<feBlend mode="normal" in2="BackgroundImageFix" result="effect1_dropShadow_3205_12946"/>
<feBlend mode="normal" in="SourceGraphic" in2="effect1_dropShadow_3205_12946" result="shape"/>
</filter>
<filter id="filter2_d_3205_12946" x="60.6841" y="40.8672" width="56.8225" height="60.7285" filterUnits="userSpaceOnUse" color-interpolation-filters="sRGB">
<feFlood flood-opacity="0" result="BackgroundImageFix"/>
<feColorMatrix in="SourceAlpha" type="matrix" values="0 0 0 0 0 0 0 0 0 0 0 0 0 0 0 0 0 0 127 0" result="hardAlpha"/>
<feMorphology radius="1" operator="dilate" in="SourceAlpha" result="effect1_dropShadow_3205_12946"/>
<feOffset dy="7"/>
<feGaussianBlur stdDeviation="7"/>
<feComposite in2="hardAlpha" operator="out"/>
<feColorMatrix type="matrix" values="0 0 0 0 0.184314 0 0 0 0 0.992157 0 0 0 0 0.462745 0 0 0 0.3 0"/>
<feBlend mode="normal" in2="BackgroundImageFix" result="effect1_dropShadow_3205_12946"/>
<feBlend mode="normal" in="SourceGraphic" in2="effect1_dropShadow_3205_12946" result="shape"/>
</filter>
<filter id="filter3_d_3205_12946" x="74.1033" y="50.3164" width="31.0916" height="32.6738" filterUnits="userSpaceOnUse" color-interpolation-filters="sRGB">
<feFlood flood-opacity="0" result="BackgroundImageFix"/>
<feColorMatrix in="SourceAlpha" type="matrix" values="0 0 0 0 0 0 0 0 0 0 0 0 0 0 0 0 0 0 127 0" result="hardAlpha"/>
<feOffset dy="2"/>
<feGaussianBlur stdDeviation="4.5"/>
<feComposite in2="hardAlpha" operator="out"/>
<feColorMatrix type="matrix" values="0 0 0 0 0.184314 0 0 0 0 0.992157 0 0 0 0 0.462745 0 0 0 0.63 0"/>
<feBlend mode="normal" in2="BackgroundImageFix" result="effect1_dropShadow_3205_12946"/>
<feBlend mode="normal" in="SourceGraphic" in2="effect1_dropShadow_3205_12946" result="shape"/>
</filter>
<linearGradient id="paint0_linear_3205_12946" x1="44.9949" y1="-13.9961" x2="75.1329" y2="16.4141" gradientUnits="userSpaceOnUse">
<stop stop-color="#2FFD76"/>
<stop offset="1" stop-color="#2FFD76" stop-opacity="0.07"/>
</linearGradient>
<linearGradient id="paint1_linear_3205_12946" x1="47.0811" y1="-9.26867" x2="72.9438" y2="16.8275" gradientUnits="userSpaceOnUse">
<stop stop-color="#2FFD76"/>
<stop offset="1" stop-color="#2FFD76" stop-opacity="0.07"/>
</linearGradient>
<linearGradient id="paint2_linear_3205_12946" x1="62.5988" y1="128.387" x2="70.4962" y2="92.8114" gradientUnits="userSpaceOnUse">
<stop stop-opacity="0"/>
<stop offset="1"/>
</linearGradient>
<linearGradient id="paint3_linear_3205_12946" x1="41.2267" y1="50.035" x2="102.082" y2="50.3281" gradientUnits="userSpaceOnUse">
<stop stop-color="#2FFD76"/>
<stop offset="1" stop-color="#2FFD76" stop-opacity="0.07"/>
</linearGradient>
<linearGradient id="paint4_linear_3205_12946" x1="48.0761" y1="52.0747" x2="100.298" y2="52.3262" gradientUnits="userSpaceOnUse">
<stop stop-color="#2FFD76"/>
<stop offset="1" stop-color="#2FFD76" stop-opacity="0.07"/>
</linearGradient>
</defs>
</svg>
