<svg width="100%" height="100%" viewBox="0 0 739 531" fill="none" xmlns="http://www.w3.org/2000/svg">
<path d="M289.61 350.197L534.24 405.387C544.77 407.767 556.68 404.726 560.81 398.626L736.66 138.957C740.79 132.857 735.6 125.967 725.07 123.587L480.44 68.3965C469.92 66.0265 458 69.0565 453.87 75.1565L278.02 334.827C273.89 340.927 279.1 347.817 289.61 350.197Z" fill="#C2C8CF"/>
<path d="M220.81 410.436L55.9702 167.016L464.89 74.7559L629.58 317.946L220.81 410.436Z" fill="#C2C8CF"/>
<path d="M633.5 310.856L224.57 403.116C220.73 403.986 216.31 403.796 211.8 397.146L97.29 228.056L506.22 135.796L620.73 304.886C624.34 310.206 629.83 311.686 633.5 310.856Z" fill="#C2C8CF" stroke="black" stroke-linecap="round" stroke-linejoin="round"/>
<path d="M629.36 302.776L221.01 394.906C219.23 395.306 217.19 395.226 215.1 392.136L97.75 218.846L506.1 126.716L623.45 300.006C625.12 302.466 627.66 303.156 629.36 302.776Z" fill="#C2C8CF" stroke="black" stroke-linecap="round" stroke-linejoin="round"/>
<path d="M218.07 387.247L97.7402 209.567L506.09 117.437L626.42 295.117L218.07 387.247Z" fill="#C2C8CF" stroke="black" stroke-linecap="round" stroke-linejoin="round"/>
<path d="M629.36 302.777L221.01 394.907C223.56 394.327 223.69 387.147 220.1 381.837L94.6904 196.647L503.04 104.517L628.45 289.707C633.11 296.587 632.79 301.997 629.36 302.777Z" fill="#C2C8CF" stroke="black" stroke-linecap="round" stroke-linejoin="round"/>
<path d="M633.5 310.856L224.57 403.116C230.09 401.876 230.37 386.356 222.6 374.886L62.8403 138.956L471.77 46.6963L631.54 282.626C641.6 297.486 640.92 309.186 633.51 310.856H633.5Z" fill="white"/>
<path d="M138.38 188.586L148.62 186.276L153.09 192.846L142.85 195.156L155.77 214.136L147.84 215.926L116.54 169.946L137.52 165.216L141.99 171.786L128.94 174.726L138.37 188.586H138.38Z" fill="black"/>
<path d="M139.55 164.766L147.48 162.976L178.78 208.956L170.85 210.746L139.55 164.766Z" fill="black"/>
<path d="M167.14 173.166L189.81 206.466L182.67 208.076L151.37 162.106L161.32 159.856L188.2 185.536L169.47 158.016L176.54 156.426L207.84 202.406L199.69 204.246L167.15 173.176L167.14 173.166Z" fill="black"/>
<path d="M237.39 195.725L229.39 197.535L222.34 189.505L212.61 191.705L216.92 200.355L209.64 201.995L186.42 154.195L198.03 151.575L237.4 195.725H237.39ZM209.37 185.225L217.01 183.505L197.36 161.115L209.37 185.225Z" fill="black"/>
<path d="M223.66 160.405L246.33 193.705L239.19 195.315L207.89 149.335L217.84 147.085L244.72 172.765L225.99 145.245L233.06 143.655L264.36 189.635L256.21 191.475L223.67 160.405H223.66Z" fill="black"/>
<path d="M279.57 166.436L283.73 172.546C288.74 179.906 287.56 185.016 279.77 186.776C271.98 188.536 265.08 185.236 260.08 177.886L243.81 153.976C238.8 146.616 239.98 141.506 247.77 139.746C255.56 137.986 262.46 141.286 267.46 148.636L270.5 153.106L263 154.796L259.65 149.866C257.41 146.586 254.98 145.696 252.46 146.266C249.94 146.836 249.2 148.436 251.44 151.726L268.34 176.556C270.58 179.836 272.97 180.666 275.49 180.096C278.01 179.526 278.79 177.986 276.56 174.706L272.09 168.136L279.59 166.446L279.57 166.436Z" fill="black"/>
<path d="M284.09 154.505L294.98 152.045L299.45 158.615L288.56 161.075L297.73 174.535L311.43 171.445L315.9 178.015L294.27 182.895L262.97 136.915L284.6 132.035L289.07 138.605L275.37 141.695L284.09 154.505Z" fill="black"/>
<path d="M312.76 140.306L335.43 173.606L328.29 175.216L296.99 129.236L306.94 126.986L333.82 152.666L315.09 125.146L322.16 123.556L353.46 169.536L345.31 171.376L312.76 140.306Z" fill="black"/>
<path d="M347.17 140.266L358.06 137.806L362.53 144.376L351.64 146.836L360.81 160.296L374.51 157.206L378.98 163.776L357.35 168.656L326.05 122.676L347.68 117.796L352.15 124.366L338.45 127.456L347.17 140.266Z" fill="black"/>
<path d="M382.99 134.615L396.78 159.765L385.89 162.225L348.97 117.515L356.68 115.775L385.61 151.075L364.75 113.955L372.39 112.235L401.21 147.855L380.46 110.415L387.38 108.855L413.05 156.095L402.52 158.475L382.96 134.625L382.99 134.615Z" fill="black"/>
<path d="M399.88 105.426C407.59 103.686 414.42 106.996 419.43 114.346L420.41 115.786L412.91 117.476L411.61 115.566C409.37 112.286 407.08 111.356 404.56 111.926C402.04 112.496 401.44 114.066 403.68 117.356C410.12 126.816 426.83 125.086 435.77 138.226C440.78 145.586 439.6 150.696 431.81 152.456C424.02 154.216 417.12 150.916 412.12 143.566L410.2 140.736L417.7 139.046L419.94 142.326C422.18 145.606 424.57 146.436 427.09 145.866C429.61 145.296 430.39 143.756 428.16 140.476C421.72 131.016 405.01 132.746 396.07 119.606C391.06 112.246 392.17 107.156 399.88 105.416V105.426Z" fill="black"/>
<path d="M464.17 78.376L108.82 158.546" stroke="black" stroke-linecap="round" stroke-linejoin="round"/>
<path d="M510.79 147.216L155.44 227.386" stroke="black" stroke-linecap="round" stroke-linejoin="round"/>
<path d="M277.81 223.766L169.53 248.196L160.9 235.446L269.18 211.016L277.81 223.766Z" fill="#C2C8CF"/>
<path d="M176.83 258.976L179.26 262.566L287.54 238.136L285.11 234.546L176.83 258.976Z" fill="#C2C8CF"/>
<path d="M183.52 268.856L185.95 272.436L294.23 248.006L291.8 244.426L183.52 268.856Z" fill="#C2C8CF"/>
<path d="M190.21 278.726L192.64 282.316L300.91 257.886L298.49 254.306L190.21 278.726Z" fill="#C2C8CF"/>
<path d="M196.9 288.606L199.32 292.196L307.6 267.766L305.17 264.176L196.9 288.606Z" fill="#C2C8CF"/>
<path d="M203.59 298.486L206.01 302.066L314.29 277.636L311.86 274.056L203.59 298.486Z" fill="#C2C8CF"/>
<path d="M210.27 308.356L212.7 311.946L269.51 299.126L267.08 295.546L210.27 308.356Z" fill="#C2C8CF"/>
<path d="M426.83 232.935L318.55 257.365L284.78 207.495L393.06 183.065L426.83 232.935Z" fill="#C2C8CF"/>
<path d="M361.59 371.886L252.78 396.436C258.3 395.196 258.58 379.676 250.81 368.206L223.07 327.246L331.88 302.696L359.62 343.656C369.68 358.516 369 370.216 361.59 371.886Z" fill="#C2C8CF"/>
<path d="M310.24 105.116L305.55 98.1758L266.8 106.916L271.5 113.856L310.24 105.116Z" fill="#C2C8CF"/>
<path d="M391.45 86.7855L386.75 79.8555L313.46 96.3855L318.16 103.325L391.45 86.7855Z" fill="#C2C8CF"/>
<path d="M227.71 123.736L223.01 116.796L149.19 133.456L153.89 140.386L227.71 123.736Z" fill="#C2C8CF"/>
<path d="M263.58 115.636L258.89 108.706L230.93 115.016L235.62 121.946L263.58 115.636Z" fill="#C2C8CF"/>
<path d="M459.47 71.4458L454.78 64.5059L394.67 78.0659L399.36 85.0059L459.47 71.4458Z" fill="#C2C8CF"/>
<path d="M99.4302 144.676L104.12 151.616L145.97 142.176L141.28 135.236L99.4302 144.676Z" fill="#C2C8CF"/>
<path d="M453.87 55.1567L278.02 314.827C273.89 320.927 279.1 327.817 289.61 330.197L376.39 349.777C391.5 353.187 394.92 364.687 386.75 366.527L601.88 317.987L628.68 278.407L472.37 47.5967C464.41 47.7467 456.95 50.5867 453.86 55.1567H453.87Z" fill="#C2C8CF"/>
<path d="M633.5 310.856L224.57 403.116C230.09 401.876 230.37 386.356 222.6 374.886L62.8403 138.956L471.77 46.6963L631.54 282.626C641.6 297.486 640.92 309.186 633.51 310.856H633.5Z" stroke="black" stroke-linecap="round" stroke-linejoin="round"/>
<path d="M359.62 343.656L331.88 302.696L278.01 314.846C273.9 320.936 279.11 327.826 289.61 330.196L361.37 346.386C360.83 345.486 360.24 344.576 359.62 343.656Z" fill="#777E87"/>
<path d="M1.08977 355.137L29.8398 350.237L23.8598 356.797C26.2398 354.187 33.1098 352.897 39.1498 353.927L115.55 366.937L186.49 354.837L186.4 476.637H186.39C186.39 477.257 186.14 477.887 185.58 478.497L163.57 502.637C161.19 505.247 154.33 506.537 148.28 505.507L8.47977 481.707C3.83977 480.917 1.00978 478.987 1.01978 476.957H1.00977L1.09976 355.167L1.08977 355.137Z" fill="black"/>
<path d="M1.00999 476.937H1L1.08 360.897L150.62 386.347C153.65 386.867 155.8 388.877 155.8 391.197L155.73 505.657C153.35 505.937 150.75 505.907 148.28 505.487L8.48 481.687C3.84 480.897 1.01 478.967 1.02 476.937H1.00999Z" fill="#2D3033"/>
<path d="M1.08977 355.137L29.8398 350.237L23.8598 356.797C26.2398 354.187 33.1098 352.897 39.1498 353.927L115.55 366.937L186.49 354.837L186.4 476.637H186.39C186.39 477.257 186.14 477.887 185.58 478.497L163.57 502.637C161.19 505.247 154.33 506.537 148.28 505.507L8.47977 481.707C3.83977 480.917 1.00978 478.987 1.01978 476.957H1.00977L1.09976 355.167L1.08977 355.137Z" stroke="black" stroke-linecap="round" stroke-linejoin="round"/>
<path d="M1.91017 353.287C-0.46983 355.897 2.52016 358.867 8.56016 359.897L148.36 383.697C154.41 384.727 161.27 383.437 163.65 380.827L185.66 356.687C188.04 354.077 185.06 351.107 179.01 350.077L39.2102 326.277C33.1602 325.247 26.3002 326.537 23.9202 329.147L1.91017 353.287Z" fill="black" stroke="black" stroke-linecap="round" stroke-linejoin="round"/>
<path d="M1.32962 293.167L30.0796 288.267L24.0996 294.827C26.4796 292.217 33.3496 290.927 39.3896 291.957L115.79 304.967L186.73 292.867L186.49 354.837H186.48C186.48 355.457 186.23 356.087 185.67 356.697L163.66 380.837C161.28 383.447 154.42 384.737 148.37 383.707L8.56961 359.907C3.92961 359.117 1.09962 357.187 1.10962 355.157H1.09961L1.33961 293.187L1.32962 293.167Z" fill="#E9EAEB"/>
<path d="M1.09984 355.137H1.08984L1.31984 293.167L150.86 314.367C153.89 314.887 156.04 316.897 156.04 319.217L155.81 383.857C153.43 384.137 150.83 384.107 148.36 383.687L8.55984 359.887C3.91985 359.097 1.08984 357.167 1.09984 355.137Z" fill="white"/>
<path d="M1.32962 293.167L30.0796 288.267L24.0996 294.827C26.4796 292.217 33.3496 290.927 39.3896 291.957L115.79 304.967L186.73 292.867L186.49 354.837H186.48C186.48 355.457 186.23 356.087 185.67 356.697L163.66 380.837C161.28 383.447 154.42 384.737 148.37 383.707L8.56961 359.907C3.92961 359.117 1.09962 357.187 1.10962 355.157H1.09961L1.33961 293.187L1.32962 293.167Z" stroke="black" stroke-linecap="round" stroke-linejoin="round"/>
<path d="M2.14991 291.317C-0.230086 293.927 2.75992 296.897 8.79992 297.927L148.6 321.727C154.65 322.757 161.51 321.467 163.89 318.857L185.9 294.717C188.28 292.107 185.3 289.137 179.25 288.107L39.4499 264.307C33.3999 263.277 26.5399 264.567 24.1599 267.177L2.14991 291.317Z" fill="white" stroke="black" stroke-linecap="round" stroke-linejoin="round"/>
<path d="M101.425 392.575C102.759 391.974 103.316 390.32 102.667 388.879C102.019 387.439 100.412 386.758 99.0772 387.359C97.7426 387.959 97.1862 389.614 97.8344 391.054C98.4826 392.495 100.09 393.175 101.425 392.575Z" fill="black"/>
<path d="M92.7621 391.071C94.0967 390.47 94.6531 388.816 94.0049 387.375C93.3566 385.935 91.7492 385.254 90.4146 385.855C89.08 386.455 88.5236 388.11 89.1718 389.55C89.82 390.991 91.4275 391.672 92.7621 391.071Z" fill="black"/>
<path d="M84.1088 389.573C85.4434 388.972 85.9998 387.318 85.3516 385.877C84.7033 384.437 83.0959 383.756 81.7613 384.357C80.4267 384.957 79.8702 386.612 80.5185 388.052C81.1667 389.493 82.7742 390.174 84.1088 389.573Z" fill="black"/>
<path d="M75.4559 388.08C76.7906 387.479 77.347 385.824 76.6987 384.384C76.0505 382.944 74.4431 382.263 73.1085 382.864C71.7738 383.464 71.2174 385.119 71.8656 386.559C72.5139 388 74.1213 388.68 75.4559 388.08Z" fill="black"/>
<path d="M66.8065 386.581C68.1411 385.98 68.6976 384.325 68.0493 382.885C67.4011 381.445 65.7936 380.764 64.459 381.365C63.1244 381.965 62.568 383.62 63.2162 385.06C63.8645 386.501 65.4719 387.181 66.8065 386.581Z" fill="black"/>
<path d="M58.1439 385.087C59.4786 384.486 60.035 382.831 59.3867 381.391C58.7385 379.951 57.1311 379.27 55.7964 379.87C54.4618 380.471 53.9054 382.126 54.5536 383.566C55.2019 385.006 56.8093 385.687 58.1439 385.087Z" fill="black"/>
<path d="M101.41 402.017C102.745 401.417 103.301 399.762 102.653 398.322C102.005 396.881 100.397 396.2 99.0625 396.801C97.7279 397.402 97.1715 399.056 97.8197 400.497C98.468 401.937 100.075 402.618 101.41 402.017Z" fill="black"/>
<path d="M92.7606 400.518C94.0952 399.918 94.6517 398.263 94.0034 396.823C93.3552 395.382 91.7477 394.701 90.4131 395.302C89.0785 395.903 88.5221 397.557 89.1703 398.998C89.8186 400.438 91.426 401.119 92.7606 400.518Z" fill="black"/>
<path d="M84.1078 399.025C85.4424 398.424 85.9988 396.77 85.3506 395.329C84.7023 393.889 83.0949 393.208 81.7603 393.809C80.4257 394.41 79.8692 396.064 80.5175 397.505C81.1657 398.945 82.7732 399.626 84.1078 399.025Z" fill="black"/>
<path d="M75.4545 397.527C76.7891 396.926 77.3455 395.272 76.6973 393.831C76.049 392.391 74.4416 391.71 73.107 392.311C71.7724 392.912 71.2159 394.566 71.8642 396.006C72.5124 397.447 74.1199 398.128 75.4545 397.527Z" fill="black"/>
<path d="M66.7914 396.023C68.126 395.422 68.6824 393.768 68.0342 392.327C67.3859 390.887 65.7785 390.206 64.4439 390.807C63.1093 391.408 62.5528 393.062 63.2011 394.503C63.8493 395.943 65.4568 396.624 66.7914 396.023Z" fill="black"/>
<path d="M58.142 394.535C59.4766 393.934 60.033 392.28 59.3848 390.839C58.7365 389.399 57.1291 388.718 55.7945 389.319C54.4599 389.919 53.9034 391.574 54.5517 393.014C55.1999 394.455 56.8074 395.135 58.142 394.535Z" fill="black"/>
<path d="M49.4794 393.041C50.814 392.44 51.3704 390.785 50.7222 389.345C50.0739 387.905 48.4665 387.224 47.1319 387.825C45.7973 388.425 45.2408 390.08 45.8891 391.52C46.5373 392.961 48.1447 393.641 49.4794 393.041Z" fill="black"/>
<path d="M110.071 412.959C111.406 412.358 111.962 410.703 111.314 409.263C110.666 407.823 109.058 407.142 107.724 407.743C106.389 408.343 105.833 409.998 106.481 411.438C107.129 412.879 108.737 413.559 110.071 412.959Z" fill="black"/>
<path d="M101.408 411.464C102.743 410.864 103.299 409.209 102.651 407.769C102.003 406.328 100.395 405.648 99.0606 406.248C97.726 406.849 97.1695 408.504 97.8178 409.944C98.466 411.384 100.073 412.065 101.408 411.464Z" fill="black"/>
<path d="M92.7645 409.957C94.0991 409.356 94.6556 407.701 94.0073 406.261C93.3591 404.821 91.7517 404.14 90.417 404.741C89.0824 405.341 88.526 406.996 89.1742 408.436C89.8225 409.877 91.4299 410.557 92.7645 409.957Z" fill="black"/>
<path d="M84.1063 408.472C85.4409 407.872 85.9974 406.217 85.3491 404.777C84.7009 403.336 83.0935 402.656 81.7588 403.256C80.4242 403.857 79.8678 405.511 80.516 406.952C81.1643 408.392 82.7717 409.073 84.1063 408.472Z" fill="black"/>
<path d="M75.4525 406.974C76.7871 406.374 77.3436 404.719 76.6953 403.279C76.0471 401.838 74.4397 401.157 73.105 401.758C71.7704 402.359 71.214 404.013 71.8622 405.454C72.5105 406.894 74.1179 407.575 75.4525 406.974Z" fill="black"/>
<path d="M66.7899 405.47C68.1245 404.87 68.681 403.215 68.0327 401.775C67.3845 400.334 65.777 399.654 64.4424 400.254C63.1078 400.855 62.5514 402.509 63.1996 403.95C63.8479 405.39 65.4553 406.071 66.7899 405.47Z" fill="black"/>
<path d="M58.1464 403.972C59.481 403.372 60.0374 401.717 59.3892 400.277C58.7409 398.836 57.1335 398.156 55.7989 398.756C54.4643 399.357 53.9078 401.011 54.5561 402.452C55.2043 403.892 56.8118 404.573 58.1464 403.972Z" fill="black"/>
<path d="M101.416 420.913C102.751 420.312 103.307 418.657 102.659 417.217C102.011 415.777 100.404 415.096 99.0689 415.697C97.7343 416.297 97.1778 417.952 97.8261 419.392C98.4743 420.833 100.082 421.513 101.416 420.913Z" fill="black"/>
<path d="M92.7538 419.409C94.0884 418.808 94.6448 417.154 93.9966 415.713C93.3483 414.273 91.7409 413.592 90.4063 414.193C89.0717 414.793 88.5152 416.448 89.1635 417.888C89.8117 419.329 91.4192 420.009 92.7538 419.409Z" fill="black"/>
<path d="M84.1005 417.911C85.4351 417.31 85.9915 415.656 85.3433 414.215C84.695 412.775 83.0876 412.094 81.753 412.695C80.4183 413.295 79.8619 414.95 80.5102 416.39C81.1584 417.831 82.7658 418.511 84.1005 417.911Z" fill="black"/>
<path d="M75.4418 416.426C76.7764 415.826 77.3328 414.171 76.6846 412.731C76.0363 411.29 74.4289 410.61 73.0943 411.21C71.7597 411.811 71.2032 413.466 71.8515 414.906C72.4997 416.346 74.1071 417.027 75.4418 416.426Z" fill="black"/>
<path d="M66.7982 414.928C68.1328 414.328 68.6892 412.673 68.041 411.233C67.3928 409.792 65.7853 409.112 64.4507 409.712C63.1161 410.313 62.5597 411.967 63.2079 413.408C63.8562 414.848 65.4636 415.529 66.7982 414.928Z" fill="black"/>
<path d="M58.1356 413.424C59.4702 412.824 60.0267 411.169 59.3784 409.729C58.7302 408.288 57.1227 407.608 55.7881 408.208C54.4535 408.809 53.8971 410.464 54.5453 411.904C55.1936 413.344 56.801 414.025 58.1356 413.424Z" fill="black"/>
<path d="M101.415 430.36C102.75 429.759 103.306 428.105 102.658 426.664C102.01 425.224 100.402 424.543 99.0674 425.144C97.7328 425.745 97.1764 427.399 97.8246 428.84C98.4729 430.28 100.08 430.961 101.415 430.36Z" fill="black"/>
<path d="M92.7523 428.866C94.087 428.265 94.6434 426.611 93.9951 425.17C93.3469 423.73 91.7395 423.049 90.4048 423.65C89.0702 424.25 88.5138 425.905 89.162 427.345C89.8103 428.786 91.4177 429.467 92.7523 428.866Z" fill="black"/>
<path d="M84.1088 427.358C85.4434 426.757 85.9998 425.103 85.3516 423.662C84.7034 422.222 83.0959 421.541 81.7613 422.142C80.4266 422.743 79.8702 424.397 80.5185 425.838C81.1667 427.278 82.7742 427.959 84.1088 427.358Z" fill="black"/>
<path d="M75.4501 425.874C76.7847 425.273 77.3411 423.618 76.6929 422.178C76.0447 420.738 74.4372 420.057 73.1026 420.658C71.768 421.258 71.2116 422.913 71.8598 424.353C72.508 425.794 74.1155 426.474 75.4501 425.874Z" fill="black"/>
<path d="M66.7963 424.376C68.1309 423.775 68.6873 422.12 68.0391 420.68C67.3908 419.24 65.7834 418.559 64.4488 419.16C63.1141 419.76 62.5577 421.415 63.206 422.855C63.8542 424.296 65.4617 424.976 66.7963 424.376Z" fill="black"/>
<path d="M58.1337 422.872C59.4683 422.271 60.0247 420.617 59.3765 419.176C58.7283 417.736 57.1208 417.055 55.7862 417.656C54.4515 418.256 53.8952 419.911 54.5434 421.351C55.1916 422.792 56.7991 423.472 58.1337 422.872Z" fill="black"/>
<path d="M101.404 439.811C102.739 439.211 103.295 437.556 102.647 436.116C101.999 434.675 100.391 433.994 99.0567 434.595C97.7221 435.196 97.1656 436.85 97.8139 438.291C98.4621 439.731 100.07 440.412 101.404 439.811Z" fill="black"/>
<path d="M92.7606 438.313C94.0953 437.712 94.6517 436.058 94.0034 434.617C93.3552 433.177 91.7478 432.496 90.4131 433.097C89.0785 433.698 88.5221 435.352 89.1703 436.793C89.8186 438.233 91.426 438.914 92.7606 438.313Z" fill="black"/>
<path d="M84.0976 436.81C85.4322 436.21 85.9886 434.555 85.3403 433.115C84.6921 431.674 83.0847 430.993 81.7501 431.594C80.4154 432.195 79.859 433.849 80.5072 435.29C81.1555 436.73 82.7629 437.411 84.0976 436.81Z" fill="black"/>
<path d="M75.4442 435.312C76.7788 434.712 77.3353 433.057 76.687 431.617C76.0388 430.176 74.4313 429.495 73.0967 430.096C71.7621 430.697 71.2057 432.351 71.8539 433.792C72.5022 435.232 74.1096 435.913 75.4442 435.312Z" fill="black"/>
<path d="M66.7855 433.827C68.1202 433.226 68.6766 431.572 68.0283 430.131C67.3801 428.691 65.7727 428.01 64.438 428.611C63.1034 429.211 62.547 430.866 63.1952 432.306C63.8435 433.747 65.4509 434.427 66.7855 433.827Z" fill="black"/>
<path d="M58.1322 432.319C59.4668 431.718 60.0232 430.064 59.375 428.623C58.7268 427.183 57.1193 426.502 55.7847 427.103C54.4501 427.704 53.8937 429.358 54.5419 430.798C55.1901 432.239 56.7976 432.92 58.1322 432.319Z" fill="black"/>
<path d="M101.408 449.25C102.743 448.649 103.299 446.994 102.651 445.554C102.003 444.114 100.395 443.433 99.0606 444.034C97.726 444.634 97.1695 446.289 97.8178 447.729C98.466 449.17 100.073 449.85 101.408 449.25Z" fill="black"/>
<path d="M92.7587 447.761C94.0933 447.161 94.6497 445.506 94.0015 444.066C93.3532 442.625 91.7458 441.945 90.4112 442.545C89.0766 443.146 88.5201 444.8 89.1684 446.241C89.8166 447.681 91.4241 448.362 92.7587 447.761Z" fill="black"/>
<path d="M84.0961 446.257C85.4307 445.657 85.9871 444.002 85.3389 442.562C84.6906 441.121 83.0832 440.441 81.7486 441.041C80.414 441.642 79.8575 443.297 80.5058 444.737C81.154 446.177 82.7615 446.858 84.0961 446.257Z" fill="black"/>
<path d="M75.4423 444.759C76.7769 444.159 77.3333 442.504 76.6851 441.064C76.0368 439.623 74.4294 438.943 73.0948 439.543C71.7601 440.144 71.2037 441.799 71.852 443.239C72.5002 444.679 74.1076 445.36 75.4423 444.759Z" fill="black"/>
<path d="M66.7899 443.265C68.1246 442.665 68.681 441.01 68.0327 439.57C67.3845 438.129 65.7771 437.449 64.4424 438.049C63.1078 438.65 62.5514 440.304 63.1996 441.745C63.8479 443.185 65.4553 443.866 66.7899 443.265Z" fill="black"/>
<path d="M58.14 441.767C59.4746 441.167 60.0311 439.512 59.3828 438.072C58.7346 436.631 57.1271 435.95 55.7925 436.551C54.4579 437.152 53.9015 438.806 54.5497 440.247C55.198 441.687 56.8054 442.368 58.14 441.767Z" fill="black"/>
<path d="M101.407 458.697C102.741 458.096 103.298 456.442 102.649 455.001C102.001 453.561 100.394 452.88 99.0591 453.481C97.7245 454.081 97.1681 455.736 97.8163 457.176C98.4646 458.617 100.072 459.298 101.407 458.697Z" fill="black"/>
<path d="M92.7435 457.204C94.0781 456.603 94.6346 454.948 93.9863 453.508C93.3381 452.068 91.7307 451.387 90.396 451.988C89.0614 452.588 88.505 454.243 89.1532 455.683C89.8015 457.124 91.4089 457.804 92.7435 457.204Z" fill="black"/>
<path d="M84.0941 455.714C85.4287 455.114 85.9852 453.459 85.3369 452.019C84.6887 450.578 83.0813 449.898 81.7466 450.498C80.412 451.099 79.8556 452.754 80.5038 454.194C81.1521 455.634 82.7595 456.315 84.0941 455.714Z" fill="black"/>
<path d="M75.4418 454.211C76.7764 453.61 77.3328 451.955 76.6846 450.515C76.0363 449.075 74.4289 448.394 73.0943 448.994C71.7597 449.595 71.2032 451.25 71.8515 452.69C72.4997 454.13 74.1071 454.811 75.4418 454.211Z" fill="black"/>
<path d="M66.788 452.713C68.1226 452.113 68.679 450.458 68.0308 449.018C67.3825 447.577 65.7751 446.897 64.4405 447.497C63.1059 448.098 62.5494 449.753 63.1977 451.193C63.8459 452.633 65.4533 453.314 66.788 452.713Z" fill="black"/>
<path d="M58.1293 451.228C59.4639 450.627 60.0203 448.973 59.3721 447.533C58.7238 446.092 57.1164 445.411 55.7818 446.012C54.4472 446.613 53.8907 448.267 54.539 449.708C55.1872 451.148 56.7946 451.829 58.1293 451.228Z" fill="black"/>
<path d="M101.405 468.145C102.739 467.544 103.296 465.89 102.647 464.45C101.999 463.009 100.392 462.328 99.0572 462.929C97.7225 463.53 97.1661 465.184 97.8144 466.625C98.4626 468.065 100.07 468.746 101.405 468.145Z" fill="black"/>
<path d="M92.7421 466.651C94.0767 466.05 94.6331 464.396 93.9849 462.955C93.3366 461.515 91.7292 460.834 90.3946 461.435C89.0599 462.036 88.5035 463.69 89.1518 465.13C89.8 466.571 91.4074 467.252 92.7421 466.651Z" fill="black"/>
<path d="M84.1024 465.163C85.437 464.562 85.9935 462.907 85.3452 461.467C84.697 460.027 83.0896 459.346 81.7549 459.947C80.4203 460.547 79.8639 462.202 80.5121 463.642C81.1604 465.083 82.7678 465.763 84.1024 465.163Z" fill="black"/>
<path d="M75.4398 463.659C76.7744 463.058 77.3309 461.404 76.6826 459.963C76.0344 458.523 74.4269 457.842 73.0923 458.443C71.7577 459.043 71.2013 460.698 71.8495 462.138C72.4978 463.579 74.1052 464.259 75.4398 463.659Z" fill="black"/>
<path d="M66.7865 462.161C68.1211 461.56 68.6775 459.906 68.0293 458.465C67.3811 457.025 65.7736 456.344 64.439 456.945C63.1044 457.545 62.548 459.2 63.1962 460.64C63.8444 462.081 65.4519 462.761 66.7865 462.161Z" fill="black"/>
<path d="M58.1234 460.667C59.458 460.066 60.0144 458.411 59.3662 456.971C58.718 455.531 57.1105 454.85 55.7759 455.451C54.4413 456.051 53.8849 457.706 54.5331 459.146C55.1814 460.587 56.7888 461.267 58.1234 460.667Z" fill="black"/>
<path d="M101.404 477.596C102.738 476.996 103.295 475.341 102.646 473.901C101.998 472.46 100.391 471.78 99.0562 472.38C97.7216 472.981 97.1651 474.635 97.8134 476.076C98.4616 477.516 100.069 478.197 101.404 477.596Z" fill="black"/>
<path d="M92.7504 476.098C94.085 475.498 94.6414 473.843 93.9932 472.403C93.3449 470.962 91.7375 470.282 90.4029 470.882C89.0682 471.483 88.5118 473.137 89.1601 474.578C89.8083 476.018 91.4157 476.699 92.7504 476.098Z" fill="black"/>
<path d="M84.0878 474.605C85.4224 474.004 85.9788 472.35 85.3306 470.909C84.6823 469.469 83.0749 468.788 81.7403 469.389C80.4057 469.99 79.8492 471.644 80.4975 473.085C81.1457 474.525 82.7531 475.206 84.0878 474.605Z" fill="black"/>
<path d="M75.4384 473.106C76.773 472.505 77.3294 470.851 76.6812 469.411C76.0329 467.97 74.4255 467.289 73.0909 467.89C71.7562 468.491 71.1998 470.145 71.8481 471.586C72.4963 473.026 74.1037 473.707 75.4384 473.106Z" fill="black"/>
<path d="M66.7753 471.612C68.1099 471.011 68.6663 469.357 68.0181 467.916C67.3699 466.476 65.7624 465.795 64.4278 466.396C63.0932 466.996 62.5368 468.651 63.185 470.091C63.8332 471.532 65.4407 472.213 66.7753 471.612Z" fill="black"/>
<path d="M58.1317 470.114C59.4663 469.513 60.0228 467.859 59.3745 466.418C58.7263 464.978 57.1188 464.297 55.7842 464.898C54.4496 465.498 53.8932 467.153 54.5414 468.593C55.1897 470.034 56.7971 470.715 58.1317 470.114Z" fill="black"/>
<path d="M101.402 487.044C102.737 486.443 103.293 484.788 102.645 483.348C101.997 481.908 100.389 481.227 99.0547 481.827C97.7201 482.428 97.1637 484.083 97.8119 485.523C98.4602 486.964 100.068 487.644 101.402 487.044Z" fill="black"/>
<path d="M92.7484 485.547C94.083 484.946 94.6395 483.291 93.9912 481.851C93.343 480.411 91.7355 479.73 90.4009 480.33C89.0663 480.931 88.5099 482.586 89.1581 484.026C89.8064 485.466 91.4138 486.147 92.7484 485.547Z" fill="black"/>
<path d="M84.0858 484.052C85.4205 483.452 85.9769 481.797 85.3286 480.357C84.6804 478.916 83.073 478.236 81.7383 478.836C80.4037 479.437 79.8473 481.092 80.4955 482.532C81.1438 483.972 82.7512 484.653 84.0858 484.052Z" fill="black"/>
<path d="M75.4423 482.554C76.7769 481.954 77.3333 480.299 76.6851 478.859C76.0368 477.418 74.4294 476.738 73.0948 477.338C71.7601 477.939 71.2037 479.593 71.852 481.034C72.5002 482.474 74.1076 483.155 75.4423 482.554Z" fill="black"/>
<path d="M66.7836 481.06C68.1182 480.46 68.6746 478.805 68.0264 477.365C67.3781 475.924 65.7707 475.243 64.4361 475.844C63.1015 476.445 62.545 478.099 63.1933 479.54C63.8415 480.98 65.449 481.661 66.7836 481.06Z" fill="black"/>
<path d="M58.1303 479.562C59.4649 478.962 60.0213 477.307 59.373 475.867C58.7248 474.426 57.1174 473.745 55.7828 474.346C54.4481 474.947 53.8917 476.601 54.54 478.042C55.1882 479.482 56.7956 480.163 58.1303 479.562Z" fill="black"/>
<path d="M49.4901 383.589C50.8247 382.988 51.3812 381.333 50.7329 379.893C50.0847 378.452 48.4772 377.772 47.1426 378.372C45.808 378.973 45.2516 380.628 45.8998 382.068C46.5481 383.508 48.1555 384.189 49.4901 383.589Z" fill="black"/>
<path d="M40.8275 382.086C42.1621 381.485 42.7186 379.83 42.0703 378.39C41.4221 376.95 39.8147 376.269 38.48 376.869C37.1454 377.47 36.589 379.125 37.2372 380.565C37.8855 382.005 39.4929 382.686 40.8275 382.086Z" fill="black"/>
<path d="M32.1879 380.596C33.5225 379.996 34.0789 378.341 33.4307 376.901C32.7824 375.46 31.175 374.78 29.8404 375.38C28.5057 375.981 27.9493 377.635 28.5976 379.076C29.2458 380.516 30.8532 381.197 32.1879 380.596Z" fill="black"/>
<path d="M23.5253 379.102C24.8599 378.502 25.4163 376.847 24.7681 375.407C24.1198 373.966 22.5124 373.285 21.1778 373.886C19.8432 374.487 19.2867 376.141 19.935 377.582C20.5832 379.022 22.1906 379.703 23.5253 379.102Z" fill="black"/>
<path d="M14.8719 377.594C16.2066 376.994 16.763 375.339 16.1147 373.899C15.4665 372.458 13.8591 371.778 12.5245 372.378C11.1898 372.979 10.6334 374.633 11.2816 376.074C11.9299 377.514 13.5373 378.195 14.8719 377.594Z" fill="black"/>
<path d="M40.8358 391.533C42.1704 390.932 42.7269 389.278 42.0786 387.837C41.4304 386.397 39.823 385.716 38.4883 386.317C37.1537 386.917 36.5973 388.572 37.2455 390.012C37.8938 391.453 39.5012 392.133 40.8358 391.533Z" fill="black"/>
<path d="M32.1732 390.039C33.5079 389.438 34.0643 387.783 33.416 386.343C32.7678 384.903 31.1604 384.222 29.8257 384.823C28.4911 385.423 27.9347 387.078 28.5829 388.518C29.2312 389.959 30.8386 390.639 32.1732 390.039Z" fill="black"/>
<path d="M23.5238 388.55C24.8584 387.95 25.4149 386.295 24.7666 384.855C24.1184 383.414 22.5109 382.734 21.1763 383.334C19.8417 383.935 19.2853 385.59 19.9335 387.03C20.5818 388.47 22.1892 389.151 23.5238 388.55Z" fill="black"/>
<path d="M14.8607 387.047C16.1954 386.446 16.7518 384.791 16.1035 383.351C15.4553 381.911 13.8479 381.23 12.5132 381.83C11.1786 382.431 10.6222 384.086 11.2704 385.526C11.9187 386.966 13.5261 387.647 14.8607 387.047Z" fill="black"/>
<path d="M49.4877 402.488C50.8223 401.887 51.3787 400.233 50.7305 398.792C50.0822 397.352 48.4748 396.671 47.1402 397.272C45.8056 397.872 45.2491 399.527 45.8974 400.967C46.5456 402.408 48.153 403.089 49.4877 402.488Z" fill="black"/>
<path d="M40.8339 400.98C42.1685 400.379 42.7249 398.725 42.0767 397.285C41.4284 395.844 39.821 395.163 38.4864 395.764C37.1518 396.365 36.5953 398.019 37.2436 399.46C37.8918 400.9 39.4993 401.581 40.8339 400.98Z" fill="black"/>
<path d="M32.1713 399.486C33.5059 398.885 34.0623 397.231 33.4141 395.79C32.7658 394.35 31.1584 393.669 29.8238 394.27C28.4892 394.871 27.9327 396.525 28.581 397.965C29.2292 399.406 30.8367 400.087 32.1713 399.486Z" fill="black"/>
<path d="M23.5218 397.998C24.8565 397.397 25.4129 395.742 24.7647 394.302C24.1164 392.862 22.509 392.181 21.1744 392.782C19.8397 393.382 19.2833 395.037 19.9316 396.477C20.5798 397.918 22.1872 398.598 23.5218 397.998Z" fill="black"/>
<path d="M14.869 396.494C16.2037 395.893 16.7601 394.239 16.1118 392.798C15.4636 391.358 13.8562 390.677 12.5215 391.278C11.1869 391.878 10.6305 393.533 11.2787 394.973C11.927 396.414 13.5344 397.094 14.869 396.494Z" fill="black"/>
<path d="M49.4857 411.935C50.8203 411.335 51.3767 409.68 50.7285 408.24C50.0803 406.799 48.4728 406.118 47.1382 406.719C45.8036 407.32 45.2472 408.974 45.8954 410.415C46.5437 411.855 48.1511 412.536 49.4857 411.935Z" fill="black"/>
<path d="M40.8231 410.442C42.1577 409.841 42.7142 408.187 42.0659 406.746C41.4177 405.306 39.8102 404.625 38.4756 405.226C37.141 405.827 36.5846 407.481 37.2328 408.922C37.8811 410.362 39.4885 411.043 40.8231 410.442Z" fill="black"/>
<path d="M32.1796 408.934C33.5142 408.334 34.0706 406.679 33.4224 405.239C32.7741 403.798 31.1667 403.117 29.8321 403.718C28.4975 404.319 27.941 405.973 28.5893 407.414C29.2375 408.854 30.845 409.535 32.1796 408.934Z" fill="black"/>
<path d="M23.517 407.44C24.8516 406.839 25.408 405.185 24.7598 403.744C24.1115 402.304 22.5041 401.623 21.1695 402.224C19.8349 402.825 19.2784 404.479 19.9267 405.92C20.5749 407.36 22.1823 408.041 23.517 407.44Z" fill="black"/>
<path d="M14.8676 405.952C16.2022 405.351 16.7586 403.697 16.1104 402.256C15.4621 400.816 13.8547 400.135 12.5201 400.736C11.1854 401.336 10.629 402.991 11.2773 404.431C11.9255 405.872 13.5329 406.552 14.8676 405.952Z" fill="black"/>
<path d="M49.4799 421.374C50.8145 420.773 51.3709 419.118 50.7227 417.678C50.0744 416.238 48.467 415.557 47.1324 416.158C45.7977 416.758 45.2413 418.413 45.8896 419.853C46.5378 421.294 48.1452 421.974 49.4799 421.374Z" fill="black"/>
<path d="M40.8314 419.889C42.1661 419.289 42.7225 417.634 42.0742 416.194C41.426 414.753 39.8185 414.073 38.4839 414.673C37.1493 415.274 36.5929 416.928 37.2411 418.369C37.8894 419.809 39.4968 420.49 40.8314 419.889Z" fill="black"/>
<path d="M32.1781 418.381C33.5127 417.781 34.0691 416.126 33.4209 414.686C32.7727 413.245 31.1652 412.565 29.8306 413.165C28.496 413.766 27.9396 415.421 28.5878 416.861C29.236 418.301 30.8435 418.982 32.1781 418.381Z" fill="black"/>
<path d="M23.515 416.887C24.8496 416.287 25.406 414.632 24.7578 413.192C24.1096 411.751 22.5021 411.071 21.1675 411.671C19.8329 412.272 19.2765 413.926 19.9247 415.367C20.573 416.807 22.1804 417.488 23.515 416.887Z" fill="black"/>
<path d="M14.8617 415.389C16.1963 414.789 16.7528 413.134 16.1045 411.694C15.4563 410.253 13.8488 409.573 12.5142 410.173C11.1796 410.774 10.6232 412.428 11.2714 413.869C11.9197 415.309 13.5271 415.99 14.8617 415.389Z" fill="black"/>
<path d="M49.4794 430.826C50.814 430.225 51.3704 428.571 50.7222 427.13C50.0739 425.69 48.4665 425.009 47.1319 425.61C45.7973 426.21 45.2408 427.865 45.8891 429.305C46.5373 430.746 48.1448 431.426 49.4794 430.826Z" fill="black"/>
<path d="M40.8256 429.328C42.1602 428.727 42.7166 427.073 42.0684 425.632C41.4201 424.192 39.8127 423.511 38.4781 424.112C37.1434 424.712 36.587 426.367 37.2353 427.807C37.8835 429.248 39.4909 429.928 40.8256 429.328Z" fill="black"/>
<path d="M32.1669 427.833C33.5015 427.232 34.0579 425.577 33.4097 424.137C32.7614 422.697 31.154 422.016 29.8194 422.617C28.4848 423.217 27.9283 424.872 28.5766 426.312C29.2248 427.753 30.8322 428.433 32.1669 427.833Z" fill="black"/>
<path d="M23.5135 426.336C24.8482 425.735 25.4046 424.08 24.7563 422.64C24.1081 421.2 22.5007 420.519 21.1661 421.119C19.8314 421.72 19.275 423.375 19.9233 424.815C20.5715 426.255 22.1789 426.936 23.5135 426.336Z" fill="black"/>
<path d="M14.8607 424.841C16.1953 424.241 16.7518 422.586 16.1035 421.146C15.4553 419.705 13.8478 419.025 12.5132 419.625C11.1786 420.226 10.6222 421.881 11.2704 423.321C11.9187 424.761 13.5261 425.442 14.8607 424.841Z" fill="black"/>
<path d="M49.4774 440.273C50.812 439.672 51.3685 438.018 50.7202 436.577C50.072 435.137 48.4646 434.456 47.1299 435.057C45.7953 435.658 45.2389 437.312 45.8871 438.753C46.5354 440.193 48.1428 440.874 49.4774 440.273Z" fill="black"/>
<path d="M40.8241 438.775C42.1587 438.174 42.7151 436.52 42.0669 435.079C41.4187 433.639 39.8112 432.958 38.4766 433.559C37.142 434.16 36.5856 435.814 37.2338 437.255C37.882 438.695 39.4895 439.376 40.8241 438.775Z" fill="black"/>
<path d="M32.1654 437.291C33.5 436.69 34.0564 435.035 33.4082 433.595C32.76 432.155 31.1525 431.474 29.8179 432.075C28.4833 432.675 27.9269 434.33 28.5751 435.77C29.2233 437.211 30.8308 437.891 32.1654 437.291Z" fill="black"/>
<path d="M23.5218 435.783C24.8565 435.182 25.4129 433.528 24.7646 432.087C24.1164 430.647 22.509 429.966 21.1744 430.567C19.8397 431.167 19.2833 432.822 19.9316 434.262C20.5798 435.703 22.1872 436.383 23.5218 435.783Z" fill="black"/>
<path d="M14.8592 434.289C16.1939 433.688 16.7503 432.033 16.1021 430.593C15.4538 429.153 13.8464 428.472 12.5118 429.073C11.1771 429.673 10.6207 431.328 11.269 432.768C11.9172 434.209 13.5246 434.889 14.8592 434.289Z" fill="black"/>
<path d="M49.476 449.72C50.8106 449.12 51.367 447.465 50.7188 446.025C50.0705 444.584 48.4631 443.904 47.1285 444.504C45.7938 445.105 45.2374 446.759 45.8857 448.2C46.5339 449.64 48.1413 450.321 49.476 449.72Z" fill="black"/>
<path d="M40.8231 448.227C42.1577 447.626 42.7142 445.972 42.0659 444.532C41.4177 443.091 39.8103 442.41 38.4756 443.011C37.141 443.612 36.5846 445.266 37.2328 446.707C37.8811 448.147 39.4885 448.828 40.8231 448.227Z" fill="black"/>
<path d="M32.1693 446.729C33.5039 446.128 34.0604 444.474 33.4121 443.033C32.7639 441.593 31.1564 440.912 29.8218 441.513C28.4872 442.114 27.9308 443.768 28.579 445.209C29.2273 446.649 30.8347 447.33 32.1693 446.729Z" fill="black"/>
<path d="M23.5111 445.234C24.8457 444.633 25.4022 442.979 24.7539 441.538C24.1057 440.098 22.4983 439.417 21.1636 440.018C19.829 440.619 19.2726 442.273 19.9208 443.714C20.5691 445.154 22.1765 445.835 23.5111 445.234Z" fill="black"/>
<path d="M14.8573 443.736C16.1919 443.135 16.7483 441.481 16.1001 440.04C15.4519 438.6 13.8444 437.919 12.5098 438.52C11.1752 439.121 10.6188 440.775 11.267 442.215C11.9152 443.656 13.5227 444.337 14.8573 443.736Z" fill="black"/>
<path d="M49.4843 459.168C50.8189 458.567 51.3753 456.912 50.7271 455.472C50.0788 454.032 48.4714 453.351 47.1368 453.951C45.8021 454.552 45.2457 456.207 45.894 457.647C46.5422 459.088 48.1497 459.768 49.4843 459.168Z" fill="black"/>
<path d="M40.8212 457.674C42.1558 457.074 42.7122 455.419 42.064 453.979C41.4158 452.538 39.8083 451.858 38.4737 452.458C37.1391 453.059 36.5827 454.714 37.2309 456.154C37.8791 457.594 39.4866 458.275 40.8212 457.674Z" fill="black"/>
<path d="M32.1679 456.176C33.5025 455.576 34.0589 453.921 33.4107 452.481C32.7624 451.04 31.155 450.36 29.8204 450.96C28.4857 451.561 27.9293 453.216 28.5776 454.656C29.2258 456.096 30.8332 456.777 32.1679 456.176Z" fill="black"/>
<path d="M23.5053 454.673C24.8399 454.072 25.3963 452.417 24.7481 450.977C24.0998 449.537 22.4924 448.856 21.1578 449.456C19.8231 450.057 19.2667 451.712 19.915 453.152C20.5632 454.592 22.1706 455.273 23.5053 454.673Z" fill="black"/>
<path d="M14.8558 453.184C16.1905 452.584 16.7469 450.929 16.0987 449.489C15.4504 448.048 13.843 447.367 12.5083 447.968C11.1737 448.569 10.6173 450.223 11.2656 451.664C11.9138 453.104 13.5212 453.785 14.8558 453.184Z" fill="black"/>
<path d="M49.4691 468.611C50.8037 468.01 51.3602 466.356 50.7119 464.915C50.0637 463.475 48.4562 462.794 47.1216 463.395C45.787 463.996 45.2306 465.65 45.8788 467.091C46.5271 468.531 48.1345 469.212 49.4691 468.611Z" fill="black"/>
<path d="M40.8197 467.122C42.1543 466.521 42.7108 464.867 42.0625 463.426C41.4143 461.986 39.8068 461.305 38.4722 461.906C37.1376 462.506 36.5812 464.161 37.2294 465.601C37.8777 467.042 39.4851 467.722 40.8197 467.122Z" fill="black"/>
<path d="M32.1571 465.628C33.4917 465.027 34.0482 463.372 33.3999 461.932C32.7517 460.492 31.1442 459.811 29.8096 460.411C28.475 461.012 27.9186 462.667 28.5668 464.107C29.2151 465.548 30.8225 466.228 32.1571 465.628Z" fill="black"/>
<path d="M23.5136 464.12C24.8482 463.519 25.4046 461.865 24.7564 460.424C24.1081 458.984 22.5007 458.303 21.1661 458.904C19.8314 459.504 19.275 461.159 19.9233 462.599C20.5715 464.04 22.179 464.72 23.5136 464.12Z" fill="black"/>
<path d="M14.851 462.627C16.1856 462.026 16.742 460.371 16.0938 458.931C15.4455 457.491 13.8381 456.81 12.5035 457.41C11.1688 458.011 10.6124 459.666 11.2607 461.106C11.9089 462.547 13.5164 463.227 14.851 462.627Z" fill="black"/>
<path d="M49.4677 478.068C50.8023 477.467 51.3587 475.813 50.7105 474.372C50.0622 472.932 48.4548 472.251 47.1202 472.852C45.7855 473.453 45.2291 475.107 45.8774 476.547C46.5256 477.988 48.133 478.669 49.4677 478.068Z" fill="black"/>
<path d="M40.8139 476.56C42.1485 475.96 42.7049 474.305 42.0566 472.865C41.4084 471.424 39.801 470.743 38.4664 471.344C37.1317 471.945 36.5753 473.599 37.2235 475.04C37.8718 476.48 39.4792 477.161 40.8139 476.56Z" fill="black"/>
<path d="M32.1654 475.076C33.5 474.475 34.0564 472.821 33.4082 471.38C32.76 469.94 31.1525 469.259 29.8179 469.86C28.4833 470.46 27.9269 472.115 28.5751 473.555C29.2233 474.996 30.8308 475.676 32.1654 475.076Z" fill="black"/>
<path d="M23.5116 473.578C24.8462 472.977 25.4026 471.323 24.7544 469.882C24.1062 468.442 22.4987 467.761 21.1641 468.362C19.8295 468.962 19.2731 470.617 19.9213 472.057C20.5695 473.498 22.177 474.178 23.5116 473.578Z" fill="black"/>
<path d="M14.849 472.074C16.1836 471.473 16.74 469.819 16.0918 468.378C15.4436 466.938 13.8361 466.257 12.5015 466.858C11.1669 467.458 10.6105 469.113 11.2587 470.553C11.9069 471.994 13.5144 472.675 14.849 472.074Z" fill="black"/>
<path d="M144.693 400.047C146.027 399.447 146.584 397.792 145.936 396.352C145.287 394.911 143.68 394.231 142.345 394.831C141.011 395.432 140.454 397.087 141.102 398.527C141.751 399.967 143.358 400.648 144.693 400.047Z" fill="black"/>
<path d="M136.039 398.55C137.374 397.95 137.93 396.295 137.282 394.855C136.634 393.414 135.027 392.734 133.692 393.334C132.357 393.935 131.801 395.59 132.449 397.03C133.097 398.47 134.705 399.151 136.039 398.55Z" fill="black"/>
<path d="M127.381 397.055C128.715 396.455 129.272 394.8 128.624 393.36C127.975 391.919 126.368 391.239 125.033 391.839C123.699 392.44 123.142 394.094 123.79 395.535C124.439 396.975 126.046 397.656 127.381 397.055Z" fill="black"/>
<path d="M118.727 395.557C120.062 394.957 120.618 393.302 119.97 391.862C119.321 390.421 117.714 389.741 116.379 390.341C115.045 390.942 114.488 392.596 115.137 394.037C115.785 395.477 117.392 396.158 118.727 395.557Z" fill="black"/>
<path d="M110.075 394.064C111.409 393.463 111.966 391.809 111.317 390.368C110.669 388.928 109.062 388.247 107.727 388.848C106.392 389.449 105.836 391.103 106.484 392.544C107.133 393.984 108.74 394.665 110.075 394.064Z" fill="black"/>
<path d="M144.691 409.496C146.026 408.895 146.582 407.241 145.934 405.8C145.286 404.36 143.678 403.679 142.344 404.28C141.009 404.88 140.453 406.535 141.101 407.975C141.749 409.416 143.357 410.096 144.691 409.496Z" fill="black"/>
<path d="M136.028 408.002C137.363 407.401 137.919 405.746 137.271 404.306C136.623 402.866 135.015 402.185 133.681 402.785C132.346 403.386 131.79 405.041 132.438 406.481C133.086 407.921 134.694 408.602 136.028 408.002Z" fill="black"/>
<path d="M127.389 406.513C128.724 405.913 129.28 404.258 128.632 402.818C127.984 401.377 126.376 400.697 125.042 401.297C123.707 401.898 123.151 403.552 123.799 404.993C124.447 406.433 126.054 407.114 127.389 406.513Z" fill="black"/>
<path d="M118.726 405.009C120.061 404.409 120.617 402.754 119.969 401.314C119.321 399.873 117.714 399.193 116.379 399.793C115.044 400.394 114.488 402.049 115.136 403.489C115.784 404.929 117.392 405.61 118.726 405.009Z" fill="black"/>
<path d="M110.073 403.511C111.407 402.911 111.964 401.256 111.315 399.816C110.667 398.375 109.06 397.695 107.725 398.295C106.391 398.896 105.834 400.55 106.482 401.991C107.131 403.431 108.738 404.112 110.073 403.511Z" fill="black"/>
<path d="M144.689 418.943C146.024 418.342 146.58 416.688 145.932 415.247C145.284 413.807 143.676 413.126 142.342 413.727C141.007 414.328 140.451 415.982 141.099 417.422C141.747 418.863 143.355 419.544 144.689 418.943Z" fill="black"/>
<path d="M136.036 417.449C137.371 416.848 137.928 415.194 137.279 413.753C136.631 412.313 135.024 411.632 133.689 412.233C132.354 412.833 131.798 414.488 132.446 415.928C133.094 417.369 134.702 418.049 136.036 417.449Z" fill="black"/>
<path d="M127.383 415.951C128.718 415.35 129.274 413.696 128.626 412.255C127.978 410.815 126.37 410.134 125.036 410.735C123.701 411.335 123.145 412.99 123.793 414.43C124.441 415.871 126.049 416.551 127.383 415.951Z" fill="black"/>
<path d="M118.724 414.457C120.059 413.856 120.616 412.201 119.967 410.761C119.319 409.321 117.712 408.64 116.377 409.241C115.042 409.841 114.486 411.496 115.134 412.936C115.782 414.377 117.39 415.057 118.724 414.457Z" fill="black"/>
<path d="M144.688 428.394C146.023 427.793 146.579 426.139 145.931 424.699C145.283 423.258 143.676 422.577 142.341 423.178C141.006 423.779 140.45 425.433 141.098 426.874C141.746 428.314 143.354 428.995 144.688 428.394Z" fill="black"/>
<path d="M136.035 426.897C137.37 426.296 137.926 424.642 137.278 423.201C136.63 421.761 135.022 421.08 133.688 421.681C132.353 422.282 131.796 423.936 132.445 425.377C133.093 426.817 134.7 427.498 136.035 426.897Z" fill="black"/>
<path d="M127.372 425.403C128.707 424.802 129.263 423.148 128.615 421.707C127.967 420.267 126.36 419.586 125.025 420.187C123.69 420.787 123.134 422.442 123.782 423.882C124.43 425.323 126.038 426.004 127.372 425.403Z" fill="black"/>
<path d="M118.719 423.895C120.053 423.294 120.61 421.64 119.961 420.2C119.313 418.759 117.706 418.078 116.371 418.679C115.037 419.28 114.48 420.934 115.128 422.375C115.777 423.815 117.384 424.496 118.719 423.895Z" fill="black"/>
<path d="M110.07 422.411C111.405 421.81 111.961 420.156 111.313 418.715C110.665 417.275 109.057 416.594 107.723 417.195C106.388 417.795 105.832 419.45 106.48 420.89C107.128 422.331 108.736 423.011 110.07 422.411Z" fill="black"/>
<path d="M144.683 437.843C146.018 437.243 146.574 435.588 145.926 434.148C145.278 432.707 143.67 432.027 142.336 432.627C141.001 433.228 140.444 434.882 141.093 436.323C141.741 437.763 143.348 438.444 144.683 437.843Z" fill="black"/>
<path d="M136.033 436.344C137.368 435.744 137.924 434.089 137.276 432.649C136.628 431.208 135.02 430.528 133.686 431.128C132.351 431.729 131.795 433.383 132.443 434.824C133.091 436.264 134.698 436.945 136.033 436.344Z" fill="black"/>
<path d="M127.37 434.85C128.705 434.25 129.262 432.595 128.613 431.155C127.965 429.714 126.358 429.033 125.023 429.634C123.688 430.235 123.132 431.889 123.78 433.33C124.428 434.77 126.036 435.451 127.37 434.85Z" fill="black"/>
<path d="M118.727 433.352C120.062 432.751 120.618 431.097 119.97 429.657C119.321 428.216 117.714 427.535 116.379 428.136C115.045 428.737 114.488 430.391 115.137 431.832C115.785 433.272 117.392 433.953 118.727 433.352Z" fill="black"/>
<path d="M110.064 431.848C111.399 431.248 111.955 429.593 111.307 428.153C110.659 426.712 109.051 426.032 107.717 426.632C106.382 427.233 105.826 428.887 106.474 430.328C107.122 431.768 108.73 432.449 110.064 431.848Z" fill="black"/>
<path d="M144.681 447.291C146.016 446.69 146.572 445.035 145.924 443.595C145.276 442.155 143.668 441.474 142.334 442.075C140.999 442.675 140.442 444.33 141.091 445.77C141.739 447.211 143.346 447.891 144.681 447.291Z" fill="black"/>
<path d="M136.022 445.796C137.357 445.195 137.913 443.54 137.265 442.1C136.617 440.66 135.009 439.979 133.675 440.579C132.34 441.18 131.784 442.835 132.432 444.275C133.08 445.715 134.688 446.396 136.022 445.796Z" fill="black"/>
<path d="M127.379 444.298C128.713 443.697 129.27 442.042 128.622 440.602C127.973 439.162 126.366 438.481 125.031 439.081C123.697 439.682 123.14 441.337 123.789 442.777C124.437 444.217 126.044 444.898 127.379 444.298Z" fill="black"/>
<path d="M118.716 442.804C120.051 442.204 120.607 440.549 119.959 439.109C119.311 437.668 117.703 436.988 116.369 437.588C115.034 438.189 114.478 439.843 115.126 441.284C115.774 442.724 117.382 443.405 118.716 442.804Z" fill="black"/>
<path d="M110.062 441.297C111.397 440.696 111.953 439.041 111.305 437.601C110.657 436.161 109.05 435.48 107.715 436.08C106.38 436.681 105.824 438.336 106.472 439.776C107.12 441.216 108.728 441.897 110.062 441.297Z" fill="black"/>
<path d="M144.689 456.738C146.024 456.137 146.58 454.483 145.932 453.042C145.284 451.602 143.676 450.921 142.342 451.522C141.007 452.122 140.451 453.777 141.099 455.217C141.747 456.658 143.355 457.339 144.689 456.738Z" fill="black"/>
<path d="M136.027 455.234C137.361 454.633 137.918 452.979 137.27 451.538C136.621 450.098 135.014 449.417 133.679 450.018C132.345 450.619 131.788 452.273 132.436 453.714C133.085 455.154 134.692 455.835 136.027 455.234Z" fill="black"/>
<path d="M127.377 453.746C128.712 453.145 129.268 451.49 128.62 450.05C127.972 448.61 126.364 447.929 125.03 448.53C123.695 449.13 123.139 450.785 123.787 452.225C124.435 453.666 126.043 454.346 127.377 453.746Z" fill="black"/>
<path d="M118.714 452.252C120.049 451.651 120.605 449.996 119.957 448.556C119.309 447.116 117.701 446.435 116.367 447.035C115.032 447.636 114.476 449.291 115.124 450.731C115.772 452.171 117.38 452.852 118.714 452.252Z" fill="black"/>
<path d="M110.061 450.744C111.396 450.143 111.952 448.489 111.304 447.048C110.655 445.608 109.048 444.927 107.713 445.528C106.379 446.128 105.822 447.783 106.471 449.223C107.119 450.664 108.726 451.344 110.061 450.744Z" fill="black"/>
<path d="M144.679 466.189C146.013 465.588 146.57 463.934 145.921 462.493C145.273 461.053 143.666 460.372 142.331 460.973C140.996 461.574 140.44 463.228 141.088 464.669C141.737 466.109 143.344 466.79 144.679 466.189Z" fill="black"/>
<path d="M136.025 464.681C137.359 464.081 137.916 462.426 137.268 460.986C136.619 459.545 135.012 458.865 133.677 459.465C132.343 460.066 131.786 461.72 132.434 463.161C133.083 464.601 134.69 465.282 136.025 464.681Z" fill="black"/>
<path d="M127.362 463.188C128.697 462.587 129.253 460.933 128.605 459.492C127.957 458.052 126.349 457.371 125.015 457.972C123.68 458.573 123.124 460.227 123.772 461.668C124.42 463.108 126.028 463.789 127.362 463.188Z" fill="black"/>
<path d="M118.723 461.699C120.057 461.098 120.614 459.444 119.965 458.003C119.317 456.563 117.71 455.882 116.375 456.483C115.04 457.083 114.484 458.738 115.132 460.178C115.78 461.619 117.388 462.299 118.723 461.699Z" fill="black"/>
<path d="M110.06 460.206C111.395 459.605 111.951 457.95 111.303 456.51C110.654 455.07 109.047 454.389 107.712 454.99C106.378 455.59 105.821 457.245 106.47 458.685C107.118 460.126 108.725 460.806 110.06 460.206Z" fill="black"/>
<path d="M144.677 475.637C146.011 475.037 146.568 473.382 145.919 471.942C145.271 470.501 143.664 469.821 142.329 470.421C140.995 471.022 140.438 472.676 141.086 474.117C141.735 475.557 143.342 476.238 144.677 475.637Z" fill="black"/>
<path d="M136.023 474.139C137.358 473.539 137.914 471.884 137.266 470.444C136.618 469.003 135.01 468.323 133.676 468.923C132.341 469.524 131.785 471.178 132.433 472.619C133.081 474.059 134.689 474.74 136.023 474.139Z" fill="black"/>
<path d="M127.37 472.635C128.705 472.035 129.262 470.38 128.613 468.94C127.965 467.499 126.358 466.819 125.023 467.419C123.688 468.02 123.132 469.674 123.78 471.115C124.428 472.555 126.036 473.236 127.37 472.635Z" fill="black"/>
<path d="M118.717 471.137C120.052 470.537 120.608 468.882 119.96 467.442C119.312 466.001 117.704 465.321 116.37 465.921C115.035 466.522 114.479 468.176 115.127 469.617C115.775 471.057 117.383 471.738 118.717 471.137Z" fill="black"/>
<path d="M110.058 469.653C111.393 469.052 111.95 467.398 111.301 465.957C110.653 464.517 109.046 463.836 107.711 464.437C106.376 465.037 105.82 466.692 106.468 468.132C107.116 469.573 108.724 470.254 110.058 469.653Z" fill="black"/>
<path d="M144.671 485.076C146.005 484.475 146.562 482.821 145.914 481.38C145.265 479.94 143.658 479.259 142.323 479.86C140.989 480.46 140.432 482.115 141.08 483.555C141.729 484.996 143.336 485.676 144.671 485.076Z" fill="black"/>
<path d="M136.022 483.59C137.357 482.99 137.913 481.335 137.265 479.895C136.617 478.454 135.009 477.774 133.675 478.374C132.34 478.975 131.784 480.63 132.432 482.07C133.08 483.51 134.688 484.191 136.022 483.59Z" fill="black"/>
<path d="M127.369 482.083C128.704 481.482 129.26 479.827 128.612 478.387C127.964 476.947 126.356 476.266 125.022 476.867C123.687 477.467 123.13 479.122 123.779 480.562C124.427 482.003 126.034 482.683 127.369 482.083Z" fill="black"/>
<path d="M118.706 480.589C120.041 479.989 120.597 478.334 119.949 476.894C119.3 475.453 117.693 474.773 116.358 475.373C115.024 475.974 114.467 477.629 115.116 479.069C115.764 480.509 117.371 481.19 118.706 480.589Z" fill="black"/>
<path d="M110.057 479.1C111.391 478.5 111.948 476.845 111.299 475.405C110.651 473.964 109.044 473.283 107.709 473.884C106.374 474.485 105.818 476.139 106.466 477.58C107.114 479.02 108.722 479.701 110.057 479.1Z" fill="black"/>
<path d="M144.679 494.523C146.014 493.922 146.57 492.268 145.922 490.827C145.274 489.387 143.666 488.706 142.332 489.307C140.997 489.908 140.441 491.562 141.089 493.003C141.737 494.443 143.344 495.124 144.679 494.523Z" fill="black"/>
<path d="M136.021 493.039C137.355 492.438 137.912 490.783 137.264 489.343C136.615 487.903 135.008 487.222 133.673 487.823C132.339 488.423 131.782 490.078 132.431 491.518C133.079 492.959 134.686 493.639 136.021 493.039Z" fill="black"/>
<path d="M127.367 491.53C128.702 490.929 129.258 489.275 128.61 487.834C127.962 486.394 126.354 485.713 125.02 486.314C123.685 486.914 123.129 488.569 123.777 490.009C124.425 491.45 126.032 492.131 127.367 491.53Z" fill="black"/>
<path d="M118.704 490.037C120.039 489.436 120.596 487.782 119.947 486.341C119.299 484.901 117.692 484.22 116.357 484.821C115.022 485.421 114.466 487.076 115.114 488.516C115.762 489.957 117.37 490.637 118.704 490.037Z" fill="black"/>
<path d="M110.061 488.539C111.396 487.938 111.952 486.283 111.304 484.843C110.655 483.403 109.048 482.722 107.713 483.323C106.379 483.923 105.822 485.578 106.471 487.018C107.119 488.459 108.726 489.139 110.061 488.539Z" fill="black"/>
<path d="M180.642 337.725C182.18 328.692 180.632 320.894 177.186 320.308C173.739 319.721 169.699 326.568 168.162 335.6C166.624 344.633 168.172 352.431 171.618 353.017C175.065 353.604 179.105 346.757 180.642 337.725Z" fill="black" stroke="black" stroke-linecap="round" stroke-linejoin="round"/>
<path d="M188.47 355.647L175.01 353.357C171.56 352.767 170.02 344.977 171.55 335.937C173.09 326.907 177.13 320.057 180.57 320.647L194.03 322.937L188.46 355.647H188.47Z" fill="white" stroke="black" stroke-linecap="round" stroke-linejoin="round"/>
<path d="M188.47 355.647L175.01 353.357C171.56 352.767 170.02 344.977 171.55 335.937C173.09 326.907 177.13 320.057 180.57 320.647L194.03 322.937L188.46 355.647H188.47Z" fill="white" stroke="black" stroke-linecap="round" stroke-linejoin="round"/>
<path d="M197.506 340.38C199.043 331.347 197.495 323.55 194.049 322.963C190.603 322.376 186.562 329.223 185.025 338.256C183.488 347.288 185.035 355.086 188.481 355.673C191.928 356.259 195.968 349.412 197.506 340.38Z" fill="white" stroke="black" stroke-linecap="round" stroke-linejoin="round"/>
<path d="M189.89 332.126L188.88 326.866" stroke="black" stroke-linecap="round" stroke-linejoin="round"/>
<path d="M59.4902 338.646L148.6 353.816C154.65 354.846 161.51 353.556 163.89 350.946L170.08 344.156" stroke="black" stroke-linecap="round" stroke-linejoin="round"/>
<path d="M14.8501 349.047C14.8501 351.257 16.6301 353.367 18.8101 353.737L81.2201 364.367C83.4001 364.737 85.1801 363.237 85.1801 361.027V324.227C85.1801 322.017 83.4001 319.907 81.2201 319.537L18.8101 308.907C16.6301 308.537 14.8501 310.037 14.8501 312.247V349.047Z" fill="black"/>
<path d="M116.93 337.317C116.93 338.327 117.75 339.297 118.75 339.467L123.45 340.267C124.45 340.437 125.27 339.747 125.27 338.737V329.107C125.27 328.097 124.45 327.127 123.45 326.957L118.75 326.157C117.75 325.987 116.93 326.677 116.93 327.687V337.317Z" fill="white" stroke="black" stroke-linecap="round" stroke-linejoin="round"/>
<path d="M135.74 340.517C135.74 341.527 136.56 342.497 137.56 342.667L142.26 343.467C143.26 343.637 144.08 342.947 144.08 341.937V332.307C144.08 331.297 143.26 330.327 142.26 330.157L137.56 329.357C136.56 329.187 135.74 329.877 135.74 330.887V340.517Z" fill="#2FFD76" stroke="black" stroke-linecap="round" stroke-linejoin="round"/>
<path d="M27.96 221.487V281.597C27.96 283.707 30.76 285.417 34.22 285.417C37.68 285.417 40.48 283.707 40.48 281.597V221.487H27.97H27.96Z" fill="white" stroke="black" stroke-linecap="round" stroke-linejoin="round"/>
<path d="M32.24 221.487H27.96V281.597C27.96 283.287 29.75 284.707 32.24 285.217V221.487Z" fill="black" stroke="black" stroke-linecap="round" stroke-linejoin="round"/>
<path d="M34.22 225.307C37.6773 225.307 40.48 223.597 40.48 221.487C40.48 219.377 37.6773 217.667 34.22 217.667C30.7627 217.667 27.96 219.377 27.96 221.487C27.96 223.597 30.7627 225.307 34.22 225.307Z" fill="black" stroke="black" stroke-linecap="round" stroke-linejoin="round"/>
<path d="M30.04 160.027V220.967C30.04 222.377 31.91 223.517 34.22 223.517C36.53 223.517 38.4 222.377 38.4 220.967V160.027H30.04Z" fill="white" stroke="black" stroke-linecap="round" stroke-linejoin="round"/>
<path d="M32.9 160.027H30.04V220.967C30.04 222.097 31.24 223.047 32.9 223.387V160.027Z" fill="black" stroke="black" stroke-linecap="round" stroke-linejoin="round"/>
<path d="M34.22 162.577C36.5286 162.577 38.4 161.435 38.4 160.027C38.4 158.618 36.5286 157.477 34.22 157.477C31.9115 157.477 30.04 158.618 30.04 160.027C30.04 161.435 31.9115 162.577 34.22 162.577Z" fill="black" stroke="black" stroke-linecap="round" stroke-linejoin="round"/>
<path d="M32.1802 99.2373V159.717C32.1802 160.407 33.0902 160.957 34.2202 160.957C35.3502 160.957 36.2602 160.397 36.2602 159.717V99.2373H32.1802Z" fill="white" stroke="black" stroke-linecap="round" stroke-linejoin="round"/>
<path d="M33.5802 99.2373H32.1802V159.717C32.1802 160.267 32.7702 160.737 33.5802 160.897V99.2373Z" fill="black" stroke="black" stroke-linecap="round" stroke-linejoin="round"/>
<path d="M34.2202 100.477C35.3468 100.477 36.2602 99.9219 36.2602 99.2371C36.2602 98.5522 35.3468 97.9971 34.2202 97.9971C33.0935 97.9971 32.1802 98.5522 32.1802 99.2371C32.1802 99.9219 33.0935 100.477 34.2202 100.477Z" fill="white" stroke="black" stroke-linecap="round" stroke-linejoin="round"/>
<path d="M34.2197 99.237V38.457" stroke="black" stroke-linecap="round" stroke-linejoin="round"/>
<path d="M29.8098 32.7373V39.8673C29.8098 41.3573 31.7898 42.5573 34.2198 42.5573C36.6498 42.5573 38.6298 41.3573 38.6298 39.8673V32.7373H29.7998H29.8098Z" fill="white" stroke="black" stroke-linecap="round" stroke-linejoin="round"/>
<path d="M32.8296 32.7373H29.8096V39.8673C29.8096 41.0573 31.0796 42.0673 32.8296 42.4173V32.7373Z" fill="black" stroke="black" stroke-linecap="round" stroke-linejoin="round"/>
<path d="M34.2196 35.4269C36.6551 35.4269 38.6296 34.2225 38.6296 32.7369C38.6296 31.2512 36.6551 30.0469 34.2196 30.0469C31.784 30.0469 29.8096 31.2512 29.8096 32.7369C29.8096 34.2225 31.784 35.4269 34.2196 35.4269Z" fill="white" stroke="black" stroke-linecap="round" stroke-linejoin="round"/>
<path d="M35.9002 347.347C34.4802 348.917 33.6002 350.807 33.1802 352.847L64.0202 358.097C63.0502 354.777 61.0502 351.497 58.0802 348.807C50.9502 342.347 41.0202 341.687 35.8902 347.347H35.9002Z" fill="#2D3033"/>
<path d="M44.6603 352.947C44.2203 353.437 43.9403 354.017 43.8203 354.657L53.3903 356.287C53.0903 355.257 52.4703 354.237 51.5503 353.407C49.3403 351.397 46.2503 351.197 44.6603 352.957V352.947Z" fill="#2FFD76"/>
<path d="M65.6801 340.447C67.6201 342.207 69.3301 344.107 70.8101 346.097L77.5101 342.157C75.5801 339.567 73.3401 337.087 70.8101 334.797C54.4501 319.957 31.8301 318.037 19.3901 330.127L26.2501 336.877C35.7901 327.607 53.1301 329.077 65.6801 340.457V340.447Z" fill="#2D3033"/>
<path d="M77.5101 342.147C75.5801 339.557 73.3401 337.077 70.8101 334.787C54.4501 319.947 31.8301 318.027 19.3901 330.117" stroke="#2FFD76" stroke-linecap="round" stroke-linejoin="round"/>
<path d="M33 325.927L48.61 355.537" stroke="#2FFD76" stroke-linecap="round" stroke-linejoin="round"/>
<path d="M433.95 55.2263L288.15 270.526C286.21 273.386 288.66 276.616 293.58 277.726L536.96 332.636C543.57 334.126 548.43 333.056 550.83 329.506L607.05 246.486L471.75 46.6963L433.94 55.2263H433.95Z" fill="#2FFD76" stroke="black" stroke-linecap="round" stroke-linejoin="round"/>
<path d="M599.15 276.516L490.87 300.946L462.13 258.506L570.41 234.076L599.15 276.516Z" fill="#0E4622"/>
<path d="M503.73 135.626L347.91 170.776L392.62 107.636L472.57 89.6064L503.73 135.626Z" fill="#0E4622"/>
<path d="M409.25 180.426L411.68 184.016L519.96 159.586L517.529 155.996L409.25 180.426Z" fill="#0E4622"/>
<path d="M415.939 190.306L418.369 193.896L526.649 169.466L524.219 165.876L415.939 190.306Z" fill="#0E4622"/>
<path d="M422.629 200.186L425.059 203.766L533.339 179.336L530.909 175.756L422.629 200.186Z" fill="#0E4622"/>
<path d="M429.319 210.056L431.749 213.646L540.029 189.216L537.599 185.626L429.319 210.056Z" fill="#0E4622"/>
<path d="M436.01 219.936L438.44 223.526L546.72 199.096L544.29 195.506L436.01 219.936Z" fill="#0E4622"/>
<path d="M442.7 229.816L445.13 233.396L553.4 208.966L550.98 205.386L442.7 229.816Z" fill="#0E4622"/>
<path d="M449.39 239.686L451.82 243.276L526.82 226.356L524.39 222.766L449.39 239.686Z" fill="#0E4622"/>
<path d="M280.79 272.567L453.87 16.9967C455.86 14.0667 459.66 11.8467 464.23 10.5967C464.12 10.7267 464.02 10.8467 463.93 10.9867L288.16 270.537C286.22 273.397 288.67 276.627 293.59 277.737L538.22 332.927C543.16 334.037 548.74 332.617 550.68 329.757L726.45 70.2067C727.48 68.6767 727.26 67.0467 726.09 65.6867C728.35 66.2767 730.35 67.0767 732.03 68.0367H738.1V76.4567H738.08C738.08 77.8967 737.64 79.3567 736.68 80.7867L560.83 340.457C556.7 346.557 544.78 349.587 534.26 347.217L289.63 292.027C281.56 290.207 276.64 285.727 276.64 280.987H276.62V272.567H280.81H280.79Z" fill="black" stroke="black" stroke-linecap="round" stroke-linejoin="round"/>
<path d="M289.61 283.607L534.24 338.797C544.77 341.177 556.68 338.137 560.81 332.037L736.66 72.3667C740.79 66.2667 735.6 59.3767 725.07 56.9967L480.44 1.80668C469.92 -0.563318 458 2.46668 453.87 8.56668L278.02 268.237C273.89 274.337 279.1 281.227 289.61 283.607ZM288.15 270.527L463.92 10.9767C465.86 8.11668 471.45 6.69668 476.38 7.80668L721.01 62.9967C725.95 64.1067 728.38 67.3367 726.44 70.1967L550.67 329.747C548.73 332.607 543.15 334.027 538.21 332.917L293.58 277.727C288.65 276.617 286.21 273.387 288.15 270.527Z" fill="#2D3033" stroke="black" stroke-linecap="round" stroke-linejoin="round"/>
<path d="M404.7 313.107H404.71C405.18 312.427 406.02 312.077 406.99 312.297L417.54 314.677C419.01 315.007 420.21 316.507 420.21 318.007C420.21 318.517 420.06 318.967 419.82 319.317H419.83L413.1 329.257L397.98 323.037L404.71 313.097L404.7 313.107Z" fill="white" stroke="black" stroke-linecap="round" stroke-linejoin="round"/>
<path d="M410.8 324.617C412.27 324.947 413.47 326.447 413.47 327.947C413.47 329.447 412.27 330.407 410.8 330.077L400.25 327.697C398.78 327.367 397.58 325.867 397.58 324.367C397.58 322.867 398.78 321.907 400.25 322.237L410.8 324.617Z" fill="white" stroke="black" stroke-linecap="round" stroke-linejoin="round"/>
<path d="M422.78 196.517C420.27 200.227 423.43 204.417 429.83 205.857L578.55 239.407C584.95 240.847 592.19 239.007 594.7 235.297L630.24 182.817C632.75 179.107 629.59 174.917 623.19 173.477L474.47 139.927C468.08 138.487 460.83 140.327 458.31 144.037L422.77 196.517H422.78Z" fill="black"/>
<path d="M487.72 208.266L490.15 211.856L510.96 207.156L508.53 203.576L487.72 208.266Z" fill="#2FFD76"/>
<path d="M455.28 192.816L457.71 196.406L478.52 191.706L476.1 188.116L455.28 192.816Z" fill="#2FFD76"/>
<path d="M479.85 187.277L482.28 190.857L491.19 188.847L488.77 185.267L479.85 187.277Z" fill="#2FFD76"/>
<path d="M541.78 198.277V172.347" stroke="white" stroke-linecap="round" stroke-linejoin="round"/>
<path d="M541.78 209.526V201.986" stroke="white" stroke-linecap="round" stroke-linejoin="round"/>
<path d="M499.34 185.666V170.536" stroke="white" stroke-linecap="round" stroke-linejoin="round"/>
<path d="M499.34 207.717V189.387" stroke="white" stroke-linecap="round" stroke-linejoin="round"/>
<path d="M485.52 188.056V169.736" stroke="white" stroke-linecap="round" stroke-linejoin="round"/>
<path d="M530.16 210.077L532.59 213.667L553.4 208.967L550.98 205.387L530.16 210.077Z" fill="#2FFD76"/>
<path d="M416.24 109.836C413.73 113.546 416.89 117.736 423.29 119.176L536.8 144.786C543.2 146.226 550.44 144.386 552.95 140.676L588.49 88.1961C591 84.4861 587.84 80.2961 581.44 78.8561L467.93 53.2461C461.54 51.8061 454.29 53.6461 451.77 57.3561L416.23 109.836H416.24Z" fill="black"/>
<path d="M416.24 100.746C413.73 104.456 416.89 108.646 423.29 110.086L536.8 135.696C543.2 137.136 550.44 135.296 552.95 131.586L588.49 79.1062C591 75.3962 587.84 71.2062 581.44 69.7662L467.93 44.1562C461.54 42.7162 454.29 44.5562 451.77 48.2662L416.23 100.746H416.24Z" fill="white" stroke="black" stroke-linecap="round" stroke-linejoin="round"/>
<path d="M568.43 144.176C565.92 147.886 569.08 152.076 575.48 153.516L628.71 165.526C635.11 166.966 642.35 165.126 644.86 161.416L680.4 108.936C682.91 105.226 679.75 101.036 673.35 99.5959L620.12 87.5859C613.73 86.1459 606.48 87.9859 603.96 91.6959L568.42 144.176H568.43Z" fill="black"/>
<path d="M568.43 135.086C565.92 138.796 569.08 142.986 575.48 144.426L628.71 156.436C635.11 157.876 642.35 156.036 644.86 152.326L680.4 99.8461C682.91 96.1361 679.75 91.9461 673.35 90.5061L620.12 78.4961C613.73 77.0561 606.48 78.8961 603.96 82.6061L568.42 135.086H568.43Z" fill="white" stroke="black" stroke-linecap="round" stroke-linejoin="round"/>
<path d="M480.77 60.3164C461.16 60.3164 445.27 70.6464 445.27 83.3964C445.27 96.1464 461.17 106.476 480.77 106.476C500.37 106.476 516.27 96.1464 516.27 83.3964C516.27 70.6464 500.37 60.3164 480.77 60.3164ZM480.77 99.8864C466.77 99.8864 455.419 92.5064 455.419 83.4064C455.419 74.3064 466.77 66.9264 480.77 66.9264C494.77 66.9264 506.12 74.3064 506.12 83.4064C506.12 92.5064 494.77 99.8864 480.77 99.8864Z" fill="black" stroke="black" stroke-linecap="round" stroke-linejoin="round"/>
<path d="M506.12 78.0167C506.12 85.0167 499.41 90.9967 489.94 93.3767L493.61 99.5367C506.87 96.1867 516.27 87.8167 516.27 78.0167C516.27 68.2167 507.55 60.4667 495.07 56.8867L490.98 62.9267C499.89 65.4767 506.11 71.2667 506.11 78.0067L506.12 78.0167Z" fill="#2FFD76" stroke="black" stroke-linecap="round" stroke-linejoin="round"/>
<path d="M480.77 61.5267C484.41 61.5267 487.86 62.0268 490.98 62.9268L495.07 56.8867C490.69 55.6267 485.85 54.9268 480.76 54.9268C471.03 54.9268 462.22 57.4768 455.8 61.5968L462.94 66.2968C467.52 63.3568 473.81 61.5368 480.76 61.5368L480.77 61.5267Z" fill="white" stroke="black" stroke-linecap="round" stroke-linejoin="round"/>
<path d="M493.61 99.537L489.94 93.377C487.1 94.097 484.01 94.4969 480.77 94.4969C479.65 94.4969 478.55 94.4469 477.47 94.3569L476.15 100.897C477.67 101.027 479.21 101.097 480.78 101.097C485.31 101.097 489.64 100.537 493.62 99.537H493.61Z" fill="#0E4622" stroke="black" stroke-linecap="round" stroke-linejoin="round"/>
<path d="M455.42 78.0167C455.42 73.4267 458.3 69.2867 462.95 66.2967L455.81 61.5967C449.3 65.7767 445.26 71.5867 445.26 78.0067C445.26 89.7367 458.72 99.4167 476.14 100.887L477.46 94.3467C465.02 93.2967 455.41 86.3867 455.41 78.0067L455.42 78.0167Z" fill="#C2C8CF" stroke="black" stroke-linecap="round" stroke-linejoin="round"/>
<path d="M579.99 255.666H569.35L509.53 300.076H483.64V320.606L538.2 332.916C543.14 334.026 548.72 332.606 550.66 329.746L579.99 286.446V255.666Z" fill="white" stroke="black" stroke-linecap="round" stroke-linejoin="round"/>
<path d="M579.99 255.666H575.23L537.54 307.786V332.776L538.21 332.926C543.15 334.036 548.73 332.616 550.67 329.756L580 286.456V255.676L579.99 255.666Z" fill="#C2C8CF"/>
<path d="M579.99 255.666H569.35L509.53 300.076H483.64V320.606L538.2 332.916C543.14 334.026 548.72 332.606 550.66 329.746L579.99 286.446V255.666Z" stroke="black" stroke-linecap="round" stroke-linejoin="round"/>
<path d="M484.51 297.456C482 301.166 485.16 305.356 491.56 306.796L527.44 314.886C533.84 316.326 541.08 314.486 543.59 310.776L579.13 258.296C581.64 254.586 578.48 250.396 572.08 248.956L536.2 240.866C529.81 239.426 522.56 241.266 520.04 244.976L484.5 297.456H484.51Z" fill="white" stroke="black" stroke-linecap="round" stroke-linejoin="round"/>
<path d="M495.54 294.976C493.8 297.546 495.99 300.456 500.43 301.456L525.33 307.076C529.77 308.076 534.8 306.796 536.54 304.226C538.28 301.656 536.09 298.746 531.65 297.746L506.75 292.126C502.31 291.126 497.28 292.406 495.54 294.976Z" fill="black"/>
<path d="M540.1 281.336L512.51 275.116" stroke="black" stroke-linecap="round" stroke-linejoin="round"/>
<path d="M551.93 277.976L516.05 269.876" stroke="black" stroke-linecap="round" stroke-linejoin="round"/>
<path d="M555.47 272.746L519.59 264.646" stroke="black" stroke-linecap="round" stroke-linejoin="round"/>
<path d="M559.01 267.506L523.13 259.416" stroke="black" stroke-linecap="round" stroke-linejoin="round"/>
<path d="M518.83 17.3867L512.73 26.3967C511.2 28.6567 513.13 31.2067 517.02 32.0767L656.61 63.5667C660.5 64.4467 664.91 63.3267 666.44 61.0667L672.54 52.0567" stroke="black" stroke-linecap="round" stroke-linejoin="round"/>
<path d="M556.37 25.8564L547.49 38.9664" stroke="black" stroke-linecap="round" stroke-linejoin="round"/>
<path d="M593.84 34.3164L584.96 47.4164" stroke="black" stroke-linecap="round" stroke-linejoin="round"/>
<path d="M631.63 42.8369L622.76 55.9469" stroke="black" stroke-linecap="round" stroke-linejoin="round"/>
<path d="M465.4 19.5568C465.4 23.0368 469.9 25.8568 475.45 25.8568C481 25.8568 485.5 23.0368 485.5 19.5568C485.5 16.0768 481 13.2568 475.45 13.2568C469.9 13.2568 465.4 16.0768 465.4 19.5568Z" fill="black"/>
<path d="M422.78 152.927C420.27 156.637 423.43 160.827 429.83 162.267L578.55 195.817C584.95 197.257 592.19 195.417 594.7 191.707L630.24 139.227C632.75 135.517 629.59 131.327 623.19 129.887L474.47 96.3369C468.08 94.8969 460.83 96.7369 458.31 100.447L422.77 152.927H422.78Z" fill="#2FFD76" stroke="black" stroke-linecap="round" stroke-linejoin="round"/>
<path d="M353.37 192.446C319.57 192.446 292.18 207.156 292.18 225.296V203.716C292.18 185.576 319.58 170.866 353.37 170.866C387.17 170.866 414.56 185.576 414.56 203.716V225.296C414.56 207.156 387.16 192.446 353.37 192.446Z" fill="#2D3033" stroke="black" stroke-linecap="round" stroke-linejoin="round"/>
<path d="M381.13 162.047V297.477L325.61 284.957V162.047H381.13Z" fill="white"/>
<path d="M354.97 162.047H381.13V297.477L354.97 291.577V162.047Z" fill="#C2C8CF"/>
<path d="M352.26 290.966V162.946" stroke="#C2C8CF" stroke-linecap="round" stroke-linejoin="round"/>
<path d="M381.13 162.047V297.477L325.61 284.957V162.047H381.13Z" stroke="black" stroke-linecap="round" stroke-linejoin="round"/>
<path d="M353.37 178.967C368.701 178.967 381.13 171.392 381.13 162.047C381.13 152.702 368.701 145.127 353.37 145.127C338.038 145.127 325.61 152.702 325.61 162.047C325.61 171.392 338.038 178.967 353.37 178.967Z" fill="white" stroke="black" stroke-linecap="round" stroke-linejoin="round"/>
<path d="M369.7 154.837L362.51 156.457L359.36 151.807L366.55 150.187L369.7 154.837Z" fill="white" stroke="black" stroke-linecap="round" stroke-linejoin="round"/>
<path d="M369.7 162.017V154.837L362.51 156.457V163.637L369.7 162.017Z" fill="#C2C8CF" stroke="black" stroke-linecap="round" stroke-linejoin="round"/>
<path d="M359.36 151.807V158.997L362.51 163.637V156.457L359.36 151.807Z" fill="black" stroke="black" stroke-linecap="round" stroke-linejoin="round"/>
<path d="M364.53 153.327V106.847" stroke="black" stroke-linecap="round" stroke-linejoin="round"/>
<path d="M325.61 192.526C325.61 201.876 338.04 209.446 353.37 209.446C368.7 209.446 381.13 201.866 381.13 192.526" stroke="black" stroke-linecap="round" stroke-linejoin="round"/>
<path d="M325.61 223.017C325.61 232.367 338.04 239.937 353.37 239.937C368.7 239.937 381.13 232.357 381.13 223.017" stroke="black" stroke-linecap="round" stroke-linejoin="round"/>
<path d="M325.61 253.497C325.61 262.847 338.04 270.417 353.37 270.417C368.7 270.417 381.13 262.837 381.13 253.497" stroke="black" stroke-linecap="round" stroke-linejoin="round"/>
<path d="M373.35 295.727C378.16 292.687 381.12 288.547 381.12 283.977" stroke="black" stroke-linecap="round" stroke-linejoin="round"/>
<path d="M353.37 236.577C387.17 236.577 414.56 221.867 414.56 203.727V225.307C414.56 243.447 387.16 258.157 353.37 258.157C319.57 258.157 292.18 243.447 292.18 225.307V203.727C292.18 221.867 319.58 236.577 353.37 236.577Z" fill="black" stroke="black" stroke-linecap="round" stroke-linejoin="round"/>
<path d="M390.69 275.206L423.62 282.636L449.39 244.576L416.46 237.146L390.69 275.206Z" fill="white" stroke="black" stroke-linecap="round" stroke-linejoin="round"/>
<path d="M449.39 244.576V312.886L423.62 307.066V282.636L449.39 244.576Z" fill="#C2C8CF" stroke="black" stroke-linecap="round" stroke-linejoin="round"/>
<path d="M390.69 275.206V299.636L423.62 307.066V282.636L390.69 275.206Z" fill="white" stroke="black" stroke-linecap="round" stroke-linejoin="round"/>
<path d="M515.84 147.306L519.87 148.216L525.38 140.076L521.35 139.166L515.84 147.306Z" fill="black" stroke="black" stroke-linecap="round" stroke-linejoin="round"/>
<path d="M503.24 126.157L515.84 128.997L521.35 120.857L508.75 118.017L503.24 126.157Z" fill="#2FFD76" stroke="black" stroke-linecap="round" stroke-linejoin="round"/>
<path d="M503.24 144.466V126.156L515.84 128.996V147.306L503.24 144.466Z" fill="#0E4622" stroke="black" stroke-linecap="round" stroke-linejoin="round"/>
<path d="M521.35 120.856V139.166L515.84 147.306V128.996L521.35 120.856Z" fill="black" stroke="black" stroke-linecap="round" stroke-linejoin="round"/>
<path d="M541.03 152.996L546.36 154.196L551.88 146.056L546.54 144.856L541.03 152.996Z" fill="black" stroke="black" stroke-linecap="round" stroke-linejoin="round"/>
<path d="M528.43 112.546L541.03 115.396L546.54 107.256L533.95 104.406L528.43 112.546Z" fill="#2FFD76" stroke="black" stroke-linecap="round" stroke-linejoin="round"/>
<path d="M528.43 150.146V112.546L541.03 115.396V152.996L528.43 150.146Z" fill="#0E4622" stroke="black" stroke-linecap="round" stroke-linejoin="round"/>
<path d="M546.54 107.256V144.856L541.03 152.996V115.396L546.54 107.256Z" fill="black" stroke="black" stroke-linecap="round" stroke-linejoin="round"/>
<path d="M490.64 141.626L494.96 142.596L500.47 134.456L496.16 133.486L490.64 141.626Z" fill="black" stroke="black" stroke-linecap="round" stroke-linejoin="round"/>
<path d="M478.05 111.367L490.64 114.207L496.16 106.067L483.56 103.227L478.05 111.367Z" fill="#2FFD76" stroke="black" stroke-linecap="round" stroke-linejoin="round"/>
<path d="M478.05 138.786V111.366L490.64 114.206V141.626L478.05 138.786Z" fill="#0E4622" stroke="black" stroke-linecap="round" stroke-linejoin="round"/>
<path d="M496.16 106.066V133.486L490.64 141.626V114.206L496.16 106.066Z" fill="black" stroke="black" stroke-linecap="round" stroke-linejoin="round"/>
<path d="M566.22 158.676L578.82 161.516L584.33 153.376L571.73 150.536L566.22 158.676Z" fill="black" stroke="black" stroke-linecap="round" stroke-linejoin="round"/>
<path d="M553.63 78.4964L566.22 81.3365L571.73 73.1964L559.14 70.3564L553.63 78.4964Z" fill="#2FFD76" stroke="black" stroke-linecap="round" stroke-linejoin="round"/>
<path d="M553.63 155.836V78.4961L566.22 81.3361V158.676L553.63 155.836Z" fill="#0E4622" stroke="black" stroke-linecap="round" stroke-linejoin="round"/>
<path d="M571.73 73.1963V150.536L566.22 158.676V81.3363L571.73 73.1963Z" fill="black" stroke="black" stroke-linecap="round" stroke-linejoin="round"/>
<path d="M452.86 123.466L465.45 126.316L470.96 118.176L458.37 115.326L452.86 123.466Z" fill="#2FFD76" stroke="black" stroke-linecap="round" stroke-linejoin="round"/>
<path d="M452.86 133.096V123.466L465.45 126.316V135.936L452.86 133.096Z" fill="#0E4622" stroke="black" stroke-linecap="round" stroke-linejoin="round"/>
<path d="M470.96 118.176V127.796L465.45 135.936V126.316L470.96 118.176Z" fill="black" stroke="black" stroke-linecap="round" stroke-linejoin="round"/>
<path d="M591.41 164.357L599.95 166.287L605.46 158.147L596.93 156.217L591.41 164.357Z" fill="black" stroke="black" stroke-linecap="round" stroke-linejoin="round"/>
<path d="M578.82 108.746L591.41 111.596L596.93 103.456L584.33 100.606L578.82 108.746Z" fill="#2FFD76" stroke="black" stroke-linecap="round" stroke-linejoin="round"/>
<path d="M578.82 161.516V108.746L591.41 111.596V164.356L578.82 161.516Z" fill="#0E4622" stroke="black" stroke-linecap="round" stroke-linejoin="round"/>
<path d="M596.93 103.456V156.216L591.41 164.356V111.596L596.93 103.456Z" fill="black" stroke="black" stroke-linecap="round" stroke-linejoin="round"/>
<path d="M432.35 150.497C430.61 153.067 432.8 155.977 437.24 156.977L462.14 162.597C466.58 163.597 471.61 162.317 473.35 159.747C475.09 157.177 472.9 154.267 468.46 153.267L443.56 147.647C439.12 146.647 434.09 147.927 432.35 150.497Z" fill="white" stroke="black" stroke-linecap="round" stroke-linejoin="round"/>
<path d="M187.24 466.626L174.51 464.456C172.94 464.186 172.23 460.626 172.93 456.496C173.63 452.366 175.48 449.236 177.05 449.506L189.78 451.676L187.24 466.626Z" fill="white" stroke="black" stroke-linecap="round" stroke-linejoin="round"/>
<path d="M187.24 466.626L174.51 464.456C172.94 464.186 172.23 460.626 172.93 456.496C173.63 452.366 175.48 449.236 177.05 449.506L189.78 451.676L187.24 466.626Z" fill="#2D3033" stroke="black" stroke-linecap="round" stroke-linejoin="round"/>
<path d="M191.373 459.678C192.075 455.551 191.369 451.988 189.796 451.721C188.222 451.453 186.377 454.581 185.675 458.708C184.972 462.835 185.678 466.398 187.252 466.666C188.825 466.933 190.67 463.805 191.373 459.678Z" fill="#2D3033" stroke="black" stroke-linecap="round" stroke-linejoin="round"/>
<path d="M192.32 463.237L188.47 462.587C187.77 462.467 187.45 460.877 187.76 459.027C188.07 457.177 188.9 455.787 189.6 455.907L193.45 456.557L192.31 463.237H192.32Z" fill="white" stroke="black" stroke-linecap="round" stroke-linejoin="round"/>
<path d="M192.64 463.737L188.3 462.997C187.51 462.857 187.15 461.067 187.5 458.977C187.85 456.897 188.79 455.317 189.58 455.447L193.92 456.187L192.64 463.727V463.737Z" fill="#2D3033" stroke="black" stroke-linecap="round" stroke-linejoin="round"/>
<path d="M194.732 460.251C195.086 458.172 194.729 456.376 193.934 456.241C193.139 456.105 192.207 457.682 191.853 459.762C191.499 461.841 191.857 463.637 192.652 463.772C193.447 463.908 194.378 462.331 194.732 460.251Z" fill="black" stroke="black" stroke-linecap="round" stroke-linejoin="round"/>
<path d="M318.53 508.577C318.36 508.577 318.18 508.557 318.01 508.517L256.14 495.376C237.13 490.856 228.64 483.256 221.14 476.566C214.97 471.056 209.64 466.287 199.36 463.597L194.27 462.676C192.91 462.426 192.01 461.127 192.25 459.777C192.5 458.417 193.79 457.517 195.15 457.757L200.33 458.697C200.39 458.707 200.45 458.716 200.52 458.736C212.03 461.736 218.06 467.127 224.46 472.847C231.86 479.457 239.51 486.287 257.23 490.507L319.04 503.637C320.39 503.927 321.25 505.247 320.97 506.597C320.72 507.777 319.68 508.577 318.53 508.577Z" fill="black"/>
<path d="M445.08 530.066C429.5 530.066 411.51 528.386 391.04 524.036L293.71 503.366C292.36 503.076 291.5 501.756 291.78 500.406C292.07 499.056 293.39 498.196 294.74 498.476L392.07 519.146C443.71 530.116 479.01 523.826 499.52 516.616C524.08 507.986 541.04 492.936 544.86 476.356C550.3 452.786 529.25 432.046 489.92 422.226L423.12 405.546C408.48 401.886 398.53 394.196 393.57 382.676C386.79 366.946 391.15 346.746 398.48 333.696L403.01 325.636C403.69 324.436 405.21 324.006 406.41 324.676C407.61 325.346 408.04 326.876 407.37 328.076L402.84 336.136C396.11 348.106 392.06 366.526 398.17 380.686C402.49 390.696 411.29 397.426 424.34 400.686L491.14 417.366C541.67 429.986 554.54 456.686 549.74 477.476C545.46 495.996 527.76 511.986 501.18 521.326C488.26 525.866 469.66 530.066 445.08 530.066Z" fill="black"/>
<path d="M547.25 478.647C547.13 478.647 547.02 478.637 546.9 478.607C546.09 478.417 545.6 477.607 545.79 476.797C546.95 471.937 546.99 467.057 545.9 462.297C545.72 461.487 546.22 460.687 547.03 460.497C547.84 460.317 548.64 460.817 548.83 461.627C550.01 466.837 549.97 472.167 548.71 477.487C548.55 478.177 547.93 478.637 547.25 478.637V478.647Z" fill="#0E4622"/>
<path d="M545.19 456.986C544.62 456.986 544.07 456.656 543.82 456.096C536.86 440.526 517.81 428.146 490.17 421.256L423.37 404.576C409.05 400.996 399.33 393.496 394.49 382.276C387.84 366.866 392.14 347.016 399.35 334.186L403.88 326.126C404.28 325.406 405.2 325.146 405.92 325.556C406.64 325.966 406.9 326.876 406.49 327.596L401.96 335.656C395.11 347.846 391 366.616 397.24 381.086C401.69 391.396 410.72 398.326 424.09 401.656L490.89 418.336C519.44 425.466 539.21 438.436 546.55 454.866C546.89 455.626 546.55 456.506 545.79 456.846C545.59 456.936 545.38 456.976 545.18 456.976L545.19 456.986Z" fill="#0E4622"/>
</svg>
