<svg width="97" height="157" viewBox="0 0 97 157" fill="none" xmlns="http://www.w3.org/2000/svg">
<g clip-path="url(#clip0_3222_13221)">
<path d="M96 126.082V30.9151C96 14.3921 74.7327 1 48.5015 1C22.2702 1 1 14.3921 1 30.9151V126.082C1 142.605 22.2673 156 48.4985 156C74.7298 156 95.9971 142.605 95.9971 126.085L96 126.082Z" fill="#2FFD76" stroke="#0E0F0D" stroke-linecap="round" stroke-linejoin="round"/>
<path d="M48.4985 155.996C74.7312 155.996 95.9971 142.603 95.9971 126.081C95.9971 109.559 74.7312 96.166 48.4985 96.166C22.2658 96.166 1 109.559 1 126.081C1 142.603 22.2658 155.996 48.4985 155.996Z" fill="#118338" stroke="#0E0F0D" stroke-linecap="round" stroke-linejoin="round"/>
<path d="M72.3779 130.963C75.4382 129.033 75.4382 125.88 72.3779 123.95L31.4247 98.1562C20.8818 100.715 12.1547 105.574 6.78955 111.756L29.3747 125.982L37.8705 130.426C44.1113 133.691 53.0317 134.716 61.1175 134.672C63.5453 134.659 67.1767 134.237 69.2795 132.911L72.375 130.963H72.3779Z" fill="#0E0F0D"/>
<path d="M89.4608 122.973C92.1902 124.691 92.2019 127.477 89.493 129.193L53.5535 151.974C50.8446 153.693 46.4371 153.693 43.7077 151.974L7.53392 129.193C4.80742 127.474 4.79278 124.688 7.50171 122.973L43.4412 100.191C46.1501 98.4728 50.5576 98.4728 53.287 100.191L89.4608 122.973Z" stroke="#0E0F0D" stroke-linecap="round" stroke-linejoin="round"/>
<path d="M84.1157 139.445C84.9708 139.985 84.9767 140.857 84.1244 141.397L72.8524 148.544C72.0031 149.083 70.6208 149.083 69.7656 148.544L66.9044 146.742C66.0493 146.202 66.0434 145.33 66.8956 144.79L78.1677 137.643C79.017 137.103 80.3993 137.103 81.2544 137.643L84.1157 139.445Z" fill="#0E0F0D"/>
<path d="M69.3853 145.835L70.6709 146.646L71.403 146.186L70.1145 145.375L69.3853 145.835Z" fill="#2FFD76"/>
<path d="M70.6826 145.017L71.9683 145.828L72.7004 145.368L71.4148 144.557L70.6826 145.017Z" fill="#2FFD76"/>
<path d="M71.98 144.202L73.2686 145.01L73.9978 144.55L72.7121 143.738L71.98 144.202Z" fill="#2FFD76"/>
<path d="M73.2803 143.383L74.5659 144.191L75.2981 143.731L74.0095 142.92L73.2803 143.383Z" fill="#2FFD76"/>
<path d="M71.2568 147.175L81.6328 140.639" stroke="#2FFD76" stroke-linecap="round" stroke-linejoin="round"/>
<path d="M16.2139 117.47L33.2259 106.672" stroke="#118338" stroke-linecap="round" stroke-linejoin="round"/>
<path d="M73.1015 123.275C73.2551 123.275 73.3797 123.139 73.3797 122.971C73.3797 122.804 73.2551 122.668 73.1015 122.668C72.9478 122.668 72.8232 122.804 72.8232 122.971C72.8232 123.139 72.9478 123.275 73.1015 123.275Z" fill="#0E0F0D"/>
<path d="M68.1581 120.16C68.3117 120.16 68.4363 120.024 68.4363 119.856C68.4363 119.689 68.3117 119.553 68.1581 119.553C68.0044 119.553 67.8799 119.689 67.8799 119.856C67.8799 120.024 68.0044 120.16 68.1581 120.16Z" fill="#118338"/>
<path d="M78.0453 126.384C78.199 126.384 78.3235 126.248 78.3235 126.081C78.3235 125.913 78.199 125.777 78.0453 125.777C77.8917 125.777 77.7671 125.913 77.7671 126.081C77.7671 126.248 77.8917 126.384 78.0453 126.384Z" fill="#0E0F0D"/>
<path d="M63.2147 117.043C63.3684 117.043 63.493 116.908 63.493 116.74C63.493 116.572 63.3684 116.438 63.2147 116.438C63.0611 116.438 62.9365 116.572 62.9365 116.74C62.9365 116.908 63.0611 117.043 63.2147 117.043Z" fill="#118338"/>
<path d="M58.268 113.933C58.4216 113.933 58.5462 113.797 58.5462 113.63C58.5462 113.462 58.4216 113.326 58.268 113.326C58.1143 113.326 57.9897 113.462 57.9897 113.63C57.9897 113.797 58.1143 113.933 58.268 113.933Z" fill="#118338"/>
<path d="M53.3246 110.818C53.4783 110.818 53.6028 110.682 53.6028 110.514C53.6028 110.347 53.4783 110.211 53.3246 110.211C53.171 110.211 53.0464 110.347 53.0464 110.514C53.0464 110.682 53.171 110.818 53.3246 110.818Z" fill="#118338"/>
<path d="M48.3812 107.703C48.5349 107.703 48.6595 107.567 48.6595 107.399C48.6595 107.232 48.5349 107.096 48.3812 107.096C48.2276 107.096 48.103 107.232 48.103 107.399C48.103 107.567 48.2276 107.703 48.3812 107.703Z" fill="#118338"/>
<path d="M68.1581 126.384C68.3117 126.384 68.4363 126.248 68.4363 126.081C68.4363 125.913 68.3117 125.777 68.1581 125.777C68.0044 125.777 67.8799 125.913 67.8799 126.081C67.8799 126.248 68.0044 126.384 68.1581 126.384Z" fill="#118338"/>
<path d="M63.2147 123.275C63.3684 123.275 63.493 123.139 63.493 122.971C63.493 122.804 63.3684 122.668 63.2147 122.668C63.0611 122.668 62.9365 122.804 62.9365 122.971C62.9365 123.139 63.0611 123.275 63.2147 123.275Z" fill="#118338"/>
<path d="M58.268 120.16C58.4216 120.16 58.5462 120.024 58.5462 119.856C58.5462 119.689 58.4216 119.553 58.268 119.553C58.1143 119.553 57.9897 119.689 57.9897 119.856C57.9897 120.024 58.1143 120.16 58.268 120.16Z" fill="#118338"/>
<path d="M53.3246 117.043C53.4783 117.043 53.6028 116.908 53.6028 116.74C53.6028 116.572 53.4783 116.438 53.3246 116.438C53.171 116.438 53.0464 116.572 53.0464 116.74C53.0464 116.908 53.171 117.043 53.3246 117.043Z" fill="#118338"/>
<path d="M48.3812 113.933C48.5349 113.933 48.6595 113.797 48.6595 113.63C48.6595 113.462 48.5349 113.326 48.3812 113.326C48.2276 113.326 48.103 113.462 48.103 113.63C48.103 113.797 48.2276 113.933 48.3812 113.933Z" fill="#118338"/>
<path d="M43.4379 110.818C43.5915 110.818 43.7161 110.682 43.7161 110.514C43.7161 110.347 43.5915 110.211 43.4379 110.211C43.2842 110.211 43.1597 110.347 43.1597 110.514C43.1597 110.682 43.2842 110.818 43.4379 110.818Z" fill="#118338"/>
<path d="M63.2147 129.502C63.3684 129.502 63.493 129.366 63.493 129.198C63.493 129.03 63.3684 128.895 63.2147 128.895C63.0611 128.895 62.9365 129.03 62.9365 129.198C62.9365 129.366 63.0611 129.502 63.2147 129.502Z" fill="#118338"/>
<path d="M58.268 126.384C58.4216 126.384 58.5462 126.248 58.5462 126.081C58.5462 125.913 58.4216 125.777 58.268 125.777C58.1143 125.777 57.9897 125.913 57.9897 126.081C57.9897 126.248 58.1143 126.384 58.268 126.384Z" fill="#118338"/>
<path d="M53.3246 123.275C53.4783 123.275 53.6028 123.139 53.6028 122.971C53.6028 122.804 53.4783 122.668 53.3246 122.668C53.171 122.668 53.0464 122.804 53.0464 122.971C53.0464 123.139 53.171 123.275 53.3246 123.275Z" fill="#118338"/>
<path d="M48.3812 120.16C48.5349 120.16 48.6595 120.024 48.6595 119.856C48.6595 119.689 48.5349 119.553 48.3812 119.553C48.2276 119.553 48.103 119.689 48.103 119.856C48.103 120.024 48.2276 120.16 48.3812 120.16Z" fill="#118338"/>
<path d="M43.4379 117.043C43.5915 117.043 43.7161 116.908 43.7161 116.74C43.7161 116.572 43.5915 116.438 43.4379 116.438C43.2842 116.438 43.1597 116.572 43.1597 116.74C43.1597 116.908 43.2842 117.043 43.4379 117.043Z" fill="#118338"/>
<path d="M38.4945 113.933C38.6482 113.933 38.7727 113.797 38.7727 113.63C38.7727 113.462 38.6482 113.326 38.4945 113.326C38.3409 113.326 38.2163 113.462 38.2163 113.63C38.2163 113.797 38.3409 113.933 38.4945 113.933Z" fill="#118338"/>
<path d="M58.268 132.615C58.4216 132.615 58.5462 132.479 58.5462 132.311C58.5462 132.144 58.4216 132.008 58.268 132.008C58.1143 132.008 57.9897 132.144 57.9897 132.311C57.9897 132.479 58.1143 132.615 58.268 132.615Z" fill="#118338"/>
<path d="M53.3246 129.502C53.4783 129.502 53.6028 129.366 53.6028 129.198C53.6028 129.03 53.4783 128.895 53.3246 128.895C53.171 128.895 53.0464 129.03 53.0464 129.198C53.0464 129.366 53.171 129.502 53.3246 129.502Z" fill="#118338"/>
<path d="M48.3812 126.384C48.5349 126.384 48.6595 126.248 48.6595 126.081C48.6595 125.913 48.5349 125.777 48.3812 125.777C48.2276 125.777 48.103 125.913 48.103 126.081C48.103 126.248 48.2276 126.384 48.3812 126.384Z" fill="#118338"/>
<path d="M43.4379 123.275C43.5915 123.275 43.7161 123.139 43.7161 122.971C43.7161 122.804 43.5915 122.668 43.4379 122.668C43.2842 122.668 43.1597 122.804 43.1597 122.971C43.1597 123.139 43.2842 123.275 43.4379 123.275Z" fill="#118338"/>
<path d="M38.4945 120.16C38.6482 120.16 38.7727 120.024 38.7727 119.856C38.7727 119.689 38.6482 119.553 38.4945 119.553C38.3409 119.553 38.2163 119.689 38.2163 119.856C38.2163 120.024 38.3409 120.16 38.4945 120.16Z" fill="#118338"/>
<path d="M33.5482 117.043C33.7019 117.043 33.8265 116.908 33.8265 116.74C33.8265 116.572 33.7019 116.438 33.5482 116.438C33.3946 116.438 33.27 116.572 33.27 116.74C33.27 116.908 33.3946 117.043 33.5482 117.043Z" fill="#118338"/>
<path d="M53.3246 135.73C53.4783 135.73 53.6028 135.594 53.6028 135.427C53.6028 135.259 53.4783 135.123 53.3246 135.123C53.171 135.123 53.0464 135.259 53.0464 135.427C53.0464 135.594 53.171 135.73 53.3246 135.73Z" fill="#0E0F0D"/>
<path d="M48.3812 132.615C48.5349 132.615 48.6595 132.479 48.6595 132.311C48.6595 132.144 48.5349 132.008 48.3812 132.008C48.2276 132.008 48.103 132.144 48.103 132.311C48.103 132.479 48.2276 132.615 48.3812 132.615Z" fill="#118338"/>
<path d="M43.4379 129.502C43.5915 129.502 43.7161 129.366 43.7161 129.198C43.7161 129.03 43.5915 128.895 43.4379 128.895C43.2842 128.895 43.1597 129.03 43.1597 129.198C43.1597 129.366 43.2842 129.502 43.4379 129.502Z" fill="#118338"/>
<path d="M38.4945 126.384C38.6482 126.384 38.7727 126.248 38.7727 126.081C38.7727 125.913 38.6482 125.777 38.4945 125.777C38.3409 125.777 38.2163 125.913 38.2163 126.081C38.2163 126.248 38.3409 126.384 38.4945 126.384Z" fill="#118338"/>
<path d="M33.5482 123.275C33.7019 123.275 33.8265 123.139 33.8265 122.971C33.8265 122.804 33.7019 122.668 33.5482 122.668C33.3946 122.668 33.27 122.804 33.27 122.971C33.27 123.139 33.3946 123.275 33.5482 123.275Z" fill="#118338"/>
<path d="M28.6049 120.16C28.7585 120.16 28.8831 120.024 28.8831 119.856C28.8831 119.689 28.7585 119.553 28.6049 119.553C28.4512 119.553 28.3267 119.689 28.3267 119.856C28.3267 120.024 28.4512 120.16 28.6049 120.16Z" fill="#118338"/>
<path d="M48.3812 138.841C48.5349 138.841 48.6595 138.705 48.6595 138.538C48.6595 138.37 48.5349 138.234 48.3812 138.234C48.2276 138.234 48.103 138.37 48.103 138.538C48.103 138.705 48.2276 138.841 48.3812 138.841Z" fill="#0E0F0D"/>
<path d="M73.1015 129.502C73.2551 129.502 73.3797 129.366 73.3797 129.198C73.3797 129.03 73.2551 128.895 73.1015 128.895C72.9478 128.895 72.8232 129.03 72.8232 129.198C72.8232 129.366 72.9478 129.502 73.1015 129.502Z" fill="#0E0F0D"/>
<path d="M68.1581 132.615C68.3117 132.615 68.4363 132.479 68.4363 132.311C68.4363 132.144 68.3117 132.008 68.1581 132.008C68.0044 132.008 67.8799 132.144 67.8799 132.311C67.8799 132.479 68.0044 132.615 68.1581 132.615Z" fill="#118338"/>
<path d="M63.2147 135.73C63.3684 135.73 63.493 135.594 63.493 135.427C63.493 135.259 63.3684 135.123 63.2147 135.123C63.0611 135.123 62.9365 135.259 62.9365 135.427C62.9365 135.594 63.0611 135.73 63.2147 135.73Z" fill="#0E0F0D"/>
<path d="M58.268 138.841C58.4216 138.841 58.5462 138.705 58.5462 138.538C58.5462 138.37 58.4216 138.234 58.268 138.234C58.1143 138.234 57.9897 138.37 57.9897 138.538C57.9897 138.705 58.1143 138.841 58.268 138.841Z" fill="#0E0F0D"/>
<path d="M53.3246 141.957C53.4783 141.957 53.6028 141.821 53.6028 141.653C53.6028 141.485 53.4783 141.35 53.3246 141.35C53.171 141.35 53.0464 141.485 53.0464 141.653C53.0464 141.821 53.171 141.957 53.3246 141.957Z" fill="#0E0F0D"/>
<path d="M48.3812 145.072C48.5349 145.072 48.6595 144.936 48.6595 144.768C48.6595 144.601 48.5349 144.465 48.3812 144.465C48.2276 144.465 48.103 144.601 48.103 144.768C48.103 144.936 48.2276 145.072 48.3812 145.072Z" fill="#0E0F0D"/>
<path d="M43.4379 135.73C43.5915 135.73 43.7161 135.594 43.7161 135.427C43.7161 135.259 43.5915 135.123 43.4379 135.123C43.2842 135.123 43.1597 135.259 43.1597 135.427C43.1597 135.594 43.2842 135.73 43.4379 135.73Z" fill="#0E0F0D"/>
<path d="M38.4945 132.615C38.6482 132.615 38.7727 132.479 38.7727 132.311C38.7727 132.144 38.6482 132.008 38.4945 132.008C38.3409 132.008 38.2163 132.144 38.2163 132.311C38.2163 132.479 38.3409 132.615 38.4945 132.615Z" fill="#0E0F0D"/>
<path d="M33.5482 129.502C33.7019 129.502 33.8265 129.366 33.8265 129.198C33.8265 129.03 33.7019 128.895 33.5482 128.895C33.3946 128.895 33.27 129.03 33.27 129.198C33.27 129.366 33.3946 129.502 33.5482 129.502Z" fill="#0E0F0D"/>
<path d="M28.6049 126.384C28.7585 126.384 28.8831 126.248 28.8831 126.081C28.8831 125.913 28.7585 125.777 28.6049 125.777C28.4512 125.777 28.3267 125.913 28.3267 126.081C28.3267 126.248 28.4512 126.384 28.6049 126.384Z" fill="#0E0F0D"/>
<path d="M23.6615 123.275C23.8152 123.275 23.9397 123.139 23.9397 122.971C23.9397 122.804 23.8152 122.668 23.6615 122.668C23.5079 122.668 23.3833 122.804 23.3833 122.971C23.3833 123.139 23.5079 123.275 23.6615 123.275Z" fill="#0E0F0D"/>
<path d="M43.4379 141.957C43.5915 141.957 43.7161 141.821 43.7161 141.653C43.7161 141.485 43.5915 141.35 43.4379 141.35C43.2842 141.35 43.1597 141.485 43.1597 141.653C43.1597 141.821 43.2842 141.957 43.4379 141.957Z" fill="#0E0F0D"/>
<path d="M38.4945 138.841C38.6482 138.841 38.7727 138.705 38.7727 138.538C38.7727 138.37 38.6482 138.234 38.4945 138.234C38.3409 138.234 38.2163 138.37 38.2163 138.538C38.2163 138.705 38.3409 138.841 38.4945 138.841Z" fill="#0E0F0D"/>
<path d="M33.5482 135.73C33.7019 135.73 33.8265 135.594 33.8265 135.427C33.8265 135.259 33.7019 135.123 33.5482 135.123C33.3946 135.123 33.27 135.259 33.27 135.427C33.27 135.594 33.3946 135.73 33.5482 135.73Z" fill="#0E0F0D"/>
<path d="M28.6049 132.615C28.7585 132.615 28.8831 132.479 28.8831 132.311C28.8831 132.144 28.7585 132.008 28.6049 132.008C28.4512 132.008 28.3267 132.144 28.3267 132.311C28.3267 132.479 28.4512 132.615 28.6049 132.615Z" fill="#0E0F0D"/>
<path d="M23.6615 129.502C23.8152 129.502 23.9397 129.366 23.9397 129.198C23.9397 129.03 23.8152 128.895 23.6615 128.895C23.5079 128.895 23.3833 129.03 23.3833 129.198C23.3833 129.366 23.5079 129.502 23.6615 129.502Z" fill="#0E0F0D"/>
<path d="M18.7177 126.384C18.8713 126.384 18.9959 126.248 18.9959 126.081C18.9959 125.913 18.8713 125.777 18.7177 125.777C18.564 125.777 18.4395 125.913 18.4395 126.081C18.4395 126.248 18.564 126.384 18.7177 126.384Z" fill="#0E0F0D"/>
<path d="M84.6138 126.864C85.2672 126.864 85.797 126.53 85.797 126.119C85.797 125.708 85.2672 125.375 84.6138 125.375C83.9604 125.375 83.4307 125.708 83.4307 126.119C83.4307 126.53 83.9604 126.864 84.6138 126.864Z" fill="#0E0F0D"/>
<path d="M48.6773 149.649C49.3307 149.649 49.8604 149.316 49.8604 148.905C49.8604 148.493 49.3307 148.16 48.6773 148.16C48.0239 148.16 47.4941 148.493 47.4941 148.905C47.4941 149.316 48.0239 149.649 48.6773 149.649Z" fill="#0E0F0D"/>
<path d="M84.6139 127.5C85.8237 127.5 86.8045 126.883 86.8045 126.12C86.8045 125.358 85.8237 124.74 84.6139 124.74C83.4041 124.74 82.4233 125.358 82.4233 126.12C82.4233 126.883 83.4041 127.5 84.6139 127.5Z" stroke="#0E0F0D" stroke-linecap="round" stroke-linejoin="round"/>
<path d="M48.3815 104.68C49.5913 104.68 50.5721 104.062 50.5721 103.3C50.5721 102.538 49.5913 101.92 48.3815 101.92C47.1717 101.92 46.1909 102.538 46.1909 103.3C46.1909 104.062 47.1717 104.68 48.3815 104.68Z" stroke="#0E0F0D" stroke-linecap="round" stroke-linejoin="round"/>
<path d="M12.445 127.461C13.6548 127.461 14.6355 126.843 14.6355 126.081C14.6355 125.319 13.6548 124.701 12.445 124.701C11.2352 124.701 10.2544 125.319 10.2544 126.081C10.2544 126.843 11.2352 127.461 12.445 127.461Z" stroke="#0E0F0D" stroke-linecap="round" stroke-linejoin="round"/>
<path d="M48.6774 150.284C49.8872 150.284 50.868 149.666 50.868 148.904C50.868 148.141 49.8872 147.523 48.6774 147.523C47.4676 147.523 46.4868 148.141 46.4868 148.904C46.4868 149.666 47.4676 150.284 48.6774 150.284Z" stroke="#0E0F0D" stroke-linecap="round" stroke-linejoin="round"/>
<path d="M48.6772 148.904V137.921C48.6772 136.17 49.8165 134.023 51.2075 133.148L82.0513 113.82C83.4423 112.948 84.5874 113.667 84.5903 115.418L84.6138 126.12" stroke="#0E0F0D" stroke-width="4" stroke-linecap="round" stroke-linejoin="round"/>
<path d="M68.5509 121.541L50.9179 132.591C50.4113 132.908 49.9427 133.365 49.5356 133.901C50.0189 133.975 50.5021 134.042 50.9911 134.103C51.1551 133.949 51.3279 133.812 51.5036 133.7L69.7282 122.279L68.5538 121.541H68.5509Z" fill="#118338"/>
<path d="M48.3819 104.043C49.0353 104.043 49.565 103.71 49.565 103.299C49.565 102.888 49.0353 102.555 48.3819 102.555C47.7284 102.555 47.1987 102.888 47.1987 103.299C47.1987 103.71 47.7284 104.043 48.3819 104.043Z" fill="#0E0F0D"/>
<path d="M12.4449 126.825C13.0983 126.825 13.628 126.491 13.628 126.08C13.628 125.669 13.0983 125.336 12.4449 125.336C11.7914 125.336 11.2617 125.669 11.2617 126.08C11.2617 126.491 11.7914 126.825 12.4449 126.825Z" fill="#0E0F0D"/>
<path d="M12.4448 126.081V74.8448C12.4448 73.0941 13.584 70.9473 14.9751 70.0719L45.8188 50.7441C47.2099 49.8719 48.3521 50.5907 48.3521 52.3414L48.3813 103.297" stroke="#0E0F0D" stroke-width="4" stroke-linecap="round" stroke-linejoin="round"/>
<path d="M46.4135 99.9072C49.717 95.9842 59.6536 82.8604 66.2195 78.7264L70.4278 76.0749L69.3531 65.7368L51.0436 57.5457L51.4507 33.1382L48.118 32.1159C46.7269 31.6878 44.5627 31.9849 43.3092 32.774L38.193 35.9975C35.3172 37.8089 34.0579 39.6171 33.3257 41.4444L29.6182 53.9325L34.8984 81.049L42.7938 104.242L44.0677 101.776L46.4135 99.904V99.9072Z" fill="#2FFD76" stroke="#0E0F0D" stroke-linecap="round" stroke-linejoin="round"/>
<path d="M42.8585 100.323L50.1652 81.8542C50.8945 80.0076 50.7422 77.0717 49.8255 75.3274L38.0146 52.8847C36.9837 50.9232 36.2721 47.4761 36.4361 45.2206L37.0365 36.9688L36.0349 37.7994L35.2002 38.6363L34.72 45.8116C34.5677 48.067 35.2705 51.5238 36.2867 53.4949L43.6111 67.7239C44.5131 69.4778 44.5746 72.3818 43.7458 74.1772L39.596 83.183L42.8585 100.323Z" fill="#C2C8CF"/>
<path d="M62.2247 65.4965L49.9423 61.2061C46.6886 60.0687 44.6533 56.168 45.4176 52.5357L48.2554 39.0477C49.9188 31.1408 52.4872 31.176 53.9632 39.1276L55.4568 47.1686C55.8931 49.5199 57.6942 52.6123 59.4631 54.0404L70.1201 62.6564L62.2306 65.4965H62.2247Z" fill="#0E0F0D" stroke="#0E0F0D" stroke-linecap="round" stroke-linejoin="round"/>
<path d="M63.8181 65.3442L52.467 61.3796C49.4623 60.3286 47.5792 56.725 48.285 53.3674L50.906 40.9017C51.4537 38.2948 52.1097 36.6208 52.7862 35.8828" stroke="#118338" stroke-linecap="round" stroke-linejoin="round"/>
<path d="M38.19 74.4908L33.0885 50.6712C32.5408 48.1155 32.6462 43.9656 33.3257 41.4481L23.1635 40.5664L21.4181 41.6654C19.9333 42.5982 18.4046 44.8537 18.018 46.6747L16.3722 54.409C15.9827 56.2427 16.3487 59.0892 17.1863 60.7345L28.2915 82.5702C29.2198 84.3976 30.8188 85.2729 32.4149 84.4263L35.484 82.7715L34.8983 81.0495L38.19 74.4908Z" fill="white" stroke="#0E0F0D" stroke-linecap="round" stroke-linejoin="round"/>
<path d="M30.1629 72.6345L23.518 58.3574C23.2163 57.7089 23.0816 56.5971 23.2163 55.8879L24.1593 50.9681C24.3321 50.0608 25.1697 49.3708 26.016 49.4315L32.9538 49.933" stroke="#0E0F0D" stroke-linecap="round" stroke-linejoin="round"/>
<path d="M29.3633 70.9128L35.2234 60.6387" stroke="#0E0F0D" stroke-linecap="round" stroke-linejoin="round"/>
<path d="M28.0601 68.1143L34.4414 56.9297" stroke="#0E0F0D" stroke-linecap="round" stroke-linejoin="round"/>
<path d="M26.7598 65.3183L33.6419 53.252" stroke="#0E0F0D" stroke-linecap="round" stroke-linejoin="round"/>
<path d="M25.4565 62.5228L32.6521 49.9102" stroke="#0E0F0D" stroke-linecap="round" stroke-linejoin="round"/>
<path d="M40.4597 85.0551C39.8887 82.4003 38.4478 82.1927 37.2588 84.5919L33.4692 92.2528L34.6934 95.1631L39.2649 104.15C39.8037 105.207 40.4451 106.3 41.1626 107.399L44.0677 101.779L40.4627 85.0551H40.4597Z" fill="white" stroke="#0E0F0D" stroke-linecap="round" stroke-linejoin="round"/>
<path d="M71.4701 75.4171C72.8377 74.5546 73.5933 74.9986 73.7456 76.2222L74.3108 58.9293C74.4338 55.2043 72.1115 53.6804 69.1507 55.543L63.5659 59.0603C62.1309 59.9644 60.8687 62.1815 60.7632 63.9865L60.6168 66.5071L59.6211 84.4293C61.9435 82.0429 64.2336 79.9727 66.2162 78.7236L71.4701 75.4139V75.4171Z" fill="white" stroke="#0E0F0D" stroke-linecap="round" stroke-linejoin="round"/>
<path d="M57.6856 71.0498C58.2905 71.0498 58.7809 70.5148 58.7809 69.855C58.7809 69.1951 58.2905 68.6602 57.6856 68.6602C57.0807 68.6602 56.5903 69.1951 56.5903 69.855C56.5903 70.5148 57.0807 71.0498 57.6856 71.0498Z" fill="#0E0F0D"/>
<path d="M57.2608 77.001C57.8657 77.001 58.3561 76.466 58.3561 75.8061C58.3561 75.1463 57.8657 74.6113 57.2608 74.6113C56.6559 74.6113 56.1655 75.1463 56.1655 75.8061C56.1655 76.466 56.6559 77.001 57.2608 77.001Z" fill="#0E0F0D"/>
<path d="M56.8155 82.9541C57.4204 82.9541 57.9108 82.4191 57.9108 81.7593C57.9108 81.0994 57.4204 80.5645 56.8155 80.5645C56.2106 80.5645 55.7202 81.0994 55.7202 81.7593C55.7202 82.4191 56.2106 82.9541 56.8155 82.9541Z" fill="#0E0F0D"/>
<path d="M57.6855 69.8532L60.166 70.4506C62.4826 71.0065 66.0554 70.4059 68.1083 69.1121L74.1031 65.3359" stroke="#0E0F0D" stroke-width="4" stroke-linecap="round" stroke-linejoin="round"/>
<path d="M57.2607 75.8064L59.7412 76.4038C62.0577 76.9596 65.6306 76.359 67.6835 75.0652L73.6783 71.2891" stroke="#0E0F0D" stroke-width="4" stroke-linecap="round" stroke-linejoin="round"/>
<path d="M56.8364 81.7595L59.3169 82.3569C61.6334 82.9128 65.2063 82.3122 67.2592 81.0183L73.254 77.2422" stroke="#0E0F0D" stroke-width="4" stroke-linecap="round" stroke-linejoin="round"/>
<path d="M53.6731 119.804L66.3333 125.928L76.2671 123.213H78.2204C79.7169 122.27 80.4022 120.072 79.7433 118.328L72.9607 100.396L70.4304 76.0781L66.2221 78.7297C59.6562 82.8637 49.7195 95.9906 46.4161 99.9105L44.0703 101.783L42.7964 104.249L45.2593 111.482L53.679 119.807L53.6731 119.804Z" fill="#0E0F0D"/>
<path d="M41.1626 107.399C45.6902 114.329 53.4304 121.721 59.7766 124.906L61.5133 125.778C65.9208 127.992 71.037 127.733 75.2366 125.088L78.2178 123.21C79.7143 122.267 80.3996 120.069 79.7407 118.325L79.2487 117.022C79.1374 118.961 78.1446 120.708 76.6042 121.68L75.5792 122.325C71.3767 124.97 66.2605 125.229 61.8559 123.015L60.1193 122.143C56.5142 120.331 52.4552 117.162 48.7915 113.492C47.8397 112.536 46.8089 111.399 45.9245 110.393L44.0648 101.773L41.1597 107.393L41.1626 107.399Z" fill="#0E0F0D"/>
<path d="M64.9573 101.811C65.8417 103.245 67.6896 103.712 69.0631 102.849L72.9581 100.396L73.7489 76.2245C73.5966 75.001 72.841 74.5601 71.4734 75.4195L66.2195 78.7292C64.2368 79.9783 61.9467 82.0484 59.6243 84.4349L59.1792 92.4471L64.9573 101.811Z" fill="#0E0F0D"/>
<path d="M30.5438 49.7605L27.3604 49.5305C26.6605 49.4794 25.9694 50.0513 25.8259 50.802L25.0469 54.8688C24.9326 55.4567 25.0469 56.3767 25.2958 56.9103L25.8229 58.0412L30.5467 49.7637L30.5438 49.7605Z" fill="#0E0F0D" stroke="#0E0F0D" stroke-linecap="round" stroke-linejoin="round"/>
<path d="M41.1626 107.4L66.5475 91.4134L70.9374 84.4138C72.7326 81.5482 73.6815 78.7879 73.7723 76.9989C73.8631 75.2099 73.0987 74.392 71.4704 75.4175L66.2165 78.7272C59.6507 82.8612 49.714 95.9882 46.4106 99.908L44.0648 101.78L41.1597 107.4H41.1626Z" fill="#118338" stroke="#0E0F0D" stroke-linecap="round" stroke-linejoin="round"/>
<path d="M48.5156 97.332L51.6756 100.776" stroke="#0E0F0D" stroke-linecap="round" stroke-linejoin="round"/>
<path d="M53.3683 99.7095L49.769 95.7832" stroke="#0E0F0D" stroke-linecap="round" stroke-linejoin="round"/>
<path d="M49.1426 96.5566L52.5222 100.243" stroke="#0E0F0D" stroke-linecap="round" stroke-linejoin="round"/>
<path d="M55.061 98.6457L51.0254 94.2402" stroke="#0E0F0D" stroke-linecap="round" stroke-linejoin="round"/>
<path d="M50.396 95.0098L54.2149 99.1788" stroke="#0E0F0D" stroke-linecap="round" stroke-linejoin="round"/>
<path d="M51.6548 93.4727L55.9071 98.1113" stroke="#0E0F0D" stroke-linecap="round" stroke-linejoin="round"/>
<path d="M58.4493 96.5123L53.5645 91.1836" stroke="#0E0F0D" stroke-linecap="round" stroke-linejoin="round"/>
<path d="M52.9263 91.9434L57.6003 97.0453" stroke="#0E0F0D" stroke-linecap="round" stroke-linejoin="round"/>
<path d="M52.2876 92.707L56.7537 97.5789" stroke="#0E0F0D" stroke-linecap="round" stroke-linejoin="round"/>
<path d="M50.8294 101.31L47.8921 98.1055" stroke="#0E0F0D" stroke-linecap="round" stroke-linejoin="round"/>
<path d="M47.2622 98.8789L49.9829 101.844" stroke="#0E0F0D" stroke-linecap="round" stroke-linejoin="round"/>
<path d="M43.2091 106.108L42.3276 105.146" stroke="#0E0F0D" stroke-linecap="round" stroke-linejoin="round"/>
<path d="M41.8447 106.076L42.3631 106.642" stroke="#0E0F0D" stroke-linecap="round" stroke-linejoin="round"/>
<path d="M44.9022 105.04L43.2886 103.283" stroke="#0E0F0D" stroke-linecap="round" stroke-linejoin="round"/>
<path d="M42.8081 104.213L44.0557 105.574" stroke="#0E0F0D" stroke-linecap="round" stroke-linejoin="round"/>
<path d="M46.5978 103.977L44.3633 101.543" stroke="#0E0F0D" stroke-linecap="round" stroke-linejoin="round"/>
<path d="M43.7715 102.352L45.7483 104.511" stroke="#0E0F0D" stroke-linecap="round" stroke-linejoin="round"/>
<path d="M46.6328 99.6445L49.1367 102.376" stroke="#0E0F0D" stroke-linecap="round" stroke-linejoin="round"/>
<path d="M48.2906 102.911L45.9067 100.311" stroke="#0E0F0D" stroke-linecap="round" stroke-linejoin="round"/>
<path d="M45.1362 100.926L47.4439 103.443" stroke="#0E0F0D" stroke-linecap="round" stroke-linejoin="round"/>
<path d="M60.142 95.4434L54.853 89.6738" stroke="#0E0F0D" stroke-linecap="round" stroke-linejoin="round"/>
<path d="M54.2061 90.4297L59.2959 95.9789" stroke="#0E0F0D" stroke-linecap="round" stroke-linejoin="round"/>
<path d="M55.5005 88.9277L60.9886 94.9114" stroke="#0E0F0D" stroke-linecap="round" stroke-linejoin="round"/>
<path d="M72.1258 82.2985L67.8882 77.6758" stroke="#0E0F0D" stroke-linecap="round" stroke-linejoin="round"/>
<path d="M67.0391 78.2051L71.6369 83.2207" stroke="#0E0F0D" stroke-linecap="round" stroke-linejoin="round"/>
<path d="M70.5796 84.9802L65.3696 79.2969" stroke="#0E0F0D" stroke-linecap="round" stroke-linejoin="round"/>
<path d="M64.5762 79.8887L70.038 85.8468" stroke="#0E0F0D" stroke-linecap="round" stroke-linejoin="round"/>
<path d="M66.1953 78.7422L71.1182 84.1125" stroke="#0E0F0D" stroke-linecap="round" stroke-linejoin="round"/>
<path d="M72.1758 75.0684L73.7777 76.8159" stroke="#0E0F0D" stroke-linecap="round" stroke-linejoin="round"/>
<path d="M68.7344 77.1426L72.5737 81.334" stroke="#0E0F0D" stroke-linecap="round" stroke-linejoin="round"/>
<path d="M73.6285 78.1095L71.2739 75.541" stroke="#0E0F0D" stroke-linecap="round" stroke-linejoin="round"/>
<path d="M70.4277 76.0742L73.3446 79.2561" stroke="#0E0F0D" stroke-linecap="round" stroke-linejoin="round"/>
<path d="M69.5811 76.6074L72.987 80.3228" stroke="#0E0F0D" stroke-linecap="round" stroke-linejoin="round"/>
<path d="M64.3741 92.7795L58.1479 85.9844" stroke="#0E0F0D" stroke-linecap="round" stroke-linejoin="round"/>
<path d="M57.4771 86.7129L63.5275 93.3131" stroke="#0E0F0D" stroke-linecap="round" stroke-linejoin="round"/>
<path d="M58.8213 85.2656L65.2202 92.246" stroke="#0E0F0D" stroke-linecap="round" stroke-linejoin="round"/>
<path d="M62.6814 93.8455L56.8154 87.4434" stroke="#0E0F0D" stroke-linecap="round" stroke-linejoin="round"/>
<path d="M56.1562 88.1816L61.8348 94.3793" stroke="#0E0F0D" stroke-linecap="round" stroke-linejoin="round"/>
<path d="M69.4934 86.7099L63.8062 80.5059" stroke="#0E0F0D" stroke-linecap="round" stroke-linejoin="round"/>
<path d="M63.0562 81.1445L68.9514 87.5754" stroke="#0E0F0D" stroke-linecap="round" stroke-linejoin="round"/>
<path d="M68.4093 88.4406L62.3237 81.7988" stroke="#0E0F0D" stroke-linecap="round" stroke-linejoin="round"/>
<path d="M61.6035 82.4707L67.8677 89.3073" stroke="#0E0F0D" stroke-linecap="round" stroke-linejoin="round"/>
<path d="M59.5039 84.5527L66.0668 91.712" stroke="#0E0F0D" stroke-linecap="round" stroke-linejoin="round"/>
<path d="M67.3232 90.1698L60.8921 83.1543" stroke="#0E0F0D" stroke-linecap="round" stroke-linejoin="round"/>
<path d="M60.1948 83.8496L66.7812 91.0345" stroke="#0E0F0D" stroke-linecap="round" stroke-linejoin="round"/>
<path d="M41.1626 107.4C45.6902 114.329 53.4304 121.721 59.7766 124.907L61.5133 125.779C65.9208 127.993 71.037 127.734 75.2366 125.089L78.2178 123.21C79.7143 122.268 80.3996 120.07 79.7407 118.325L79.2487 117.022L72.9581 100.394L73.7488 76.2227" stroke="white" stroke-linecap="round" stroke-linejoin="round"/>
<path d="M76.9059 124.038C78.4258 122.993 79.0496 120.683 78.2911 118.907L72.3256 104.943C71.5583 103.144 70.9287 100.052 70.9258 98.068L70.9082 75.8105" stroke="white" stroke-linecap="round" stroke-linejoin="round"/>
<path d="M46.5127 114.224L69.7626 99.5028L72.7879 91.5449C73.151 90.5928 73.3091 89.4843 73.3267 89.1297C73.4029 87.6569 72.6531 87.0627 71.3206 87.9061L67.0215 90.628C61.6476 94.0303 47.5699 112.167 47.5699 112.167L46.5127 114.224Z" stroke="white" stroke-linecap="round" stroke-linejoin="round"/>
<path d="M54.7393 121.652L74.1791 109.342C74.1791 109.342 74.9288 105.605 74.3256 104.007C73.9683 103.065 73.2478 102.279 72.2843 102.889L67.6396 105.831C63.7651 108.285 55.486 119.252 55.486 119.252L54.7393 121.652Z" stroke="white" stroke-linecap="round" stroke-linejoin="round"/>
<path d="M77.8807 117.945L78.2994 116.172C78.8412 113.878 76.7619 113.917 75.8014 114.527L71.8566 117.028C69.7334 118.373 66.8546 120.504 65.7681 123.427L64.5029 126.83" stroke="white" stroke-linecap="round" stroke-linejoin="round"/>
<path d="M66.6352 127.226L68.0848 126.143C69.6369 124.983 70.1699 122.565 69.2679 120.763L61.065 104.412C60.0254 102.342 59.2317 98.7195 59.2961 96.3618L59.6241 84.4297" stroke="white" stroke-linecap="round" stroke-linejoin="round"/>
<path d="M73.7723 76.9989C73.8631 75.2099 73.0987 74.392 71.4704 75.4175L66.2165 78.7272C59.6507 82.8612 49.714 95.9882 46.4106 99.908L44.0648 101.78L41.1597 107.4" stroke="#0E0F0D" stroke-linecap="round" stroke-linejoin="round"/>
<path d="M79.2488 117.026C79.1375 118.965 78.1448 120.712 76.6043 121.683L75.5793 122.329C71.3768 124.974 66.2606 125.233 61.856 123.019L60.1194 122.147C56.5143 120.335 52.4553 117.166 48.7917 113.495C48.2616 112.965 47.7081 112.377 47.1663 111.786C46.3551 110.898 45.7928 109.793 45.5322 108.572L44.0679 101.777" stroke="white" stroke-linecap="round" stroke-linejoin="round"/>
<path d="M59.6253 69.9217C59.6929 68.7348 58.8658 67.7128 57.7778 67.639C56.6897 67.5651 55.7528 68.4674 55.6852 69.6543L55.3513 75.5085C55.2836 76.6954 56.1107 77.7174 57.1988 77.7912C58.2868 77.8651 59.2237 76.9628 59.2914 75.7759L59.6253 69.9217Z" stroke="#0E0F0D" stroke-linecap="round" stroke-linejoin="round"/>
<path d="M48.4985 60.8302C74.7312 60.8302 95.9971 47.4367 95.9971 30.9151C95.9971 14.3934 74.7312 1 48.4985 1C22.2658 1 1 14.3934 1 30.9151C1 47.4367 22.2658 60.8302 48.4985 60.8302Z" stroke="#0E0F0D" stroke-linecap="round" stroke-linejoin="round"/>
</g>
<defs>
<clipPath id="clip0_3222_13221">
<rect width="97" height="157" fill="white"/>
</clipPath>
</defs>
</svg>
